<svg xmlns="http://www.w3.org/2000/svg" xmlns:xlink="http://www.w3.org/1999/xlink" version="1.1" class="marks" width="310" height="110" ><g fill="none" stroke-miterlimit="10" transform="translate(5,5)"><g class="mark-group role-frame root" role="graphics-object" aria-roledescription="group mark container"><g transform="translate(0,0)"><path class="background" aria-hidden="true" d="M0,0h300v100h-300Z" stroke="#ddd" stroke-width="0"/><g><g class="mark-rect role-mark marks" role="graphics-symbol" aria-roledescription="rect mark container"><path d="M7.500000000000004,97.42857142857143h6.428571428571429v2.5714285714285694h-6.428571428571429Z" fill="#D2D4CE"/><path d="M14.642857142857148,97.42857142857143h6.428571428571429v2.5714285714285694h-6.428571428571429Z" fill="#D2D4CE"/><path d="M21.785714285714292,92.85714285714286h6.428571428571429v7.142857142857139h-6.428571428571429Z" fill="#D2D4CE"/><path d="M28.928571428571434,92.85714285714286h6.428571428571429v7.142857142857139h-6.428571428571429Z" fill="#D2D4CE"/><path d="M36.07142857142858,84.28571428571429h6.428571428571429v15.714285714285708h-6.428571428571429Z" fill="#D2D4CE"/><path d="M43.21428571428572,84.28571428571429h6.428571428571429v15.714285714285708h-6.428571428571429Z" fill="#D2D4CE"/><path d="M50.35714285714286,78.57142857142857h6.428571428571429v21.42857142857143h-6.428571428571429Z" fill="#00923E"/><path d="M57.50000000000001,74.57142857142858h6.428571428571429v25.428571428571416h-6.428571428571429Z" fill="#D2D4CE"/><path d="M64.64285714285715,74.57142857142858h6.428571428571429v25.428571428571416h-6.428571428571429Z" fill="#D2D4CE"/><path d="M71.78571428571429,74.57142857142858h6.428571428571429v25.428571428571416h-6.428571428571429Z" fill="#D2D4CE"/><path d="M78.92857142857143,74.28571428571429h6.428571428571429v25.714285714285708h-6.428571428571429Z" fill="#D2D4CE"/><path d="M86.07142857142858,72h6.428571428571429v28h-6.428571428571429Z" fill="#D2D4CE"/><path d="M93.21428571428572,72h6.428571428571429v28h-6.428571428571429Z" fill="#D2D4CE"/><path d="M100.35714285714286,72h6.428571428571429v28h-6.428571428571429Z" fill="#D2D4CE"/><path d="M107.50000000000001,71.71428571428571h6.428571428571429v28.285714285714292h-6.428571428571429Z" fill="#D2D4CE"/><path d="M114.64285714285715,70.85714285714286h6.428571428571429v29.14285714285714h-6.428571428571429Z" fill="#D2D4CE"/><path d="M121.78571428571429,68.85714285714286h6.428571428571429v31.14285714285714h-6.428571428571429Z" fill="#D2D4CE"/><path d="M128.92857142857144,68.28571428571428h6.428571428571429v31.714285714285722h-6.428571428571429Z" fill="#D2D4CE"/><path d="M136.07142857142858,68.28571428571428h6.428571428571429v31.714285714285722h-6.428571428571429Z" fill="#D2D4CE"/><path d="M143.21428571428572,67.42857142857143h6.428571428571429v32.57142857142857h-6.428571428571429Z" fill="#D2D4CE"/><path d="M150.35714285714286,65.71428571428571h6.428571428571429v34.28571428571429h-6.428571428571429Z" fill="#D2D4CE"/><path d="M157.5,65.71428571428571h6.428571428571429v34.28571428571429h-6.428571428571429Z" fill="#D2D4CE"/><path d="M164.64285714285717,65.14285714285715h6.428571428571429v34.85714285714285h-6.428571428571429Z" fill="#D2D4CE"/><path d="M171.7857142857143,61.142857142857146h6.428571428571429v38.857142857142854h-6.428571428571429Z" fill="#D2D4CE"/><path d="M178.92857142857144,57.714285714285715h6.428571428571429v42.285714285714285h-6.428571428571429Z" fill="#D2D4CE"/><path d="M186.07142857142858,56.57142857142857h6.428571428571429v43.42857142857143h-6.428571428571429Z" fill="#D2D4CE"/><path d="M193.21428571428572,54.85714285714285h6.428571428571429v45.14285714285715h-6.428571428571429Z" fill="#D2D4CE"/><path d="M200.35714285714286,54.28571428571429h6.428571428571429v45.71428571428571h-6.428571428571429Z" fill="#D2D4CE"/><path d="M207.50000000000003,53.42857142857142h6.428571428571429v46.57142857142858h-6.428571428571429Z" fill="#D2D4CE"/><path d="M214.64285714285717,50.57142857142857h6.428571428571429v49.42857142857143h-6.428571428571429Z" fill="#D2D4CE"/><path d="M221.7857142857143,46.857142857142854h6.428571428571429v53.142857142857146h-6.428571428571429Z" fill="#D2D4CE"/><path d="M228.92857142857144,41.99999999999999h6.428571428571429v58.00000000000001h-6.428571428571429Z" fill="#D2D4CE"/><path d="M236.07142857142858,40h6.428571428571429v60h-6.428571428571429Z" fill="#D2D4CE"/><path d="M243.21428571428572,23.714285714285722h6.428571428571429v76.28571428571428h-6.428571428571429Z" fill="#D2D4CE"/><path d="M250.35714285714286,13.714285714285712h6.428571428571429v86.28571428571429h-6.428571428571429Z" fill="#D2D4CE"/><path d="M257.5,11.714285714285722h6.428571428571429v88.28571428571428h-6.428571428571429Z" fill="#D2D4CE"/><path d="M264.6428571428571,11.714285714285722h6.428571428571429v88.28571428571428h-6.428571428571429Z" fill="#D2D4CE"/><path d="M271.78571428571433,11.714285714285722h6.428571428571429v88.28571428571428h-6.428571428571429Z" fill="#D2D4CE"/><path d="M278.92857142857144,9.714285714285708h6.428571428571429v90.28571428571429h-6.428571428571429Z" fill="#D2D4CE"/><path d="M286.07142857142856,6.571428571428561h6.428571428571429v93.42857142857144h-6.428571428571429Z" fill="#D2D4CE"/><path d="M293.2142857142858,6.000000000000005h6.428571428571429v94h-6.428571428571429Z" fill="#D2D4CE"/></g></g><path class="foreground" aria-hidden="true" d="" display="none"/></g></g></g></svg>