<svg xmlns="http://www.w3.org/2000/svg" xmlns:xlink="http://www.w3.org/1999/xlink" version="1.1" class="marks" width="310" height="110" ><g fill="none" stroke-miterlimit="10" transform="translate(5,5)"><g class="mark-group role-frame root" role="graphics-object" aria-roledescription="group mark container"><g transform="translate(0,0)"><path class="background" aria-hidden="true" d="M0,0h300v100h-300Z" stroke="#ddd" stroke-width="0"/><g><g class="mark-rect role-mark marks" role="graphics-symbol" aria-roledescription="rect mark container"><path d="M0.3571428571428612,30.400000000000006h6.428571428571429v69.6h-6.428571428571429Z" fill="#D2D4CE"/><path d="M7.500000000000004,23.7h6.428571428571429v76.3h-6.428571428571429Z" fill="#D2D4CE"/><path d="M14.642857142857148,19.400000000000006h6.428571428571429v80.6h-6.428571428571429Z" fill="#D2D4CE"/><path d="M21.785714285714292,17.900000000000006h6.428571428571429v82.1h-6.428571428571429Z" fill="#D2D4CE"/><path d="M28.928571428571434,17.400000000000006h6.428571428571429v82.6h-6.428571428571429Z" fill="#D2D4CE"/><path d="M36.07142857142858,15.700000000000003h6.428571428571429v84.3h-6.428571428571429Z" fill="#D2D4CE"/><path d="M43.21428571428572,14.700000000000003h6.428571428571429v85.3h-6.428571428571429Z" fill="#D2D4CE"/><path d="M50.35714285714286,14.200000000000001h6.428571428571429v85.8h-6.428571428571429Z" fill="#D2D4CE"/><path d="M57.50000000000001,14.000000000000002h6.428571428571429v86h-6.428571428571429Z" fill="#D2D4CE"/><path d="M64.64285714285715,14.000000000000002h6.428571428571429v86h-6.428571428571429Z" fill="#00923E"/><path d="M71.78571428571429,13.700000000000001h6.428571428571429v86.3h-6.428571428571429Z" fill="#D2D4CE"/><path d="M78.92857142857143,13.59999999999999h6.428571428571429v86.4h-6.428571428571429Z" fill="#D2D4CE"/><path d="M86.07142857142858,13.3h6.428571428571429v86.7h-6.428571428571429Z" fill="#D2D4CE"/><path d="M93.21428571428572,13h6.428571428571429v87h-6.428571428571429Z" fill="#D2D4CE"/><path d="M100.35714285714286,12.599999999999989h6.428571428571429v87.4h-6.428571428571429Z" fill="#D2D4CE"/><path d="M107.50000000000001,12.599999999999989h6.428571428571429v87.4h-6.428571428571429Z" fill="#D2D4CE"/><path d="M114.64285714285715,12.5h6.428571428571429v87.5h-6.428571428571429Z" fill="#D2D4CE"/><path d="M121.78571428571429,12.5h6.428571428571429v87.5h-6.428571428571429Z" fill="#D2D4CE"/><path d="M128.92857142857144,12.2h6.428571428571429v87.8h-6.428571428571429Z" fill="#D2D4CE"/><path d="M136.07142857142858,11.799999999999999h6.428571428571429v88.2h-6.428571428571429Z" fill="#D2D4CE"/><path d="M143.21428571428572,11.2h6.428571428571429v88.8h-6.428571428571429Z" fill="#D2D4CE"/><path d="M150.35714285714286,11.2h6.428571428571429v88.8h-6.428571428571429Z" fill="#D2D4CE"/><path d="M157.5,10.999999999999998h6.428571428571429v89h-6.428571428571429Z" fill="#D2D4CE"/><path d="M164.64285714285717,10.599999999999998h6.428571428571429v89.4h-6.428571428571429Z" fill="#D2D4CE"/><path d="M171.7857142857143,9.499999999999996h6.428571428571429v90.5h-6.428571428571429Z" fill="#D2D4CE"/><path d="M178.92857142857144,8.599999999999996h6.428571428571429v91.4h-6.428571428571429Z" fill="#D2D4CE"/><path d="M186.07142857142858,8.200000000000006h6.428571428571429v91.8h-6.428571428571429Z" fill="#D2D4CE"/><path d="M193.21428571428572,7.9999999999999964h6.428571428571429v92h-6.428571428571429Z" fill="#D2D4CE"/><path d="M200.35714285714286,7.9999999999999964h6.428571428571429v92h-6.428571428571429Z" fill="#D2D4CE"/><path d="M207.50000000000003,7.9999999999999964h6.428571428571429v92h-6.428571428571429Z" fill="#D2D4CE"/><path d="M214.64285714285717,7.599999999999996h6.428571428571429v92.4h-6.428571428571429Z" fill="#D2D4CE"/><path d="M221.7857142857143,7.400000000000007h6.428571428571429v92.6h-6.428571428571429Z" fill="#D2D4CE"/><path d="M228.92857142857144,7.200000000000006h6.428571428571429v92.8h-6.428571428571429Z" fill="#D2D4CE"/><path d="M236.07142857142858,7.099999999999995h6.428571428571429v92.9h-6.428571428571429Z" fill="#D2D4CE"/><path d="M243.21428571428572,6.999999999999995h6.428571428571429v93h-6.428571428571429Z" fill="#D2D4CE"/><path d="M250.35714285714286,6.700000000000006h6.428571428571429v93.3h-6.428571428571429Z" fill="#D2D4CE"/><path d="M257.5,5.900000000000006h6.428571428571429v94.1h-6.428571428571429Z" fill="#D2D4CE"/><path d="M264.6428571428571,5.000000000000004h6.428571428571429v95h-6.428571428571429Z" fill="#D2D4CE"/><path d="M271.78571428571433,4.799999999999994h6.428571428571429v95.2h-6.428571428571429Z" fill="#D2D4CE"/><path d="M278.92857142857144,4.200000000000004h6.428571428571429v95.8h-6.428571428571429Z" fill="#D2D4CE"/><path d="M286.07142857142856,3.7000000000000033h6.428571428571429v96.3h-6.428571428571429Z" fill="#D2D4CE"/><path d="M293.2142857142858,3.599999999999992h6.428571428571429v96.4h-6.428571428571429Z" fill="#D2D4CE"/></g></g><path class="foreground" aria-hidden="true" d="" display="none"/></g></g></g></svg>