<svg xmlns="http://www.w3.org/2000/svg" xmlns:xlink="http://www.w3.org/1999/xlink" version="1.1" class="marks" width="310" height="110" ><g fill="none" stroke-miterlimit="10" transform="translate(5,5)"><g class="mark-group role-frame root" role="graphics-object" aria-roledescription="group mark container"><g transform="translate(0,0)"><path class="background" aria-hidden="true" d="M0,0h300v100h-300Z" stroke="#ddd" stroke-width="0"/><g><g class="mark-rect role-mark marks" role="graphics-symbol" aria-roledescription="rect mark container"><path d="M57.50000000000001,100h6.428571428571429v0h-6.428571428571429Z" fill="#D2D4CE"/><path d="M64.64285714285715,93.07692307692308h6.428571428571429v6.92307692307692h-6.428571428571429Z" fill="#D2D4CE"/><path d="M71.78571428571429,90.76923076923077h6.428571428571429v9.230769230769226h-6.428571428571429Z" fill="#D2D4CE"/><path d="M78.92857142857143,88.46153846153845h6.428571428571429v11.538461538461547h-6.428571428571429Z" fill="#00923E"/><path d="M86.07142857142858,84.61538461538461h6.428571428571429v15.384615384615387h-6.428571428571429Z" fill="#D2D4CE"/><path d="M93.21428571428572,84.61538461538461h6.428571428571429v15.384615384615387h-6.428571428571429Z" fill="#D2D4CE"/><path d="M100.35714285714286,82.3076923076923h6.428571428571429v17.692307692307693h-6.428571428571429Z" fill="#D2D4CE"/><path d="M107.50000000000001,82.3076923076923h6.428571428571429v17.692307692307693h-6.428571428571429Z" fill="#D2D4CE"/><path d="M114.64285714285715,81.53846153846153h6.428571428571429v18.461538461538467h-6.428571428571429Z" fill="#D2D4CE"/><path d="M121.78571428571429,81.53846153846153h6.428571428571429v18.461538461538467h-6.428571428571429Z" fill="#D2D4CE"/><path d="M128.92857142857144,81.53846153846153h6.428571428571429v18.461538461538467h-6.428571428571429Z" fill="#D2D4CE"/><path d="M136.07142857142858,80.76923076923077h6.428571428571429v19.230769230769226h-6.428571428571429Z" fill="#D2D4CE"/><path d="M143.21428571428572,76.15384615384615h6.428571428571429v23.846153846153854h-6.428571428571429Z" fill="#D2D4CE"/><path d="M150.35714285714286,73.84615384615385h6.428571428571429v26.153846153846146h-6.428571428571429Z" fill="#D2D4CE"/><path d="M157.5,73.07692307692308h6.428571428571429v26.92307692307692h-6.428571428571429Z" fill="#D2D4CE"/><path d="M164.64285714285717,72.3076923076923h6.428571428571429v27.692307692307693h-6.428571428571429Z" fill="#D2D4CE"/><path d="M171.7857142857143,72.3076923076923h6.428571428571429v27.692307692307693h-6.428571428571429Z" fill="#D2D4CE"/><path d="M178.92857142857144,72.3076923076923h6.428571428571429v27.692307692307693h-6.428571428571429Z" fill="#D2D4CE"/><path d="M186.07142857142858,70h6.428571428571429v30h-6.428571428571429Z" fill="#D2D4CE"/><path d="M193.21428571428572,70h6.428571428571429v30h-6.428571428571429Z" fill="#D2D4CE"/><path d="M200.35714285714286,70h6.428571428571429v30h-6.428571428571429Z" fill="#D2D4CE"/><path d="M207.50000000000003,63.84615384615384h6.428571428571429v36.15384615384616h-6.428571428571429Z" fill="#D2D4CE"/><path d="M214.64285714285717,60h6.428571428571429v40h-6.428571428571429Z" fill="#D2D4CE"/><path d="M221.7857142857143,60h6.428571428571429v40h-6.428571428571429Z" fill="#D2D4CE"/><path d="M228.92857142857144,57.692307692307686h6.428571428571429v42.307692307692314h-6.428571428571429Z" fill="#D2D4CE"/><path d="M236.07142857142858,56.15384615384615h6.428571428571429v43.84615384615385h-6.428571428571429Z" fill="#D2D4CE"/><path d="M243.21428571428572,53.84615384615385h6.428571428571429v46.15384615384615h-6.428571428571429Z" fill="#D2D4CE"/><path d="M250.35714285714286,53.84615384615385h6.428571428571429v46.15384615384615h-6.428571428571429Z" fill="#D2D4CE"/><path d="M257.5,53.84615384615385h6.428571428571429v46.15384615384615h-6.428571428571429Z" fill="#D2D4CE"/><path d="M264.6428571428571,53.07692307692308h6.428571428571429v46.92307692307692h-6.428571428571429Z" fill="#D2D4CE"/><path d="M271.78571428571433,49.23076923076923h6.428571428571429v50.76923076923077h-6.428571428571429Z" fill="#D2D4CE"/><path d="M278.92857142857144,39.230769230769226h6.428571428571429v60.769230769230774h-6.428571428571429Z" fill="#D2D4CE"/><path d="M286.07142857142856,38.46153846153846h6.428571428571429v61.53846153846154h-6.428571428571429Z" fill="#D2D4CE"/><path d="M293.2142857142858,3.076923076923077h6.428571428571429v96.92307692307692h-6.428571428571429Z" fill="#D2D4CE"/></g></g><path class="foreground" aria-hidden="true" d="" display="none"/></g></g></g></svg>