<svg xmlns="http://www.w3.org/2000/svg" xmlns:xlink="http://www.w3.org/1999/xlink" version="1.1" class="marks" width="310" height="110" ><g fill="none" stroke-miterlimit="10" transform="translate(5,5)"><g class="mark-group role-frame root" role="graphics-object" aria-roledescription="group mark container"><g transform="translate(0,0)"><path class="background" aria-hidden="true" d="M0,0h300v100h-300Z" stroke="#ddd" stroke-width="0"/><g><g class="mark-rect role-mark marks" role="graphics-symbol" aria-roledescription="rect mark container"><path d="M0.3571428571428612,76.25h6.428571428571429v23.75h-6.428571428571429Z" fill="#D2D4CE"/><path d="M7.500000000000004,67.75h6.428571428571429v32.25h-6.428571428571429Z" fill="#D2D4CE"/><path d="M14.642857142857148,66.75h6.428571428571429v33.25h-6.428571428571429Z" fill="#D2D4CE"/><path d="M21.785714285714292,61.25000000000001h6.428571428571429v38.74999999999999h-6.428571428571429Z" fill="#D2D4CE"/><path d="M28.928571428571434,56.50000000000001h6.428571428571429v43.49999999999999h-6.428571428571429Z" fill="#D2D4CE"/><path d="M36.07142857142858,56.50000000000001h6.428571428571429v43.49999999999999h-6.428571428571429Z" fill="#D2D4CE"/><path d="M43.21428571428572,54.50000000000001h6.428571428571429v45.49999999999999h-6.428571428571429Z" fill="#D2D4CE"/><path d="M50.35714285714286,53.49999999999999h6.428571428571429v46.50000000000001h-6.428571428571429Z" fill="#D2D4CE"/><path d="M57.50000000000001,53.25h6.428571428571429v46.75h-6.428571428571429Z" fill="#D2D4CE"/><path d="M64.64285714285715,53h6.428571428571429v47h-6.428571428571429Z" fill="#D2D4CE"/><path d="M71.78571428571429,52.75000000000001h6.428571428571429v47.24999999999999h-6.428571428571429Z" fill="#D2D4CE"/><path d="M78.92857142857143,52.5h6.428571428571429v47.5h-6.428571428571429Z" fill="#D2D4CE"/><path d="M86.07142857142858,50.75000000000001h6.428571428571429v49.24999999999999h-6.428571428571429Z" fill="#D2D4CE"/><path d="M93.21428571428572,50h6.428571428571429v50h-6.428571428571429Z" fill="#D2D4CE"/><path d="M100.35714285714286,49.24999999999999h6.428571428571429v50.75000000000001h-6.428571428571429Z" fill="#D2D4CE"/><path d="M107.50000000000001,48.75000000000001h6.428571428571429v51.24999999999999h-6.428571428571429Z" fill="#D2D4CE"/><path d="M114.64285714285715,48.5h6.428571428571429v51.5h-6.428571428571429Z" fill="#D2D4CE"/><path d="M121.78571428571429,48h6.428571428571429v52h-6.428571428571429Z" fill="#00923E"/><path d="M128.92857142857144,46.50000000000001h6.428571428571429v53.49999999999999h-6.428571428571429Z" fill="#D2D4CE"/><path d="M136.07142857142858,45.75h6.428571428571429v54.25h-6.428571428571429Z" fill="#D2D4CE"/><path d="M143.21428571428572,43.25h6.428571428571429v56.75h-6.428571428571429Z" fill="#D2D4CE"/><path d="M150.35714285714286,43.25h6.428571428571429v56.75h-6.428571428571429Z" fill="#D2D4CE"/><path d="M157.5,42.75h6.428571428571429v57.25h-6.428571428571429Z" fill="#D2D4CE"/><path d="M164.64285714285717,40.25000000000001h6.428571428571429v59.74999999999999h-6.428571428571429Z" fill="#D2D4CE"/><path d="M171.7857142857143,39h6.428571428571429v61h-6.428571428571429Z" fill="#D2D4CE"/><path d="M178.92857142857144,38.74999999999999h6.428571428571429v61.25000000000001h-6.428571428571429Z" fill="#D2D4CE"/><path d="M186.07142857142858,38.74999999999999h6.428571428571429v61.25000000000001h-6.428571428571429Z" fill="#D2D4CE"/><path d="M193.21428571428572,38.5h6.428571428571429v61.5h-6.428571428571429Z" fill="#D2D4CE"/><path d="M200.35714285714286,38.25000000000001h6.428571428571429v61.74999999999999h-6.428571428571429Z" fill="#D2D4CE"/><path d="M207.50000000000003,38h6.428571428571429v62h-6.428571428571429Z" fill="#D2D4CE"/><path d="M214.64285714285717,36.25000000000001h6.428571428571429v63.74999999999999h-6.428571428571429Z" fill="#D2D4CE"/><path d="M221.7857142857143,33.25h6.428571428571429v66.75h-6.428571428571429Z" fill="#D2D4CE"/><path d="M228.92857142857144,33.25h6.428571428571429v66.75h-6.428571428571429Z" fill="#D2D4CE"/><path d="M236.07142857142858,32.49999999999999h6.428571428571429v67.5h-6.428571428571429Z" fill="#D2D4CE"/><path d="M243.21428571428572,32.00000000000001h6.428571428571429v68h-6.428571428571429Z" fill="#D2D4CE"/><path d="M250.35714285714286,25h6.428571428571429v75h-6.428571428571429Z" fill="#D2D4CE"/><path d="M257.5,24.5h6.428571428571429v75.5h-6.428571428571429Z" fill="#D2D4CE"/><path d="M264.6428571428571,22.249999999999993h6.428571428571429v77.75h-6.428571428571429Z" fill="#D2D4CE"/><path d="M271.78571428571433,12.750000000000005h6.428571428571429v87.25h-6.428571428571429Z" fill="#D2D4CE"/><path d="M278.92857142857144,11.99999999999999h6.428571428571429v88.00000000000001h-6.428571428571429Z" fill="#D2D4CE"/><path d="M286.07142857142856,9.999999999999998h6.428571428571429v90h-6.428571428571429Z" fill="#D2D4CE"/><path d="M293.2142857142858,9.999999999999998h6.428571428571429v90h-6.428571428571429Z" fill="#D2D4CE"/></g></g><path class="foreground" aria-hidden="true" d="" display="none"/></g></g></g></svg>