<svg xmlns="http://www.w3.org/2000/svg" xmlns:xlink="http://www.w3.org/1999/xlink" version="1.1" class="marks" width="310" height="110" ><g fill="none" stroke-miterlimit="10" transform="translate(5,5)"><g class="mark-group role-frame root" role="graphics-object" aria-roledescription="group mark container"><g transform="translate(0,0)"><path class="background" aria-hidden="true" d="M0,0h300v100h-300Z" stroke="#ddd" stroke-width="0"/><g><g class="mark-rect role-mark marks" role="graphics-symbol" aria-roledescription="rect mark container"><path d="M150.35714285714286,41.6h6.428571428571429v58.4h-6.428571428571429Z" fill="#D2D4CE"/><path d="M157.5,31.000000000000007h6.428571428571429v69h-6.428571428571429Z" fill="#D2D4CE"/><path d="M164.64285714285717,28.400000000000002h6.428571428571429v71.6h-6.428571428571429Z" fill="#D2D4CE"/><path d="M171.7857142857143,26.5h6.428571428571429v73.5h-6.428571428571429Z" fill="#D2D4CE"/><path d="M178.92857142857144,26.3h6.428571428571429v73.7h-6.428571428571429Z" fill="#D2D4CE"/><path d="M186.07142857142858,24.3h6.428571428571429v75.7h-6.428571428571429Z" fill="#D2D4CE"/><path d="M193.21428571428572,24.2h6.428571428571429v75.8h-6.428571428571429Z" fill="#D2D4CE"/><path d="M200.35714285714286,23.2h6.428571428571429v76.8h-6.428571428571429Z" fill="#D2D4CE"/><path d="M207.50000000000003,21.200000000000006h6.428571428571429v78.8h-6.428571428571429Z" fill="#D2D4CE"/><path d="M214.64285714285717,20.799999999999997h6.428571428571429v79.2h-6.428571428571429Z" fill="#D2D4CE"/><path d="M221.7857142857143,17.200000000000003h6.428571428571429v82.8h-6.428571428571429Z" fill="#D2D4CE"/><path d="M228.92857142857144,16.400000000000002h6.428571428571429v83.6h-6.428571428571429Z" fill="#D2D4CE"/><path d="M236.07142857142858,15.200000000000003h6.428571428571429v84.8h-6.428571428571429Z" fill="#D2D4CE"/><path d="M243.21428571428572,13.3h6.428571428571429v86.7h-6.428571428571429Z" fill="#D2D4CE"/><path d="M250.35714285714286,11.799999999999999h6.428571428571429v88.2h-6.428571428571429Z" fill="#D2D4CE"/><path d="M257.5,9.40000000000001h6.428571428571429v90.6h-6.428571428571429Z" fill="#D2D4CE"/><path d="M264.6428571428571,9.299999999999997h6.428571428571429v90.7h-6.428571428571429Z" fill="#00923E"/><path d="M271.78571428571433,8.499999999999996h6.428571428571429v91.5h-6.428571428571429Z" fill="#D2D4CE"/><path d="M278.92857142857144,7.9000000000000075h6.428571428571429v92.1h-6.428571428571429Z" fill="#D2D4CE"/><path d="M286.07142857142856,7.400000000000007h6.428571428571429v92.6h-6.428571428571429Z" fill="#D2D4CE"/><path d="M293.2142857142858,4.200000000000004h6.428571428571429v95.8h-6.428571428571429Z" fill="#D2D4CE"/></g></g><path class="foreground" aria-hidden="true" d="" display="none"/></g></g></g></svg>