<svg xmlns="http://www.w3.org/2000/svg" xmlns:xlink="http://www.w3.org/1999/xlink" version="1.1" class="marks" width="310" height="110" ><g fill="none" stroke-miterlimit="10" transform="translate(5,5)"><g class="mark-group role-frame root" role="graphics-object" aria-roledescription="group mark container"><g transform="translate(0,0)"><path class="background" aria-hidden="true" d="M0,0h300v100h-300Z" stroke="#ddd" stroke-width="0"/><g><g class="mark-rect role-mark marks" role="graphics-symbol" aria-roledescription="rect mark container"><path d="M0.3571428571428612,29.700000000000003h6.428571428571429v70.3h-6.428571428571429Z" fill="#D2D4CE"/><path d="M7.500000000000004,22.299999999999997h6.428571428571429v77.7h-6.428571428571429Z" fill="#D2D4CE"/><path d="M14.642857142857148,21.499999999999996h6.428571428571429v78.5h-6.428571428571429Z" fill="#D2D4CE"/><path d="M21.785714285714292,20.999999999999996h6.428571428571429v79h-6.428571428571429Z" fill="#D2D4CE"/><path d="M28.928571428571434,17.599999999999994h6.428571428571429v82.4h-6.428571428571429Z" fill="#D2D4CE"/><path d="M36.07142857142858,17.599999999999994h6.428571428571429v82.4h-6.428571428571429Z" fill="#D2D4CE"/><path d="M43.21428571428572,17.599999999999994h6.428571428571429v82.4h-6.428571428571429Z" fill="#D2D4CE"/><path d="M50.35714285714286,17.400000000000006h6.428571428571429v82.6h-6.428571428571429Z" fill="#D2D4CE"/><path d="M57.50000000000001,17.200000000000003h6.428571428571429v82.8h-6.428571428571429Z" fill="#D2D4CE"/><path d="M64.64285714285715,16.000000000000004h6.428571428571429v84h-6.428571428571429Z" fill="#D2D4CE"/><path d="M71.78571428571429,15.59999999999999h6.428571428571429v84.4h-6.428571428571429Z" fill="#D2D4CE"/><path d="M78.92857142857143,15.500000000000004h6.428571428571429v84.5h-6.428571428571429Z" fill="#D2D4CE"/><path d="M86.07142857142858,15.200000000000003h6.428571428571429v84.8h-6.428571428571429Z" fill="#D2D4CE"/><path d="M93.21428571428572,15.09999999999999h6.428571428571429v84.9h-6.428571428571429Z" fill="#D2D4CE"/><path d="M100.35714285714286,15.09999999999999h6.428571428571429v84.9h-6.428571428571429Z" fill="#D2D4CE"/><path d="M107.50000000000001,14.09999999999999h6.428571428571429v85.9h-6.428571428571429Z" fill="#D2D4CE"/><path d="M114.64285714285715,13.4h6.428571428571429v86.6h-6.428571428571429Z" fill="#00923E"/><path d="M121.78571428571429,13.099999999999989h6.428571428571429v86.9h-6.428571428571429Z" fill="#D2D4CE"/><path d="M128.92857142857144,12.400000000000011h6.428571428571429v87.6h-6.428571428571429Z" fill="#D2D4CE"/><path d="M136.07142857142858,12.3h6.428571428571429v87.7h-6.428571428571429Z" fill="#D2D4CE"/><path d="M143.21428571428572,12.1h6.428571428571429v87.9h-6.428571428571429Z" fill="#D2D4CE"/><path d="M150.35714285714286,12h6.428571428571429v88h-6.428571428571429Z" fill="#D2D4CE"/><path d="M157.5,11.299999999999999h6.428571428571429v88.7h-6.428571428571429Z" fill="#D2D4CE"/><path d="M164.64285714285717,10.299999999999997h6.428571428571429v89.7h-6.428571428571429Z" fill="#D2D4CE"/><path d="M171.7857142857143,10.299999999999997h6.428571428571429v89.7h-6.428571428571429Z" fill="#D2D4CE"/><path d="M178.92857142857144,10.099999999999998h6.428571428571429v89.9h-6.428571428571429Z" fill="#D2D4CE"/><path d="M186.07142857142858,9.40000000000001h6.428571428571429v90.6h-6.428571428571429Z" fill="#D2D4CE"/><path d="M193.21428571428572,9.299999999999997h6.428571428571429v90.7h-6.428571428571429Z" fill="#D2D4CE"/><path d="M200.35714285714286,9.299999999999997h6.428571428571429v90.7h-6.428571428571429Z" fill="#D2D4CE"/><path d="M207.50000000000003,8.900000000000007h6.428571428571429v91.1h-6.428571428571429Z" fill="#D2D4CE"/><path d="M214.64285714285717,6.599999999999994h6.428571428571429v93.4h-6.428571428571429Z" fill="#D2D4CE"/><path d="M221.7857142857143,6.599999999999994h6.428571428571429v93.4h-6.428571428571429Z" fill="#D2D4CE"/><path d="M228.92857142857144,6.2000000000000055h6.428571428571429v93.8h-6.428571428571429Z" fill="#D2D4CE"/><path d="M236.07142857142858,5.299999999999994h6.428571428571429v94.7h-6.428571428571429Z" fill="#D2D4CE"/><path d="M243.21428571428572,5.299999999999994h6.428571428571429v94.7h-6.428571428571429Z" fill="#D2D4CE"/><path d="M250.35714285714286,3.500000000000003h6.428571428571429v96.5h-6.428571428571429Z" fill="#D2D4CE"/><path d="M257.5,3.500000000000003h6.428571428571429v96.5h-6.428571428571429Z" fill="#D2D4CE"/><path d="M264.6428571428571,3.0000000000000027h6.428571428571429v97h-6.428571428571429Z" fill="#D2D4CE"/><path d="M271.78571428571433,3.0000000000000027h6.428571428571429v97h-6.428571428571429Z" fill="#D2D4CE"/><path d="M278.92857142857144,2.7000000000000024h6.428571428571429v97.3h-6.428571428571429Z" fill="#D2D4CE"/><path d="M286.07142857142856,2.400000000000002h6.428571428571429v97.6h-6.428571428571429Z" fill="#D2D4CE"/><path d="M293.2142857142858,2.400000000000002h6.428571428571429v97.6h-6.428571428571429Z" fill="#D2D4CE"/></g></g><path class="foreground" aria-hidden="true" d="" display="none"/></g></g></g></svg>