<svg xmlns="http://www.w3.org/2000/svg" xmlns:xlink="http://www.w3.org/1999/xlink" version="1.1" class="marks" width="310" height="110" ><g fill="none" stroke-miterlimit="10" transform="translate(5,5)"><g class="mark-group role-frame root" role="graphics-object" aria-roledescription="group mark container"><g transform="translate(0,0)"><path class="background" aria-hidden="true" d="M0,0h300v100h-300Z" stroke="#ddd" stroke-width="0"/><g><g class="mark-rect role-mark marks" role="graphics-symbol" aria-roledescription="rect mark container"><path d="M100.35714285714286,91.53846153846153h6.428571428571429v8.461538461538467h-6.428571428571429Z" fill="#D2D4CE"/><path d="M107.50000000000001,89.23076923076924h6.428571428571429v10.76923076923076h-6.428571428571429Z" fill="#D2D4CE"/><path d="M114.64285714285715,87.6923076923077h6.428571428571429v12.307692307692307h-6.428571428571429Z" fill="#D2D4CE"/><path d="M121.78571428571429,87.6923076923077h6.428571428571429v12.307692307692307h-6.428571428571429Z" fill="#D2D4CE"/><path d="M128.92857142857144,81.53846153846153h6.428571428571429v18.461538461538467h-6.428571428571429Z" fill="#D2D4CE"/><path d="M136.07142857142858,80.76923076923077h6.428571428571429v19.230769230769226h-6.428571428571429Z" fill="#D2D4CE"/><path d="M143.21428571428572,78.46153846153847h6.428571428571429v21.538461538461533h-6.428571428571429Z" fill="#D2D4CE"/><path d="M150.35714285714286,76.92307692307692h6.428571428571429v23.07692307692308h-6.428571428571429Z" fill="#D2D4CE"/><path d="M157.5,66.15384615384615h6.428571428571429v33.846153846153854h-6.428571428571429Z" fill="#D2D4CE"/><path d="M164.64285714285717,66.15384615384615h6.428571428571429v33.846153846153854h-6.428571428571429Z" fill="#D2D4CE"/><path d="M171.7857142857143,65.38461538461539h6.428571428571429v34.61538461538461h-6.428571428571429Z" fill="#D2D4CE"/><path d="M178.92857142857144,64.61538461538461h6.428571428571429v35.38461538461539h-6.428571428571429Z" fill="#D2D4CE"/><path d="M186.07142857142858,63.84615384615384h6.428571428571429v36.15384615384616h-6.428571428571429Z" fill="#D2D4CE"/><path d="M193.21428571428572,62.30769230769231h6.428571428571429v37.69230769230769h-6.428571428571429Z" fill="#D2D4CE"/><path d="M200.35714285714286,61.53846153846154h6.428571428571429v38.46153846153846h-6.428571428571429Z" fill="#D2D4CE"/><path d="M207.50000000000003,60.769230769230774h6.428571428571429v39.230769230769226h-6.428571428571429Z" fill="#D2D4CE"/><path d="M214.64285714285717,60h6.428571428571429v40h-6.428571428571429Z" fill="#D2D4CE"/><path d="M221.7857142857143,59.23076923076923h6.428571428571429v40.76923076923077h-6.428571428571429Z" fill="#D2D4CE"/><path d="M228.92857142857144,56.15384615384615h6.428571428571429v43.84615384615385h-6.428571428571429Z" fill="#D2D4CE"/><path d="M236.07142857142858,51.53846153846153h6.428571428571429v48.46153846153847h-6.428571428571429Z" fill="#00923E"/><path d="M243.21428571428572,50.76923076923077h6.428571428571429v49.23076923076923h-6.428571428571429Z" fill="#D2D4CE"/><path d="M250.35714285714286,48.46153846153845h6.428571428571429v51.53846153846155h-6.428571428571429Z" fill="#D2D4CE"/><path d="M257.5,45.38461538461539h6.428571428571429v54.61538461538461h-6.428571428571429Z" fill="#D2D4CE"/><path d="M264.6428571428571,43.07692307692308h6.428571428571429v56.92307692307692h-6.428571428571429Z" fill="#D2D4CE"/><path d="M271.78571428571433,39.230769230769226h6.428571428571429v60.769230769230774h-6.428571428571429Z" fill="#D2D4CE"/><path d="M278.92857142857144,26.15384615384616h6.428571428571429v73.84615384615384h-6.428571428571429Z" fill="#D2D4CE"/><path d="M286.07142857142856,23.84615384615384h6.428571428571429v76.15384615384616h-6.428571428571429Z" fill="#D2D4CE"/><path d="M293.2142857142858,1.538461538461533h6.428571428571429v98.46153846153847h-6.428571428571429Z" fill="#D2D4CE"/></g></g><path class="foreground" aria-hidden="true" d="" display="none"/></g></g></g></svg>