<svg xmlns="http://www.w3.org/2000/svg" xmlns:xlink="http://www.w3.org/1999/xlink" version="1.1" class="marks" width="310" height="110" ><g fill="none" stroke-miterlimit="10" transform="translate(5,5)"><g class="mark-group role-frame root" role="graphics-object" aria-roledescription="group mark container"><g transform="translate(0,0)"><path class="background" aria-hidden="true" d="M0,0h300v100h-300Z" stroke="#ddd" stroke-width="0"/><g><g class="mark-rect role-mark marks" role="graphics-symbol" aria-roledescription="rect mark container"><path d="M0.3571428571428612,100h6.428571428571429v0h-6.428571428571429Z" fill="#D2D4CE"/><path d="M7.500000000000004,94.5h6.428571428571429v5.5h-6.428571428571429Z" fill="#D2D4CE"/><path d="M14.642857142857148,89.60000000000001h6.428571428571429v10.399999999999991h-6.428571428571429Z" fill="#D2D4CE"/><path d="M21.785714285714292,89.5h6.428571428571429v10.5h-6.428571428571429Z" fill="#D2D4CE"/><path d="M28.928571428571434,87.3h6.428571428571429v12.700000000000003h-6.428571428571429Z" fill="#D2D4CE"/><path d="M36.07142857142858,86.8h6.428571428571429v13.200000000000003h-6.428571428571429Z" fill="#D2D4CE"/><path d="M43.21428571428572,85.5h6.428571428571429v14.5h-6.428571428571429Z" fill="#D2D4CE"/><path d="M50.35714285714286,83.39999999999999h6.428571428571429v16.60000000000001h-6.428571428571429Z" fill="#D2D4CE"/><path d="M57.50000000000001,81h6.428571428571429v19h-6.428571428571429Z" fill="#D2D4CE"/><path d="M64.64285714285715,75.5h6.428571428571429v24.5h-6.428571428571429Z" fill="#D2D4CE"/><path d="M71.78571428571429,74.1h6.428571428571429v25.900000000000006h-6.428571428571429Z" fill="#D2D4CE"/><path d="M78.92857142857143,72.89999999999999h6.428571428571429v27.10000000000001h-6.428571428571429Z" fill="#D2D4CE"/><path d="M86.07142857142858,70.39999999999999h6.428571428571429v29.60000000000001h-6.428571428571429Z" fill="#D2D4CE"/><path d="M93.21428571428572,67h6.428571428571429v33h-6.428571428571429Z" fill="#D2D4CE"/><path d="M100.35714285714286,66.5h6.428571428571429v33.5h-6.428571428571429Z" fill="#D2D4CE"/><path d="M107.50000000000001,65.99999999999999h6.428571428571429v34.000000000000014h-6.428571428571429Z" fill="#D2D4CE"/><path d="M114.64285714285715,65.8h6.428571428571429v34.2h-6.428571428571429Z" fill="#D2D4CE"/><path d="M121.78571428571429,64.5h6.428571428571429v35.5h-6.428571428571429Z" fill="#D2D4CE"/><path d="M128.92857142857144,61.5h6.428571428571429v38.5h-6.428571428571429Z" fill="#D2D4CE"/><path d="M136.07142857142858,61.3h6.428571428571429v38.7h-6.428571428571429Z" fill="#D2D4CE"/><path d="M143.21428571428572,55.099999999999994h6.428571428571429v44.900000000000006h-6.428571428571429Z" fill="#D2D4CE"/><path d="M150.35714285714286,53.2h6.428571428571429v46.8h-6.428571428571429Z" fill="#D2D4CE"/><path d="M157.5,52.29999999999999h6.428571428571429v47.70000000000001h-6.428571428571429Z" fill="#D2D4CE"/><path d="M164.64285714285717,51.1h6.428571428571429v48.9h-6.428571428571429Z" fill="#D2D4CE"/><path d="M171.7857142857143,50.6h6.428571428571429v49.4h-6.428571428571429Z" fill="#D2D4CE"/><path d="M178.92857142857144,47.8h6.428571428571429v52.2h-6.428571428571429Z" fill="#D2D4CE"/><path d="M186.07142857142858,47.3h6.428571428571429v52.7h-6.428571428571429Z" fill="#D2D4CE"/><path d="M193.21428571428572,47.199999999999996h6.428571428571429v52.800000000000004h-6.428571428571429Z" fill="#00923E"/><path d="M200.35714285714286,40.400000000000006h6.428571428571429v59.599999999999994h-6.428571428571429Z" fill="#D2D4CE"/><path d="M207.50000000000003,38.4h6.428571428571429v61.6h-6.428571428571429Z" fill="#D2D4CE"/><path d="M214.64285714285717,38h6.428571428571429v62h-6.428571428571429Z" fill="#D2D4CE"/><path d="M221.7857142857143,35.699999999999996h6.428571428571429v64.30000000000001h-6.428571428571429Z" fill="#D2D4CE"/><path d="M228.92857142857144,34.900000000000006h6.428571428571429v65.1h-6.428571428571429Z" fill="#D2D4CE"/><path d="M236.07142857142858,29.500000000000004h6.428571428571429v70.5h-6.428571428571429Z" fill="#D2D4CE"/><path d="M243.21428571428572,23.2h6.428571428571429v76.8h-6.428571428571429Z" fill="#D2D4CE"/><path d="M250.35714285714286,19.499999999999996h6.428571428571429v80.5h-6.428571428571429Z" fill="#D2D4CE"/><path d="M257.5,17.799999999999994h6.428571428571429v82.2h-6.428571428571429Z" fill="#D2D4CE"/><path d="M264.6428571428571,9.200000000000008h6.428571428571429v90.8h-6.428571428571429Z" fill="#D2D4CE"/><path d="M271.78571428571433,5.500000000000005h6.428571428571429v94.5h-6.428571428571429Z" fill="#D2D4CE"/><path d="M278.92857142857144,5.000000000000004h6.428571428571429v95h-6.428571428571429Z" fill="#D2D4CE"/><path d="M286.07142857142856,4.900000000000004h6.428571428571429v95.1h-6.428571428571429Z" fill="#D2D4CE"/><path d="M293.2142857142858,1.9000000000000017h6.428571428571429v98.1h-6.428571428571429Z" fill="#D2D4CE"/></g></g><path class="foreground" aria-hidden="true" d="" display="none"/></g></g></g></svg>