<svg xmlns="http://www.w3.org/2000/svg" xmlns:xlink="http://www.w3.org/1999/xlink" version="1.1" class="marks" width="310" height="110" ><g fill="none" stroke-miterlimit="10" transform="translate(5,5)"><g class="mark-group role-frame root" role="graphics-object" aria-roledescription="group mark container"><g transform="translate(0,0)"><path class="background" aria-hidden="true" d="M0,0h300v100h-300Z" stroke="#ddd" stroke-width="0"/><g><g class="mark-rect role-mark marks" role="graphics-symbol" aria-roledescription="rect mark container"><path d="M0.3571428571428612,97.23076923076923h6.428571428571429v2.7692307692307736h-6.428571428571429Z" fill="#D2D4CE"/><path d="M7.500000000000004,95.23076923076923h6.428571428571429v4.769230769230774h-6.428571428571429Z" fill="#D2D4CE"/><path d="M14.642857142857148,94.15384615384616h6.428571428571429v5.84615384615384h-6.428571428571429Z" fill="#D2D4CE"/><path d="M21.785714285714292,94h6.428571428571429v6h-6.428571428571429Z" fill="#D2D4CE"/><path d="M28.928571428571434,93.07692307692308h6.428571428571429v6.92307692307692h-6.428571428571429Z" fill="#D2D4CE"/><path d="M36.07142857142858,91.53846153846153h6.428571428571429v8.461538461538467h-6.428571428571429Z" fill="#D2D4CE"/><path d="M43.21428571428572,91.07692307692308h6.428571428571429v8.92307692307692h-6.428571428571429Z" fill="#D2D4CE"/><path d="M50.35714285714286,88.92307692307693h6.428571428571429v11.076923076923066h-6.428571428571429Z" fill="#D2D4CE"/><path d="M57.50000000000001,88.92307692307693h6.428571428571429v11.076923076923066h-6.428571428571429Z" fill="#D2D4CE"/><path d="M64.64285714285715,88.61538461538461h6.428571428571429v11.384615384615387h-6.428571428571429Z" fill="#00923E"/><path d="M71.78571428571429,85.23076923076923h6.428571428571429v14.769230769230774h-6.428571428571429Z" fill="#D2D4CE"/><path d="M78.92857142857143,84.15384615384616h6.428571428571429v15.84615384615384h-6.428571428571429Z" fill="#D2D4CE"/><path d="M86.07142857142858,83.84615384615385h6.428571428571429v16.153846153846146h-6.428571428571429Z" fill="#D2D4CE"/><path d="M93.21428571428572,80.76923076923077h6.428571428571429v19.230769230769226h-6.428571428571429Z" fill="#D2D4CE"/><path d="M100.35714285714286,80.3076923076923h6.428571428571429v19.692307692307693h-6.428571428571429Z" fill="#D2D4CE"/><path d="M107.50000000000001,78.92307692307692h6.428571428571429v21.07692307692308h-6.428571428571429Z" fill="#D2D4CE"/><path d="M114.64285714285715,78.46153846153847h6.428571428571429v21.538461538461533h-6.428571428571429Z" fill="#D2D4CE"/><path d="M121.78571428571429,77.07692307692308h6.428571428571429v22.92307692307692h-6.428571428571429Z" fill="#D2D4CE"/><path d="M128.92857142857144,76.15384615384615h6.428571428571429v23.846153846153854h-6.428571428571429Z" fill="#D2D4CE"/><path d="M136.07142857142858,75.84615384615385h6.428571428571429v24.153846153846146h-6.428571428571429Z" fill="#D2D4CE"/><path d="M143.21428571428572,73.6923076923077h6.428571428571429v26.307692307692307h-6.428571428571429Z" fill="#D2D4CE"/><path d="M150.35714285714286,73.53846153846155h6.428571428571429v26.461538461538453h-6.428571428571429Z" fill="#D2D4CE"/><path d="M157.5,70h6.428571428571429v30h-6.428571428571429Z" fill="#D2D4CE"/><path d="M164.64285714285717,68.61538461538461h6.428571428571429v31.384615384615387h-6.428571428571429Z" fill="#D2D4CE"/><path d="M171.7857142857143,64.3076923076923h6.428571428571429v35.69230769230769h-6.428571428571429Z" fill="#D2D4CE"/><path d="M178.92857142857144,62.615384615384606h6.428571428571429v37.384615384615394h-6.428571428571429Z" fill="#D2D4CE"/><path d="M186.07142857142858,61.84615384615384h6.428571428571429v38.15384615384616h-6.428571428571429Z" fill="#D2D4CE"/><path d="M193.21428571428572,61.53846153846154h6.428571428571429v38.46153846153846h-6.428571428571429Z" fill="#D2D4CE"/><path d="M200.35714285714286,50.153846153846146h6.428571428571429v49.846153846153854h-6.428571428571429Z" fill="#D2D4CE"/><path d="M207.50000000000003,49.23076923076923h6.428571428571429v50.76923076923077h-6.428571428571429Z" fill="#D2D4CE"/><path d="M214.64285714285717,43.692307692307686h6.428571428571429v56.307692307692314h-6.428571428571429Z" fill="#D2D4CE"/><path d="M221.7857142857143,36.30769230769231h6.428571428571429v63.69230769230769h-6.428571428571429Z" fill="#D2D4CE"/><path d="M228.92857142857144,34.769230769230774h6.428571428571429v65.23076923076923h-6.428571428571429Z" fill="#D2D4CE"/><path d="M236.07142857142858,34.30769230769231h6.428571428571429v65.6923076923077h-6.428571428571429Z" fill="#D2D4CE"/><path d="M243.21428571428572,26.46153846153847h6.428571428571429v73.53846153846153h-6.428571428571429Z" fill="#D2D4CE"/><path d="M250.35714285714286,25.538461538461544h6.428571428571429v74.46153846153845h-6.428571428571429Z" fill="#D2D4CE"/><path d="M257.5,19.999999999999996h6.428571428571429v80h-6.428571428571429Z" fill="#D2D4CE"/><path d="M264.6428571428571,19.07692307692308h6.428571428571429v80.92307692307692h-6.428571428571429Z" fill="#D2D4CE"/><path d="M271.78571428571433,13.076923076923075h6.428571428571429v86.92307692307692h-6.428571428571429Z" fill="#D2D4CE"/><path d="M278.92857142857144,4.61538461538461h6.428571428571429v95.38461538461539h-6.428571428571429Z" fill="#D2D4CE"/><path d="M286.07142857142856,2.1538461538461506h6.428571428571429v97.84615384615385h-6.428571428571429Z" fill="#D2D4CE"/><path d="M293.2142857142858,1.9999999999999907h6.428571428571429v98.00000000000001h-6.428571428571429Z" fill="#D2D4CE"/></g></g><path class="foreground" aria-hidden="true" d="" display="none"/></g></g></g></svg>