<svg xmlns="http://www.w3.org/2000/svg" xmlns:xlink="http://www.w3.org/1999/xlink" version="1.1" class="marks" width="310" height="110" ><g fill="none" stroke-miterlimit="10" transform="translate(5,5)"><g class="mark-group role-frame root" role="graphics-object" aria-roledescription="group mark container"><g transform="translate(0,0)"><path class="background" aria-hidden="true" d="M0,0h300v100h-300Z" stroke="#ddd" stroke-width="0"/><g><g class="mark-rect role-mark marks" role="graphics-symbol" aria-roledescription="rect mark container"><path d="M0.3571428571428612,97.63636363636363h6.428571428571429v2.363636363636374h-6.428571428571429Z" fill="#D2D4CE"/><path d="M7.500000000000004,96.72727272727273h6.428571428571429v3.2727272727272663h-6.428571428571429Z" fill="#D2D4CE"/><path d="M14.642857142857148,96.54545454545455h6.428571428571429v3.4545454545454533h-6.428571428571429Z" fill="#D2D4CE"/><path d="M21.785714285714292,94.9090909090909h6.428571428571429v5.0909090909090935h-6.428571428571429Z" fill="#D2D4CE"/><path d="M28.928571428571434,93.63636363636364h6.428571428571429v6.36363636363636h-6.428571428571429Z" fill="#D2D4CE"/><path d="M36.07142857142858,93.0909090909091h6.428571428571429v6.9090909090909065h-6.428571428571429Z" fill="#D2D4CE"/><path d="M43.21428571428572,92.54545454545455h6.428571428571429v7.454545454545453h-6.428571428571429Z" fill="#D2D4CE"/><path d="M50.35714285714286,92.36363636363636h6.428571428571429v7.63636363636364h-6.428571428571429Z" fill="#D2D4CE"/><path d="M57.50000000000001,91.81818181818183h6.428571428571429v8.181818181818173h-6.428571428571429Z" fill="#D2D4CE"/><path d="M64.64285714285715,91.63636363636364h6.428571428571429v8.36363636363636h-6.428571428571429Z" fill="#D2D4CE"/><path d="M71.78571428571429,91.63636363636364h6.428571428571429v8.36363636363636h-6.428571428571429Z" fill="#D2D4CE"/><path d="M78.92857142857143,89.81818181818181h6.428571428571429v10.181818181818187h-6.428571428571429Z" fill="#D2D4CE"/><path d="M86.07142857142858,89.81818181818181h6.428571428571429v10.181818181818187h-6.428571428571429Z" fill="#D2D4CE"/><path d="M93.21428571428572,88.90909090909092h6.428571428571429v11.09090909090908h-6.428571428571429Z" fill="#D2D4CE"/><path d="M100.35714285714286,88.90909090909092h6.428571428571429v11.09090909090908h-6.428571428571429Z" fill="#D2D4CE"/><path d="M107.50000000000001,88.18181818181819h6.428571428571429v11.818181818181813h-6.428571428571429Z" fill="#D2D4CE"/><path d="M114.64285714285715,87.27272727272728h6.428571428571429v12.72727272727272h-6.428571428571429Z" fill="#D2D4CE"/><path d="M121.78571428571429,87.27272727272728h6.428571428571429v12.72727272727272h-6.428571428571429Z" fill="#D2D4CE"/><path d="M128.92857142857144,86.54545454545455h6.428571428571429v13.454545454545453h-6.428571428571429Z" fill="#D2D4CE"/><path d="M136.07142857142858,86.54545454545455h6.428571428571429v13.454545454545453h-6.428571428571429Z" fill="#D2D4CE"/><path d="M143.21428571428572,86.36363636363636h6.428571428571429v13.63636363636364h-6.428571428571429Z" fill="#D2D4CE"/><path d="M150.35714285714286,86.18181818181819h6.428571428571429v13.818181818181813h-6.428571428571429Z" fill="#D2D4CE"/><path d="M157.5,85.27272727272728h6.428571428571429v14.72727272727272h-6.428571428571429Z" fill="#D2D4CE"/><path d="M164.64285714285717,85.0909090909091h6.428571428571429v14.909090909090907h-6.428571428571429Z" fill="#D2D4CE"/><path d="M171.7857142857143,84.18181818181819h6.428571428571429v15.818181818181813h-6.428571428571429Z" fill="#D2D4CE"/><path d="M178.92857142857144,82.18181818181817h6.428571428571429v17.818181818181827h-6.428571428571429Z" fill="#D2D4CE"/><path d="M186.07142857142858,81.45454545454545h6.428571428571429v18.545454545454547h-6.428571428571429Z" fill="#00923E"/><path d="M193.21428571428572,80.36363636363636h6.428571428571429v19.63636363636364h-6.428571428571429Z" fill="#D2D4CE"/><path d="M200.35714285714286,79.0909090909091h6.428571428571429v20.909090909090907h-6.428571428571429Z" fill="#D2D4CE"/><path d="M207.50000000000003,78h6.428571428571429v22h-6.428571428571429Z" fill="#D2D4CE"/><path d="M214.64285714285717,74.54545454545455h6.428571428571429v25.454545454545453h-6.428571428571429Z" fill="#D2D4CE"/><path d="M221.7857142857143,74h6.428571428571429v26h-6.428571428571429Z" fill="#D2D4CE"/><path d="M228.92857142857144,73.0909090909091h6.428571428571429v26.909090909090907h-6.428571428571429Z" fill="#D2D4CE"/><path d="M236.07142857142858,67.27272727272727h6.428571428571429v32.727272727272734h-6.428571428571429Z" fill="#D2D4CE"/><path d="M243.21428571428572,63.090909090909086h6.428571428571429v36.909090909090914h-6.428571428571429Z" fill="#D2D4CE"/><path d="M250.35714285714286,59.63636363636364h6.428571428571429v40.36363636363636h-6.428571428571429Z" fill="#D2D4CE"/><path d="M257.5,52h6.428571428571429v48h-6.428571428571429Z" fill="#D2D4CE"/><path d="M264.6428571428571,52h6.428571428571429v48h-6.428571428571429Z" fill="#D2D4CE"/><path d="M271.78571428571433,49.45454545454545h6.428571428571429v50.54545454545455h-6.428571428571429Z" fill="#D2D4CE"/><path d="M278.92857142857144,41.454545454545446h6.428571428571429v58.545454545454554h-6.428571428571429Z" fill="#D2D4CE"/><path d="M286.07142857142856,27.27272727272727h6.428571428571429v72.72727272727273h-6.428571428571429Z" fill="#D2D4CE"/><path d="M293.2142857142858,7.636363636363641h6.428571428571429v92.36363636363636h-6.428571428571429Z" fill="#D2D4CE"/></g></g><path class="foreground" aria-hidden="true" d="" display="none"/></g></g></g></svg>