<svg xmlns="http://www.w3.org/2000/svg" xmlns:xlink="http://www.w3.org/1999/xlink" version="1.1" class="marks" width="310" height="110" ><g fill="none" stroke-miterlimit="10" transform="translate(5,5)"><g class="mark-group role-frame root" role="graphics-object" aria-roledescription="group mark container"><g transform="translate(0,0)"><path class="background" aria-hidden="true" d="M0,0h300v100h-300Z" stroke="#ddd" stroke-width="0"/><g><g class="mark-rect role-mark marks" role="graphics-symbol" aria-roledescription="rect mark container"><path d="M0.3571428571428612,95.22857142857143h6.428571428571429v4.771428571428572h-6.428571428571429Z" fill="#D2D4CE"/><path d="M7.500000000000004,94.88571428571429h6.428571428571429v5.114285714285714h-6.428571428571429Z" fill="#D2D4CE"/><path d="M14.642857142857148,94.19999999999999h6.428571428571429v5.800000000000011h-6.428571428571429Z" fill="#D2D4CE"/><path d="M21.785714285714292,93.22857142857143h6.428571428571429v6.771428571428572h-6.428571428571429Z" fill="#D2D4CE"/><path d="M28.928571428571434,92.97142857142858h6.428571428571429v7.028571428571425h-6.428571428571429Z" fill="#D2D4CE"/><path d="M36.07142857142858,92.14285714285715h6.428571428571429v7.857142857142847h-6.428571428571429Z" fill="#D2D4CE"/><path d="M43.21428571428572,91.71428571428571h6.428571428571429v8.285714285714292h-6.428571428571429Z" fill="#D2D4CE"/><path d="M50.35714285714286,90.82857142857142h6.428571428571429v9.171428571428578h-6.428571428571429Z" fill="#D2D4CE"/><path d="M57.50000000000001,88.42857142857143h6.428571428571429v11.57142857142857h-6.428571428571429Z" fill="#D2D4CE"/><path d="M64.64285714285715,88.4h6.428571428571429v11.599999999999994h-6.428571428571429Z" fill="#D2D4CE"/><path d="M71.78571428571429,88.22857142857143h6.428571428571429v11.771428571428572h-6.428571428571429Z" fill="#00923E"/><path d="M78.92857142857143,87.71428571428571h6.428571428571429v12.285714285714292h-6.428571428571429Z" fill="#D2D4CE"/><path d="M86.07142857142858,85.77142857142857h6.428571428571429v14.228571428571428h-6.428571428571429Z" fill="#D2D4CE"/><path d="M93.21428571428572,85.6h6.428571428571429v14.400000000000006h-6.428571428571429Z" fill="#D2D4CE"/><path d="M100.35714285714286,85.42857142857143h6.428571428571429v14.57142857142857h-6.428571428571429Z" fill="#D2D4CE"/><path d="M107.50000000000001,83.74285714285715h6.428571428571429v16.257142857142853h-6.428571428571429Z" fill="#D2D4CE"/><path d="M114.64285714285715,83.51428571428572h6.428571428571429v16.48571428571428h-6.428571428571429Z" fill="#D2D4CE"/><path d="M121.78571428571429,82.68571428571428h6.428571428571429v17.314285714285717h-6.428571428571429Z" fill="#D2D4CE"/><path d="M128.92857142857144,81.65714285714284h6.428571428571429v18.342857142857156h-6.428571428571429Z" fill="#D2D4CE"/><path d="M136.07142857142858,81.2h6.428571428571429v18.799999999999997h-6.428571428571429Z" fill="#D2D4CE"/><path d="M143.21428571428572,80.31428571428572h6.428571428571429v19.685714285714283h-6.428571428571429Z" fill="#D2D4CE"/><path d="M150.35714285714286,77.94285714285714h6.428571428571429v22.057142857142864h-6.428571428571429Z" fill="#D2D4CE"/><path d="M157.5,77.62857142857142h6.428571428571429v22.37142857142858h-6.428571428571429Z" fill="#D2D4CE"/><path d="M164.64285714285717,76.82857142857142h6.428571428571429v23.171428571428578h-6.428571428571429Z" fill="#D2D4CE"/><path d="M171.7857142857143,74.85714285714286h6.428571428571429v25.14285714285714h-6.428571428571429Z" fill="#D2D4CE"/><path d="M178.92857142857144,74.17142857142858h6.428571428571429v25.828571428571422h-6.428571428571429Z" fill="#D2D4CE"/><path d="M186.07142857142858,74.14285714285714h6.428571428571429v25.85714285714286h-6.428571428571429Z" fill="#D2D4CE"/><path d="M193.21428571428572,71.82857142857144h6.428571428571429v28.171428571428564h-6.428571428571429Z" fill="#D2D4CE"/><path d="M200.35714285714286,65.74285714285715h6.428571428571429v34.25714285714285h-6.428571428571429Z" fill="#D2D4CE"/><path d="M207.50000000000003,65.42857142857143h6.428571428571429v34.57142857142857h-6.428571428571429Z" fill="#D2D4CE"/><path d="M214.64285714285717,64.65714285714286h6.428571428571429v35.34285714285714h-6.428571428571429Z" fill="#D2D4CE"/><path d="M221.7857142857143,60.91428571428571h6.428571428571429v39.08571428571429h-6.428571428571429Z" fill="#D2D4CE"/><path d="M228.92857142857144,58.371428571428574h6.428571428571429v41.628571428571426h-6.428571428571429Z" fill="#D2D4CE"/><path d="M236.07142857142858,47.971428571428575h6.428571428571429v52.028571428571425h-6.428571428571429Z" fill="#D2D4CE"/><path d="M243.21428571428572,41.28571428571428h6.428571428571429v58.71428571428572h-6.428571428571429Z" fill="#D2D4CE"/><path d="M250.35714285714286,40.91428571428571h6.428571428571429v59.08571428571429h-6.428571428571429Z" fill="#D2D4CE"/><path d="M257.5,40.228571428571435h6.428571428571429v59.771428571428565h-6.428571428571429Z" fill="#D2D4CE"/><path d="M264.6428571428571,30.25714285714286h6.428571428571429v69.74285714285713h-6.428571428571429Z" fill="#D2D4CE"/><path d="M271.78571428571433,23.028571428571432h6.428571428571429v76.97142857142856h-6.428571428571429Z" fill="#D2D4CE"/><path d="M278.92857142857144,21.34285714285714h6.428571428571429v78.65714285714286h-6.428571428571429Z" fill="#D2D4CE"/><path d="M286.07142857142856,11.685714285714276h6.428571428571429v88.31428571428572h-6.428571428571429Z" fill="#D2D4CE"/><path d="M293.2142857142858,9.31428571428572h6.428571428571429v90.68571428571428h-6.428571428571429Z" fill="#D2D4CE"/></g></g><path class="foreground" aria-hidden="true" d="" display="none"/></g></g></g></svg>