<svg xmlns="http://www.w3.org/2000/svg" xmlns:xlink="http://www.w3.org/1999/xlink" version="1.1" class="marks" width="310" height="110" ><g fill="none" stroke-miterlimit="10" transform="translate(5,5)"><g class="mark-group role-frame root" role="graphics-object" aria-roledescription="group mark container"><g transform="translate(0,0)"><path class="background" aria-hidden="true" d="M0,0h300v100h-300Z" stroke="#ddd" stroke-width="0"/><g><g class="mark-rect role-mark marks" role="graphics-symbol" aria-roledescription="rect mark container"><path d="M0.3571428571428612,96.26666666666667h6.428571428571429v3.7333333333333343h-6.428571428571429Z" fill="#D2D4CE"/><path d="M7.500000000000004,94.23333333333333h6.428571428571429v5.766666666666666h-6.428571428571429Z" fill="#D2D4CE"/><path d="M14.642857142857148,93.73333333333333h6.428571428571429v6.266666666666666h-6.428571428571429Z" fill="#D2D4CE"/><path d="M21.785714285714292,93.51666666666667h6.428571428571429v6.483333333333334h-6.428571428571429Z" fill="#D2D4CE"/><path d="M28.928571428571434,92.58333333333333h6.428571428571429v7.416666666666671h-6.428571428571429Z" fill="#D2D4CE"/><path d="M36.07142857142858,92.56666666666666h6.428571428571429v7.433333333333337h-6.428571428571429Z" fill="#D2D4CE"/><path d="M43.21428571428572,91.18333333333332h6.428571428571429v8.816666666666677h-6.428571428571429Z" fill="#D2D4CE"/><path d="M50.35714285714286,87.91666666666667h6.428571428571429v12.083333333333329h-6.428571428571429Z" fill="#00923E"/><path d="M57.50000000000001,86.94999999999999h6.428571428571429v13.050000000000011h-6.428571428571429Z" fill="#D2D4CE"/><path d="M64.64285714285715,86.15h6.428571428571429v13.849999999999994h-6.428571428571429Z" fill="#D2D4CE"/><path d="M71.78571428571429,85.25h6.428571428571429v14.75h-6.428571428571429Z" fill="#D2D4CE"/><path d="M78.92857142857143,83.91666666666666h6.428571428571429v16.083333333333343h-6.428571428571429Z" fill="#D2D4CE"/><path d="M86.07142857142858,83.13333333333334h6.428571428571429v16.86666666666666h-6.428571428571429Z" fill="#D2D4CE"/><path d="M93.21428571428572,82.91666666666666h6.428571428571429v17.083333333333343h-6.428571428571429Z" fill="#D2D4CE"/><path d="M100.35714285714286,79.96666666666667h6.428571428571429v20.03333333333333h-6.428571428571429Z" fill="#D2D4CE"/><path d="M107.50000000000001,79.65h6.428571428571429v20.349999999999994h-6.428571428571429Z" fill="#D2D4CE"/><path d="M114.64285714285715,79.53333333333333h6.428571428571429v20.46666666666667h-6.428571428571429Z" fill="#D2D4CE"/><path d="M121.78571428571429,77.55000000000001h6.428571428571429v22.44999999999999h-6.428571428571429Z" fill="#D2D4CE"/><path d="M128.92857142857144,76.6h6.428571428571429v23.400000000000006h-6.428571428571429Z" fill="#D2D4CE"/><path d="M136.07142857142858,76.6h6.428571428571429v23.400000000000006h-6.428571428571429Z" fill="#D2D4CE"/><path d="M143.21428571428572,75.55000000000001h6.428571428571429v24.44999999999999h-6.428571428571429Z" fill="#D2D4CE"/><path d="M150.35714285714286,73.33333333333334h6.428571428571429v26.666666666666657h-6.428571428571429Z" fill="#D2D4CE"/><path d="M157.5,72.21666666666667h6.428571428571429v27.78333333333333h-6.428571428571429Z" fill="#D2D4CE"/><path d="M164.64285714285717,71.88333333333334h6.428571428571429v28.11666666666666h-6.428571428571429Z" fill="#D2D4CE"/><path d="M171.7857142857143,71.36666666666667h6.428571428571429v28.633333333333326h-6.428571428571429Z" fill="#D2D4CE"/><path d="M178.92857142857144,70.88333333333334h6.428571428571429v29.11666666666666h-6.428571428571429Z" fill="#D2D4CE"/><path d="M186.07142857142858,70.44999999999999h6.428571428571429v29.55000000000001h-6.428571428571429Z" fill="#D2D4CE"/><path d="M193.21428571428572,68.93333333333334h6.428571428571429v31.066666666666663h-6.428571428571429Z" fill="#D2D4CE"/><path d="M200.35714285714286,62.783333333333324h6.428571428571429v37.216666666666676h-6.428571428571429Z" fill="#D2D4CE"/><path d="M207.50000000000003,56.41666666666667h6.428571428571429v43.58333333333333h-6.428571428571429Z" fill="#D2D4CE"/><path d="M214.64285714285717,55.85h6.428571428571429v44.15h-6.428571428571429Z" fill="#D2D4CE"/><path d="M221.7857142857143,52.26666666666667h6.428571428571429v47.73333333333333h-6.428571428571429Z" fill="#D2D4CE"/><path d="M228.92857142857144,52.1h6.428571428571429v47.9h-6.428571428571429Z" fill="#D2D4CE"/><path d="M236.07142857142858,45.46666666666667h6.428571428571429v54.53333333333333h-6.428571428571429Z" fill="#D2D4CE"/><path d="M243.21428571428572,40.56666666666666h6.428571428571429v59.43333333333334h-6.428571428571429Z" fill="#D2D4CE"/><path d="M250.35714285714286,37.76666666666667h6.428571428571429v62.23333333333333h-6.428571428571429Z" fill="#D2D4CE"/><path d="M257.5,30.399999999999995h6.428571428571429v69.60000000000001h-6.428571428571429Z" fill="#D2D4CE"/><path d="M264.6428571428571,28.89999999999999h6.428571428571429v71.10000000000001h-6.428571428571429Z" fill="#D2D4CE"/><path d="M271.78571428571433,18.633333333333336h6.428571428571429v81.36666666666666h-6.428571428571429Z" fill="#D2D4CE"/><path d="M278.92857142857144,16.89999999999999h6.428571428571429v83.10000000000001h-6.428571428571429Z" fill="#D2D4CE"/><path d="M286.07142857142856,5.7666666666666755h6.428571428571429v94.23333333333332h-6.428571428571429Z" fill="#D2D4CE"/><path d="M293.2142857142858,3.399999999999992h6.428571428571429v96.60000000000001h-6.428571428571429Z" fill="#D2D4CE"/></g></g><path class="foreground" aria-hidden="true" d="" display="none"/></g></g></g></svg>