<svg xmlns="http://www.w3.org/2000/svg" xmlns:xlink="http://www.w3.org/1999/xlink" version="1.1" class="marks" width="310" height="110" ><g fill="none" stroke-miterlimit="10" transform="translate(5,5)"><g class="mark-group role-frame root" role="graphics-object" aria-roledescription="group mark container"><g transform="translate(0,0)"><path class="background" aria-hidden="true" d="M0,0h300v100h-300Z" stroke="#ddd" stroke-width="0"/><g><g class="mark-rect role-mark marks" role="graphics-symbol" aria-roledescription="rect mark container"><path d="M21.785714285714292,92.72727272727272h6.428571428571429v7.2727272727272805h-6.428571428571429Z" fill="#D2D4CE"/><path d="M28.928571428571434,91.81818181818183h6.428571428571429v8.181818181818173h-6.428571428571429Z" fill="#D2D4CE"/><path d="M36.07142857142858,90.36363636363637h6.428571428571429v9.636363636363626h-6.428571428571429Z" fill="#D2D4CE"/><path d="M43.21428571428572,89.81818181818181h6.428571428571429v10.181818181818187h-6.428571428571429Z" fill="#D2D4CE"/><path d="M50.35714285714286,88.36363636363636h6.428571428571429v11.63636363636364h-6.428571428571429Z" fill="#D2D4CE"/><path d="M57.50000000000001,86.54545454545455h6.428571428571429v13.454545454545453h-6.428571428571429Z" fill="#D2D4CE"/><path d="M64.64285714285715,85.0909090909091h6.428571428571429v14.909090909090907h-6.428571428571429Z" fill="#D2D4CE"/><path d="M71.78571428571429,84h6.428571428571429v16h-6.428571428571429Z" fill="#D2D4CE"/><path d="M78.92857142857143,81.27272727272728h6.428571428571429v18.72727272727272h-6.428571428571429Z" fill="#D2D4CE"/><path d="M86.07142857142858,79.45454545454545h6.428571428571429v20.545454545454547h-6.428571428571429Z" fill="#D2D4CE"/><path d="M93.21428571428572,77.0909090909091h6.428571428571429v22.909090909090907h-6.428571428571429Z" fill="#D2D4CE"/><path d="M100.35714285714286,75.81818181818181h6.428571428571429v24.181818181818187h-6.428571428571429Z" fill="#D2D4CE"/><path d="M107.50000000000001,74.18181818181819h6.428571428571429v25.818181818181813h-6.428571428571429Z" fill="#D2D4CE"/><path d="M114.64285714285715,73.45454545454547h6.428571428571429v26.545454545454533h-6.428571428571429Z" fill="#D2D4CE"/><path d="M121.78571428571429,73.27272727272727h6.428571428571429v26.727272727272734h-6.428571428571429Z" fill="#D2D4CE"/><path d="M128.92857142857144,71.0909090909091h6.428571428571429v28.909090909090907h-6.428571428571429Z" fill="#D2D4CE"/><path d="M136.07142857142858,70.18181818181819h6.428571428571429v29.818181818181813h-6.428571428571429Z" fill="#D2D4CE"/><path d="M143.21428571428572,69.45454545454545h6.428571428571429v30.545454545454547h-6.428571428571429Z" fill="#D2D4CE"/><path d="M150.35714285714286,67.81818181818183h6.428571428571429v32.18181818181817h-6.428571428571429Z" fill="#D2D4CE"/><path d="M157.5,66.90909090909092h6.428571428571429v33.09090909090908h-6.428571428571429Z" fill="#D2D4CE"/><path d="M164.64285714285717,62.18181818181818h6.428571428571429v37.81818181818182h-6.428571428571429Z" fill="#D2D4CE"/><path d="M171.7857142857143,61.45454545454545h6.428571428571429v38.54545454545455h-6.428571428571429Z" fill="#D2D4CE"/><path d="M178.92857142857144,61.09090909090909h6.428571428571429v38.90909090909091h-6.428571428571429Z" fill="#D2D4CE"/><path d="M186.07142857142858,56.72727272727273h6.428571428571429v43.27272727272727h-6.428571428571429Z" fill="#D2D4CE"/><path d="M193.21428571428572,53.090909090909086h6.428571428571429v46.909090909090914h-6.428571428571429Z" fill="#D2D4CE"/><path d="M200.35714285714286,51.272727272727266h6.428571428571429v48.727272727272734h-6.428571428571429Z" fill="#D2D4CE"/><path d="M207.50000000000003,45.63636363636364h6.428571428571429v54.36363636363636h-6.428571428571429Z" fill="#D2D4CE"/><path d="M214.64285714285717,38.54545454545455h6.428571428571429v61.45454545454545h-6.428571428571429Z" fill="#D2D4CE"/><path d="M221.7857142857143,36.18181818181818h6.428571428571429v63.81818181818182h-6.428571428571429Z" fill="#D2D4CE"/><path d="M228.92857142857144,31.818181818181824h6.428571428571429v68.18181818181817h-6.428571428571429Z" fill="#D2D4CE"/><path d="M236.07142857142858,30.36363636363637h6.428571428571429v69.63636363636363h-6.428571428571429Z" fill="#D2D4CE"/><path d="M243.21428571428572,26.363636363636367h6.428571428571429v73.63636363636363h-6.428571428571429Z" fill="#D2D4CE"/><path d="M250.35714285714286,22.909090909090914h6.428571428571429v77.0909090909091h-6.428571428571429Z" fill="#D2D4CE"/><path d="M257.5,22.72727272727273h6.428571428571429v77.27272727272727h-6.428571428571429Z" fill="#D2D4CE"/><path d="M264.6428571428571,21.45454545454545h6.428571428571429v78.54545454545455h-6.428571428571429Z" fill="#D2D4CE"/><path d="M271.78571428571433,16.545454545454554h6.428571428571429v83.45454545454544h-6.428571428571429Z" fill="#D2D4CE"/><path d="M278.92857142857144,5.09090909090909h6.428571428571429v94.9090909090909h-6.428571428571429Z" fill="#D2D4CE"/><path d="M286.07142857142856,4.181818181818175h6.428571428571429v95.81818181818183h-6.428571428571429Z" fill="#D2D4CE"/><path d="M293.2142857142858,0.7272727272727209h6.428571428571429v99.27272727272728h-6.428571428571429Z" fill="#00923E"/></g></g><path class="foreground" aria-hidden="true" d="" display="none"/></g></g></g></svg>