<svg xmlns="http://www.w3.org/2000/svg" xmlns:xlink="http://www.w3.org/1999/xlink" version="1.1" class="marks" width="310" height="110" ><g fill="none" stroke-miterlimit="10" transform="translate(5,5)"><g class="mark-group role-frame root" role="graphics-object" aria-roledescription="group mark container"><g transform="translate(0,0)"><path class="background" aria-hidden="true" d="M0,0h300v100h-300Z" stroke="#ddd" stroke-width="0"/><g><g class="mark-rect role-mark marks" role="graphics-symbol" aria-roledescription="rect mark container"><path d="M0.3571428571428612,95h6.428571428571429v5h-6.428571428571429Z" fill="#D2D4CE"/><path d="M7.500000000000004,94.89285714285714h6.428571428571429v5.107142857142861h-6.428571428571429Z" fill="#D2D4CE"/><path d="M14.642857142857148,93.57142857142857h6.428571428571429v6.428571428571431h-6.428571428571429Z" fill="#D2D4CE"/><path d="M21.785714285714292,92.67857142857143h6.428571428571429v7.321428571428569h-6.428571428571429Z" fill="#D2D4CE"/><path d="M28.928571428571434,92.53571428571429h6.428571428571429v7.464285714285708h-6.428571428571429Z" fill="#D2D4CE"/><path d="M36.07142857142858,90.5h6.428571428571429v9.5h-6.428571428571429Z" fill="#D2D4CE"/><path d="M43.21428571428572,89.89285714285714h6.428571428571429v10.107142857142861h-6.428571428571429Z" fill="#D2D4CE"/><path d="M50.35714285714286,88.25h6.428571428571429v11.75h-6.428571428571429Z" fill="#D2D4CE"/><path d="M57.50000000000001,87.92857142857143h6.428571428571429v12.07142857142857h-6.428571428571429Z" fill="#D2D4CE"/><path d="M64.64285714285715,86.5h6.428571428571429v13.5h-6.428571428571429Z" fill="#D2D4CE"/><path d="M71.78571428571429,85.96428571428572h6.428571428571429v14.035714285714278h-6.428571428571429Z" fill="#D2D4CE"/><path d="M78.92857142857143,84.96428571428571h6.428571428571429v15.035714285714292h-6.428571428571429Z" fill="#D2D4CE"/><path d="M86.07142857142858,84.32142857142857h6.428571428571429v15.67857142857143h-6.428571428571429Z" fill="#D2D4CE"/><path d="M93.21428571428572,83.78571428571429h6.428571428571429v16.214285714285708h-6.428571428571429Z" fill="#D2D4CE"/><path d="M100.35714285714286,83.28571428571429h6.428571428571429v16.714285714285708h-6.428571428571429Z" fill="#D2D4CE"/><path d="M107.50000000000001,83.10714285714286h6.428571428571429v16.89285714285714h-6.428571428571429Z" fill="#D2D4CE"/><path d="M114.64285714285715,81.67857142857143h6.428571428571429v18.32142857142857h-6.428571428571429Z" fill="#D2D4CE"/><path d="M121.78571428571429,81.60714285714286h6.428571428571429v18.39285714285714h-6.428571428571429Z" fill="#D2D4CE"/><path d="M128.92857142857144,81.35714285714286h6.428571428571429v18.64285714285714h-6.428571428571429Z" fill="#D2D4CE"/><path d="M136.07142857142858,80h6.428571428571429v20h-6.428571428571429Z" fill="#D2D4CE"/><path d="M143.21428571428572,79.75h6.428571428571429v20.25h-6.428571428571429Z" fill="#D2D4CE"/><path d="M150.35714285714286,78.5h6.428571428571429v21.5h-6.428571428571429Z" fill="#D2D4CE"/><path d="M157.5,77.75h6.428571428571429v22.25h-6.428571428571429Z" fill="#D2D4CE"/><path d="M164.64285714285717,74.53571428571428h6.428571428571429v25.464285714285722h-6.428571428571429Z" fill="#D2D4CE"/><path d="M171.7857142857143,73.10714285714286h6.428571428571429v26.89285714285714h-6.428571428571429Z" fill="#D2D4CE"/><path d="M178.92857142857144,71.85714285714286h6.428571428571429v28.14285714285714h-6.428571428571429Z" fill="#D2D4CE"/><path d="M186.07142857142858,69.92857142857143h6.428571428571429v30.07142857142857h-6.428571428571429Z" fill="#D2D4CE"/><path d="M193.21428571428572,65.89285714285714h6.428571428571429v34.10714285714286h-6.428571428571429Z" fill="#D2D4CE"/><path d="M200.35714285714286,60.57142857142856h6.428571428571429v39.42857142857144h-6.428571428571429Z" fill="#D2D4CE"/><path d="M207.50000000000003,59.964285714285715h6.428571428571429v40.035714285714285h-6.428571428571429Z" fill="#D2D4CE"/><path d="M214.64285714285717,58.03571428571428h6.428571428571429v41.96428571428572h-6.428571428571429Z" fill="#D2D4CE"/><path d="M221.7857142857143,55.107142857142854h6.428571428571429v44.892857142857146h-6.428571428571429Z" fill="#D2D4CE"/><path d="M228.92857142857144,51.678571428571416h6.428571428571429v48.321428571428584h-6.428571428571429Z" fill="#D2D4CE"/><path d="M236.07142857142858,44.35714285714285h6.428571428571429v55.64285714285715h-6.428571428571429Z" fill="#D2D4CE"/><path d="M243.21428571428572,43.32142857142858h6.428571428571429v56.67857142857142h-6.428571428571429Z" fill="#D2D4CE"/><path d="M250.35714285714286,37.42857142857143h6.428571428571429v62.57142857142857h-6.428571428571429Z" fill="#D2D4CE"/><path d="M257.5,34.60714285714286h6.428571428571429v65.39285714285714h-6.428571428571429Z" fill="#D2D4CE"/><path d="M264.6428571428571,21.92857142857143h6.428571428571429v78.07142857142857h-6.428571428571429Z" fill="#D2D4CE"/><path d="M271.78571428571433,19.92857142857143h6.428571428571429v80.07142857142857h-6.428571428571429Z" fill="#00923E"/><path d="M278.92857142857144,15.785714285714281h6.428571428571429v84.21428571428572h-6.428571428571429Z" fill="#D2D4CE"/><path d="M286.07142857142856,8.571428571428575h6.428571428571429v91.42857142857143h-6.428571428571429Z" fill="#D2D4CE"/><path d="M293.2142857142858,6.2857142857142945h6.428571428571429v93.71428571428571h-6.428571428571429Z" fill="#D2D4CE"/></g></g><path class="foreground" aria-hidden="true" d="" display="none"/></g></g></g></svg>