<svg xmlns="http://www.w3.org/2000/svg" xmlns:xlink="http://www.w3.org/1999/xlink" version="1.1" class="marks" width="310" height="110" ><g fill="none" stroke-miterlimit="10" transform="translate(5,5)"><g class="mark-group role-frame root" role="graphics-object" aria-roledescription="group mark container"><g transform="translate(0,0)"><path class="background" aria-hidden="true" d="M0,0h300v100h-300Z" stroke="#ddd" stroke-width="0"/><g><g class="mark-rect role-mark marks" role="graphics-symbol" aria-roledescription="rect mark container"><path d="M0.3571428571428612,97.5h6.428571428571429v2.5h-6.428571428571429Z" fill="#D2D4CE"/><path d="M7.500000000000004,97.5h6.428571428571429v2.5h-6.428571428571429Z" fill="#D2D4CE"/><path d="M14.642857142857148,92.5h6.428571428571429v7.5h-6.428571428571429Z" fill="#D2D4CE"/><path d="M21.785714285714292,92.5h6.428571428571429v7.5h-6.428571428571429Z" fill="#D2D4CE"/><path d="M28.928571428571434,92.5h6.428571428571429v7.5h-6.428571428571429Z" fill="#D2D4CE"/><path d="M36.07142857142858,90h6.428571428571429v10h-6.428571428571429Z" fill="#D2D4CE"/><path d="M43.21428571428572,90h6.428571428571429v10h-6.428571428571429Z" fill="#D2D4CE"/><path d="M50.35714285714286,85h6.428571428571429v15h-6.428571428571429Z" fill="#D2D4CE"/><path d="M57.50000000000001,85h6.428571428571429v15h-6.428571428571429Z" fill="#D2D4CE"/><path d="M64.64285714285715,85h6.428571428571429v15h-6.428571428571429Z" fill="#D2D4CE"/><path d="M71.78571428571429,82.5h6.428571428571429v17.5h-6.428571428571429Z" fill="#D2D4CE"/><path d="M78.92857142857143,82.5h6.428571428571429v17.5h-6.428571428571429Z" fill="#D2D4CE"/><path d="M86.07142857142858,80h6.428571428571429v20h-6.428571428571429Z" fill="#D2D4CE"/><path d="M93.21428571428572,80h6.428571428571429v20h-6.428571428571429Z" fill="#D2D4CE"/><path d="M100.35714285714286,80h6.428571428571429v20h-6.428571428571429Z" fill="#D2D4CE"/><path d="M107.50000000000001,77.5h6.428571428571429v22.5h-6.428571428571429Z" fill="#D2D4CE"/><path d="M114.64285714285715,77.5h6.428571428571429v22.5h-6.428571428571429Z" fill="#D2D4CE"/><path d="M121.78571428571429,77.5h6.428571428571429v22.5h-6.428571428571429Z" fill="#D2D4CE"/><path d="M128.92857142857144,75h6.428571428571429v25h-6.428571428571429Z" fill="#D2D4CE"/><path d="M136.07142857142858,75h6.428571428571429v25h-6.428571428571429Z" fill="#D2D4CE"/><path d="M143.21428571428572,70h6.428571428571429v30h-6.428571428571429Z" fill="#D2D4CE"/><path d="M150.35714285714286,65h6.428571428571429v35h-6.428571428571429Z" fill="#D2D4CE"/><path d="M157.5,65h6.428571428571429v35h-6.428571428571429Z" fill="#D2D4CE"/><path d="M164.64285714285717,65h6.428571428571429v35h-6.428571428571429Z" fill="#D2D4CE"/><path d="M171.7857142857143,65h6.428571428571429v35h-6.428571428571429Z" fill="#D2D4CE"/><path d="M178.92857142857144,62.5h6.428571428571429v37.5h-6.428571428571429Z" fill="#D2D4CE"/><path d="M186.07142857142858,60h6.428571428571429v40h-6.428571428571429Z" fill="#D2D4CE"/><path d="M193.21428571428572,57.49999999999999h6.428571428571429v42.50000000000001h-6.428571428571429Z" fill="#D2D4CE"/><path d="M200.35714285714286,55.00000000000001h6.428571428571429v44.99999999999999h-6.428571428571429Z" fill="#D2D4CE"/><path d="M207.50000000000003,55.00000000000001h6.428571428571429v44.99999999999999h-6.428571428571429Z" fill="#D2D4CE"/><path d="M214.64285714285717,55.00000000000001h6.428571428571429v44.99999999999999h-6.428571428571429Z" fill="#D2D4CE"/><path d="M221.7857142857143,52.5h6.428571428571429v47.5h-6.428571428571429Z" fill="#D2D4CE"/><path d="M228.92857142857144,42.50000000000001h6.428571428571429v57.49999999999999h-6.428571428571429Z" fill="#D2D4CE"/><path d="M236.07142857142858,42.50000000000001h6.428571428571429v57.49999999999999h-6.428571428571429Z" fill="#D2D4CE"/><path d="M243.21428571428572,37.5h6.428571428571429v62.5h-6.428571428571429Z" fill="#D2D4CE"/><path d="M250.35714285714286,37.5h6.428571428571429v62.5h-6.428571428571429Z" fill="#D2D4CE"/><path d="M257.5,30.000000000000004h6.428571428571429v70h-6.428571428571429Z" fill="#D2D4CE"/><path d="M264.6428571428571,27.500000000000004h6.428571428571429v72.5h-6.428571428571429Z" fill="#D2D4CE"/><path d="M271.78571428571433,25h6.428571428571429v75h-6.428571428571429Z" fill="#00923E"/><path d="M278.92857142857144,19.999999999999996h6.428571428571429v80h-6.428571428571429Z" fill="#D2D4CE"/><path d="M286.07142857142856,19.999999999999996h6.428571428571429v80h-6.428571428571429Z" fill="#D2D4CE"/><path d="M293.2142857142858,9.999999999999998h6.428571428571429v90h-6.428571428571429Z" fill="#D2D4CE"/></g></g><path class="foreground" aria-hidden="true" d="" display="none"/></g></g></g></svg>