<svg xmlns="http://www.w3.org/2000/svg" xmlns:xlink="http://www.w3.org/1999/xlink" version="1.1" class="marks" width="310" height="110" ><g fill="none" stroke-miterlimit="10" transform="translate(5,5)"><g class="mark-group role-frame root" role="graphics-object" aria-roledescription="group mark container"><g transform="translate(0,0)"><path class="background" aria-hidden="true" d="M0,0h300v100h-300Z" stroke="#ddd" stroke-width="0"/><g><g class="mark-rect role-mark marks" role="graphics-symbol" aria-roledescription="rect mark container"><path d="M0.3571428571428612,99.23076923076923h6.428571428571429v0.7692307692307736h-6.428571428571429Z" fill="#D2D4CE"/><path d="M7.500000000000004,99.1923076923077h6.428571428571429v0.8076923076923066h-6.428571428571429Z" fill="#D2D4CE"/><path d="M14.642857142857148,98.92307692307692h6.428571428571429v1.0769230769230802h-6.428571428571429Z" fill="#D2D4CE"/><path d="M21.785714285714292,98.23076923076923h6.428571428571429v1.7692307692307736h-6.428571428571429Z" fill="#D2D4CE"/><path d="M28.928571428571434,97.65384615384616h6.428571428571429v2.3461538461538396h-6.428571428571429Z" fill="#D2D4CE"/><path d="M36.07142857142858,97.46153846153847h6.428571428571429v2.538461538461533h-6.428571428571429Z" fill="#D2D4CE"/><path d="M43.21428571428572,96.88461538461539h6.428571428571429v3.115384615384613h-6.428571428571429Z" fill="#D2D4CE"/><path d="M50.35714285714286,96.23076923076923h6.428571428571429v3.7692307692307736h-6.428571428571429Z" fill="#D2D4CE"/><path d="M57.50000000000001,94.96153846153847h6.428571428571429v5.038461538461533h-6.428571428571429Z" fill="#D2D4CE"/><path d="M64.64285714285715,94.65384615384616h6.428571428571429v5.34615384615384h-6.428571428571429Z" fill="#D2D4CE"/><path d="M71.78571428571429,94.5h6.428571428571429v5.5h-6.428571428571429Z" fill="#D2D4CE"/><path d="M78.92857142857143,94.5h6.428571428571429v5.5h-6.428571428571429Z" fill="#D2D4CE"/><path d="M86.07142857142858,94.34615384615384h6.428571428571429v5.65384615384616h-6.428571428571429Z" fill="#D2D4CE"/><path d="M93.21428571428572,93.46153846153847h6.428571428571429v6.538461538461533h-6.428571428571429Z" fill="#D2D4CE"/><path d="M100.35714285714286,92.76923076923077h6.428571428571429v7.230769230769226h-6.428571428571429Z" fill="#D2D4CE"/><path d="M107.50000000000001,91.34615384615384h6.428571428571429v8.65384615384616h-6.428571428571429Z" fill="#D2D4CE"/><path d="M114.64285714285715,90.96153846153847h6.428571428571429v9.038461538461533h-6.428571428571429Z" fill="#D2D4CE"/><path d="M121.78571428571429,90.92307692307693h6.428571428571429v9.076923076923066h-6.428571428571429Z" fill="#D2D4CE"/><path d="M128.92857142857144,90.88461538461539h6.428571428571429v9.115384615384613h-6.428571428571429Z" fill="#D2D4CE"/><path d="M136.07142857142858,89.96153846153845h6.428571428571429v10.038461538461547h-6.428571428571429Z" fill="#D2D4CE"/><path d="M143.21428571428572,89.3076923076923h6.428571428571429v10.692307692307693h-6.428571428571429Z" fill="#D2D4CE"/><path d="M150.35714285714286,88.73076923076924h6.428571428571429v11.26923076923076h-6.428571428571429Z" fill="#D2D4CE"/><path d="M157.5,87.73076923076924h6.428571428571429v12.26923076923076h-6.428571428571429Z" fill="#D2D4CE"/><path d="M164.64285714285717,87.5h6.428571428571429v12.5h-6.428571428571429Z" fill="#D2D4CE"/><path d="M171.7857142857143,87.23076923076923h6.428571428571429v12.769230769230774h-6.428571428571429Z" fill="#D2D4CE"/><path d="M178.92857142857144,87.1923076923077h6.428571428571429v12.807692307692307h-6.428571428571429Z" fill="#D2D4CE"/><path d="M186.07142857142858,86.76923076923077h6.428571428571429v13.230769230769226h-6.428571428571429Z" fill="#D2D4CE"/><path d="M193.21428571428572,86.34615384615385h6.428571428571429v13.653846153846146h-6.428571428571429Z" fill="#D2D4CE"/><path d="M200.35714285714286,86.23076923076923h6.428571428571429v13.769230769230774h-6.428571428571429Z" fill="#D2D4CE"/><path d="M207.50000000000003,80.73076923076923h6.428571428571429v19.269230769230774h-6.428571428571429Z" fill="#D2D4CE"/><path d="M214.64285714285717,78.46153846153847h6.428571428571429v21.538461538461533h-6.428571428571429Z" fill="#D2D4CE"/><path d="M221.7857142857143,75h6.428571428571429v25h-6.428571428571429Z" fill="#D2D4CE"/><path d="M228.92857142857144,72.23076923076923h6.428571428571429v27.769230769230774h-6.428571428571429Z" fill="#D2D4CE"/><path d="M236.07142857142858,70.07692307692308h6.428571428571429v29.92307692307692h-6.428571428571429Z" fill="#D2D4CE"/><path d="M243.21428571428572,61.30769230769231h6.428571428571429v38.69230769230769h-6.428571428571429Z" fill="#D2D4CE"/><path d="M250.35714285714286,55.807692307692314h6.428571428571429v44.192307692307686h-6.428571428571429Z" fill="#D2D4CE"/><path d="M257.5,54.807692307692314h6.428571428571429v45.192307692307686h-6.428571428571429Z" fill="#D2D4CE"/><path d="M264.6428571428571,53.34615384615384h6.428571428571429v46.65384615384616h-6.428571428571429Z" fill="#00923E"/><path d="M271.78571428571433,30.192307692307697h6.428571428571429v69.8076923076923h-6.428571428571429Z" fill="#D2D4CE"/><path d="M278.92857142857144,19.038461538461537h6.428571428571429v80.96153846153847h-6.428571428571429Z" fill="#D2D4CE"/><path d="M286.07142857142856,13.115384615384617h6.428571428571429v86.88461538461539h-6.428571428571429Z" fill="#D2D4CE"/><path d="M293.2142857142858,1.4615384615384697h6.428571428571429v98.53846153846153h-6.428571428571429Z" fill="#D2D4CE"/></g></g><path class="foreground" aria-hidden="true" d="" display="none"/></g></g></g></svg>