<svg xmlns="http://www.w3.org/2000/svg" xmlns:xlink="http://www.w3.org/1999/xlink" version="1.1" class="marks" width="310" height="110" ><g fill="none" stroke-miterlimit="10" transform="translate(5,5)"><g class="mark-group role-frame root" role="graphics-object" aria-roledescription="group mark container"><g transform="translate(0,0)"><path class="background" aria-hidden="true" d="M0,0h300v100h-300Z" stroke="#ddd" stroke-width="0"/><g><g class="mark-rect role-mark marks" role="graphics-symbol" aria-roledescription="rect mark container"><path d="M0.3571428571428612,99.0909090909091h6.428571428571429v0.9090909090909065h-6.428571428571429Z" fill="#D2D4CE"/><path d="M7.500000000000004,99.0909090909091h6.428571428571429v0.9090909090909065h-6.428571428571429Z" fill="#D2D4CE"/><path d="M14.642857142857148,98.18181818181819h6.428571428571429v1.818181818181813h-6.428571428571429Z" fill="#D2D4CE"/><path d="M21.785714285714292,97.27272727272728h6.428571428571429v2.7272727272727195h-6.428571428571429Z" fill="#D2D4CE"/><path d="M28.928571428571434,97.27272727272728h6.428571428571429v2.7272727272727195h-6.428571428571429Z" fill="#D2D4CE"/><path d="M36.07142857142858,95.45454545454545h6.428571428571429v4.545454545454547h-6.428571428571429Z" fill="#D2D4CE"/><path d="M43.21428571428572,95.45454545454545h6.428571428571429v4.545454545454547h-6.428571428571429Z" fill="#D2D4CE"/><path d="M50.35714285714286,94.54545454545455h6.428571428571429v5.454545454545453h-6.428571428571429Z" fill="#D2D4CE"/><path d="M57.50000000000001,94.54545454545455h6.428571428571429v5.454545454545453h-6.428571428571429Z" fill="#D2D4CE"/><path d="M64.64285714285715,94.54545454545455h6.428571428571429v5.454545454545453h-6.428571428571429Z" fill="#D2D4CE"/><path d="M71.78571428571429,94.54545454545455h6.428571428571429v5.454545454545453h-6.428571428571429Z" fill="#D2D4CE"/><path d="M78.92857142857143,94.54545454545455h6.428571428571429v5.454545454545453h-6.428571428571429Z" fill="#D2D4CE"/><path d="M86.07142857142858,93.63636363636364h6.428571428571429v6.36363636363636h-6.428571428571429Z" fill="#D2D4CE"/><path d="M93.21428571428572,93.63636363636364h6.428571428571429v6.36363636363636h-6.428571428571429Z" fill="#D2D4CE"/><path d="M100.35714285714286,92.72727272727272h6.428571428571429v7.2727272727272805h-6.428571428571429Z" fill="#D2D4CE"/><path d="M107.50000000000001,92.72727272727272h6.428571428571429v7.2727272727272805h-6.428571428571429Z" fill="#D2D4CE"/><path d="M114.64285714285715,91.81818181818183h6.428571428571429v8.181818181818173h-6.428571428571429Z" fill="#D2D4CE"/><path d="M121.78571428571429,89.0909090909091h6.428571428571429v10.909090909090907h-6.428571428571429Z" fill="#00923E"/><path d="M128.92857142857144,87.27272727272728h6.428571428571429v12.72727272727272h-6.428571428571429Z" fill="#D2D4CE"/><path d="M136.07142857142858,86.36363636363636h6.428571428571429v13.63636363636364h-6.428571428571429Z" fill="#D2D4CE"/><path d="M143.21428571428572,86.36363636363636h6.428571428571429v13.63636363636364h-6.428571428571429Z" fill="#D2D4CE"/><path d="M150.35714285714286,86.36363636363636h6.428571428571429v13.63636363636364h-6.428571428571429Z" fill="#D2D4CE"/><path d="M157.5,86.36363636363636h6.428571428571429v13.63636363636364h-6.428571428571429Z" fill="#D2D4CE"/><path d="M164.64285714285717,84.54545454545455h6.428571428571429v15.454545454545453h-6.428571428571429Z" fill="#D2D4CE"/><path d="M171.7857142857143,83.63636363636364h6.428571428571429v16.36363636363636h-6.428571428571429Z" fill="#D2D4CE"/><path d="M178.92857142857144,81.81818181818181h6.428571428571429v18.181818181818187h-6.428571428571429Z" fill="#D2D4CE"/><path d="M186.07142857142858,81.81818181818181h6.428571428571429v18.181818181818187h-6.428571428571429Z" fill="#D2D4CE"/><path d="M193.21428571428572,81.81818181818181h6.428571428571429v18.181818181818187h-6.428571428571429Z" fill="#D2D4CE"/><path d="M200.35714285714286,79.0909090909091h6.428571428571429v20.909090909090907h-6.428571428571429Z" fill="#D2D4CE"/><path d="M207.50000000000003,72.72727272727273h6.428571428571429v27.272727272727266h-6.428571428571429Z" fill="#D2D4CE"/><path d="M214.64285714285717,63.63636363636363h6.428571428571429v36.36363636363637h-6.428571428571429Z" fill="#D2D4CE"/><path d="M221.7857142857143,60h6.428571428571429v40h-6.428571428571429Z" fill="#D2D4CE"/><path d="M228.92857142857144,48.18181818181818h6.428571428571429v51.81818181818182h-6.428571428571429Z" fill="#D2D4CE"/><path d="M236.07142857142858,48.18181818181818h6.428571428571429v51.81818181818182h-6.428571428571429Z" fill="#D2D4CE"/><path d="M243.21428571428572,40.90909090909091h6.428571428571429v59.09090909090909h-6.428571428571429Z" fill="#D2D4CE"/><path d="M250.35714285714286,36.36363636363637h6.428571428571429v63.63636363636363h-6.428571428571429Z" fill="#D2D4CE"/><path d="M257.5,29.999999999999993h6.428571428571429v70h-6.428571428571429Z" fill="#D2D4CE"/><path d="M264.6428571428571,21.818181818181827h6.428571428571429v78.18181818181817h-6.428571428571429Z" fill="#D2D4CE"/><path d="M271.78571428571433,20.90909090909091h6.428571428571429v79.0909090909091h-6.428571428571429Z" fill="#D2D4CE"/><path d="M278.92857142857144,19.999999999999996h6.428571428571429v80h-6.428571428571429Z" fill="#D2D4CE"/><path d="M286.07142857142856,13.636363636363635h6.428571428571429v86.36363636363636h-6.428571428571429Z" fill="#D2D4CE"/><path d="M293.2142857142858,5.454545454545457h6.428571428571429v94.54545454545455h-6.428571428571429Z" fill="#D2D4CE"/></g></g><path class="foreground" aria-hidden="true" d="" display="none"/></g></g></g></svg>