<svg xmlns="http://www.w3.org/2000/svg" xmlns:xlink="http://www.w3.org/1999/xlink" version="1.1" class="marks" width="310" height="110" ><g fill="none" stroke-miterlimit="10" transform="translate(5,5)"><g class="mark-group role-frame root" role="graphics-object" aria-roledescription="group mark container"><g transform="translate(0,0)"><path class="background" aria-hidden="true" d="M0,0h300v100h-300Z" stroke="#ddd" stroke-width="0"/><g><g class="mark-rect role-mark marks" role="graphics-symbol" aria-roledescription="rect mark container"><path d="M0.3571428571428612,98.25454545454545h6.428571428571429v1.7454545454545496h-6.428571428571429Z" fill="#D2D4CE"/><path d="M7.500000000000004,97.2h6.428571428571429v2.799999999999997h-6.428571428571429Z" fill="#D2D4CE"/><path d="M14.642857142857148,92.92727272727272h6.428571428571429v7.072727272727278h-6.428571428571429Z" fill="#D2D4CE"/><path d="M21.785714285714292,92.69090909090909h6.428571428571429v7.309090909090912h-6.428571428571429Z" fill="#D2D4CE"/><path d="M28.928571428571434,87.52727272727273h6.428571428571429v12.472727272727269h-6.428571428571429Z" fill="#D2D4CE"/><path d="M36.07142857142858,85.89090909090909h6.428571428571429v14.10909090909091h-6.428571428571429Z" fill="#00923E"/><path d="M43.21428571428572,84.8h6.428571428571429v15.200000000000003h-6.428571428571429Z" fill="#D2D4CE"/><path d="M50.35714285714286,84.78181818181818h6.428571428571429v15.218181818181819h-6.428571428571429Z" fill="#D2D4CE"/><path d="M57.50000000000001,82.92727272727272h6.428571428571429v17.072727272727278h-6.428571428571429Z" fill="#D2D4CE"/><path d="M64.64285714285715,77.12727272727274h6.428571428571429v22.87272727272726h-6.428571428571429Z" fill="#D2D4CE"/><path d="M71.78571428571429,75.34545454545454h6.428571428571429v24.654545454545456h-6.428571428571429Z" fill="#D2D4CE"/><path d="M78.92857142857143,74.36363636363636h6.428571428571429v25.63636363636364h-6.428571428571429Z" fill="#D2D4CE"/><path d="M86.07142857142858,72.18181818181819h6.428571428571429v27.818181818181813h-6.428571428571429Z" fill="#D2D4CE"/><path d="M93.21428571428572,72.18181818181819h6.428571428571429v27.818181818181813h-6.428571428571429Z" fill="#D2D4CE"/><path d="M100.35714285714286,67.58181818181819h6.428571428571429v32.41818181818181h-6.428571428571429Z" fill="#D2D4CE"/><path d="M107.50000000000001,67.18181818181819h6.428571428571429v32.81818181818181h-6.428571428571429Z" fill="#D2D4CE"/><path d="M114.64285714285715,67.05454545454546h6.428571428571429v32.94545454545454h-6.428571428571429Z" fill="#D2D4CE"/><path d="M121.78571428571429,65.74545454545455h6.428571428571429v34.25454545454545h-6.428571428571429Z" fill="#D2D4CE"/><path d="M128.92857142857144,65.34545454545454h6.428571428571429v34.654545454545456h-6.428571428571429Z" fill="#D2D4CE"/><path d="M136.07142857142858,65h6.428571428571429v35h-6.428571428571429Z" fill="#D2D4CE"/><path d="M143.21428571428572,64.78181818181818h6.428571428571429v35.21818181818182h-6.428571428571429Z" fill="#D2D4CE"/><path d="M150.35714285714286,62.8h6.428571428571429v37.2h-6.428571428571429Z" fill="#D2D4CE"/><path d="M157.5,57.54545454545455h6.428571428571429v42.45454545454545h-6.428571428571429Z" fill="#D2D4CE"/><path d="M164.64285714285717,57.50909090909091h6.428571428571429v42.49090909090909h-6.428571428571429Z" fill="#D2D4CE"/><path d="M171.7857142857143,55.854545454545445h6.428571428571429v44.145454545454555h-6.428571428571429Z" fill="#D2D4CE"/><path d="M178.92857142857144,55.81818181818181h6.428571428571429v44.18181818181819h-6.428571428571429Z" fill="#D2D4CE"/><path d="M186.07142857142858,49.43636363636364h6.428571428571429v50.56363636363636h-6.428571428571429Z" fill="#D2D4CE"/><path d="M193.21428571428572,47.018181818181816h6.428571428571429v52.981818181818184h-6.428571428571429Z" fill="#D2D4CE"/><path d="M200.35714285714286,41.36363636363637h6.428571428571429v58.63636363636363h-6.428571428571429Z" fill="#D2D4CE"/><path d="M207.50000000000003,40.654545454545456h6.428571428571429v59.345454545454544h-6.428571428571429Z" fill="#D2D4CE"/><path d="M214.64285714285717,39.63636363636363h6.428571428571429v60.36363636363637h-6.428571428571429Z" fill="#D2D4CE"/><path d="M221.7857142857143,30.781818181818178h6.428571428571429v69.21818181818182h-6.428571428571429Z" fill="#D2D4CE"/><path d="M228.92857142857144,29.83636363636363h6.428571428571429v70.16363636363637h-6.428571428571429Z" fill="#D2D4CE"/><path d="M236.07142857142858,29.56363636363636h6.428571428571429v70.43636363636364h-6.428571428571429Z" fill="#D2D4CE"/><path d="M243.21428571428572,28.272727272727273h6.428571428571429v71.72727272727272h-6.428571428571429Z" fill="#D2D4CE"/><path d="M250.35714285714286,24.6h6.428571428571429v75.4h-6.428571428571429Z" fill="#D2D4CE"/><path d="M257.5,23.18181818181818h6.428571428571429v76.81818181818181h-6.428571428571429Z" fill="#D2D4CE"/><path d="M264.6428571428571,20.90909090909091h6.428571428571429v79.0909090909091h-6.428571428571429Z" fill="#D2D4CE"/><path d="M271.78571428571433,14.763636363636357h6.428571428571429v85.23636363636365h-6.428571428571429Z" fill="#D2D4CE"/><path d="M278.92857142857144,12.545454545454538h6.428571428571429v87.45454545454547h-6.428571428571429Z" fill="#D2D4CE"/><path d="M286.07142857142856,8.963636363636363h6.428571428571429v91.03636363636363h-6.428571428571429Z" fill="#D2D4CE"/><path d="M293.2142857142858,7.3090909090909095h6.428571428571429v92.69090909090909h-6.428571428571429Z" fill="#D2D4CE"/></g></g><path class="foreground" aria-hidden="true" d="" display="none"/></g></g></g></svg>