<svg xmlns="http://www.w3.org/2000/svg" xmlns:xlink="http://www.w3.org/1999/xlink" version="1.1" class="marks" width="310" height="110" ><g fill="none" stroke-miterlimit="10" transform="translate(5,5)"><g class="mark-group role-frame root" role="graphics-object" aria-roledescription="group mark container"><g transform="translate(0,0)"><path class="background" aria-hidden="true" d="M0,0h300v100h-300Z" stroke="#ddd" stroke-width="0"/><g><g class="mark-rect role-mark marks" role="graphics-symbol" aria-roledescription="rect mark container"><path d="M0.3571428571428612,91.41666666666667h6.428571428571429v8.583333333333329h-6.428571428571429Z" fill="#D2D4CE"/><path d="M7.500000000000004,88h6.428571428571429v12h-6.428571428571429Z" fill="#D2D4CE"/><path d="M14.642857142857148,84.75h6.428571428571429v15.25h-6.428571428571429Z" fill="#D2D4CE"/><path d="M21.785714285714292,83.66666666666667h6.428571428571429v16.33333333333333h-6.428571428571429Z" fill="#D2D4CE"/><path d="M28.928571428571434,83.5h6.428571428571429v16.5h-6.428571428571429Z" fill="#D2D4CE"/><path d="M36.07142857142858,83.45833333333333h6.428571428571429v16.54166666666667h-6.428571428571429Z" fill="#D2D4CE"/><path d="M43.21428571428572,82.75h6.428571428571429v17.25h-6.428571428571429Z" fill="#D2D4CE"/><path d="M50.35714285714286,80.75h6.428571428571429v19.25h-6.428571428571429Z" fill="#D2D4CE"/><path d="M57.50000000000001,76.375h6.428571428571429v23.625h-6.428571428571429Z" fill="#D2D4CE"/><path d="M64.64285714285715,75.58333333333334h6.428571428571429v24.416666666666657h-6.428571428571429Z" fill="#D2D4CE"/><path d="M71.78571428571429,75.45833333333334h6.428571428571429v24.541666666666657h-6.428571428571429Z" fill="#D2D4CE"/><path d="M78.92857142857143,75.33333333333333h6.428571428571429v24.66666666666667h-6.428571428571429Z" fill="#00923E"/><path d="M86.07142857142858,74.66666666666666h6.428571428571429v25.333333333333343h-6.428571428571429Z" fill="#D2D4CE"/><path d="M93.21428571428572,74.04166666666667h6.428571428571429v25.95833333333333h-6.428571428571429Z" fill="#D2D4CE"/><path d="M100.35714285714286,73.58333333333333h6.428571428571429v26.41666666666667h-6.428571428571429Z" fill="#D2D4CE"/><path d="M107.50000000000001,73.16666666666667h6.428571428571429v26.83333333333333h-6.428571428571429Z" fill="#D2D4CE"/><path d="M114.64285714285715,72.54166666666666h6.428571428571429v27.458333333333343h-6.428571428571429Z" fill="#D2D4CE"/><path d="M121.78571428571429,71.75h6.428571428571429v28.25h-6.428571428571429Z" fill="#D2D4CE"/><path d="M128.92857142857144,70.41666666666666h6.428571428571429v29.583333333333343h-6.428571428571429Z" fill="#D2D4CE"/><path d="M136.07142857142858,69.25h6.428571428571429v30.75h-6.428571428571429Z" fill="#D2D4CE"/><path d="M143.21428571428572,68.25h6.428571428571429v31.75h-6.428571428571429Z" fill="#D2D4CE"/><path d="M150.35714285714286,67.45833333333333h6.428571428571429v32.54166666666667h-6.428571428571429Z" fill="#D2D4CE"/><path d="M157.5,66.95833333333334h6.428571428571429v33.04166666666666h-6.428571428571429Z" fill="#D2D4CE"/><path d="M164.64285714285717,65.70833333333333h6.428571428571429v34.29166666666667h-6.428571428571429Z" fill="#D2D4CE"/><path d="M171.7857142857143,65.54166666666667h6.428571428571429v34.45833333333333h-6.428571428571429Z" fill="#D2D4CE"/><path d="M178.92857142857144,63.74999999999999h6.428571428571429v36.25000000000001h-6.428571428571429Z" fill="#D2D4CE"/><path d="M186.07142857142858,63.375h6.428571428571429v36.625h-6.428571428571429Z" fill="#D2D4CE"/><path d="M193.21428571428572,61.00000000000001h6.428571428571429v38.99999999999999h-6.428571428571429Z" fill="#D2D4CE"/><path d="M200.35714285714286,58.875000000000014h6.428571428571429v41.124999999999986h-6.428571428571429Z" fill="#D2D4CE"/><path d="M207.50000000000003,57.791666666666664h6.428571428571429v42.208333333333336h-6.428571428571429Z" fill="#D2D4CE"/><path d="M214.64285714285717,56.25h6.428571428571429v43.75h-6.428571428571429Z" fill="#D2D4CE"/><path d="M221.7857142857143,55.375h6.428571428571429v44.625h-6.428571428571429Z" fill="#D2D4CE"/><path d="M228.92857142857144,54.49999999999999h6.428571428571429v45.50000000000001h-6.428571428571429Z" fill="#D2D4CE"/><path d="M236.07142857142858,50.499999999999986h6.428571428571429v49.500000000000014h-6.428571428571429Z" fill="#D2D4CE"/><path d="M243.21428571428572,48h6.428571428571429v52h-6.428571428571429Z" fill="#D2D4CE"/><path d="M250.35714285714286,42.29166666666667h6.428571428571429v57.70833333333333h-6.428571428571429Z" fill="#D2D4CE"/><path d="M257.5,36.20833333333333h6.428571428571429v63.79166666666667h-6.428571428571429Z" fill="#D2D4CE"/><path d="M264.6428571428571,35.916666666666664h6.428571428571429v64.08333333333334h-6.428571428571429Z" fill="#D2D4CE"/><path d="M271.78571428571433,29.833333333333336h6.428571428571429v70.16666666666666h-6.428571428571429Z" fill="#D2D4CE"/><path d="M278.92857142857144,28.500000000000004h6.428571428571429v71.5h-6.428571428571429Z" fill="#D2D4CE"/><path d="M286.07142857142856,28.250000000000007h6.428571428571429v71.75h-6.428571428571429Z" fill="#D2D4CE"/><path d="M293.2142857142858,5.666666666666664h6.428571428571429v94.33333333333334h-6.428571428571429Z" fill="#D2D4CE"/></g></g><path class="foreground" aria-hidden="true" d="" display="none"/></g></g></g></svg>