<svg xmlns="http://www.w3.org/2000/svg" xmlns:xlink="http://www.w3.org/1999/xlink" version="1.1" class="marks" width="310" height="110" ><g fill="none" stroke-miterlimit="10" transform="translate(5,5)"><g class="mark-group role-frame root" role="graphics-object" aria-roledescription="group mark container"><g transform="translate(0,0)"><path class="background" aria-hidden="true" d="M0,0h300v100h-300Z" stroke="#ddd" stroke-width="0"/><g><g class="mark-rect role-mark marks" role="graphics-symbol" aria-roledescription="rect mark container"><path d="M0.3571428571428612,16.21734423636364h6.428571428571429v83.78265576363636h-6.428571428571429Z" fill="#D2D4CE"/><path d="M7.500000000000004,15.700051572727268h6.428571428571429v84.29994842727274h-6.428571428571429Z" fill="#D2D4CE"/><path d="M14.642857142857148,14.987929518181819h6.428571428571429v85.01207048181818h-6.428571428571429Z" fill="#D2D4CE"/><path d="M21.785714285714292,14.549519809090905h6.428571428571429v85.45048019090909h-6.428571428571429Z" fill="#D2D4CE"/><path d="M28.928571428571434,13.79723360909092h6.428571428571429v86.20276639090908h-6.428571428571429Z" fill="#D2D4CE"/><path d="M36.07142857142858,13.780990727272735h6.428571428571429v86.21900927272726h-6.428571428571429Z" fill="#D2D4CE"/><path d="M43.21428571428572,13.759585036363642h6.428571428571429v86.24041496363635h-6.428571428571429Z" fill="#D2D4CE"/><path d="M50.35714285714286,13.66164922727272h6.428571428571429v86.33835077272728h-6.428571428571429Z" fill="#D2D4CE"/><path d="M57.50000000000001,13.172981963636365h6.428571428571429v86.82701803636364h-6.428571428571429Z" fill="#D2D4CE"/><path d="M64.64285714285715,13.159861690909091h6.428571428571429v86.8401383090909h-6.428571428571429Z" fill="#D2D4CE"/><path d="M71.78571428571429,12.837258518181816h6.428571428571429v87.16274148181819h-6.428571428571429Z" fill="#D2D4CE"/><path d="M78.92857142857143,12.766899927272735h6.428571428571429v87.23310007272727h-6.428571428571429Z" fill="#D2D4CE"/><path d="M86.07142857142858,12.468076636363634h6.428571428571429v87.53192336363637h-6.428571428571429Z" fill="#D2D4CE"/><path d="M93.21428571428572,12.350989563636372h6.428571428571429v87.64901043636362h-6.428571428571429Z" fill="#D2D4CE"/><path d="M100.35714285714286,12.168297545454543h6.428571428571429v87.83170245454545h-6.428571428571429Z" fill="#D2D4CE"/><path d="M107.50000000000001,12.161805727272734h6.428571428571429v87.83819427272726h-6.428571428571429Z" fill="#D2D4CE"/><path d="M114.64285714285715,11.713952854545461h6.428571428571429v88.28604714545455h-6.428571428571429Z" fill="#D2D4CE"/><path d="M121.78571428571429,11.42509835454546h6.428571428571429v88.57490164545455h-6.428571428571429Z" fill="#D2D4CE"/><path d="M128.92857142857144,11.354001163636362h6.428571428571429v88.64599883636365h-6.428571428571429Z" fill="#D2D4CE"/><path d="M136.07142857142858,11.314436563636365h6.428571428571429v88.68556343636364h-6.428571428571429Z" fill="#D2D4CE"/><path d="M143.21428571428572,11.298213090909092h6.428571428571429v88.70178690909091h-6.428571428571429Z" fill="#D2D4CE"/><path d="M150.35714285714286,11.18430190909091h6.428571428571429v88.8156980909091h-6.428571428571429Z" fill="#D2D4CE"/><path d="M157.5,11.130673227272725h6.428571428571429v88.86932677272728h-6.428571428571429Z" fill="#D2D4CE"/><path d="M164.64285714285717,10.939227381818185h6.428571428571429v89.06077261818182h-6.428571428571429Z" fill="#D2D4CE"/><path d="M171.7857142857143,10.866148563636358h6.428571428571429v89.13385143636364h-6.428571428571429Z" fill="#D2D4CE"/><path d="M178.92857142857144,10.676415136363637h6.428571428571429v89.32358486363637h-6.428571428571429Z" fill="#D2D4CE"/><path d="M186.07142857142858,10.48062095454545h6.428571428571429v89.51937904545454h-6.428571428571429Z" fill="#D2D4CE"/><path d="M193.21428571428572,10.384300654545452h6.428571428571429v89.61569934545454h-6.428571428571429Z" fill="#00923E"/><path d="M200.35714285714286,10.34309956363636h6.428571428571429v89.65690043636364h-6.428571428571429Z" fill="#D2D4CE"/><path d="M207.50000000000003,9.909822718181815h6.428571428571429v90.09017728181819h-6.428571428571429Z" fill="#D2D4CE"/><path d="M214.64285714285717,9.904175336363629h6.428571428571429v90.09582466363636h-6.428571428571429Z" fill="#D2D4CE"/><path d="M221.7857142857143,9.81328508181818h6.428571428571429v90.18671491818182h-6.428571428571429Z" fill="#D2D4CE"/><path d="M228.92857142857144,9.660796454545462h6.428571428571429v90.33920354545454h-6.428571428571429Z" fill="#D2D4CE"/><path d="M236.07142857142858,9.600325127272736h6.428571428571429v90.39967487272726h-6.428571428571429Z" fill="#D2D4CE"/><path d="M243.21428571428572,9.473634227272731h6.428571428571429v90.52636577272727h-6.428571428571429Z" fill="#D2D4CE"/><path d="M250.35714285714286,9.195737563636364h6.428571428571429v90.80426243636364h-6.428571428571429Z" fill="#D2D4CE"/><path d="M257.5,9.185532190909084h6.428571428571429v90.81446780909091h-6.428571428571429Z" fill="#D2D4CE"/><path d="M264.6428571428571,8.79864609090909h6.428571428571429v91.20135390909091h-6.428571428571429Z" fill="#D2D4CE"/><path d="M271.78571428571433,8.562153181818177h6.428571428571429v91.43784681818182h-6.428571428571429Z" fill="#D2D4CE"/><path d="M278.92857142857144,8.553264363636359h6.428571428571429v91.44673563636364h-6.428571428571429Z" fill="#D2D4CE"/><path d="M286.07142857142856,8.499695727272726h6.428571428571429v91.50030427272728h-6.428571428571429Z" fill="#D2D4CE"/><path d="M293.2142857142858,7.844501909090917h6.428571428571429v92.15549809090908h-6.428571428571429Z" fill="#D2D4CE"/></g></g><path class="foreground" aria-hidden="true" d="" display="none"/></g></g></g></svg>