<svg xmlns="http://www.w3.org/2000/svg" xmlns:xlink="http://www.w3.org/1999/xlink" version="1.1" class="marks" width="310" height="110" ><g fill="none" stroke-miterlimit="10" transform="translate(5,5)"><g class="mark-group role-frame root" role="graphics-object" aria-roledescription="group mark container"><g transform="translate(0,0)"><path class="background" aria-hidden="true" d="M0,0h300v100h-300Z" stroke="#ddd" stroke-width="0"/><g><g class="mark-rect role-mark marks" role="graphics-symbol" aria-roledescription="rect mark container"><path d="M0.3571428571428612,40.77777777777778h6.428571428571429v59.22222222222222h-6.428571428571429Z" fill="#D2D4CE"/><path d="M7.500000000000004,40.66666666666667h6.428571428571429v59.33333333333333h-6.428571428571429Z" fill="#D2D4CE"/><path d="M14.642857142857148,37.55555555555555h6.428571428571429v62.44444444444445h-6.428571428571429Z" fill="#D2D4CE"/><path d="M21.785714285714292,36.77777777777778h6.428571428571429v63.22222222222222h-6.428571428571429Z" fill="#D2D4CE"/><path d="M28.928571428571434,36.66666666666667h6.428571428571429v63.33333333333333h-6.428571428571429Z" fill="#D2D4CE"/><path d="M36.07142857142858,36.66666666666667h6.428571428571429v63.33333333333333h-6.428571428571429Z" fill="#00923E"/><path d="M43.21428571428572,35.77777777777777h6.428571428571429v64.22222222222223h-6.428571428571429Z" fill="#D2D4CE"/><path d="M50.35714285714286,34.555555555555564h6.428571428571429v65.44444444444443h-6.428571428571429Z" fill="#D2D4CE"/><path d="M57.50000000000001,34.33333333333333h6.428571428571429v65.66666666666667h-6.428571428571429Z" fill="#D2D4CE"/><path d="M64.64285714285715,34.111111111111114h6.428571428571429v65.88888888888889h-6.428571428571429Z" fill="#D2D4CE"/><path d="M71.78571428571429,34.111111111111114h6.428571428571429v65.88888888888889h-6.428571428571429Z" fill="#D2D4CE"/><path d="M78.92857142857143,34h6.428571428571429v66h-6.428571428571429Z" fill="#D2D4CE"/><path d="M86.07142857142858,33.88888888888889h6.428571428571429v66.11111111111111h-6.428571428571429Z" fill="#D2D4CE"/><path d="M93.21428571428572,33.88888888888889h6.428571428571429v66.11111111111111h-6.428571428571429Z" fill="#D2D4CE"/><path d="M100.35714285714286,33.666666666666664h6.428571428571429v66.33333333333334h-6.428571428571429Z" fill="#D2D4CE"/><path d="M107.50000000000001,33.666666666666664h6.428571428571429v66.33333333333334h-6.428571428571429Z" fill="#D2D4CE"/><path d="M114.64285714285715,33.333333333333336h6.428571428571429v66.66666666666666h-6.428571428571429Z" fill="#D2D4CE"/><path d="M121.78571428571429,33.333333333333336h6.428571428571429v66.66666666666666h-6.428571428571429Z" fill="#D2D4CE"/><path d="M128.92857142857144,33.111111111111114h6.428571428571429v66.88888888888889h-6.428571428571429Z" fill="#D2D4CE"/><path d="M136.07142857142858,32.111111111111114h6.428571428571429v67.88888888888889h-6.428571428571429Z" fill="#D2D4CE"/><path d="M143.21428571428572,31.999999999999996h6.428571428571429v68h-6.428571428571429Z" fill="#D2D4CE"/><path d="M150.35714285714286,31.999999999999996h6.428571428571429v68h-6.428571428571429Z" fill="#D2D4CE"/><path d="M157.5,31.11111111111111h6.428571428571429v68.88888888888889h-6.428571428571429Z" fill="#D2D4CE"/><path d="M164.64285714285717,30.666666666666664h6.428571428571429v69.33333333333334h-6.428571428571429Z" fill="#D2D4CE"/><path d="M171.7857142857143,30.222222222222218h6.428571428571429v69.77777777777779h-6.428571428571429Z" fill="#D2D4CE"/><path d="M178.92857142857144,30.11111111111111h6.428571428571429v69.88888888888889h-6.428571428571429Z" fill="#D2D4CE"/><path d="M186.07142857142858,29.44444444444445h6.428571428571429v70.55555555555554h-6.428571428571429Z" fill="#D2D4CE"/><path d="M193.21428571428572,29.44444444444445h6.428571428571429v70.55555555555554h-6.428571428571429Z" fill="#D2D4CE"/><path d="M200.35714285714286,29.333333333333332h6.428571428571429v70.66666666666667h-6.428571428571429Z" fill="#D2D4CE"/><path d="M207.50000000000003,29.222222222222214h6.428571428571429v70.77777777777779h-6.428571428571429Z" fill="#D2D4CE"/><path d="M214.64285714285717,28.111111111111107h6.428571428571429v71.88888888888889h-6.428571428571429Z" fill="#D2D4CE"/><path d="M221.7857142857143,27.111111111111118h6.428571428571429v72.88888888888889h-6.428571428571429Z" fill="#D2D4CE"/><path d="M228.92857142857144,25.66666666666666h6.428571428571429v74.33333333333334h-6.428571428571429Z" fill="#D2D4CE"/><path d="M236.07142857142858,25.333333333333343h6.428571428571429v74.66666666666666h-6.428571428571429Z" fill="#D2D4CE"/><path d="M243.21428571428572,25.333333333333343h6.428571428571429v74.66666666666666h-6.428571428571429Z" fill="#D2D4CE"/><path d="M250.35714285714286,24.111111111111107h6.428571428571429v75.88888888888889h-6.428571428571429Z" fill="#D2D4CE"/><path d="M257.5,21.777777777777775h6.428571428571429v78.22222222222223h-6.428571428571429Z" fill="#D2D4CE"/><path d="M264.6428571428571,17.555555555555557h6.428571428571429v82.44444444444444h-6.428571428571429Z" fill="#D2D4CE"/><path d="M271.78571428571433,13.777777777777779h6.428571428571429v86.22222222222223h-6.428571428571429Z" fill="#D2D4CE"/><path d="M278.92857142857144,9.111111111111114h6.428571428571429v90.88888888888889h-6.428571428571429Z" fill="#D2D4CE"/><path d="M286.07142857142856,8.666666666666655h6.428571428571429v91.33333333333334h-6.428571428571429Z" fill="#D2D4CE"/><path d="M293.2142857142858,5.555555555555558h6.428571428571429v94.44444444444444h-6.428571428571429Z" fill="#D2D4CE"/></g></g><path class="foreground" aria-hidden="true" d="" display="none"/></g></g></g></svg>