<svg xmlns="http://www.w3.org/2000/svg" xmlns:xlink="http://www.w3.org/1999/xlink" version="1.1" class="marks" width="310" height="110" ><g fill="none" stroke-miterlimit="10" transform="translate(5,5)"><g class="mark-group role-frame root" role="graphics-object" aria-roledescription="group mark container"><g transform="translate(0,0)"><path class="background" aria-hidden="true" d="M0,0h300v100h-300Z" stroke="#ddd" stroke-width="0"/><g><g class="mark-rect role-mark marks" role="graphics-symbol" aria-roledescription="rect mark container"><path d="M0.3571428571428612,100h6.428571428571429v0h-6.428571428571429Z" fill="#D2D4CE"/><path d="M7.500000000000004,100h6.428571428571429v0h-6.428571428571429Z" fill="#D2D4CE"/><path d="M14.642857142857148,100h6.428571428571429v0h-6.428571428571429Z" fill="#D2D4CE"/><path d="M21.785714285714292,100h6.428571428571429v0h-6.428571428571429Z" fill="#D2D4CE"/><path d="M28.928571428571434,100h6.428571428571429v0h-6.428571428571429Z" fill="#D2D4CE"/><path d="M36.07142857142858,100h6.428571428571429v0h-6.428571428571429Z" fill="#D2D4CE"/><path d="M43.21428571428572,100h6.428571428571429v0h-6.428571428571429Z" fill="#D2D4CE"/><path d="M50.35714285714286,100h6.428571428571429v0h-6.428571428571429Z" fill="#D2D4CE"/><path d="M57.50000000000001,100h6.428571428571429v0h-6.428571428571429Z" fill="#D2D4CE"/><path d="M64.64285714285715,100h6.428571428571429v0h-6.428571428571429Z" fill="#D2D4CE"/><path d="M71.78571428571429,100h6.428571428571429v0h-6.428571428571429Z" fill="#D2D4CE"/><path d="M78.92857142857143,100h6.428571428571429v0h-6.428571428571429Z" fill="#D2D4CE"/><path d="M86.07142857142858,92.85714285714286h6.428571428571429v7.142857142857139h-6.428571428571429Z" fill="#D2D4CE"/><path d="M93.21428571428572,89.28571428571428h6.428571428571429v10.714285714285722h-6.428571428571429Z" fill="#D2D4CE"/><path d="M100.35714285714286,89.28571428571428h6.428571428571429v10.714285714285722h-6.428571428571429Z" fill="#D2D4CE"/><path d="M107.50000000000001,89.28571428571428h6.428571428571429v10.714285714285722h-6.428571428571429Z" fill="#D2D4CE"/><path d="M114.64285714285715,82.14285714285714h6.428571428571429v17.85714285714286h-6.428571428571429Z" fill="#D2D4CE"/><path d="M121.78571428571429,82.14285714285714h6.428571428571429v17.85714285714286h-6.428571428571429Z" fill="#D2D4CE"/><path d="M128.92857142857144,82.14285714285714h6.428571428571429v17.85714285714286h-6.428571428571429Z" fill="#D2D4CE"/><path d="M136.07142857142858,82.14285714285714h6.428571428571429v17.85714285714286h-6.428571428571429Z" fill="#D2D4CE"/><path d="M143.21428571428572,82.14285714285714h6.428571428571429v17.85714285714286h-6.428571428571429Z" fill="#D2D4CE"/><path d="M150.35714285714286,78.57142857142857h6.428571428571429v21.42857142857143h-6.428571428571429Z" fill="#D2D4CE"/><path d="M157.5,78.57142857142857h6.428571428571429v21.42857142857143h-6.428571428571429Z" fill="#D2D4CE"/><path d="M164.64285714285717,75h6.428571428571429v25h-6.428571428571429Z" fill="#D2D4CE"/><path d="M171.7857142857143,75h6.428571428571429v25h-6.428571428571429Z" fill="#D2D4CE"/><path d="M178.92857142857144,64.28571428571428h6.428571428571429v35.71428571428572h-6.428571428571429Z" fill="#D2D4CE"/><path d="M186.07142857142858,60.71428571428571h6.428571428571429v39.28571428571429h-6.428571428571429Z" fill="#D2D4CE"/><path d="M193.21428571428572,60.71428571428571h6.428571428571429v39.28571428571429h-6.428571428571429Z" fill="#D2D4CE"/><path d="M200.35714285714286,60.71428571428571h6.428571428571429v39.28571428571429h-6.428571428571429Z" fill="#D2D4CE"/><path d="M207.50000000000003,60.71428571428571h6.428571428571429v39.28571428571429h-6.428571428571429Z" fill="#D2D4CE"/><path d="M214.64285714285717,53.571428571428555h6.428571428571429v46.428571428571445h-6.428571428571429Z" fill="#D2D4CE"/><path d="M221.7857142857143,46.42857142857143h6.428571428571429v53.57142857142857h-6.428571428571429Z" fill="#D2D4CE"/><path d="M228.92857142857144,46.42857142857143h6.428571428571429v53.57142857142857h-6.428571428571429Z" fill="#D2D4CE"/><path d="M236.07142857142858,42.85714285714285h6.428571428571429v57.14285714285715h-6.428571428571429Z" fill="#D2D4CE"/><path d="M243.21428571428572,39.28571428571428h6.428571428571429v60.71428571428572h-6.428571428571429Z" fill="#D2D4CE"/><path d="M250.35714285714286,35.71428571428571h6.428571428571429v64.28571428571429h-6.428571428571429Z" fill="#D2D4CE"/><path d="M257.5,32.14285714285714h6.428571428571429v67.85714285714286h-6.428571428571429Z" fill="#D2D4CE"/><path d="M264.6428571428571,17.85714285714286h6.428571428571429v82.14285714285714h-6.428571428571429Z" fill="#D2D4CE"/><path d="M271.78571428571433,17.85714285714286h6.428571428571429v82.14285714285714h-6.428571428571429Z" fill="#D2D4CE"/><path d="M278.92857142857144,14.28571428571428h6.428571428571429v85.71428571428572h-6.428571428571429Z" fill="#00923E"/><path d="M286.07142857142856,14.28571428571428h6.428571428571429v85.71428571428572h-6.428571428571429Z" fill="#D2D4CE"/><path d="M293.2142857142858,3.5714285714285587h6.428571428571429v96.42857142857144h-6.428571428571429Z" fill="#D2D4CE"/></g></g><path class="foreground" aria-hidden="true" d="" display="none"/></g></g></g></svg>