<svg xmlns="http://www.w3.org/2000/svg" xmlns:xlink="http://www.w3.org/1999/xlink" version="1.1" class="marks" width="310" height="110" ><g fill="none" stroke-miterlimit="10" transform="translate(5,5)"><g class="mark-group role-frame root" role="graphics-object" aria-roledescription="group mark container"><g transform="translate(0,0)"><path class="background" aria-hidden="true" d="M0,0h300v100h-300Z" stroke="#ddd" stroke-width="0"/><g><g class="mark-rect role-mark marks" role="graphics-symbol" aria-roledescription="rect mark container"><path d="M0.3571428571428612,88.33333333333333h6.428571428571429v11.666666666666671h-6.428571428571429Z" fill="#D2D4CE"/><path d="M7.500000000000004,85.66666666666667h6.428571428571429v14.333333333333329h-6.428571428571429Z" fill="#D2D4CE"/><path d="M14.642857142857148,84h6.428571428571429v16h-6.428571428571429Z" fill="#D2D4CE"/><path d="M21.785714285714292,81.66666666666667h6.428571428571429v18.33333333333333h-6.428571428571429Z" fill="#D2D4CE"/><path d="M28.928571428571434,77.66666666666666h6.428571428571429v22.333333333333343h-6.428571428571429Z" fill="#D2D4CE"/><path d="M36.07142857142858,77.33333333333333h6.428571428571429v22.66666666666667h-6.428571428571429Z" fill="#D2D4CE"/><path d="M43.21428571428572,77h6.428571428571429v23h-6.428571428571429Z" fill="#D2D4CE"/><path d="M50.35714285714286,76h6.428571428571429v24h-6.428571428571429Z" fill="#D2D4CE"/><path d="M57.50000000000001,74h6.428571428571429v26h-6.428571428571429Z" fill="#D2D4CE"/><path d="M64.64285714285715,73.66666666666666h6.428571428571429v26.333333333333343h-6.428571428571429Z" fill="#D2D4CE"/><path d="M71.78571428571429,73.33333333333334h6.428571428571429v26.666666666666657h-6.428571428571429Z" fill="#D2D4CE"/><path d="M78.92857142857143,73.33333333333334h6.428571428571429v26.666666666666657h-6.428571428571429Z" fill="#D2D4CE"/><path d="M86.07142857142858,72.33333333333334h6.428571428571429v27.666666666666657h-6.428571428571429Z" fill="#D2D4CE"/><path d="M93.21428571428572,72h6.428571428571429v28h-6.428571428571429Z" fill="#00923E"/><path d="M100.35714285714286,71h6.428571428571429v29h-6.428571428571429Z" fill="#D2D4CE"/><path d="M107.50000000000001,67.66666666666667h6.428571428571429v32.33333333333333h-6.428571428571429Z" fill="#D2D4CE"/><path d="M114.64285714285715,67.66666666666667h6.428571428571429v32.33333333333333h-6.428571428571429Z" fill="#D2D4CE"/><path d="M121.78571428571429,67.33333333333333h6.428571428571429v32.66666666666667h-6.428571428571429Z" fill="#D2D4CE"/><path d="M128.92857142857144,66.66666666666667h6.428571428571429v33.33333333333333h-6.428571428571429Z" fill="#D2D4CE"/><path d="M136.07142857142858,66h6.428571428571429v34h-6.428571428571429Z" fill="#D2D4CE"/><path d="M143.21428571428572,59.66666666666667h6.428571428571429v40.33333333333333h-6.428571428571429Z" fill="#D2D4CE"/><path d="M150.35714285714286,58.00000000000001h6.428571428571429v41.99999999999999h-6.428571428571429Z" fill="#D2D4CE"/><path d="M157.5,57.00000000000001h6.428571428571429v42.99999999999999h-6.428571428571429Z" fill="#D2D4CE"/><path d="M164.64285714285717,54.666666666666664h6.428571428571429v45.333333333333336h-6.428571428571429Z" fill="#D2D4CE"/><path d="M171.7857142857143,52h6.428571428571429v48h-6.428571428571429Z" fill="#D2D4CE"/><path d="M178.92857142857144,50.33333333333333h6.428571428571429v49.66666666666667h-6.428571428571429Z" fill="#D2D4CE"/><path d="M186.07142857142858,48.66666666666667h6.428571428571429v51.33333333333333h-6.428571428571429Z" fill="#D2D4CE"/><path d="M193.21428571428572,47h6.428571428571429v53h-6.428571428571429Z" fill="#D2D4CE"/><path d="M200.35714285714286,45.333333333333336h6.428571428571429v54.666666666666664h-6.428571428571429Z" fill="#D2D4CE"/><path d="M207.50000000000003,44.99999999999999h6.428571428571429v55.00000000000001h-6.428571428571429Z" fill="#D2D4CE"/><path d="M214.64285714285717,43.66666666666668h6.428571428571429v56.33333333333332h-6.428571428571429Z" fill="#D2D4CE"/><path d="M221.7857142857143,41.666666666666664h6.428571428571429v58.333333333333336h-6.428571428571429Z" fill="#D2D4CE"/><path d="M228.92857142857144,41.333333333333336h6.428571428571429v58.666666666666664h-6.428571428571429Z" fill="#D2D4CE"/><path d="M236.07142857142858,39h6.428571428571429v61h-6.428571428571429Z" fill="#D2D4CE"/><path d="M243.21428571428572,38h6.428571428571429v62h-6.428571428571429Z" fill="#D2D4CE"/><path d="M250.35714285714286,30.666666666666664h6.428571428571429v69.33333333333334h-6.428571428571429Z" fill="#D2D4CE"/><path d="M257.5,25h6.428571428571429v75h-6.428571428571429Z" fill="#D2D4CE"/><path d="M264.6428571428571,23.33333333333333h6.428571428571429v76.66666666666667h-6.428571428571429Z" fill="#D2D4CE"/><path d="M271.78571428571433,21.333333333333325h6.428571428571429v78.66666666666667h-6.428571428571429Z" fill="#D2D4CE"/><path d="M278.92857142857144,21.000000000000007h6.428571428571429v79h-6.428571428571429Z" fill="#D2D4CE"/><path d="M286.07142857142856,17.999999999999993h6.428571428571429v82h-6.428571428571429Z" fill="#D2D4CE"/><path d="M293.2142857142858,5.000000000000004h6.428571428571429v95h-6.428571428571429Z" fill="#D2D4CE"/></g></g><path class="foreground" aria-hidden="true" d="" display="none"/></g></g></g></svg>