<svg xmlns="http://www.w3.org/2000/svg" xmlns:xlink="http://www.w3.org/1999/xlink" version="1.1" class="marks" width="310" height="110" ><g fill="none" stroke-miterlimit="10" transform="translate(5,5)"><g class="mark-group role-frame root" role="graphics-object" aria-roledescription="group mark container"><g transform="translate(0,0)"><path class="background" aria-hidden="true" d="M0,0h300v100h-300Z" stroke="#ddd" stroke-width="0"/><g><g class="mark-rect role-mark marks" role="graphics-symbol" aria-roledescription="rect mark container"><path d="M0.3571428571428612,93.77777777777779h6.428571428571429v6.222222222222214h-6.428571428571429Z" fill="#D2D4CE"/><path d="M7.500000000000004,90.44444444444444h6.428571428571429v9.555555555555557h-6.428571428571429Z" fill="#D2D4CE"/><path d="M14.642857142857148,86.66666666666667h6.428571428571429v13.333333333333329h-6.428571428571429Z" fill="#D2D4CE"/><path d="M21.785714285714292,85.11111111111111h6.428571428571429v14.888888888888886h-6.428571428571429Z" fill="#D2D4CE"/><path d="M28.928571428571434,83.55555555555556h6.428571428571429v16.444444444444443h-6.428571428571429Z" fill="#00923E"/><path d="M36.07142857142858,82.22222222222221h6.428571428571429v17.777777777777786h-6.428571428571429Z" fill="#D2D4CE"/><path d="M43.21428571428572,81.11111111111111h6.428571428571429v18.888888888888886h-6.428571428571429Z" fill="#D2D4CE"/><path d="M50.35714285714286,80.66666666666666h6.428571428571429v19.333333333333343h-6.428571428571429Z" fill="#D2D4CE"/><path d="M57.50000000000001,78.66666666666666h6.428571428571429v21.333333333333343h-6.428571428571429Z" fill="#D2D4CE"/><path d="M64.64285714285715,78h6.428571428571429v22h-6.428571428571429Z" fill="#D2D4CE"/><path d="M71.78571428571429,75.77777777777777h6.428571428571429v24.22222222222223h-6.428571428571429Z" fill="#D2D4CE"/><path d="M78.92857142857143,74.8888888888889h6.428571428571429v25.1111111111111h-6.428571428571429Z" fill="#D2D4CE"/><path d="M86.07142857142858,74.66666666666666h6.428571428571429v25.333333333333343h-6.428571428571429Z" fill="#D2D4CE"/><path d="M93.21428571428572,74.44444444444444h6.428571428571429v25.555555555555557h-6.428571428571429Z" fill="#D2D4CE"/><path d="M100.35714285714286,74h6.428571428571429v26h-6.428571428571429Z" fill="#D2D4CE"/><path d="M107.50000000000001,73.33333333333334h6.428571428571429v26.666666666666657h-6.428571428571429Z" fill="#D2D4CE"/><path d="M114.64285714285715,70.44444444444444h6.428571428571429v29.555555555555557h-6.428571428571429Z" fill="#D2D4CE"/><path d="M121.78571428571429,69.33333333333334h6.428571428571429v30.666666666666657h-6.428571428571429Z" fill="#D2D4CE"/><path d="M128.92857142857144,68.22222222222223h6.428571428571429v31.77777777777777h-6.428571428571429Z" fill="#D2D4CE"/><path d="M136.07142857142858,67.77777777777779h6.428571428571429v32.222222222222214h-6.428571428571429Z" fill="#D2D4CE"/><path d="M143.21428571428572,66.88888888888889h6.428571428571429v33.111111111111114h-6.428571428571429Z" fill="#D2D4CE"/><path d="M150.35714285714286,65.77777777777779h6.428571428571429v34.222222222222214h-6.428571428571429Z" fill="#D2D4CE"/><path d="M157.5,65.11111111111111h6.428571428571429v34.888888888888886h-6.428571428571429Z" fill="#D2D4CE"/><path d="M164.64285714285717,61.33333333333333h6.428571428571429v38.66666666666667h-6.428571428571429Z" fill="#D2D4CE"/><path d="M171.7857142857143,59.33333333333333h6.428571428571429v40.66666666666667h-6.428571428571429Z" fill="#D2D4CE"/><path d="M178.92857142857144,54.44444444444445h6.428571428571429v45.55555555555555h-6.428571428571429Z" fill="#D2D4CE"/><path d="M186.07142857142858,54.44444444444445h6.428571428571429v45.55555555555555h-6.428571428571429Z" fill="#D2D4CE"/><path d="M193.21428571428572,53.55555555555556h6.428571428571429v46.44444444444444h-6.428571428571429Z" fill="#D2D4CE"/><path d="M200.35714285714286,51.33333333333334h6.428571428571429v48.66666666666666h-6.428571428571429Z" fill="#D2D4CE"/><path d="M207.50000000000003,48.22222222222222h6.428571428571429v51.77777777777778h-6.428571428571429Z" fill="#D2D4CE"/><path d="M214.64285714285717,48.22222222222222h6.428571428571429v51.77777777777778h-6.428571428571429Z" fill="#D2D4CE"/><path d="M221.7857142857143,46.44444444444444h6.428571428571429v53.55555555555556h-6.428571428571429Z" fill="#D2D4CE"/><path d="M228.92857142857144,41.77777777777778h6.428571428571429v58.22222222222222h-6.428571428571429Z" fill="#D2D4CE"/><path d="M236.07142857142858,40.444444444444436h6.428571428571429v59.555555555555564h-6.428571428571429Z" fill="#D2D4CE"/><path d="M243.21428571428572,35.777777777777786h6.428571428571429v64.22222222222221h-6.428571428571429Z" fill="#D2D4CE"/><path d="M250.35714285714286,34.88888888888889h6.428571428571429v65.11111111111111h-6.428571428571429Z" fill="#D2D4CE"/><path d="M257.5,30.000000000000004h6.428571428571429v70h-6.428571428571429Z" fill="#D2D4CE"/><path d="M264.6428571428571,29.11111111111111h6.428571428571429v70.88888888888889h-6.428571428571429Z" fill="#D2D4CE"/><path d="M271.78571428571433,27.77777777777778h6.428571428571429v72.22222222222223h-6.428571428571429Z" fill="#D2D4CE"/><path d="M278.92857142857144,12.444444444444446h6.428571428571429v87.55555555555556h-6.428571428571429Z" fill="#D2D4CE"/><path d="M286.07142857142856,7.555555555555548h6.428571428571429v92.44444444444446h-6.428571428571429Z" fill="#D2D4CE"/><path d="M293.2142857142858,5.777777777777782h6.428571428571429v94.22222222222221h-6.428571428571429Z" fill="#D2D4CE"/></g></g><path class="foreground" aria-hidden="true" d="" display="none"/></g></g></g></svg>