<svg xmlns="http://www.w3.org/2000/svg" xmlns:xlink="http://www.w3.org/1999/xlink" version="1.1" class="marks" width="310" height="110" ><g fill="none" stroke-miterlimit="10" transform="translate(5,5)"><g class="mark-group role-frame root" role="graphics-object" aria-roledescription="group mark container"><g transform="translate(0,0)"><path class="background" aria-hidden="true" d="M0,0h300v100h-300Z" stroke="#ddd" stroke-width="0"/><g><g class="mark-rect role-mark marks" role="graphics-symbol" aria-roledescription="rect mark container"><path d="M0.3571428571428612,99h6.428571428571429v1h-6.428571428571429Z" fill="#D2D4CE"/><path d="M7.500000000000004,89h6.428571428571429v11h-6.428571428571429Z" fill="#D2D4CE"/><path d="M14.642857142857148,85h6.428571428571429v15h-6.428571428571429Z" fill="#D2D4CE"/><path d="M21.785714285714292,83h6.428571428571429v17h-6.428571428571429Z" fill="#D2D4CE"/><path d="M28.928571428571434,82h6.428571428571429v18h-6.428571428571429Z" fill="#D2D4CE"/><path d="M36.07142857142858,79.80000000000001h6.428571428571429v20.19999999999999h-6.428571428571429Z" fill="#D2D4CE"/><path d="M43.21428571428572,79.4h6.428571428571429v20.599999999999994h-6.428571428571429Z" fill="#D2D4CE"/><path d="M50.35714285714286,78.60000000000001h6.428571428571429v21.39999999999999h-6.428571428571429Z" fill="#D2D4CE"/><path d="M57.50000000000001,78h6.428571428571429v22h-6.428571428571429Z" fill="#D2D4CE"/><path d="M64.64285714285715,77h6.428571428571429v23h-6.428571428571429Z" fill="#D2D4CE"/><path d="M71.78571428571429,76.6h6.428571428571429v23.400000000000006h-6.428571428571429Z" fill="#D2D4CE"/><path d="M78.92857142857143,76h6.428571428571429v24h-6.428571428571429Z" fill="#D2D4CE"/><path d="M86.07142857142858,74.4h6.428571428571429v25.599999999999994h-6.428571428571429Z" fill="#D2D4CE"/><path d="M93.21428571428572,65.60000000000001h6.428571428571429v34.39999999999999h-6.428571428571429Z" fill="#D2D4CE"/><path d="M100.35714285714286,65h6.428571428571429v35h-6.428571428571429Z" fill="#D2D4CE"/><path d="M107.50000000000001,63.6h6.428571428571429v36.4h-6.428571428571429Z" fill="#D2D4CE"/><path d="M114.64285714285715,61.20000000000001h6.428571428571429v38.79999999999999h-6.428571428571429Z" fill="#D2D4CE"/><path d="M121.78571428571429,60.8h6.428571428571429v39.2h-6.428571428571429Z" fill="#D2D4CE"/><path d="M128.92857142857144,60.20000000000001h6.428571428571429v39.79999999999999h-6.428571428571429Z" fill="#D2D4CE"/><path d="M136.07142857142858,59.8h6.428571428571429v40.2h-6.428571428571429Z" fill="#D2D4CE"/><path d="M143.21428571428572,58.60000000000001h6.428571428571429v41.39999999999999h-6.428571428571429Z" fill="#D2D4CE"/><path d="M150.35714285714286,57.00000000000001h6.428571428571429v42.99999999999999h-6.428571428571429Z" fill="#D2D4CE"/><path d="M157.5,51.6h6.428571428571429v48.4h-6.428571428571429Z" fill="#D2D4CE"/><path d="M164.64285714285717,50.2h6.428571428571429v49.8h-6.428571428571429Z" fill="#D2D4CE"/><path d="M171.7857142857143,47.4h6.428571428571429v52.6h-6.428571428571429Z" fill="#D2D4CE"/><path d="M178.92857142857144,43.2h6.428571428571429v56.8h-6.428571428571429Z" fill="#D2D4CE"/><path d="M186.07142857142858,42.39999999999999h6.428571428571429v57.60000000000001h-6.428571428571429Z" fill="#D2D4CE"/><path d="M193.21428571428572,42.2h6.428571428571429v57.8h-6.428571428571429Z" fill="#D2D4CE"/><path d="M200.35714285714286,40h6.428571428571429v60h-6.428571428571429Z" fill="#00923E"/><path d="M207.50000000000003,37.8h6.428571428571429v62.2h-6.428571428571429Z" fill="#D2D4CE"/><path d="M214.64285714285717,37.2h6.428571428571429v62.8h-6.428571428571429Z" fill="#D2D4CE"/><path d="M221.7857142857143,34.20000000000001h6.428571428571429v65.79999999999998h-6.428571428571429Z" fill="#D2D4CE"/><path d="M228.92857142857144,32.8h6.428571428571429v67.2h-6.428571428571429Z" fill="#D2D4CE"/><path d="M236.07142857142858,31.999999999999996h6.428571428571429v68h-6.428571428571429Z" fill="#D2D4CE"/><path d="M243.21428571428572,30.599999999999994h6.428571428571429v69.4h-6.428571428571429Z" fill="#D2D4CE"/><path d="M250.35714285714286,30.000000000000004h6.428571428571429v70h-6.428571428571429Z" fill="#D2D4CE"/><path d="M257.5,27h6.428571428571429v73h-6.428571428571429Z" fill="#D2D4CE"/><path d="M264.6428571428571,26.400000000000002h6.428571428571429v73.6h-6.428571428571429Z" fill="#D2D4CE"/><path d="M271.78571428571433,17.000000000000004h6.428571428571429v83h-6.428571428571429Z" fill="#D2D4CE"/><path d="M278.92857142857144,14.000000000000002h6.428571428571429v86h-6.428571428571429Z" fill="#D2D4CE"/><path d="M286.07142857142856,9.799999999999997h6.428571428571429v90.2h-6.428571428571429Z" fill="#D2D4CE"/><path d="M293.2142857142858,4.799999999999994h6.428571428571429v95.2h-6.428571428571429Z" fill="#D2D4CE"/></g></g><path class="foreground" aria-hidden="true" d="" display="none"/></g></g></g></svg>