<svg xmlns="http://www.w3.org/2000/svg" xmlns:xlink="http://www.w3.org/1999/xlink" version="1.1" class="marks" width="310" height="110" ><g fill="none" stroke-miterlimit="10" transform="translate(5,5)"><g class="mark-group role-frame root" role="graphics-object" aria-roledescription="group mark container"><g transform="translate(0,0)"><path class="background" aria-hidden="true" d="M0,0h300v100h-300Z" stroke="#ddd" stroke-width="0"/><g><g class="mark-rect role-mark marks" role="graphics-symbol" aria-roledescription="rect mark container"><path d="M0.3571428571428612,96.25h6.428571428571429v3.75h-6.428571428571429Z" fill="#D2D4CE"/><path d="M7.500000000000004,95.625h6.428571428571429v4.375h-6.428571428571429Z" fill="#D2D4CE"/><path d="M14.642857142857148,93.75h6.428571428571429v6.25h-6.428571428571429Z" fill="#D2D4CE"/><path d="M21.785714285714292,93.75h6.428571428571429v6.25h-6.428571428571429Z" fill="#D2D4CE"/><path d="M28.928571428571434,93.125h6.428571428571429v6.875h-6.428571428571429Z" fill="#D2D4CE"/><path d="M36.07142857142858,92.5h6.428571428571429v7.5h-6.428571428571429Z" fill="#D2D4CE"/><path d="M43.21428571428572,91.25h6.428571428571429v8.75h-6.428571428571429Z" fill="#D2D4CE"/><path d="M50.35714285714286,91.25h6.428571428571429v8.75h-6.428571428571429Z" fill="#D2D4CE"/><path d="M57.50000000000001,90.625h6.428571428571429v9.375h-6.428571428571429Z" fill="#D2D4CE"/><path d="M64.64285714285715,90h6.428571428571429v10h-6.428571428571429Z" fill="#D2D4CE"/><path d="M71.78571428571429,89.375h6.428571428571429v10.625h-6.428571428571429Z" fill="#D2D4CE"/><path d="M78.92857142857143,88.125h6.428571428571429v11.875h-6.428571428571429Z" fill="#D2D4CE"/><path d="M86.07142857142858,86.25h6.428571428571429v13.75h-6.428571428571429Z" fill="#D2D4CE"/><path d="M93.21428571428572,85.625h6.428571428571429v14.375h-6.428571428571429Z" fill="#D2D4CE"/><path d="M100.35714285714286,85.625h6.428571428571429v14.375h-6.428571428571429Z" fill="#D2D4CE"/><path d="M107.50000000000001,85.625h6.428571428571429v14.375h-6.428571428571429Z" fill="#D2D4CE"/><path d="M114.64285714285715,84.375h6.428571428571429v15.625h-6.428571428571429Z" fill="#D2D4CE"/><path d="M121.78571428571429,83.75h6.428571428571429v16.25h-6.428571428571429Z" fill="#D2D4CE"/><path d="M128.92857142857144,82.5h6.428571428571429v17.5h-6.428571428571429Z" fill="#D2D4CE"/><path d="M136.07142857142858,82.5h6.428571428571429v17.5h-6.428571428571429Z" fill="#D2D4CE"/><path d="M143.21428571428572,82.5h6.428571428571429v17.5h-6.428571428571429Z" fill="#D2D4CE"/><path d="M150.35714285714286,81.875h6.428571428571429v18.125h-6.428571428571429Z" fill="#D2D4CE"/><path d="M157.5,81.875h6.428571428571429v18.125h-6.428571428571429Z" fill="#D2D4CE"/><path d="M164.64285714285717,81.25h6.428571428571429v18.75h-6.428571428571429Z" fill="#D2D4CE"/><path d="M171.7857142857143,77.5h6.428571428571429v22.5h-6.428571428571429Z" fill="#D2D4CE"/><path d="M178.92857142857144,76.25h6.428571428571429v23.75h-6.428571428571429Z" fill="#D2D4CE"/><path d="M186.07142857142858,75h6.428571428571429v25h-6.428571428571429Z" fill="#D2D4CE"/><path d="M193.21428571428572,73.125h6.428571428571429v26.875h-6.428571428571429Z" fill="#D2D4CE"/><path d="M200.35714285714286,71.25h6.428571428571429v28.75h-6.428571428571429Z" fill="#D2D4CE"/><path d="M207.50000000000003,70h6.428571428571429v30h-6.428571428571429Z" fill="#D2D4CE"/><path d="M214.64285714285717,68.75h6.428571428571429v31.25h-6.428571428571429Z" fill="#D2D4CE"/><path d="M221.7857142857143,66.25h6.428571428571429v33.75h-6.428571428571429Z" fill="#D2D4CE"/><path d="M228.92857142857144,64.375h6.428571428571429v35.625h-6.428571428571429Z" fill="#D2D4CE"/><path d="M236.07142857142858,61.875h6.428571428571429v38.125h-6.428571428571429Z" fill="#D2D4CE"/><path d="M243.21428571428572,58.75h6.428571428571429v41.25h-6.428571428571429Z" fill="#D2D4CE"/><path d="M250.35714285714286,56.25h6.428571428571429v43.75h-6.428571428571429Z" fill="#D2D4CE"/><path d="M257.5,51.87500000000001h6.428571428571429v48.12499999999999h-6.428571428571429Z" fill="#D2D4CE"/><path d="M264.6428571428571,43.125h6.428571428571429v56.875h-6.428571428571429Z" fill="#D2D4CE"/><path d="M271.78571428571433,38.74999999999999h6.428571428571429v61.25000000000001h-6.428571428571429Z" fill="#D2D4CE"/><path d="M278.92857142857144,37.5h6.428571428571429v62.5h-6.428571428571429Z" fill="#D2D4CE"/><path d="M286.07142857142856,25h6.428571428571429v75h-6.428571428571429Z" fill="#00923E"/><path d="M293.2142857142858,11.250000000000004h6.428571428571429v88.75h-6.428571428571429Z" fill="#D2D4CE"/></g></g><path class="foreground" aria-hidden="true" d="" display="none"/></g></g></g></svg>