<svg xmlns="http://www.w3.org/2000/svg" xmlns:xlink="http://www.w3.org/1999/xlink" version="1.1" class="marks" width="310" height="110" ><g fill="none" stroke-miterlimit="10" transform="translate(5,5)"><g class="mark-group role-frame root" role="graphics-object" aria-roledescription="group mark container"><g transform="translate(0,0)"><path class="background" aria-hidden="true" d="M0,0h300v100h-300Z" stroke="#ddd" stroke-width="0"/><g><g class="mark-rect role-mark marks" role="graphics-symbol" aria-roledescription="rect mark container"><path d="M0.3571428571428612,70h6.428571428571429v30h-6.428571428571429Z" fill="#D2D4CE"/><path d="M7.500000000000004,67.77777777777779h6.428571428571429v32.222222222222214h-6.428571428571429Z" fill="#D2D4CE"/><path d="M14.642857142857148,65.55555555555556h6.428571428571429v34.44444444444444h-6.428571428571429Z" fill="#D2D4CE"/><path d="M21.785714285714292,65.55555555555556h6.428571428571429v34.44444444444444h-6.428571428571429Z" fill="#00923E"/><path d="M28.928571428571434,64.44444444444444h6.428571428571429v35.55555555555556h-6.428571428571429Z" fill="#D2D4CE"/><path d="M36.07142857142858,63.33333333333333h6.428571428571429v36.66666666666667h-6.428571428571429Z" fill="#D2D4CE"/><path d="M43.21428571428572,62.22222222222222h6.428571428571429v37.77777777777778h-6.428571428571429Z" fill="#D2D4CE"/><path d="M50.35714285714286,62.22222222222222h6.428571428571429v37.77777777777778h-6.428571428571429Z" fill="#D2D4CE"/><path d="M57.50000000000001,61.111111111111114h6.428571428571429v38.888888888888886h-6.428571428571429Z" fill="#D2D4CE"/><path d="M64.64285714285715,60h6.428571428571429v40h-6.428571428571429Z" fill="#D2D4CE"/><path d="M71.78571428571429,60h6.428571428571429v40h-6.428571428571429Z" fill="#D2D4CE"/><path d="M78.92857142857143,58.88888888888888h6.428571428571429v41.11111111111112h-6.428571428571429Z" fill="#D2D4CE"/><path d="M86.07142857142858,57.77777777777777h6.428571428571429v42.22222222222223h-6.428571428571429Z" fill="#D2D4CE"/><path d="M93.21428571428572,57.77777777777777h6.428571428571429v42.22222222222223h-6.428571428571429Z" fill="#D2D4CE"/><path d="M100.35714285714286,56.666666666666664h6.428571428571429v43.333333333333336h-6.428571428571429Z" fill="#D2D4CE"/><path d="M107.50000000000001,55.55555555555556h6.428571428571429v44.44444444444444h-6.428571428571429Z" fill="#D2D4CE"/><path d="M114.64285714285715,54.44444444444445h6.428571428571429v45.55555555555555h-6.428571428571429Z" fill="#D2D4CE"/><path d="M121.78571428571429,54.44444444444445h6.428571428571429v45.55555555555555h-6.428571428571429Z" fill="#D2D4CE"/><path d="M128.92857142857144,52.22222222222223h6.428571428571429v47.77777777777777h-6.428571428571429Z" fill="#D2D4CE"/><path d="M136.07142857142858,51.11111111111111h6.428571428571429v48.88888888888889h-6.428571428571429Z" fill="#D2D4CE"/><path d="M143.21428571428572,50h6.428571428571429v50h-6.428571428571429Z" fill="#D2D4CE"/><path d="M150.35714285714286,48.88888888888889h6.428571428571429v51.11111111111111h-6.428571428571429Z" fill="#D2D4CE"/><path d="M157.5,46.666666666666664h6.428571428571429v53.333333333333336h-6.428571428571429Z" fill="#D2D4CE"/><path d="M164.64285714285717,46.666666666666664h6.428571428571429v53.333333333333336h-6.428571428571429Z" fill="#D2D4CE"/><path d="M171.7857142857143,46.666666666666664h6.428571428571429v53.333333333333336h-6.428571428571429Z" fill="#D2D4CE"/><path d="M178.92857142857144,45.55555555555555h6.428571428571429v54.44444444444445h-6.428571428571429Z" fill="#D2D4CE"/><path d="M186.07142857142858,43.333333333333336h6.428571428571429v56.666666666666664h-6.428571428571429Z" fill="#D2D4CE"/><path d="M193.21428571428572,43.333333333333336h6.428571428571429v56.666666666666664h-6.428571428571429Z" fill="#D2D4CE"/><path d="M200.35714285714286,42.222222222222214h6.428571428571429v57.777777777777786h-6.428571428571429Z" fill="#D2D4CE"/><path d="M207.50000000000003,42.222222222222214h6.428571428571429v57.777777777777786h-6.428571428571429Z" fill="#D2D4CE"/><path d="M214.64285714285717,41.11111111111111h6.428571428571429v58.88888888888889h-6.428571428571429Z" fill="#D2D4CE"/><path d="M221.7857142857143,41.11111111111111h6.428571428571429v58.88888888888889h-6.428571428571429Z" fill="#D2D4CE"/><path d="M228.92857142857144,35.555555555555564h6.428571428571429v64.44444444444443h-6.428571428571429Z" fill="#D2D4CE"/><path d="M236.07142857142858,33.333333333333336h6.428571428571429v66.66666666666666h-6.428571428571429Z" fill="#D2D4CE"/><path d="M243.21428571428572,31.11111111111111h6.428571428571429v68.88888888888889h-6.428571428571429Z" fill="#D2D4CE"/><path d="M250.35714285714286,30.000000000000004h6.428571428571429v70h-6.428571428571429Z" fill="#D2D4CE"/><path d="M257.5,14.444444444444438h6.428571428571429v85.55555555555556h-6.428571428571429Z" fill="#D2D4CE"/><path d="M264.6428571428571,14.444444444444438h6.428571428571429v85.55555555555556h-6.428571428571429Z" fill="#D2D4CE"/><path d="M271.78571428571433,14.444444444444438h6.428571428571429v85.55555555555556h-6.428571428571429Z" fill="#D2D4CE"/><path d="M278.92857142857144,7.777777777777772h6.428571428571429v92.22222222222223h-6.428571428571429Z" fill="#D2D4CE"/><path d="M286.07142857142856,6.666666666666665h6.428571428571429v93.33333333333333h-6.428571428571429Z" fill="#D2D4CE"/><path d="M293.2142857142858,5.555555555555558h6.428571428571429v94.44444444444444h-6.428571428571429Z" fill="#D2D4CE"/></g></g><path class="foreground" aria-hidden="true" d="" display="none"/></g></g></g></svg>