<svg xmlns="http://www.w3.org/2000/svg" xmlns:xlink="http://www.w3.org/1999/xlink" version="1.1" class="marks" width="310" height="110" ><g fill="none" stroke-miterlimit="10" transform="translate(5,5)"><g class="mark-group role-frame root" role="graphics-object" aria-roledescription="group mark container"><g transform="translate(0,0)"><path class="background" aria-hidden="true" d="M0,0h300v100h-300Z" stroke="#ddd" stroke-width="0"/><g><g class="mark-rect role-mark marks" role="graphics-symbol" aria-roledescription="rect mark container"><path d="M0.3571428571428612,93.57142857142857h6.428571428571429v6.428571428571431h-6.428571428571429Z" fill="#D2D4CE"/><path d="M7.500000000000004,93.21428571428572h6.428571428571429v6.785714285714278h-6.428571428571429Z" fill="#D2D4CE"/><path d="M14.642857142857148,93.10714285714286h6.428571428571429v6.892857142857139h-6.428571428571429Z" fill="#00923E"/><path d="M21.785714285714292,91.96428571428571h6.428571428571429v8.035714285714292h-6.428571428571429Z" fill="#D2D4CE"/><path d="M28.928571428571434,91.21428571428571h6.428571428571429v8.785714285714292h-6.428571428571429Z" fill="#D2D4CE"/><path d="M36.07142857142858,90.75h6.428571428571429v9.25h-6.428571428571429Z" fill="#D2D4CE"/><path d="M43.21428571428572,89.14285714285714h6.428571428571429v10.857142857142861h-6.428571428571429Z" fill="#D2D4CE"/><path d="M50.35714285714286,86.96428571428572h6.428571428571429v13.035714285714278h-6.428571428571429Z" fill="#D2D4CE"/><path d="M57.50000000000001,85.82142857142857h6.428571428571429v14.17857142857143h-6.428571428571429Z" fill="#D2D4CE"/><path d="M64.64285714285715,84.53571428571429h6.428571428571429v15.464285714285708h-6.428571428571429Z" fill="#D2D4CE"/><path d="M71.78571428571429,83.5h6.428571428571429v16.5h-6.428571428571429Z" fill="#D2D4CE"/><path d="M78.92857142857143,83.07142857142857h6.428571428571429v16.92857142857143h-6.428571428571429Z" fill="#D2D4CE"/><path d="M86.07142857142858,83.07142857142857h6.428571428571429v16.92857142857143h-6.428571428571429Z" fill="#D2D4CE"/><path d="M93.21428571428572,80.42857142857143h6.428571428571429v19.57142857142857h-6.428571428571429Z" fill="#D2D4CE"/><path d="M100.35714285714286,79.78571428571428h6.428571428571429v20.214285714285722h-6.428571428571429Z" fill="#D2D4CE"/><path d="M107.50000000000001,79h6.428571428571429v21h-6.428571428571429Z" fill="#D2D4CE"/><path d="M114.64285714285715,78.53571428571429h6.428571428571429v21.464285714285708h-6.428571428571429Z" fill="#D2D4CE"/><path d="M121.78571428571429,78.35714285714286h6.428571428571429v21.64285714285714h-6.428571428571429Z" fill="#D2D4CE"/><path d="M128.92857142857144,78.14285714285714h6.428571428571429v21.85714285714286h-6.428571428571429Z" fill="#D2D4CE"/><path d="M136.07142857142858,77.64285714285715h6.428571428571429v22.357142857142847h-6.428571428571429Z" fill="#D2D4CE"/><path d="M143.21428571428572,75.75h6.428571428571429v24.25h-6.428571428571429Z" fill="#D2D4CE"/><path d="M150.35714285714286,71.89285714285714h6.428571428571429v28.10714285714286h-6.428571428571429Z" fill="#D2D4CE"/><path d="M157.5,71.60714285714286h6.428571428571429v28.39285714285714h-6.428571428571429Z" fill="#D2D4CE"/><path d="M164.64285714285717,71.17857142857143h6.428571428571429v28.82142857142857h-6.428571428571429Z" fill="#D2D4CE"/><path d="M171.7857142857143,69.71428571428572h6.428571428571429v30.285714285714278h-6.428571428571429Z" fill="#D2D4CE"/><path d="M178.92857142857144,68.25h6.428571428571429v31.75h-6.428571428571429Z" fill="#D2D4CE"/><path d="M186.07142857142858,64.35714285714286h6.428571428571429v35.64285714285714h-6.428571428571429Z" fill="#D2D4CE"/><path d="M193.21428571428572,62.25000000000001h6.428571428571429v37.74999999999999h-6.428571428571429Z" fill="#D2D4CE"/><path d="M200.35714285714286,61.46428571428571h6.428571428571429v38.53571428571429h-6.428571428571429Z" fill="#D2D4CE"/><path d="M207.50000000000003,57.392857142857146h6.428571428571429v42.607142857142854h-6.428571428571429Z" fill="#D2D4CE"/><path d="M214.64285714285717,55.39285714285713h6.428571428571429v44.60714285714287h-6.428571428571429Z" fill="#D2D4CE"/><path d="M221.7857142857143,53.107142857142854h6.428571428571429v46.892857142857146h-6.428571428571429Z" fill="#D2D4CE"/><path d="M228.92857142857144,48.92857142857143h6.428571428571429v51.07142857142857h-6.428571428571429Z" fill="#D2D4CE"/><path d="M236.07142857142858,48.10714285714285h6.428571428571429v51.89285714285715h-6.428571428571429Z" fill="#D2D4CE"/><path d="M243.21428571428572,41.57142857142857h6.428571428571429v58.42857142857143h-6.428571428571429Z" fill="#D2D4CE"/><path d="M250.35714285714286,37.89285714285714h6.428571428571429v62.10714285714286h-6.428571428571429Z" fill="#D2D4CE"/><path d="M257.5,32.92857142857143h6.428571428571429v67.07142857142857h-6.428571428571429Z" fill="#D2D4CE"/><path d="M264.6428571428571,28.714285714285715h6.428571428571429v71.28571428571428h-6.428571428571429Z" fill="#D2D4CE"/><path d="M271.78571428571433,21.142857142857142h6.428571428571429v78.85714285714286h-6.428571428571429Z" fill="#D2D4CE"/><path d="M278.92857142857144,19.64285714285714h6.428571428571429v80.35714285714286h-6.428571428571429Z" fill="#D2D4CE"/><path d="M286.07142857142856,18.35714285714286h6.428571428571429v81.64285714285714h-6.428571428571429Z" fill="#D2D4CE"/><path d="M293.2142857142858,6.321428571428567h6.428571428571429v93.67857142857143h-6.428571428571429Z" fill="#D2D4CE"/></g></g><path class="foreground" aria-hidden="true" d="" display="none"/></g></g></g></svg>