<svg xmlns="http://www.w3.org/2000/svg" xmlns:xlink="http://www.w3.org/1999/xlink" version="1.1" class="marks" width="310" height="110" ><g fill="none" stroke-miterlimit="10" transform="translate(5,5)"><g class="mark-group role-frame root" role="graphics-object" aria-roledescription="group mark container"><g transform="translate(0,0)"><path class="background" aria-hidden="true" d="M0,0h300v100h-300Z" stroke="#ddd" stroke-width="0"/><g><g class="mark-rect role-mark marks" role="graphics-symbol" aria-roledescription="rect mark container"><path d="M0.3571428571428612,97.55555555555556h6.428571428571429v2.444444444444443h-6.428571428571429Z" fill="#D2D4CE"/><path d="M7.500000000000004,77.55555555555556h6.428571428571429v22.444444444444443h-6.428571428571429Z" fill="#D2D4CE"/><path d="M14.642857142857148,70.22222222222221h6.428571428571429v29.777777777777786h-6.428571428571429Z" fill="#D2D4CE"/><path d="M21.785714285714292,70.22222222222221h6.428571428571429v29.777777777777786h-6.428571428571429Z" fill="#D2D4CE"/><path d="M28.928571428571434,67.33333333333333h6.428571428571429v32.66666666666667h-6.428571428571429Z" fill="#D2D4CE"/><path d="M36.07142857142858,66.88888888888889h6.428571428571429v33.111111111111114h-6.428571428571429Z" fill="#D2D4CE"/><path d="M43.21428571428572,63.77777777777778h6.428571428571429v36.22222222222222h-6.428571428571429Z" fill="#D2D4CE"/><path d="M50.35714285714286,62h6.428571428571429v38h-6.428571428571429Z" fill="#D2D4CE"/><path d="M57.50000000000001,61.77777777777778h6.428571428571429v38.22222222222222h-6.428571428571429Z" fill="#D2D4CE"/><path d="M64.64285714285715,60.22222222222222h6.428571428571429v39.77777777777778h-6.428571428571429Z" fill="#D2D4CE"/><path d="M71.78571428571429,56.666666666666664h6.428571428571429v43.333333333333336h-6.428571428571429Z" fill="#00923E"/><path d="M78.92857142857143,56.222222222222214h6.428571428571429v43.777777777777786h-6.428571428571429Z" fill="#D2D4CE"/><path d="M86.07142857142858,56.222222222222214h6.428571428571429v43.777777777777786h-6.428571428571429Z" fill="#D2D4CE"/><path d="M93.21428571428572,53.11111111111111h6.428571428571429v46.88888888888889h-6.428571428571429Z" fill="#D2D4CE"/><path d="M100.35714285714286,51.55555555555556h6.428571428571429v48.44444444444444h-6.428571428571429Z" fill="#D2D4CE"/><path d="M107.50000000000001,50.44444444444445h6.428571428571429v49.55555555555555h-6.428571428571429Z" fill="#D2D4CE"/><path d="M114.64285714285715,50h6.428571428571429v50h-6.428571428571429Z" fill="#D2D4CE"/><path d="M121.78571428571429,49.55555555555555h6.428571428571429v50.44444444444445h-6.428571428571429Z" fill="#D2D4CE"/><path d="M128.92857142857144,48.66666666666666h6.428571428571429v51.33333333333334h-6.428571428571429Z" fill="#D2D4CE"/><path d="M136.07142857142858,47.77777777777777h6.428571428571429v52.22222222222223h-6.428571428571429Z" fill="#D2D4CE"/><path d="M143.21428571428572,47.333333333333336h6.428571428571429v52.666666666666664h-6.428571428571429Z" fill="#D2D4CE"/><path d="M150.35714285714286,46.666666666666664h6.428571428571429v53.333333333333336h-6.428571428571429Z" fill="#D2D4CE"/><path d="M157.5,45.777777777777786h6.428571428571429v54.222222222222214h-6.428571428571429Z" fill="#D2D4CE"/><path d="M164.64285714285717,44.888888888888886h6.428571428571429v55.111111111111114h-6.428571428571429Z" fill="#D2D4CE"/><path d="M171.7857142857143,41.55555555555556h6.428571428571429v58.44444444444444h-6.428571428571429Z" fill="#D2D4CE"/><path d="M178.92857142857144,41.333333333333336h6.428571428571429v58.666666666666664h-6.428571428571429Z" fill="#D2D4CE"/><path d="M186.07142857142858,38.888888888888886h6.428571428571429v61.111111111111114h-6.428571428571429Z" fill="#D2D4CE"/><path d="M193.21428571428572,38h6.428571428571429v62h-6.428571428571429Z" fill="#D2D4CE"/><path d="M200.35714285714286,36.44444444444444h6.428571428571429v63.55555555555556h-6.428571428571429Z" fill="#D2D4CE"/><path d="M207.50000000000003,35.55555555555555h6.428571428571429v64.44444444444446h-6.428571428571429Z" fill="#D2D4CE"/><path d="M214.64285714285717,31.999999999999996h6.428571428571429v68h-6.428571428571429Z" fill="#D2D4CE"/><path d="M221.7857142857143,29.555555555555557h6.428571428571429v70.44444444444444h-6.428571428571429Z" fill="#D2D4CE"/><path d="M228.92857142857144,28.888888888888886h6.428571428571429v71.11111111111111h-6.428571428571429Z" fill="#D2D4CE"/><path d="M236.07142857142858,25.555555555555554h6.428571428571429v74.44444444444444h-6.428571428571429Z" fill="#D2D4CE"/><path d="M243.21428571428572,25.111111111111107h6.428571428571429v74.88888888888889h-6.428571428571429Z" fill="#D2D4CE"/><path d="M250.35714285714286,24.66666666666667h6.428571428571429v75.33333333333333h-6.428571428571429Z" fill="#D2D4CE"/><path d="M257.5,19.77777777777777h6.428571428571429v80.22222222222223h-6.428571428571429Z" fill="#D2D4CE"/><path d="M264.6428571428571,18.88888888888889h6.428571428571429v81.11111111111111h-6.428571428571429Z" fill="#D2D4CE"/><path d="M271.78571428571433,18.88888888888889h6.428571428571429v81.11111111111111h-6.428571428571429Z" fill="#D2D4CE"/><path d="M278.92857142857144,15.555555555555555h6.428571428571429v84.44444444444444h-6.428571428571429Z" fill="#D2D4CE"/><path d="M286.07142857142856,10.222222222222221h6.428571428571429v89.77777777777777h-6.428571428571429Z" fill="#D2D4CE"/><path d="M293.2142857142858,0.22222222222222365h6.428571428571429v99.77777777777777h-6.428571428571429Z" fill="#D2D4CE"/></g></g><path class="foreground" aria-hidden="true" d="" display="none"/></g></g></g></svg>