<svg xmlns="http://www.w3.org/2000/svg" xmlns:xlink="http://www.w3.org/1999/xlink" version="1.1" class="marks" width="310" height="110" ><g fill="none" stroke-miterlimit="10" transform="translate(5,5)"><g class="mark-group role-frame root" role="graphics-object" aria-roledescription="group mark container"><g transform="translate(0,0)"><path class="background" aria-hidden="true" d="M0,0h300v100h-300Z" stroke="#ddd" stroke-width="0"/><g><g class="mark-rect role-mark marks" role="graphics-symbol" aria-roledescription="rect mark container"><path d="M0.3571428571428612,68h6.428571428571429v32h-6.428571428571429Z" fill="#D2D4CE"/><path d="M7.500000000000004,59.74999999999999h6.428571428571429v40.25000000000001h-6.428571428571429Z" fill="#D2D4CE"/><path d="M14.642857142857148,57.25h6.428571428571429v42.75h-6.428571428571429Z" fill="#D2D4CE"/><path d="M21.785714285714292,50.625h6.428571428571429v49.375h-6.428571428571429Z" fill="#D2D4CE"/><path d="M28.928571428571434,47h6.428571428571429v53h-6.428571428571429Z" fill="#D2D4CE"/><path d="M36.07142857142858,46.375h6.428571428571429v53.625h-6.428571428571429Z" fill="#D2D4CE"/><path d="M43.21428571428572,44.75h6.428571428571429v55.25h-6.428571428571429Z" fill="#D2D4CE"/><path d="M50.35714285714286,39.125h6.428571428571429v60.875h-6.428571428571429Z" fill="#D2D4CE"/><path d="M57.50000000000001,38.87500000000001h6.428571428571429v61.12499999999999h-6.428571428571429Z" fill="#D2D4CE"/><path d="M64.64285714285715,37.12500000000001h6.428571428571429v62.87499999999999h-6.428571428571429Z" fill="#D2D4CE"/><path d="M71.78571428571429,36.625h6.428571428571429v63.375h-6.428571428571429Z" fill="#D2D4CE"/><path d="M78.92857142857143,36.12499999999999h6.428571428571429v63.87500000000001h-6.428571428571429Z" fill="#D2D4CE"/><path d="M86.07142857142858,36h6.428571428571429v64h-6.428571428571429Z" fill="#D2D4CE"/><path d="M93.21428571428572,34.5h6.428571428571429v65.5h-6.428571428571429Z" fill="#D2D4CE"/><path d="M100.35714285714286,33.12500000000001h6.428571428571429v66.875h-6.428571428571429Z" fill="#D2D4CE"/><path d="M107.50000000000001,31.624999999999993h6.428571428571429v68.375h-6.428571428571429Z" fill="#D2D4CE"/><path d="M114.64285714285715,30.625000000000004h6.428571428571429v69.375h-6.428571428571429Z" fill="#D2D4CE"/><path d="M121.78571428571429,29.625h6.428571428571429v70.375h-6.428571428571429Z" fill="#D2D4CE"/><path d="M128.92857142857144,27.625h6.428571428571429v72.375h-6.428571428571429Z" fill="#D2D4CE"/><path d="M136.07142857142858,27h6.428571428571429v73h-6.428571428571429Z" fill="#D2D4CE"/><path d="M143.21428571428572,25.750000000000007h6.428571428571429v74.25h-6.428571428571429Z" fill="#D2D4CE"/><path d="M150.35714285714286,25.624999999999996h6.428571428571429v74.375h-6.428571428571429Z" fill="#D2D4CE"/><path d="M157.5,25h6.428571428571429v75h-6.428571428571429Z" fill="#D2D4CE"/><path d="M164.64285714285717,24.5h6.428571428571429v75.5h-6.428571428571429Z" fill="#D2D4CE"/><path d="M171.7857142857143,24.375000000000004h6.428571428571429v75.625h-6.428571428571429Z" fill="#D2D4CE"/><path d="M178.92857142857144,24.249999999999993h6.428571428571429v75.75h-6.428571428571429Z" fill="#D2D4CE"/><path d="M186.07142857142858,23.875h6.428571428571429v76.125h-6.428571428571429Z" fill="#D2D4CE"/><path d="M193.21428571428572,23.375h6.428571428571429v76.625h-6.428571428571429Z" fill="#D2D4CE"/><path d="M200.35714285714286,22.499999999999996h6.428571428571429v77.5h-6.428571428571429Z" fill="#D2D4CE"/><path d="M207.50000000000003,20.75h6.428571428571429v79.25h-6.428571428571429Z" fill="#D2D4CE"/><path d="M214.64285714285717,20.499999999999996h6.428571428571429v79.5h-6.428571428571429Z" fill="#D2D4CE"/><path d="M221.7857142857143,18.625000000000004h6.428571428571429v81.375h-6.428571428571429Z" fill="#D2D4CE"/><path d="M228.92857142857144,16.625h6.428571428571429v83.375h-6.428571428571429Z" fill="#D2D4CE"/><path d="M236.07142857142858,15.999999999999993h6.428571428571429v84h-6.428571428571429Z" fill="#D2D4CE"/><path d="M243.21428571428572,15.625h6.428571428571429v84.375h-6.428571428571429Z" fill="#D2D4CE"/><path d="M250.35714285714286,15.250000000000007h6.428571428571429v84.75h-6.428571428571429Z" fill="#D2D4CE"/><path d="M257.5,13.249999999999995h6.428571428571429v86.75h-6.428571428571429Z" fill="#D2D4CE"/><path d="M264.6428571428571,9.87500000000001h6.428571428571429v90.12499999999999h-6.428571428571429Z" fill="#D2D4CE"/><path d="M271.78571428571433,9.000000000000007h6.428571428571429v91h-6.428571428571429Z" fill="#D2D4CE"/><path d="M278.92857142857144,5.625000000000002h6.428571428571429v94.375h-6.428571428571429Z" fill="#00923E"/><path d="M286.07142857142856,4.374999999999996h6.428571428571429v95.625h-6.428571428571429Z" fill="#D2D4CE"/><path d="M293.2142857142858,1.9999999999999907h6.428571428571429v98.00000000000001h-6.428571428571429Z" fill="#D2D4CE"/></g></g><path class="foreground" aria-hidden="true" d="" display="none"/></g></g></g></svg>