<svg xmlns="http://www.w3.org/2000/svg" xmlns:xlink="http://www.w3.org/1999/xlink" version="1.1" class="marks" width="310" height="110" ><g fill="none" stroke-miterlimit="10" transform="translate(5,5)"><g class="mark-group role-frame root" role="graphics-object" aria-roledescription="group mark container"><g transform="translate(0,0)"><path class="background" aria-hidden="true" d="M0,0h300v100h-300Z" stroke="#ddd" stroke-width="0"/><g><g class="mark-rect role-mark marks" role="graphics-symbol" aria-roledescription="rect mark container"><path d="M0.3571428571428612,69.6h6.428571428571429v30.400000000000006h-6.428571428571429Z" fill="#D2D4CE"/><path d="M7.500000000000004,68.21818181818182h6.428571428571429v31.78181818181818h-6.428571428571429Z" fill="#D2D4CE"/><path d="M14.642857142857148,63.70909090909092h6.428571428571429v36.29090909090908h-6.428571428571429Z" fill="#D2D4CE"/><path d="M21.785714285714292,61.490909090909085h6.428571428571429v38.509090909090915h-6.428571428571429Z" fill="#D2D4CE"/><path d="M28.928571428571434,60.236363636363635h6.428571428571429v39.763636363636365h-6.428571428571429Z" fill="#D2D4CE"/><path d="M36.07142857142858,59.92727272727273h6.428571428571429v40.07272727272727h-6.428571428571429Z" fill="#D2D4CE"/><path d="M43.21428571428572,58.690909090909095h6.428571428571429v41.309090909090905h-6.428571428571429Z" fill="#D2D4CE"/><path d="M50.35714285714286,57.854545454545445h6.428571428571429v42.145454545454555h-6.428571428571429Z" fill="#D2D4CE"/><path d="M57.50000000000001,56.83636363636364h6.428571428571429v43.16363636363636h-6.428571428571429Z" fill="#D2D4CE"/><path d="M64.64285714285715,56.2h6.428571428571429v43.8h-6.428571428571429Z" fill="#D2D4CE"/><path d="M71.78571428571429,54.07272727272727h6.428571428571429v45.92727272727273h-6.428571428571429Z" fill="#D2D4CE"/><path d="M78.92857142857143,52.381818181818176h6.428571428571429v47.618181818181824h-6.428571428571429Z" fill="#D2D4CE"/><path d="M86.07142857142858,50.5090909090909h6.428571428571429v49.4909090909091h-6.428571428571429Z" fill="#D2D4CE"/><path d="M93.21428571428572,49.763636363636365h6.428571428571429v50.236363636363635h-6.428571428571429Z" fill="#D2D4CE"/><path d="M100.35714285714286,49.509090909090915h6.428571428571429v50.490909090909085h-6.428571428571429Z" fill="#D2D4CE"/><path d="M107.50000000000001,47.8h6.428571428571429v52.2h-6.428571428571429Z" fill="#D2D4CE"/><path d="M114.64285714285715,46.38181818181818h6.428571428571429v53.61818181818182h-6.428571428571429Z" fill="#00923E"/><path d="M121.78571428571429,46.199999999999996h6.428571428571429v53.800000000000004h-6.428571428571429Z" fill="#D2D4CE"/><path d="M128.92857142857144,43.63636363636364h6.428571428571429v56.36363636363636h-6.428571428571429Z" fill="#D2D4CE"/><path d="M136.07142857142858,42.01818181818182h6.428571428571429v57.98181818181818h-6.428571428571429Z" fill="#D2D4CE"/><path d="M143.21428571428572,41.92727272727272h6.428571428571429v58.07272727272728h-6.428571428571429Z" fill="#D2D4CE"/><path d="M150.35714285714286,41.90909090909091h6.428571428571429v58.09090909090909h-6.428571428571429Z" fill="#D2D4CE"/><path d="M157.5,41.03636363636364h6.428571428571429v58.96363636363636h-6.428571428571429Z" fill="#D2D4CE"/><path d="M164.64285714285717,39.89090909090909h6.428571428571429v60.10909090909091h-6.428571428571429Z" fill="#D2D4CE"/><path d="M171.7857142857143,39.67272727272727h6.428571428571429v60.32727272727273h-6.428571428571429Z" fill="#D2D4CE"/><path d="M178.92857142857144,38.0909090909091h6.428571428571429v61.9090909090909h-6.428571428571429Z" fill="#D2D4CE"/><path d="M186.07142857142858,37.63636363636365h6.428571428571429v62.36363636363635h-6.428571428571429Z" fill="#D2D4CE"/><path d="M193.21428571428572,36.945454545454545h6.428571428571429v63.054545454545455h-6.428571428571429Z" fill="#D2D4CE"/><path d="M200.35714285714286,36.03636363636363h6.428571428571429v63.96363636363637h-6.428571428571429Z" fill="#D2D4CE"/><path d="M207.50000000000003,34.01818181818182h6.428571428571429v65.98181818181817h-6.428571428571429Z" fill="#D2D4CE"/><path d="M214.64285714285717,33.63636363636363h6.428571428571429v66.36363636363637h-6.428571428571429Z" fill="#D2D4CE"/><path d="M221.7857142857143,28.59999999999999h6.428571428571429v71.4h-6.428571428571429Z" fill="#D2D4CE"/><path d="M228.92857142857144,27.96363636363637h6.428571428571429v72.03636363636363h-6.428571428571429Z" fill="#D2D4CE"/><path d="M236.07142857142858,27.509090909090915h6.428571428571429v72.49090909090908h-6.428571428571429Z" fill="#D2D4CE"/><path d="M243.21428571428572,25.27272727272727h6.428571428571429v74.72727272727273h-6.428571428571429Z" fill="#D2D4CE"/><path d="M250.35714285714286,24.6h6.428571428571429v75.4h-6.428571428571429Z" fill="#D2D4CE"/><path d="M257.5,23.690909090909095h6.428571428571429v76.30909090909091h-6.428571428571429Z" fill="#D2D4CE"/><path d="M264.6428571428571,21.145454545454545h6.428571428571429v78.85454545454546h-6.428571428571429Z" fill="#D2D4CE"/><path d="M271.78571428571433,16.254545454545454h6.428571428571429v83.74545454545455h-6.428571428571429Z" fill="#D2D4CE"/><path d="M278.92857142857144,12.018181818181816h6.428571428571429v87.98181818181818h-6.428571428571429Z" fill="#D2D4CE"/><path d="M286.07142857142856,9.3090909090909h6.428571428571429v90.6909090909091h-6.428571428571429Z" fill="#D2D4CE"/><path d="M293.2142857142858,4.963636363636359h6.428571428571429v95.03636363636365h-6.428571428571429Z" fill="#D2D4CE"/></g></g><path class="foreground" aria-hidden="true" d="" display="none"/></g></g></g></svg>