<svg xmlns="http://www.w3.org/2000/svg" xmlns:xlink="http://www.w3.org/1999/xlink" version="1.1" class="marks" width="310" height="110" ><g fill="none" stroke-miterlimit="10" transform="translate(5,5)"><g class="mark-group role-frame root" role="graphics-object" aria-roledescription="group mark container"><g transform="translate(0,0)"><path class="background" aria-hidden="true" d="M0,0h300v100h-300Z" stroke="#ddd" stroke-width="0"/><g><g class="mark-rect role-mark marks" role="graphics-symbol" aria-roledescription="rect mark container"><path d="M0.3571428571428612,69.96363636363637h6.428571428571429v30.03636363636363h-6.428571428571429Z" fill="#D2D4CE"/><path d="M7.500000000000004,69.0909090909091h6.428571428571429v30.909090909090907h-6.428571428571429Z" fill="#D2D4CE"/><path d="M14.642857142857148,64.01818181818182h6.428571428571429v35.981818181818184h-6.428571428571429Z" fill="#D2D4CE"/><path d="M21.785714285714292,62.74545454545455h6.428571428571429v37.25454545454545h-6.428571428571429Z" fill="#D2D4CE"/><path d="M28.928571428571434,62.32727272727273h6.428571428571429v37.67272727272727h-6.428571428571429Z" fill="#00923E"/><path d="M36.07142857142858,61.490909090909085h6.428571428571429v38.509090909090915h-6.428571428571429Z" fill="#D2D4CE"/><path d="M43.21428571428572,59.96363636363636h6.428571428571429v40.03636363636364h-6.428571428571429Z" fill="#D2D4CE"/><path d="M50.35714285714286,57.690909090909095h6.428571428571429v42.309090909090905h-6.428571428571429Z" fill="#D2D4CE"/><path d="M57.50000000000001,57.49090909090909h6.428571428571429v42.50909090909091h-6.428571428571429Z" fill="#D2D4CE"/><path d="M64.64285714285715,57.345454545454544h6.428571428571429v42.654545454545456h-6.428571428571429Z" fill="#D2D4CE"/><path d="M71.78571428571429,57.12727272727274h6.428571428571429v42.87272727272726h-6.428571428571429Z" fill="#D2D4CE"/><path d="M78.92857142857143,54.03636363636364h6.428571428571429v45.96363636363636h-6.428571428571429Z" fill="#D2D4CE"/><path d="M86.07142857142858,52.92727272727274h6.428571428571429v47.07272727272726h-6.428571428571429Z" fill="#D2D4CE"/><path d="M93.21428571428572,51.4909090909091h6.428571428571429v48.5090909090909h-6.428571428571429Z" fill="#D2D4CE"/><path d="M100.35714285714286,50.5090909090909h6.428571428571429v49.4909090909091h-6.428571428571429Z" fill="#D2D4CE"/><path d="M107.50000000000001,49.87272727272727h6.428571428571429v50.12727272727273h-6.428571428571429Z" fill="#D2D4CE"/><path d="M114.64285714285715,49.36363636363637h6.428571428571429v50.63636363636363h-6.428571428571429Z" fill="#D2D4CE"/><path d="M121.78571428571429,49.163636363636364h6.428571428571429v50.836363636363636h-6.428571428571429Z" fill="#D2D4CE"/><path d="M128.92857142857144,47.509090909090915h6.428571428571429v52.490909090909085h-6.428571428571429Z" fill="#D2D4CE"/><path d="M136.07142857142858,46.54545454545455h6.428571428571429v53.45454545454545h-6.428571428571429Z" fill="#D2D4CE"/><path d="M143.21428571428572,45.70909090909091h6.428571428571429v54.29090909090909h-6.428571428571429Z" fill="#D2D4CE"/><path d="M150.35714285714286,44.54545454545455h6.428571428571429v55.45454545454545h-6.428571428571429Z" fill="#D2D4CE"/><path d="M157.5,44.381818181818176h6.428571428571429v55.618181818181824h-6.428571428571429Z" fill="#D2D4CE"/><path d="M164.64285714285717,43.56363636363636h6.428571428571429v56.43636363636364h-6.428571428571429Z" fill="#D2D4CE"/><path d="M171.7857142857143,43.18181818181818h6.428571428571429v56.81818181818182h-6.428571428571429Z" fill="#D2D4CE"/><path d="M178.92857142857144,41.054545454545455h6.428571428571429v58.945454545454545h-6.428571428571429Z" fill="#D2D4CE"/><path d="M186.07142857142858,39.090909090909086h6.428571428571429v60.909090909090914h-6.428571428571429Z" fill="#D2D4CE"/><path d="M193.21428571428572,39.054545454545455h6.428571428571429v60.945454545454545h-6.428571428571429Z" fill="#D2D4CE"/><path d="M200.35714285714286,37.45454545454546h6.428571428571429v62.54545454545454h-6.428571428571429Z" fill="#D2D4CE"/><path d="M207.50000000000003,36.56363636363636h6.428571428571429v63.43636363636364h-6.428571428571429Z" fill="#D2D4CE"/><path d="M214.64285714285717,35.018181818181816h6.428571428571429v64.98181818181818h-6.428571428571429Z" fill="#D2D4CE"/><path d="M221.7857142857143,31.05454545454546h6.428571428571429v68.94545454545454h-6.428571428571429Z" fill="#D2D4CE"/><path d="M228.92857142857144,29.254545454545454h6.428571428571429v70.74545454545455h-6.428571428571429Z" fill="#D2D4CE"/><path d="M236.07142857142858,28.800000000000004h6.428571428571429v71.19999999999999h-6.428571428571429Z" fill="#D2D4CE"/><path d="M243.21428571428572,28.309090909090905h6.428571428571429v71.69090909090909h-6.428571428571429Z" fill="#D2D4CE"/><path d="M250.35714285714286,27.127272727272732h6.428571428571429v72.87272727272727h-6.428571428571429Z" fill="#D2D4CE"/><path d="M257.5,23.854545454545452h6.428571428571429v76.14545454545456h-6.428571428571429Z" fill="#D2D4CE"/><path d="M264.6428571428571,20.43636363636364h6.428571428571429v79.56363636363636h-6.428571428571429Z" fill="#D2D4CE"/><path d="M271.78571428571433,19.072727272727274h6.428571428571429v80.92727272727272h-6.428571428571429Z" fill="#D2D4CE"/><path d="M278.92857142857144,19.000000000000007h6.428571428571429v81h-6.428571428571429Z" fill="#D2D4CE"/><path d="M286.07142857142856,10.999999999999998h6.428571428571429v89h-6.428571428571429Z" fill="#D2D4CE"/><path d="M293.2142857142858,7.50909090909091h6.428571428571429v92.49090909090908h-6.428571428571429Z" fill="#D2D4CE"/></g></g><path class="foreground" aria-hidden="true" d="" display="none"/></g></g></g></svg>