<svg xmlns="http://www.w3.org/2000/svg" xmlns:xlink="http://www.w3.org/1999/xlink" version="1.1" class="marks" width="310" height="110" ><g fill="none" stroke-miterlimit="10" transform="translate(5,5)"><g class="mark-group role-frame root" role="graphics-object" aria-roledescription="group mark container"><g transform="translate(0,0)"><path class="background" aria-hidden="true" d="M0,0h300v100h-300Z" stroke="#ddd" stroke-width="0"/><g><g class="mark-rect role-mark marks" role="graphics-symbol" aria-roledescription="rect mark container"><path d="M0.3571428571428612,60h6.428571428571429v40h-6.428571428571429Z" fill="#D2D4CE"/><path d="M7.500000000000004,46h6.428571428571429v54h-6.428571428571429Z" fill="#D2D4CE"/><path d="M14.642857142857148,44.99999999999999h6.428571428571429v55.00000000000001h-6.428571428571429Z" fill="#D2D4CE"/><path d="M21.785714285714292,43.99999999999999h6.428571428571429v56.00000000000001h-6.428571428571429Z" fill="#D2D4CE"/><path d="M28.928571428571434,40h6.428571428571429v60h-6.428571428571429Z" fill="#D2D4CE"/><path d="M36.07142857142858,38h6.428571428571429v62h-6.428571428571429Z" fill="#D2D4CE"/><path d="M43.21428571428572,38h6.428571428571429v62h-6.428571428571429Z" fill="#D2D4CE"/><path d="M50.35714285714286,35h6.428571428571429v65h-6.428571428571429Z" fill="#D2D4CE"/><path d="M57.50000000000001,34h6.428571428571429v66h-6.428571428571429Z" fill="#D2D4CE"/><path d="M64.64285714285715,29.000000000000004h6.428571428571429v71h-6.428571428571429Z" fill="#D2D4CE"/><path d="M71.78571428571429,28.000000000000004h6.428571428571429v72h-6.428571428571429Z" fill="#D2D4CE"/><path d="M78.92857142857143,27h6.428571428571429v73h-6.428571428571429Z" fill="#D2D4CE"/><path d="M86.07142857142858,27h6.428571428571429v73h-6.428571428571429Z" fill="#D2D4CE"/><path d="M93.21428571428572,26h6.428571428571429v74h-6.428571428571429Z" fill="#00923E"/><path d="M100.35714285714286,26h6.428571428571429v74h-6.428571428571429Z" fill="#D2D4CE"/><path d="M107.50000000000001,24h6.428571428571429v76h-6.428571428571429Z" fill="#D2D4CE"/><path d="M114.64285714285715,23h6.428571428571429v77h-6.428571428571429Z" fill="#D2D4CE"/><path d="M121.78571428571429,21.999999999999996h6.428571428571429v78h-6.428571428571429Z" fill="#D2D4CE"/><path d="M128.92857142857144,21.999999999999996h6.428571428571429v78h-6.428571428571429Z" fill="#D2D4CE"/><path d="M136.07142857142858,19.999999999999996h6.428571428571429v80h-6.428571428571429Z" fill="#D2D4CE"/><path d="M143.21428571428572,16.000000000000004h6.428571428571429v84h-6.428571428571429Z" fill="#D2D4CE"/><path d="M150.35714285714286,16.000000000000004h6.428571428571429v84h-6.428571428571429Z" fill="#D2D4CE"/><path d="M157.5,13h6.428571428571429v87h-6.428571428571429Z" fill="#D2D4CE"/><path d="M164.64285714285717,12h6.428571428571429v88h-6.428571428571429Z" fill="#D2D4CE"/><path d="M171.7857142857143,8.999999999999996h6.428571428571429v91h-6.428571428571429Z" fill="#D2D4CE"/><path d="M178.92857142857144,6.999999999999995h6.428571428571429v93h-6.428571428571429Z" fill="#D2D4CE"/><path d="M186.07142857142858,6.000000000000005h6.428571428571429v94h-6.428571428571429Z" fill="#D2D4CE"/><path d="M193.21428571428572,6.000000000000005h6.428571428571429v94h-6.428571428571429Z" fill="#D2D4CE"/><path d="M200.35714285714286,6.000000000000005h6.428571428571429v94h-6.428571428571429Z" fill="#D2D4CE"/><path d="M207.50000000000003,6.000000000000005h6.428571428571429v94h-6.428571428571429Z" fill="#D2D4CE"/><path d="M214.64285714285717,5.000000000000004h6.428571428571429v95h-6.428571428571429Z" fill="#D2D4CE"/><path d="M221.7857142857143,4.0000000000000036h6.428571428571429v96h-6.428571428571429Z" fill="#D2D4CE"/><path d="M228.92857142857144,2.0000000000000018h6.428571428571429v98h-6.428571428571429Z" fill="#D2D4CE"/><path d="M236.07142857142858,2.0000000000000018h6.428571428571429v98h-6.428571428571429Z" fill="#D2D4CE"/><path d="M243.21428571428572,1.0000000000000009h6.428571428571429v99h-6.428571428571429Z" fill="#D2D4CE"/><path d="M250.35714285714286,1.0000000000000009h6.428571428571429v99h-6.428571428571429Z" fill="#D2D4CE"/><path d="M257.5,1.0000000000000009h6.428571428571429v99h-6.428571428571429Z" fill="#D2D4CE"/><path d="M264.6428571428571,1.0000000000000009h6.428571428571429v99h-6.428571428571429Z" fill="#D2D4CE"/><path d="M271.78571428571433,1.0000000000000009h6.428571428571429v99h-6.428571428571429Z" fill="#D2D4CE"/><path d="M278.92857142857144,1.0000000000000009h6.428571428571429v99h-6.428571428571429Z" fill="#D2D4CE"/><path d="M286.07142857142856,0h6.428571428571429v100h-6.428571428571429Z" fill="#D2D4CE"/><path d="M293.2142857142858,0h6.428571428571429v100h-6.428571428571429Z" fill="#D2D4CE"/></g></g><path class="foreground" aria-hidden="true" d="" display="none"/></g></g></g></svg>