<svg xmlns="http://www.w3.org/2000/svg" xmlns:xlink="http://www.w3.org/1999/xlink" version="1.1" class="marks" width="310" height="110" ><g fill="none" stroke-miterlimit="10" transform="translate(5,5)"><g class="mark-group role-frame root" role="graphics-object" aria-roledescription="group mark container"><g transform="translate(0,0)"><path class="background" aria-hidden="true" d="M0,0h300v100h-300Z" stroke="#ddd" stroke-width="0"/><g><g class="mark-rect role-mark marks" role="graphics-symbol" aria-roledescription="rect mark container"><path d="M0.3571428571428612,83.21428571428571h6.428571428571429v16.785714285714292h-6.428571428571429Z" fill="#D2D4CE"/><path d="M7.500000000000004,76.42857142857142h6.428571428571429v23.571428571428584h-6.428571428571429Z" fill="#D2D4CE"/><path d="M14.642857142857148,76.42857142857142h6.428571428571429v23.571428571428584h-6.428571428571429Z" fill="#D2D4CE"/><path d="M21.785714285714292,76.07142857142857h6.428571428571429v23.92857142857143h-6.428571428571429Z" fill="#D2D4CE"/><path d="M28.928571428571434,75.35714285714286h6.428571428571429v24.64285714285714h-6.428571428571429Z" fill="#D2D4CE"/><path d="M36.07142857142858,75.35714285714286h6.428571428571429v24.64285714285714h-6.428571428571429Z" fill="#D2D4CE"/><path d="M43.21428571428572,73.57142857142858h6.428571428571429v26.428571428571416h-6.428571428571429Z" fill="#D2D4CE"/><path d="M50.35714285714286,72.14285714285714h6.428571428571429v27.85714285714286h-6.428571428571429Z" fill="#D2D4CE"/><path d="M57.50000000000001,70.71428571428572h6.428571428571429v29.285714285714278h-6.428571428571429Z" fill="#D2D4CE"/><path d="M64.64285714285715,70.71428571428572h6.428571428571429v29.285714285714278h-6.428571428571429Z" fill="#D2D4CE"/><path d="M71.78571428571429,69.64285714285714h6.428571428571429v30.35714285714286h-6.428571428571429Z" fill="#D2D4CE"/><path d="M78.92857142857143,69.64285714285714h6.428571428571429v30.35714285714286h-6.428571428571429Z" fill="#D2D4CE"/><path d="M86.07142857142858,69.28571428571428h6.428571428571429v30.714285714285722h-6.428571428571429Z" fill="#D2D4CE"/><path d="M93.21428571428572,68.57142857142857h6.428571428571429v31.42857142857143h-6.428571428571429Z" fill="#D2D4CE"/><path d="M100.35714285714286,68.21428571428572h6.428571428571429v31.785714285714278h-6.428571428571429Z" fill="#D2D4CE"/><path d="M107.50000000000001,67.85714285714286h6.428571428571429v32.14285714285714h-6.428571428571429Z" fill="#D2D4CE"/><path d="M114.64285714285715,66.78571428571428h6.428571428571429v33.21428571428572h-6.428571428571429Z" fill="#D2D4CE"/><path d="M121.78571428571429,65.35714285714286h6.428571428571429v34.64285714285714h-6.428571428571429Z" fill="#00923E"/><path d="M128.92857142857144,64.28571428571428h6.428571428571429v35.71428571428572h-6.428571428571429Z" fill="#D2D4CE"/><path d="M136.07142857142858,63.57142857142857h6.428571428571429v36.42857142857143h-6.428571428571429Z" fill="#D2D4CE"/><path d="M143.21428571428572,63.21428571428571h6.428571428571429v36.78571428571429h-6.428571428571429Z" fill="#D2D4CE"/><path d="M150.35714285714286,62.5h6.428571428571429v37.5h-6.428571428571429Z" fill="#D2D4CE"/><path d="M157.5,61.78571428571429h6.428571428571429v38.21428571428571h-6.428571428571429Z" fill="#D2D4CE"/><path d="M164.64285714285717,60.71428571428572h6.428571428571429v39.28571428571428h-6.428571428571429Z" fill="#D2D4CE"/><path d="M171.7857142857143,57.49999999999999h6.428571428571429v42.50000000000001h-6.428571428571429Z" fill="#D2D4CE"/><path d="M178.92857142857144,55.714285714285715h6.428571428571429v44.285714285714285h-6.428571428571429Z" fill="#D2D4CE"/><path d="M186.07142857142858,53.92857142857142h6.428571428571429v46.07142857142858h-6.428571428571429Z" fill="#D2D4CE"/><path d="M193.21428571428572,52.85714285714286h6.428571428571429v47.14285714285714h-6.428571428571429Z" fill="#D2D4CE"/><path d="M200.35714285714286,49.642857142857146h6.428571428571429v50.357142857142854h-6.428571428571429Z" fill="#D2D4CE"/><path d="M207.50000000000003,47.5h6.428571428571429v52.5h-6.428571428571429Z" fill="#D2D4CE"/><path d="M214.64285714285717,47.14285714285714h6.428571428571429v52.85714285714286h-6.428571428571429Z" fill="#D2D4CE"/><path d="M221.7857142857143,46.785714285714285h6.428571428571429v53.214285714285715h-6.428571428571429Z" fill="#D2D4CE"/><path d="M228.92857142857144,44.99999999999999h6.428571428571429v55.00000000000001h-6.428571428571429Z" fill="#D2D4CE"/><path d="M236.07142857142858,43.214285714285715h6.428571428571429v56.785714285714285h-6.428571428571429Z" fill="#D2D4CE"/><path d="M243.21428571428572,39.642857142857146h6.428571428571429v60.357142857142854h-6.428571428571429Z" fill="#D2D4CE"/><path d="M250.35714285714286,37.85714285714287h6.428571428571429v62.14285714285713h-6.428571428571429Z" fill="#D2D4CE"/><path d="M257.5,37.14285714285713h6.428571428571429v62.85714285714287h-6.428571428571429Z" fill="#D2D4CE"/><path d="M264.6428571428571,30.714285714285715h6.428571428571429v69.28571428571428h-6.428571428571429Z" fill="#D2D4CE"/><path d="M271.78571428571433,27.500000000000004h6.428571428571429v72.5h-6.428571428571429Z" fill="#D2D4CE"/><path d="M278.92857142857144,23.571428571428577h6.428571428571429v76.42857142857142h-6.428571428571429Z" fill="#D2D4CE"/><path d="M286.07142857142856,7.857142857142851h6.428571428571429v92.14285714285715h-6.428571428571429Z" fill="#D2D4CE"/><path d="M293.2142857142858,5.35714285714286h6.428571428571429v94.64285714285714h-6.428571428571429Z" fill="#D2D4CE"/></g></g><path class="foreground" aria-hidden="true" d="" display="none"/></g></g></g></svg>