<svg xmlns="http://www.w3.org/2000/svg" xmlns:xlink="http://www.w3.org/1999/xlink" version="1.1" class="marks" width="310" height="110" ><g fill="none" stroke-miterlimit="10" transform="translate(5,5)"><g class="mark-group role-frame root" role="graphics-object" aria-roledescription="group mark container"><g transform="translate(0,0)"><path class="background" aria-hidden="true" d="M0,0h300v100h-300Z" stroke="#ddd" stroke-width="0"/><g><g class="mark-rect role-mark marks" role="graphics-symbol" aria-roledescription="rect mark container"><path d="M0.3571428571428612,95.91666666666666h6.428571428571429v4.083333333333343h-6.428571428571429Z" fill="#D2D4CE"/><path d="M7.500000000000004,94.58333333333333h6.428571428571429v5.416666666666671h-6.428571428571429Z" fill="#D2D4CE"/><path d="M14.642857142857148,94.5h6.428571428571429v5.5h-6.428571428571429Z" fill="#D2D4CE"/><path d="M21.785714285714292,93.41666666666667h6.428571428571429v6.583333333333329h-6.428571428571429Z" fill="#D2D4CE"/><path d="M28.928571428571434,92.91666666666667h6.428571428571429v7.083333333333329h-6.428571428571429Z" fill="#D2D4CE"/><path d="M36.07142857142858,92.33333333333333h6.428571428571429v7.666666666666671h-6.428571428571429Z" fill="#D2D4CE"/><path d="M43.21428571428572,92.25h6.428571428571429v7.75h-6.428571428571429Z" fill="#D2D4CE"/><path d="M50.35714285714286,89.41666666666667h6.428571428571429v10.583333333333329h-6.428571428571429Z" fill="#D2D4CE"/><path d="M57.50000000000001,89.33333333333333h6.428571428571429v10.666666666666671h-6.428571428571429Z" fill="#D2D4CE"/><path d="M64.64285714285715,89.25h6.428571428571429v10.75h-6.428571428571429Z" fill="#D2D4CE"/><path d="M71.78571428571429,87.75h6.428571428571429v12.25h-6.428571428571429Z" fill="#D2D4CE"/><path d="M78.92857142857143,86.25h6.428571428571429v13.75h-6.428571428571429Z" fill="#D2D4CE"/><path d="M86.07142857142858,85.08333333333333h6.428571428571429v14.916666666666671h-6.428571428571429Z" fill="#D2D4CE"/><path d="M93.21428571428572,84.83333333333334h6.428571428571429v15.166666666666657h-6.428571428571429Z" fill="#D2D4CE"/><path d="M100.35714285714286,84.5h6.428571428571429v15.5h-6.428571428571429Z" fill="#D2D4CE"/><path d="M107.50000000000001,84.5h6.428571428571429v15.5h-6.428571428571429Z" fill="#D2D4CE"/><path d="M114.64285714285715,84h6.428571428571429v16h-6.428571428571429Z" fill="#D2D4CE"/><path d="M121.78571428571429,83.41666666666667h6.428571428571429v16.58333333333333h-6.428571428571429Z" fill="#D2D4CE"/><path d="M128.92857142857144,83h6.428571428571429v17h-6.428571428571429Z" fill="#D2D4CE"/><path d="M136.07142857142858,81.83333333333334h6.428571428571429v18.166666666666657h-6.428571428571429Z" fill="#D2D4CE"/><path d="M143.21428571428572,80.66666666666666h6.428571428571429v19.333333333333343h-6.428571428571429Z" fill="#D2D4CE"/><path d="M150.35714285714286,79.91666666666667h6.428571428571429v20.08333333333333h-6.428571428571429Z" fill="#D2D4CE"/><path d="M157.5,78.5h6.428571428571429v21.5h-6.428571428571429Z" fill="#D2D4CE"/><path d="M164.64285714285717,75.25h6.428571428571429v24.75h-6.428571428571429Z" fill="#D2D4CE"/><path d="M171.7857142857143,73.83333333333333h6.428571428571429v26.16666666666667h-6.428571428571429Z" fill="#D2D4CE"/><path d="M178.92857142857144,73.66666666666666h6.428571428571429v26.333333333333343h-6.428571428571429Z" fill="#D2D4CE"/><path d="M186.07142857142858,73.33333333333334h6.428571428571429v26.666666666666657h-6.428571428571429Z" fill="#D2D4CE"/><path d="M193.21428571428572,72.58333333333333h6.428571428571429v27.41666666666667h-6.428571428571429Z" fill="#D2D4CE"/><path d="M200.35714285714286,67.5h6.428571428571429v32.5h-6.428571428571429Z" fill="#D2D4CE"/><path d="M207.50000000000003,65.08333333333334h6.428571428571429v34.91666666666666h-6.428571428571429Z" fill="#D2D4CE"/><path d="M214.64285714285717,62.83333333333333h6.428571428571429v37.16666666666667h-6.428571428571429Z" fill="#D2D4CE"/><path d="M221.7857142857143,62h6.428571428571429v38h-6.428571428571429Z" fill="#D2D4CE"/><path d="M228.92857142857144,59.66666666666667h6.428571428571429v40.33333333333333h-6.428571428571429Z" fill="#D2D4CE"/><path d="M236.07142857142858,46.58333333333334h6.428571428571429v53.41666666666666h-6.428571428571429Z" fill="#D2D4CE"/><path d="M243.21428571428572,43.91666666666667h6.428571428571429v56.08333333333333h-6.428571428571429Z" fill="#D2D4CE"/><path d="M250.35714285714286,43.25h6.428571428571429v56.75h-6.428571428571429Z" fill="#D2D4CE"/><path d="M257.5,40.49999999999999h6.428571428571429v59.50000000000001h-6.428571428571429Z" fill="#D2D4CE"/><path d="M264.6428571428571,27.416666666666668h6.428571428571429v72.58333333333333h-6.428571428571429Z" fill="#D2D4CE"/><path d="M271.78571428571433,20.75h6.428571428571429v79.25h-6.428571428571429Z" fill="#D2D4CE"/><path d="M278.92857142857144,18.25h6.428571428571429v81.75h-6.428571428571429Z" fill="#00923E"/><path d="M286.07142857142856,12.833333333333341h6.428571428571429v87.16666666666666h-6.428571428571429Z" fill="#D2D4CE"/><path d="M293.2142857142858,7.000000000000006h6.428571428571429v93h-6.428571428571429Z" fill="#D2D4CE"/></g></g><path class="foreground" aria-hidden="true" d="" display="none"/></g></g></g></svg>