<svg xmlns="http://www.w3.org/2000/svg" xmlns:xlink="http://www.w3.org/1999/xlink" version="1.1" class="marks" width="310" height="110" ><g fill="none" stroke-miterlimit="10" transform="translate(5,5)"><g class="mark-group role-frame root" role="graphics-object" aria-roledescription="group mark container"><g transform="translate(0,0)"><path class="background" aria-hidden="true" d="M0,0h300v100h-300Z" stroke="#ddd" stroke-width="0"/><g><g class="mark-rect role-mark marks" role="graphics-symbol" aria-roledescription="rect mark container"><path d="M0.3571428571428612,86.22222222222223h6.428571428571429v13.777777777777771h-6.428571428571429Z" fill="#D2D4CE"/><path d="M7.500000000000004,84.93333333333332h6.428571428571429v15.066666666666677h-6.428571428571429Z" fill="#D2D4CE"/><path d="M14.642857142857148,83h6.428571428571429v17h-6.428571428571429Z" fill="#D2D4CE"/><path d="M21.785714285714292,80.88888888888889h6.428571428571429v19.111111111111114h-6.428571428571429Z" fill="#D2D4CE"/><path d="M28.928571428571434,80.42222222222222h6.428571428571429v19.577777777777783h-6.428571428571429Z" fill="#D2D4CE"/><path d="M36.07142857142858,78.73333333333333h6.428571428571429v21.266666666666666h-6.428571428571429Z" fill="#D2D4CE"/><path d="M43.21428571428572,78.35555555555555h6.428571428571429v21.644444444444446h-6.428571428571429Z" fill="#D2D4CE"/><path d="M50.35714285714286,77.57777777777778h6.428571428571429v22.422222222222217h-6.428571428571429Z" fill="#D2D4CE"/><path d="M57.50000000000001,75.1111111111111h6.428571428571429v24.8888888888889h-6.428571428571429Z" fill="#D2D4CE"/><path d="M64.64285714285715,75.06666666666666h6.428571428571429v24.933333333333337h-6.428571428571429Z" fill="#D2D4CE"/><path d="M71.78571428571429,72.88888888888889h6.428571428571429v27.111111111111114h-6.428571428571429Z" fill="#D2D4CE"/><path d="M78.92857142857143,70.77777777777779h6.428571428571429v29.222222222222214h-6.428571428571429Z" fill="#D2D4CE"/><path d="M86.07142857142858,70.44444444444444h6.428571428571429v29.555555555555557h-6.428571428571429Z" fill="#D2D4CE"/><path d="M93.21428571428572,70.08888888888889h6.428571428571429v29.91111111111111h-6.428571428571429Z" fill="#00923E"/><path d="M100.35714285714286,69.95555555555555h6.428571428571429v30.04444444444445h-6.428571428571429Z" fill="#D2D4CE"/><path d="M107.50000000000001,67.53333333333333h6.428571428571429v32.46666666666667h-6.428571428571429Z" fill="#D2D4CE"/><path d="M114.64285714285715,66.95555555555556h6.428571428571429v33.04444444444444h-6.428571428571429Z" fill="#D2D4CE"/><path d="M121.78571428571429,66.88888888888889h6.428571428571429v33.111111111111114h-6.428571428571429Z" fill="#D2D4CE"/><path d="M128.92857142857144,66.62222222222223h6.428571428571429v33.377777777777766h-6.428571428571429Z" fill="#D2D4CE"/><path d="M136.07142857142858,66.24444444444444h6.428571428571429v33.75555555555556h-6.428571428571429Z" fill="#D2D4CE"/><path d="M143.21428571428572,64.75555555555556h6.428571428571429v35.24444444444444h-6.428571428571429Z" fill="#D2D4CE"/><path d="M150.35714285714286,64.26666666666667h6.428571428571429v35.733333333333334h-6.428571428571429Z" fill="#D2D4CE"/><path d="M157.5,62.15555555555555h6.428571428571429v37.84444444444445h-6.428571428571429Z" fill="#D2D4CE"/><path d="M164.64285714285717,58.51111111111111h6.428571428571429v41.48888888888889h-6.428571428571429Z" fill="#D2D4CE"/><path d="M171.7857142857143,57.08888888888889h6.428571428571429v42.91111111111111h-6.428571428571429Z" fill="#D2D4CE"/><path d="M178.92857142857144,56.71111111111111h6.428571428571429v43.28888888888889h-6.428571428571429Z" fill="#D2D4CE"/><path d="M186.07142857142858,52.55555555555556h6.428571428571429v47.44444444444444h-6.428571428571429Z" fill="#D2D4CE"/><path d="M193.21428571428572,50.82222222222222h6.428571428571429v49.17777777777778h-6.428571428571429Z" fill="#D2D4CE"/><path d="M200.35714285714286,49.355555555555554h6.428571428571429v50.644444444444446h-6.428571428571429Z" fill="#D2D4CE"/><path d="M207.50000000000003,49.24444444444445h6.428571428571429v50.75555555555555h-6.428571428571429Z" fill="#D2D4CE"/><path d="M214.64285714285717,47.77777777777777h6.428571428571429v52.22222222222223h-6.428571428571429Z" fill="#D2D4CE"/><path d="M221.7857142857143,42.39999999999999h6.428571428571429v57.60000000000001h-6.428571428571429Z" fill="#D2D4CE"/><path d="M228.92857142857144,40.64444444444444h6.428571428571429v59.35555555555556h-6.428571428571429Z" fill="#D2D4CE"/><path d="M236.07142857142858,36.66666666666667h6.428571428571429v63.33333333333333h-6.428571428571429Z" fill="#D2D4CE"/><path d="M243.21428571428572,36.53333333333334h6.428571428571429v63.46666666666666h-6.428571428571429Z" fill="#D2D4CE"/><path d="M250.35714285714286,33.400000000000006h6.428571428571429v66.6h-6.428571428571429Z" fill="#D2D4CE"/><path d="M257.5,32.15555555555555h6.428571428571429v67.84444444444445h-6.428571428571429Z" fill="#D2D4CE"/><path d="M264.6428571428571,27.64444444444444h6.428571428571429v72.35555555555555h-6.428571428571429Z" fill="#D2D4CE"/><path d="M271.78571428571433,23.755555555555553h6.428571428571429v76.24444444444444h-6.428571428571429Z" fill="#D2D4CE"/><path d="M278.92857142857144,14.066666666666661h6.428571428571429v85.93333333333334h-6.428571428571429Z" fill="#D2D4CE"/><path d="M286.07142857142856,12.644444444444435h6.428571428571429v87.35555555555557h-6.428571428571429Z" fill="#D2D4CE"/><path d="M293.2142857142858,8.066666666666677h6.428571428571429v91.93333333333332h-6.428571428571429Z" fill="#D2D4CE"/></g></g><path class="foreground" aria-hidden="true" d="" display="none"/></g></g></g></svg>