<svg xmlns="http://www.w3.org/2000/svg" xmlns:xlink="http://www.w3.org/1999/xlink" version="1.1" class="marks" width="310" height="110" ><g fill="none" stroke-miterlimit="10" transform="translate(5,5)"><g class="mark-group role-frame root" role="graphics-object" aria-roledescription="group mark container"><g transform="translate(0,0)"><path class="background" aria-hidden="true" d="M0,0h300v100h-300Z" stroke="#ddd" stroke-width="0"/><g><g class="mark-rect role-mark marks" role="graphics-symbol" aria-roledescription="rect mark container"><path d="M7.500000000000004,99h6.428571428571429v1h-6.428571428571429Z" fill="#D2D4CE"/><path d="M14.642857142857148,95h6.428571428571429v5h-6.428571428571429Z" fill="#D2D4CE"/><path d="M21.785714285714292,93h6.428571428571429v7h-6.428571428571429Z" fill="#D2D4CE"/><path d="M28.928571428571434,89h6.428571428571429v11h-6.428571428571429Z" fill="#D2D4CE"/><path d="M36.07142857142858,86h6.428571428571429v14h-6.428571428571429Z" fill="#D2D4CE"/><path d="M43.21428571428572,84h6.428571428571429v16h-6.428571428571429Z" fill="#D2D4CE"/><path d="M50.35714285714286,84h6.428571428571429v16h-6.428571428571429Z" fill="#D2D4CE"/><path d="M57.50000000000001,82h6.428571428571429v18h-6.428571428571429Z" fill="#D2D4CE"/><path d="M64.64285714285715,82h6.428571428571429v18h-6.428571428571429Z" fill="#D2D4CE"/><path d="M71.78571428571429,80h6.428571428571429v20h-6.428571428571429Z" fill="#D2D4CE"/><path d="M78.92857142857143,80h6.428571428571429v20h-6.428571428571429Z" fill="#D2D4CE"/><path d="M86.07142857142858,79h6.428571428571429v21h-6.428571428571429Z" fill="#D2D4CE"/><path d="M93.21428571428572,79h6.428571428571429v21h-6.428571428571429Z" fill="#D2D4CE"/><path d="M100.35714285714286,78h6.428571428571429v22h-6.428571428571429Z" fill="#D2D4CE"/><path d="M107.50000000000001,77h6.428571428571429v23h-6.428571428571429Z" fill="#D2D4CE"/><path d="M114.64285714285715,76h6.428571428571429v24h-6.428571428571429Z" fill="#D2D4CE"/><path d="M121.78571428571429,75h6.428571428571429v25h-6.428571428571429Z" fill="#D2D4CE"/><path d="M128.92857142857144,73h6.428571428571429v27h-6.428571428571429Z" fill="#D2D4CE"/><path d="M136.07142857142858,71h6.428571428571429v29h-6.428571428571429Z" fill="#D2D4CE"/><path d="M143.21428571428572,70h6.428571428571429v30h-6.428571428571429Z" fill="#D2D4CE"/><path d="M150.35714285714286,70h6.428571428571429v30h-6.428571428571429Z" fill="#D2D4CE"/><path d="M157.5,64h6.428571428571429v36h-6.428571428571429Z" fill="#D2D4CE"/><path d="M164.64285714285717,59.00000000000001h6.428571428571429v40.99999999999999h-6.428571428571429Z" fill="#D2D4CE"/><path d="M171.7857142857143,57.00000000000001h6.428571428571429v42.99999999999999h-6.428571428571429Z" fill="#D2D4CE"/><path d="M178.92857142857144,55.99999999999999h6.428571428571429v44.00000000000001h-6.428571428571429Z" fill="#D2D4CE"/><path d="M186.07142857142858,52h6.428571428571429v48h-6.428571428571429Z" fill="#D2D4CE"/><path d="M193.21428571428572,51h6.428571428571429v49h-6.428571428571429Z" fill="#D2D4CE"/><path d="M200.35714285714286,50h6.428571428571429v50h-6.428571428571429Z" fill="#D2D4CE"/><path d="M207.50000000000003,48h6.428571428571429v52h-6.428571428571429Z" fill="#D2D4CE"/><path d="M214.64285714285717,44.99999999999999h6.428571428571429v55.00000000000001h-6.428571428571429Z" fill="#D2D4CE"/><path d="M221.7857142857143,40.99999999999999h6.428571428571429v59.00000000000001h-6.428571428571429Z" fill="#D2D4CE"/><path d="M228.92857142857144,40h6.428571428571429v60h-6.428571428571429Z" fill="#D2D4CE"/><path d="M236.07142857142858,35h6.428571428571429v65h-6.428571428571429Z" fill="#D2D4CE"/><path d="M243.21428571428572,32.99999999999999h6.428571428571429v67h-6.428571428571429Z" fill="#D2D4CE"/><path d="M250.35714285714286,32.00000000000001h6.428571428571429v68h-6.428571428571429Z" fill="#D2D4CE"/><path d="M257.5,29.000000000000004h6.428571428571429v71h-6.428571428571429Z" fill="#D2D4CE"/><path d="M264.6428571428571,29.000000000000004h6.428571428571429v71h-6.428571428571429Z" fill="#D2D4CE"/><path d="M271.78571428571433,21.999999999999996h6.428571428571429v78h-6.428571428571429Z" fill="#D2D4CE"/><path d="M278.92857142857144,18.000000000000004h6.428571428571429v82h-6.428571428571429Z" fill="#D2D4CE"/><path d="M286.07142857142856,14.000000000000002h6.428571428571429v86h-6.428571428571429Z" fill="#D2D4CE"/><path d="M293.2142857142858,1.0000000000000009h6.428571428571429v99h-6.428571428571429Z" fill="#00923E"/></g></g><path class="foreground" aria-hidden="true" d="" display="none"/></g></g></g></svg>