<svg xmlns="http://www.w3.org/2000/svg" xmlns:xlink="http://www.w3.org/1999/xlink" version="1.1" class="marks" width="310" height="110" ><g fill="none" stroke-miterlimit="10" transform="translate(5,5)"><g class="mark-group role-frame root" role="graphics-object" aria-roledescription="group mark container"><g transform="translate(0,0)"><path class="background" aria-hidden="true" d="M0,0h300v100h-300Z" stroke="#ddd" stroke-width="0"/><g><g class="mark-rect role-mark marks" role="graphics-symbol" aria-roledescription="rect mark container"><path d="M0.3571428571428612,84h6.428571428571429v16h-6.428571428571429Z" fill="#D2D4CE"/><path d="M7.500000000000004,78.78571428571428h6.428571428571429v21.214285714285722h-6.428571428571429Z" fill="#D2D4CE"/><path d="M14.642857142857148,74.21428571428572h6.428571428571429v25.785714285714278h-6.428571428571429Z" fill="#D2D4CE"/><path d="M21.785714285714292,72.57142857142857h6.428571428571429v27.42857142857143h-6.428571428571429Z" fill="#D2D4CE"/><path d="M28.928571428571434,72.07142857142857h6.428571428571429v27.92857142857143h-6.428571428571429Z" fill="#D2D4CE"/><path d="M36.07142857142858,70.92857142857143h6.428571428571429v29.07142857142857h-6.428571428571429Z" fill="#D2D4CE"/><path d="M43.21428571428572,70.21428571428572h6.428571428571429v29.785714285714278h-6.428571428571429Z" fill="#D2D4CE"/><path d="M50.35714285714286,69.78571428571429h6.428571428571429v30.214285714285708h-6.428571428571429Z" fill="#D2D4CE"/><path d="M57.50000000000001,65.99999999999999h6.428571428571429v34.000000000000014h-6.428571428571429Z" fill="#D2D4CE"/><path d="M64.64285714285715,65.57142857142857h6.428571428571429v34.42857142857143h-6.428571428571429Z" fill="#D2D4CE"/><path d="M71.78571428571429,61.28571428571428h6.428571428571429v38.71428571428572h-6.428571428571429Z" fill="#D2D4CE"/><path d="M78.92857142857143,60.21428571428571h6.428571428571429v39.78571428571429h-6.428571428571429Z" fill="#D2D4CE"/><path d="M86.07142857142858,58.57142857142856h6.428571428571429v41.42857142857144h-6.428571428571429Z" fill="#D2D4CE"/><path d="M93.21428571428572,57.57142857142858h6.428571428571429v42.42857142857142h-6.428571428571429Z" fill="#D2D4CE"/><path d="M100.35714285714286,54.42857142857142h6.428571428571429v45.57142857142858h-6.428571428571429Z" fill="#D2D4CE"/><path d="M107.50000000000001,54.35714285714286h6.428571428571429v45.64285714285714h-6.428571428571429Z" fill="#D2D4CE"/><path d="M114.64285714285715,53.142857142857146h6.428571428571429v46.857142857142854h-6.428571428571429Z" fill="#D2D4CE"/><path d="M121.78571428571429,52.714285714285715h6.428571428571429v47.285714285714285h-6.428571428571429Z" fill="#D2D4CE"/><path d="M128.92857142857144,51.21428571428572h6.428571428571429v48.78571428571428h-6.428571428571429Z" fill="#D2D4CE"/><path d="M136.07142857142858,49.357142857142854h6.428571428571429v50.642857142857146h-6.428571428571429Z" fill="#D2D4CE"/><path d="M143.21428571428572,49.07142857142858h6.428571428571429v50.92857142857142h-6.428571428571429Z" fill="#D2D4CE"/><path d="M150.35714285714286,48.642857142857146h6.428571428571429v51.357142857142854h-6.428571428571429Z" fill="#D2D4CE"/><path d="M157.5,48.28571428571428h6.428571428571429v51.71428571428572h-6.428571428571429Z" fill="#D2D4CE"/><path d="M164.64285714285717,46.14285714285714h6.428571428571429v53.85714285714286h-6.428571428571429Z" fill="#D2D4CE"/><path d="M171.7857142857143,45.14285714285714h6.428571428571429v54.85714285714286h-6.428571428571429Z" fill="#D2D4CE"/><path d="M178.92857142857144,44.785714285714285h6.428571428571429v55.214285714285715h-6.428571428571429Z" fill="#D2D4CE"/><path d="M186.07142857142858,44.64285714285714h6.428571428571429v55.35714285714286h-6.428571428571429Z" fill="#D2D4CE"/><path d="M193.21428571428572,44.14285714285714h6.428571428571429v55.85714285714286h-6.428571428571429Z" fill="#D2D4CE"/><path d="M200.35714285714286,41.42857142857142h6.428571428571429v58.57142857142858h-6.428571428571429Z" fill="#D2D4CE"/><path d="M207.50000000000003,39.85714285714286h6.428571428571429v60.14285714285714h-6.428571428571429Z" fill="#D2D4CE"/><path d="M214.64285714285717,39.78571428571429h6.428571428571429v60.21428571428571h-6.428571428571429Z" fill="#D2D4CE"/><path d="M221.7857142857143,38.357142857142854h6.428571428571429v61.642857142857146h-6.428571428571429Z" fill="#D2D4CE"/><path d="M228.92857142857144,35.07142857142856h6.428571428571429v64.92857142857144h-6.428571428571429Z" fill="#D2D4CE"/><path d="M236.07142857142858,34.857142857142854h6.428571428571429v65.14285714285714h-6.428571428571429Z" fill="#D2D4CE"/><path d="M243.21428571428572,33.785714285714285h6.428571428571429v66.21428571428572h-6.428571428571429Z" fill="#D2D4CE"/><path d="M250.35714285714286,32.57142857142856h6.428571428571429v67.42857142857144h-6.428571428571429Z" fill="#D2D4CE"/><path d="M257.5,29.714285714285715h6.428571428571429v70.28571428571428h-6.428571428571429Z" fill="#D2D4CE"/><path d="M264.6428571428571,27.142857142857146h6.428571428571429v72.85714285714286h-6.428571428571429Z" fill="#00923E"/><path d="M271.78571428571433,26h6.428571428571429v74h-6.428571428571429Z" fill="#D2D4CE"/><path d="M278.92857142857144,24.857142857142854h6.428571428571429v75.14285714285714h-6.428571428571429Z" fill="#D2D4CE"/><path d="M286.07142857142856,23.92857142857143h6.428571428571429v76.07142857142857h-6.428571428571429Z" fill="#D2D4CE"/><path d="M293.2142857142858,5.785714285714283h6.428571428571429v94.21428571428572h-6.428571428571429Z" fill="#D2D4CE"/></g></g><path class="foreground" aria-hidden="true" d="" display="none"/></g></g></g></svg>