<svg xmlns="http://www.w3.org/2000/svg" xmlns:xlink="http://www.w3.org/1999/xlink" version="1.1" class="marks" width="310" height="110" ><g fill="none" stroke-miterlimit="10" transform="translate(5,5)"><g class="mark-group role-frame root" role="graphics-object" aria-roledescription="group mark container"><g transform="translate(0,0)"><path class="background" aria-hidden="true" d="M0,0h300v100h-300Z" stroke="#ddd" stroke-width="0"/><g><g class="mark-rect role-mark marks" role="graphics-symbol" aria-roledescription="rect mark container"><path d="M0.3571428571428612,82h6.428571428571429v18h-6.428571428571429Z" fill="#D2D4CE"/><path d="M7.500000000000004,80.75h6.428571428571429v19.25h-6.428571428571429Z" fill="#D2D4CE"/><path d="M14.642857142857148,77h6.428571428571429v23h-6.428571428571429Z" fill="#D2D4CE"/><path d="M21.785714285714292,76.75h6.428571428571429v23.25h-6.428571428571429Z" fill="#D2D4CE"/><path d="M28.928571428571434,76.25h6.428571428571429v23.75h-6.428571428571429Z" fill="#D2D4CE"/><path d="M36.07142857142858,74.5h6.428571428571429v25.5h-6.428571428571429Z" fill="#D2D4CE"/><path d="M43.21428571428572,73.75h6.428571428571429v26.25h-6.428571428571429Z" fill="#D2D4CE"/><path d="M50.35714285714286,73.5h6.428571428571429v26.5h-6.428571428571429Z" fill="#D2D4CE"/><path d="M57.50000000000001,73h6.428571428571429v27h-6.428571428571429Z" fill="#D2D4CE"/><path d="M64.64285714285715,71.5h6.428571428571429v28.5h-6.428571428571429Z" fill="#D2D4CE"/><path d="M71.78571428571429,71h6.428571428571429v29h-6.428571428571429Z" fill="#D2D4CE"/><path d="M78.92857142857143,71h6.428571428571429v29h-6.428571428571429Z" fill="#D2D4CE"/><path d="M86.07142857142858,69.25h6.428571428571429v30.75h-6.428571428571429Z" fill="#D2D4CE"/><path d="M93.21428571428572,69.25h6.428571428571429v30.75h-6.428571428571429Z" fill="#D2D4CE"/><path d="M100.35714285714286,67.5h6.428571428571429v32.5h-6.428571428571429Z" fill="#D2D4CE"/><path d="M107.50000000000001,67h6.428571428571429v33h-6.428571428571429Z" fill="#D2D4CE"/><path d="M114.64285714285715,67h6.428571428571429v33h-6.428571428571429Z" fill="#D2D4CE"/><path d="M121.78571428571429,66.75h6.428571428571429v33.25h-6.428571428571429Z" fill="#D2D4CE"/><path d="M128.92857142857144,63.25000000000001h6.428571428571429v36.74999999999999h-6.428571428571429Z" fill="#D2D4CE"/><path d="M136.07142857142858,62.25000000000001h6.428571428571429v37.74999999999999h-6.428571428571429Z" fill="#D2D4CE"/><path d="M143.21428571428572,62h6.428571428571429v38h-6.428571428571429Z" fill="#D2D4CE"/><path d="M150.35714285714286,61.5h6.428571428571429v38.5h-6.428571428571429Z" fill="#D2D4CE"/><path d="M157.5,60.5h6.428571428571429v39.5h-6.428571428571429Z" fill="#D2D4CE"/><path d="M164.64285714285717,60h6.428571428571429v40h-6.428571428571429Z" fill="#D2D4CE"/><path d="M171.7857142857143,59.5h6.428571428571429v40.5h-6.428571428571429Z" fill="#D2D4CE"/><path d="M178.92857142857144,59.25h6.428571428571429v40.75h-6.428571428571429Z" fill="#D2D4CE"/><path d="M186.07142857142858,58.75h6.428571428571429v41.25h-6.428571428571429Z" fill="#D2D4CE"/><path d="M193.21428571428572,58.25h6.428571428571429v41.75h-6.428571428571429Z" fill="#D2D4CE"/><path d="M200.35714285714286,57.99999999999999h6.428571428571429v42.00000000000001h-6.428571428571429Z" fill="#D2D4CE"/><path d="M207.50000000000003,56.75h6.428571428571429v43.25h-6.428571428571429Z" fill="#D2D4CE"/><path d="M214.64285714285717,54.25h6.428571428571429v45.75h-6.428571428571429Z" fill="#D2D4CE"/><path d="M221.7857142857143,53.49999999999999h6.428571428571429v46.50000000000001h-6.428571428571429Z" fill="#D2D4CE"/><path d="M228.92857142857144,52.5h6.428571428571429v47.5h-6.428571428571429Z" fill="#D2D4CE"/><path d="M236.07142857142858,46.75h6.428571428571429v53.25h-6.428571428571429Z" fill="#D2D4CE"/><path d="M243.21428571428572,46h6.428571428571429v54h-6.428571428571429Z" fill="#D2D4CE"/><path d="M250.35714285714286,43.75h6.428571428571429v56.25h-6.428571428571429Z" fill="#D2D4CE"/><path d="M257.5,42.75h6.428571428571429v57.25h-6.428571428571429Z" fill="#D2D4CE"/><path d="M264.6428571428571,36.5h6.428571428571429v63.5h-6.428571428571429Z" fill="#D2D4CE"/><path d="M271.78571428571433,31.75h6.428571428571429v68.25h-6.428571428571429Z" fill="#D2D4CE"/><path d="M278.92857142857144,25.5h6.428571428571429v74.5h-6.428571428571429Z" fill="#D2D4CE"/><path d="M286.07142857142856,19.999999999999996h6.428571428571429v80h-6.428571428571429Z" fill="#D2D4CE"/><path d="M293.2142857142858,7.750000000000002h6.428571428571429v92.25h-6.428571428571429Z" fill="#00923E"/></g></g><path class="foreground" aria-hidden="true" d="" display="none"/></g></g></g></svg>