<svg xmlns="http://www.w3.org/2000/svg" xmlns:xlink="http://www.w3.org/1999/xlink" version="1.1" class="marks" width="310" height="110" ><g fill="none" stroke-miterlimit="10" transform="translate(5,5)"><g class="mark-group role-frame root" role="graphics-object" aria-roledescription="group mark container"><g transform="translate(0,0)"><path class="background" aria-hidden="true" d="M0,0h300v100h-300Z" stroke="#ddd" stroke-width="0"/><g><g class="mark-rect role-mark marks" role="graphics-symbol" aria-roledescription="rect mark container"><path d="M0.3571428571428612,37h6.428571428571429v63h-6.428571428571429Z" fill="#D2D4CE"/><path d="M7.500000000000004,36h6.428571428571429v64h-6.428571428571429Z" fill="#D2D4CE"/><path d="M14.642857142857148,35.400000000000006h6.428571428571429v64.6h-6.428571428571429Z" fill="#D2D4CE"/><path d="M21.785714285714292,34.8h6.428571428571429v65.2h-6.428571428571429Z" fill="#D2D4CE"/><path d="M28.928571428571434,34.599999999999994h6.428571428571429v65.4h-6.428571428571429Z" fill="#D2D4CE"/><path d="M36.07142857142858,32.400000000000006h6.428571428571429v67.6h-6.428571428571429Z" fill="#D2D4CE"/><path d="M43.21428571428572,31.000000000000007h6.428571428571429v69h-6.428571428571429Z" fill="#D2D4CE"/><path d="M50.35714285714286,30.500000000000004h6.428571428571429v69.5h-6.428571428571429Z" fill="#D2D4CE"/><path d="M57.50000000000001,29.500000000000004h6.428571428571429v70.5h-6.428571428571429Z" fill="#D2D4CE"/><path d="M64.64285714285715,29.400000000000006h6.428571428571429v70.6h-6.428571428571429Z" fill="#D2D4CE"/><path d="M71.78571428571429,29.099999999999994h6.428571428571429v70.9h-6.428571428571429Z" fill="#D2D4CE"/><path d="M78.92857142857143,29.099999999999994h6.428571428571429v70.9h-6.428571428571429Z" fill="#D2D4CE"/><path d="M86.07142857142858,29.000000000000004h6.428571428571429v71h-6.428571428571429Z" fill="#D2D4CE"/><path d="M93.21428571428572,28.799999999999994h6.428571428571429v71.2h-6.428571428571429Z" fill="#D2D4CE"/><path d="M100.35714285714286,28.59999999999999h6.428571428571429v71.4h-6.428571428571429Z" fill="#D2D4CE"/><path d="M107.50000000000001,28.59999999999999h6.428571428571429v71.4h-6.428571428571429Z" fill="#D2D4CE"/><path d="M114.64285714285715,28.59999999999999h6.428571428571429v71.4h-6.428571428571429Z" fill="#D2D4CE"/><path d="M121.78571428571429,27.400000000000002h6.428571428571429v72.6h-6.428571428571429Z" fill="#D2D4CE"/><path d="M128.92857142857144,26.900000000000002h6.428571428571429v73.1h-6.428571428571429Z" fill="#D2D4CE"/><path d="M136.07142857142858,26.8h6.428571428571429v73.2h-6.428571428571429Z" fill="#D2D4CE"/><path d="M143.21428571428572,26.200000000000003h6.428571428571429v73.8h-6.428571428571429Z" fill="#D2D4CE"/><path d="M150.35714285714286,26.200000000000003h6.428571428571429v73.8h-6.428571428571429Z" fill="#D2D4CE"/><path d="M157.5,26h6.428571428571429v74h-6.428571428571429Z" fill="#D2D4CE"/><path d="M164.64285714285717,25.59999999999999h6.428571428571429v74.4h-6.428571428571429Z" fill="#D2D4CE"/><path d="M171.7857142857143,25.5h6.428571428571429v74.5h-6.428571428571429Z" fill="#D2D4CE"/><path d="M178.92857142857144,24.8h6.428571428571429v75.2h-6.428571428571429Z" fill="#D2D4CE"/><path d="M186.07142857142858,24.40000000000001h6.428571428571429v75.6h-6.428571428571429Z" fill="#00923E"/><path d="M193.21428571428572,24.099999999999998h6.428571428571429v75.9h-6.428571428571429Z" fill="#D2D4CE"/><path d="M200.35714285714286,23.799999999999997h6.428571428571429v76.2h-6.428571428571429Z" fill="#D2D4CE"/><path d="M207.50000000000003,23.099999999999998h6.428571428571429v76.9h-6.428571428571429Z" fill="#D2D4CE"/><path d="M214.64285714285717,22.499999999999996h6.428571428571429v77.5h-6.428571428571429Z" fill="#D2D4CE"/><path d="M221.7857142857143,21.099999999999998h6.428571428571429v78.9h-6.428571428571429Z" fill="#D2D4CE"/><path d="M228.92857142857144,19.200000000000006h6.428571428571429v80.8h-6.428571428571429Z" fill="#D2D4CE"/><path d="M236.07142857142858,18.900000000000006h6.428571428571429v81.1h-6.428571428571429Z" fill="#D2D4CE"/><path d="M243.21428571428572,18.000000000000004h6.428571428571429v82h-6.428571428571429Z" fill="#D2D4CE"/><path d="M250.35714285714286,17.400000000000006h6.428571428571429v82.6h-6.428571428571429Z" fill="#D2D4CE"/><path d="M257.5,15.09999999999999h6.428571428571429v84.9h-6.428571428571429Z" fill="#D2D4CE"/><path d="M264.6428571428571,14.200000000000001h6.428571428571429v85.8h-6.428571428571429Z" fill="#D2D4CE"/><path d="M271.78571428571433,14.09999999999999h6.428571428571429v85.9h-6.428571428571429Z" fill="#D2D4CE"/><path d="M278.92857142857144,13.900000000000002h6.428571428571429v86.1h-6.428571428571429Z" fill="#D2D4CE"/><path d="M286.07142857142856,9.200000000000008h6.428571428571429v90.8h-6.428571428571429Z" fill="#D2D4CE"/><path d="M293.2142857142858,8.599999999999996h6.428571428571429v91.4h-6.428571428571429Z" fill="#D2D4CE"/></g></g><path class="foreground" aria-hidden="true" d="" display="none"/></g></g></g></svg>