<svg xmlns="http://www.w3.org/2000/svg" xmlns:xlink="http://www.w3.org/1999/xlink" version="1.1" class="marks" width="310" height="110" ><g fill="none" stroke-miterlimit="10" transform="translate(5,5)"><g class="mark-group role-frame root" role="graphics-object" aria-roledescription="group mark container"><g transform="translate(0,0)"><path class="background" aria-hidden="true" d="M0,0h300v100h-300Z" stroke="#ddd" stroke-width="0"/><g><g class="mark-rect role-mark marks" role="graphics-symbol" aria-roledescription="rect mark container"><path d="M0.3571428571428612,34.44444444444444h6.428571428571429v65.55555555555556h-6.428571428571429Z" fill="#D2D4CE"/><path d="M7.500000000000004,32.55555555555555h6.428571428571429v67.44444444444446h-6.428571428571429Z" fill="#D2D4CE"/><path d="M14.642857142857148,32.22222222222222h6.428571428571429v67.77777777777777h-6.428571428571429Z" fill="#D2D4CE"/><path d="M21.785714285714292,30.666666666666664h6.428571428571429v69.33333333333334h-6.428571428571429Z" fill="#D2D4CE"/><path d="M28.928571428571434,27.66666666666667h6.428571428571429v72.33333333333333h-6.428571428571429Z" fill="#D2D4CE"/><path d="M36.07142857142858,27.555555555555557h6.428571428571429v72.44444444444444h-6.428571428571429Z" fill="#D2D4CE"/><path d="M43.21428571428572,26.888888888888896h6.428571428571429v73.1111111111111h-6.428571428571429Z" fill="#D2D4CE"/><path d="M50.35714285714286,25.444444444444446h6.428571428571429v74.55555555555556h-6.428571428571429Z" fill="#D2D4CE"/><path d="M57.50000000000001,25.444444444444446h6.428571428571429v74.55555555555556h-6.428571428571429Z" fill="#D2D4CE"/><path d="M64.64285714285715,24.777777777777775h6.428571428571429v75.22222222222223h-6.428571428571429Z" fill="#D2D4CE"/><path d="M71.78571428571429,24.777777777777775h6.428571428571429v75.22222222222223h-6.428571428571429Z" fill="#D2D4CE"/><path d="M78.92857142857143,24.33333333333334h6.428571428571429v75.66666666666666h-6.428571428571429Z" fill="#D2D4CE"/><path d="M86.07142857142858,23.33333333333333h6.428571428571429v76.66666666666667h-6.428571428571429Z" fill="#D2D4CE"/><path d="M93.21428571428572,22.888888888888882h6.428571428571429v77.11111111111111h-6.428571428571429Z" fill="#D2D4CE"/><path d="M100.35714285714286,22.55555555555555h6.428571428571429v77.44444444444446h-6.428571428571429Z" fill="#D2D4CE"/><path d="M107.50000000000001,22.33333333333333h6.428571428571429v77.66666666666667h-6.428571428571429Z" fill="#D2D4CE"/><path d="M114.64285714285715,22.22222222222222h6.428571428571429v77.77777777777777h-6.428571428571429Z" fill="#D2D4CE"/><path d="M121.78571428571429,21.888888888888893h6.428571428571429v78.11111111111111h-6.428571428571429Z" fill="#D2D4CE"/><path d="M128.92857142857144,21.55555555555556h6.428571428571429v78.44444444444444h-6.428571428571429Z" fill="#D2D4CE"/><path d="M136.07142857142858,21.22222222222222h6.428571428571429v78.77777777777777h-6.428571428571429Z" fill="#D2D4CE"/><path d="M143.21428571428572,19.8888888888889h6.428571428571429v80.1111111111111h-6.428571428571429Z" fill="#D2D4CE"/><path d="M150.35714285714286,19.333333333333336h6.428571428571429v80.66666666666666h-6.428571428571429Z" fill="#D2D4CE"/><path d="M157.5,18.777777777777782h6.428571428571429v81.22222222222221h-6.428571428571429Z" fill="#D2D4CE"/><path d="M164.64285714285717,18.777777777777782h6.428571428571429v81.22222222222221h-6.428571428571429Z" fill="#D2D4CE"/><path d="M171.7857142857143,18.777777777777782h6.428571428571429v81.22222222222221h-6.428571428571429Z" fill="#D2D4CE"/><path d="M178.92857142857144,16.333333333333332h6.428571428571429v83.66666666666667h-6.428571428571429Z" fill="#D2D4CE"/><path d="M186.07142857142858,16.000000000000004h6.428571428571429v84h-6.428571428571429Z" fill="#00923E"/><path d="M193.21428571428572,15.44444444444445h6.428571428571429v84.55555555555554h-6.428571428571429Z" fill="#D2D4CE"/><path d="M200.35714285714286,15.111111111111109h6.428571428571429v84.88888888888889h-6.428571428571429Z" fill="#D2D4CE"/><path d="M207.50000000000003,15.111111111111109h6.428571428571429v84.88888888888889h-6.428571428571429Z" fill="#D2D4CE"/><path d="M214.64285714285717,14.333333333333343h6.428571428571429v85.66666666666666h-6.428571428571429Z" fill="#D2D4CE"/><path d="M221.7857142857143,14.333333333333343h6.428571428571429v85.66666666666666h-6.428571428571429Z" fill="#D2D4CE"/><path d="M228.92857142857144,14.333333333333343h6.428571428571429v85.66666666666666h-6.428571428571429Z" fill="#D2D4CE"/><path d="M236.07142857142858,14.333333333333343h6.428571428571429v85.66666666666666h-6.428571428571429Z" fill="#D2D4CE"/><path d="M243.21428571428572,13h6.428571428571429v87h-6.428571428571429Z" fill="#D2D4CE"/><path d="M250.35714285714286,10.444444444444457h6.428571428571429v89.55555555555554h-6.428571428571429Z" fill="#D2D4CE"/><path d="M257.5,9.888888888888891h6.428571428571429v90.11111111111111h-6.428571428571429Z" fill="#D2D4CE"/><path d="M264.6428571428571,8.444444444444443h6.428571428571429v91.55555555555556h-6.428571428571429Z" fill="#D2D4CE"/><path d="M271.78571428571433,5.1111111111111h6.428571428571429v94.8888888888889h-6.428571428571429Z" fill="#D2D4CE"/><path d="M278.92857142857144,5.1111111111111h6.428571428571429v94.8888888888889h-6.428571428571429Z" fill="#D2D4CE"/><path d="M286.07142857142856,4.888888888888898h6.428571428571429v95.1111111111111h-6.428571428571429Z" fill="#D2D4CE"/><path d="M293.2142857142858,4.888888888888898h6.428571428571429v95.1111111111111h-6.428571428571429Z" fill="#D2D4CE"/></g></g><path class="foreground" aria-hidden="true" d="" display="none"/></g></g></g></svg>