<svg xmlns="http://www.w3.org/2000/svg" xmlns:xlink="http://www.w3.org/1999/xlink" version="1.1" class="marks" width="310" height="110" ><g fill="none" stroke-miterlimit="10" transform="translate(5,5)"><g class="mark-group role-frame root" role="graphics-object" aria-roledescription="group mark container"><g transform="translate(0,0)"><path class="background" aria-hidden="true" d="M0,0h300v100h-300Z" stroke="#ddd" stroke-width="0"/><g><g class="mark-rect role-mark marks" role="graphics-symbol" aria-roledescription="rect mark container"><path d="M0.3571428571428612,68.77777777777779h6.428571428571429v31.222222222222214h-6.428571428571429Z" fill="#D2D4CE"/><path d="M7.500000000000004,67.88888888888889h6.428571428571429v32.111111111111114h-6.428571428571429Z" fill="#D2D4CE"/><path d="M14.642857142857148,62.77777777777778h6.428571428571429v37.22222222222222h-6.428571428571429Z" fill="#D2D4CE"/><path d="M21.785714285714292,58.88888888888889h6.428571428571429v41.11111111111111h-6.428571428571429Z" fill="#D2D4CE"/><path d="M28.928571428571434,57.77777777777777h6.428571428571429v42.22222222222223h-6.428571428571429Z" fill="#D2D4CE"/><path d="M36.07142857142858,56.333333333333336h6.428571428571429v43.666666666666664h-6.428571428571429Z" fill="#D2D4CE"/><path d="M43.21428571428572,55.33333333333332h6.428571428571429v44.66666666666668h-6.428571428571429Z" fill="#D2D4CE"/><path d="M50.35714285714286,48.77777777777778h6.428571428571429v51.22222222222222h-6.428571428571429Z" fill="#D2D4CE"/><path d="M57.50000000000001,48.66666666666666h6.428571428571429v51.33333333333334h-6.428571428571429Z" fill="#D2D4CE"/><path d="M64.64285714285715,47.88888888888889h6.428571428571429v52.11111111111111h-6.428571428571429Z" fill="#D2D4CE"/><path d="M71.78571428571429,47.111111111111114h6.428571428571429v52.888888888888886h-6.428571428571429Z" fill="#D2D4CE"/><path d="M78.92857142857143,45.44444444444444h6.428571428571429v54.55555555555556h-6.428571428571429Z" fill="#D2D4CE"/><path d="M86.07142857142858,44.888888888888886h6.428571428571429v55.111111111111114h-6.428571428571429Z" fill="#D2D4CE"/><path d="M93.21428571428572,44.77777777777777h6.428571428571429v55.22222222222223h-6.428571428571429Z" fill="#D2D4CE"/><path d="M100.35714285714286,42.888888888888886h6.428571428571429v57.111111111111114h-6.428571428571429Z" fill="#D2D4CE"/><path d="M107.50000000000001,41.22222222222223h6.428571428571429v58.77777777777777h-6.428571428571429Z" fill="#D2D4CE"/><path d="M114.64285714285715,39.33333333333333h6.428571428571429v60.66666666666667h-6.428571428571429Z" fill="#D2D4CE"/><path d="M121.78571428571429,38.55555555555556h6.428571428571429v61.44444444444444h-6.428571428571429Z" fill="#D2D4CE"/><path d="M128.92857142857144,38.22222222222222h6.428571428571429v61.77777777777778h-6.428571428571429Z" fill="#D2D4CE"/><path d="M136.07142857142858,36.22222222222222h6.428571428571429v63.77777777777778h-6.428571428571429Z" fill="#00923E"/><path d="M143.21428571428572,36h6.428571428571429v64h-6.428571428571429Z" fill="#D2D4CE"/><path d="M150.35714285714286,32.44444444444444h6.428571428571429v67.55555555555556h-6.428571428571429Z" fill="#D2D4CE"/><path d="M157.5,30.22222222222223h6.428571428571429v69.77777777777777h-6.428571428571429Z" fill="#D2D4CE"/><path d="M164.64285714285717,30.11111111111111h6.428571428571429v69.88888888888889h-6.428571428571429Z" fill="#D2D4CE"/><path d="M171.7857142857143,28.77777777777778h6.428571428571429v71.22222222222223h-6.428571428571429Z" fill="#D2D4CE"/><path d="M178.92857142857144,26.777777777777768h6.428571428571429v73.22222222222223h-6.428571428571429Z" fill="#D2D4CE"/><path d="M186.07142857142858,26.555555555555564h6.428571428571429v73.44444444444443h-6.428571428571429Z" fill="#D2D4CE"/><path d="M193.21428571428572,25.222222222222225h6.428571428571429v74.77777777777777h-6.428571428571429Z" fill="#D2D4CE"/><path d="M200.35714285714286,24.555555555555554h6.428571428571429v75.44444444444444h-6.428571428571429Z" fill="#D2D4CE"/><path d="M207.50000000000003,23.777777777777786h6.428571428571429v76.22222222222221h-6.428571428571429Z" fill="#D2D4CE"/><path d="M214.64285714285717,23.777777777777786h6.428571428571429v76.22222222222221h-6.428571428571429Z" fill="#D2D4CE"/><path d="M221.7857142857143,21.777777777777775h6.428571428571429v78.22222222222223h-6.428571428571429Z" fill="#D2D4CE"/><path d="M228.92857142857144,21.666666666666668h6.428571428571429v78.33333333333333h-6.428571428571429Z" fill="#D2D4CE"/><path d="M236.07142857142858,20.55555555555556h6.428571428571429v79.44444444444444h-6.428571428571429Z" fill="#D2D4CE"/><path d="M243.21428571428572,19.8888888888889h6.428571428571429v80.1111111111111h-6.428571428571429Z" fill="#D2D4CE"/><path d="M250.35714285714286,19.333333333333336h6.428571428571429v80.66666666666666h-6.428571428571429Z" fill="#D2D4CE"/><path d="M257.5,16.333333333333332h6.428571428571429v83.66666666666667h-6.428571428571429Z" fill="#D2D4CE"/><path d="M264.6428571428571,16.11111111111111h6.428571428571429v83.88888888888889h-6.428571428571429Z" fill="#D2D4CE"/><path d="M271.78571428571433,15.888888888888886h6.428571428571429v84.11111111111111h-6.428571428571429Z" fill="#D2D4CE"/><path d="M278.92857142857144,15.222222222222225h6.428571428571429v84.77777777777777h-6.428571428571429Z" fill="#D2D4CE"/><path d="M286.07142857142856,13.222222222222225h6.428571428571429v86.77777777777777h-6.428571428571429Z" fill="#D2D4CE"/><path d="M293.2142857142858,8.111111111111114h6.428571428571429v91.88888888888889h-6.428571428571429Z" fill="#D2D4CE"/></g></g><path class="foreground" aria-hidden="true" d="" display="none"/></g></g></g></svg>