<svg xmlns="http://www.w3.org/2000/svg" xmlns:xlink="http://www.w3.org/1999/xlink" version="1.1" class="marks" width="310" height="110" ><g fill="none" stroke-miterlimit="10" transform="translate(5,5)"><g class="mark-group role-frame root" role="graphics-object" aria-roledescription="group mark container"><g transform="translate(0,0)"><path class="background" aria-hidden="true" d="M0,0h300v100h-300Z" stroke="#ddd" stroke-width="0"/><g><g class="mark-rect role-mark marks" role="graphics-symbol" aria-roledescription="rect mark container"><path d="M36.07142857142858,89.0909090909091h6.428571428571429v10.909090909090907h-6.428571428571429Z" fill="#D2D4CE"/><path d="M43.21428571428572,88.18181818181819h6.428571428571429v11.818181818181813h-6.428571428571429Z" fill="#D2D4CE"/><path d="M50.35714285714286,87.27272727272728h6.428571428571429v12.72727272727272h-6.428571428571429Z" fill="#D2D4CE"/><path d="M57.50000000000001,87.27272727272728h6.428571428571429v12.72727272727272h-6.428571428571429Z" fill="#D2D4CE"/><path d="M64.64285714285715,86.36363636363636h6.428571428571429v13.63636363636364h-6.428571428571429Z" fill="#D2D4CE"/><path d="M71.78571428571429,84.54545454545455h6.428571428571429v15.454545454545453h-6.428571428571429Z" fill="#D2D4CE"/><path d="M78.92857142857143,84.54545454545455h6.428571428571429v15.454545454545453h-6.428571428571429Z" fill="#D2D4CE"/><path d="M86.07142857142858,80.9090909090909h6.428571428571429v19.090909090909093h-6.428571428571429Z" fill="#D2D4CE"/><path d="M93.21428571428572,79.0909090909091h6.428571428571429v20.909090909090907h-6.428571428571429Z" fill="#D2D4CE"/><path d="M100.35714285714286,77.27272727272727h6.428571428571429v22.727272727272734h-6.428571428571429Z" fill="#D2D4CE"/><path d="M107.50000000000001,74.54545454545455h6.428571428571429v25.454545454545453h-6.428571428571429Z" fill="#D2D4CE"/><path d="M114.64285714285715,62.727272727272734h6.428571428571429v37.272727272727266h-6.428571428571429Z" fill="#D2D4CE"/><path d="M121.78571428571429,60.909090909090914h6.428571428571429v39.090909090909086h-6.428571428571429Z" fill="#D2D4CE"/><path d="M128.92857142857144,57.27272727272727h6.428571428571429v42.72727272727273h-6.428571428571429Z" fill="#D2D4CE"/><path d="M136.07142857142858,57.27272727272727h6.428571428571429v42.72727272727273h-6.428571428571429Z" fill="#D2D4CE"/><path d="M143.21428571428572,57.27272727272727h6.428571428571429v42.72727272727273h-6.428571428571429Z" fill="#D2D4CE"/><path d="M150.35714285714286,56.363636363636374h6.428571428571429v43.636363636363626h-6.428571428571429Z" fill="#D2D4CE"/><path d="M157.5,55.454545454545446h6.428571428571429v44.545454545454554h-6.428571428571429Z" fill="#D2D4CE"/><path d="M164.64285714285717,53.63636363636364h6.428571428571429v46.36363636363636h-6.428571428571429Z" fill="#D2D4CE"/><path d="M171.7857142857143,51.81818181818182h6.428571428571429v48.18181818181818h-6.428571428571429Z" fill="#D2D4CE"/><path d="M178.92857142857144,51.81818181818182h6.428571428571429v48.18181818181818h-6.428571428571429Z" fill="#00923E"/><path d="M186.07142857142858,48.18181818181818h6.428571428571429v51.81818181818182h-6.428571428571429Z" fill="#D2D4CE"/><path d="M193.21428571428572,44.54545454545455h6.428571428571429v55.45454545454545h-6.428571428571429Z" fill="#D2D4CE"/><path d="M200.35714285714286,38.18181818181819h6.428571428571429v61.81818181818181h-6.428571428571429Z" fill="#D2D4CE"/><path d="M207.50000000000003,38.18181818181819h6.428571428571429v61.81818181818181h-6.428571428571429Z" fill="#D2D4CE"/><path d="M214.64285714285717,35.45454545454546h6.428571428571429v64.54545454545453h-6.428571428571429Z" fill="#D2D4CE"/><path d="M221.7857142857143,35.45454545454546h6.428571428571429v64.54545454545453h-6.428571428571429Z" fill="#D2D4CE"/><path d="M228.92857142857144,32.72727272727273h6.428571428571429v67.27272727272728h-6.428571428571429Z" fill="#D2D4CE"/><path d="M236.07142857142858,29.999999999999993h6.428571428571429v70h-6.428571428571429Z" fill="#D2D4CE"/><path d="M243.21428571428572,28.181818181818173h6.428571428571429v71.81818181818183h-6.428571428571429Z" fill="#D2D4CE"/><path d="M250.35714285714286,28.181818181818173h6.428571428571429v71.81818181818183h-6.428571428571429Z" fill="#D2D4CE"/><path d="M257.5,28.181818181818173h6.428571428571429v71.81818181818183h-6.428571428571429Z" fill="#D2D4CE"/><path d="M264.6428571428571,21.818181818181827h6.428571428571429v78.18181818181817h-6.428571428571429Z" fill="#D2D4CE"/><path d="M271.78571428571433,18.181818181818176h6.428571428571429v81.81818181818183h-6.428571428571429Z" fill="#D2D4CE"/><path d="M278.92857142857144,17.272727272727273h6.428571428571429v82.72727272727272h-6.428571428571429Z" fill="#D2D4CE"/><path d="M286.07142857142856,10.909090909090901h6.428571428571429v89.0909090909091h-6.428571428571429Z" fill="#D2D4CE"/><path d="M293.2142857142858,1.8181818181818077h6.428571428571429v98.18181818181819h-6.428571428571429Z" fill="#D2D4CE"/></g></g><path class="foreground" aria-hidden="true" d="" display="none"/></g></g></g></svg>