<svg xmlns="http://www.w3.org/2000/svg" xmlns:xlink="http://www.w3.org/1999/xlink" version="1.1" class="marks" width="310" height="110" ><g fill="none" stroke-miterlimit="10" transform="translate(5,5)"><g class="mark-group role-frame root" role="graphics-object" aria-roledescription="group mark container"><g transform="translate(0,0)"><path class="background" aria-hidden="true" d="M0,0h300v100h-300Z" stroke="#ddd" stroke-width="0"/><g><g class="mark-rect role-mark marks" role="graphics-symbol" aria-roledescription="rect mark container"><path d="M0.3571428571428612,77.5h6.428571428571429v22.5h-6.428571428571429Z" fill="#D2D4CE"/><path d="M7.500000000000004,70.83333333333333h6.428571428571429v29.16666666666667h-6.428571428571429Z" fill="#D2D4CE"/><path d="M14.642857142857148,70.83333333333333h6.428571428571429v29.16666666666667h-6.428571428571429Z" fill="#D2D4CE"/><path d="M21.785714285714292,69.16666666666667h6.428571428571429v30.83333333333333h-6.428571428571429Z" fill="#D2D4CE"/><path d="M28.928571428571434,65.83333333333334h6.428571428571429v34.16666666666666h-6.428571428571429Z" fill="#D2D4CE"/><path d="M36.07142857142858,62.5h6.428571428571429v37.5h-6.428571428571429Z" fill="#D2D4CE"/><path d="M43.21428571428572,61.66666666666667h6.428571428571429v38.33333333333333h-6.428571428571429Z" fill="#D2D4CE"/><path d="M50.35714285714286,59.16666666666666h6.428571428571429v40.83333333333334h-6.428571428571429Z" fill="#D2D4CE"/><path d="M57.50000000000001,50h6.428571428571429v50h-6.428571428571429Z" fill="#D2D4CE"/><path d="M64.64285714285715,49.16666666666667h6.428571428571429v50.83333333333333h-6.428571428571429Z" fill="#D2D4CE"/><path d="M71.78571428571429,48.33333333333333h6.428571428571429v51.66666666666667h-6.428571428571429Z" fill="#D2D4CE"/><path d="M78.92857142857143,45.00000000000001h6.428571428571429v54.99999999999999h-6.428571428571429Z" fill="#D2D4CE"/><path d="M86.07142857142858,43.333333333333336h6.428571428571429v56.666666666666664h-6.428571428571429Z" fill="#D2D4CE"/><path d="M93.21428571428572,43.333333333333336h6.428571428571429v56.666666666666664h-6.428571428571429Z" fill="#D2D4CE"/><path d="M100.35714285714286,42.49999999999999h6.428571428571429v57.50000000000001h-6.428571428571429Z" fill="#D2D4CE"/><path d="M107.50000000000001,41.666666666666664h6.428571428571429v58.333333333333336h-6.428571428571429Z" fill="#D2D4CE"/><path d="M114.64285714285715,40.833333333333336h6.428571428571429v59.166666666666664h-6.428571428571429Z" fill="#D2D4CE"/><path d="M121.78571428571429,38.33333333333333h6.428571428571429v61.66666666666667h-6.428571428571429Z" fill="#D2D4CE"/><path d="M128.92857142857144,38.33333333333333h6.428571428571429v61.66666666666667h-6.428571428571429Z" fill="#00923E"/><path d="M136.07142857142858,36.66666666666667h6.428571428571429v63.33333333333333h-6.428571428571429Z" fill="#D2D4CE"/><path d="M143.21428571428572,35.83333333333333h6.428571428571429v64.16666666666667h-6.428571428571429Z" fill="#D2D4CE"/><path d="M150.35714285714286,35h6.428571428571429v65h-6.428571428571429Z" fill="#D2D4CE"/><path d="M157.5,33.333333333333336h6.428571428571429v66.66666666666666h-6.428571428571429Z" fill="#D2D4CE"/><path d="M164.64285714285717,32.50000000000001h6.428571428571429v67.5h-6.428571428571429Z" fill="#D2D4CE"/><path d="M171.7857142857143,31.666666666666675h6.428571428571429v68.33333333333333h-6.428571428571429Z" fill="#D2D4CE"/><path d="M178.92857142857144,28.333333333333332h6.428571428571429v71.66666666666667h-6.428571428571429Z" fill="#D2D4CE"/><path d="M186.07142857142858,26.66666666666666h6.428571428571429v73.33333333333334h-6.428571428571429Z" fill="#D2D4CE"/><path d="M193.21428571428572,25.83333333333333h6.428571428571429v74.16666666666667h-6.428571428571429Z" fill="#D2D4CE"/><path d="M200.35714285714286,24.16666666666667h6.428571428571429v75.83333333333333h-6.428571428571429Z" fill="#D2D4CE"/><path d="M207.50000000000003,22.499999999999996h6.428571428571429v77.5h-6.428571428571429Z" fill="#D2D4CE"/><path d="M214.64285714285717,20.833333333333336h6.428571428571429v79.16666666666666h-6.428571428571429Z" fill="#D2D4CE"/><path d="M221.7857142857143,20.000000000000007h6.428571428571429v80h-6.428571428571429Z" fill="#D2D4CE"/><path d="M228.92857142857144,19.166666666666675h6.428571428571429v80.83333333333333h-6.428571428571429Z" fill="#D2D4CE"/><path d="M236.07142857142858,16.666666666666664h6.428571428571429v83.33333333333334h-6.428571428571429Z" fill="#D2D4CE"/><path d="M243.21428571428572,15.833333333333332h6.428571428571429v84.16666666666667h-6.428571428571429Z" fill="#D2D4CE"/><path d="M250.35714285714286,12.5h6.428571428571429v87.5h-6.428571428571429Z" fill="#D2D4CE"/><path d="M257.5,10.83333333333334h6.428571428571429v89.16666666666666h-6.428571428571429Z" fill="#D2D4CE"/><path d="M264.6428571428571,9.999999999999998h6.428571428571429v90h-6.428571428571429Z" fill="#D2D4CE"/><path d="M271.78571428571433,8.333333333333337h6.428571428571429v91.66666666666666h-6.428571428571429Z" fill="#D2D4CE"/><path d="M278.92857142857144,8.333333333333337h6.428571428571429v91.66666666666666h-6.428571428571429Z" fill="#D2D4CE"/><path d="M286.07142857142856,7.500000000000007h6.428571428571429v92.5h-6.428571428571429Z" fill="#D2D4CE"/><path d="M293.2142857142858,5.833333333333323h6.428571428571429v94.16666666666667h-6.428571428571429Z" fill="#D2D4CE"/></g></g><path class="foreground" aria-hidden="true" d="" display="none"/></g></g></g></svg>