<svg xmlns="http://www.w3.org/2000/svg" xmlns:xlink="http://www.w3.org/1999/xlink" version="1.1" class="marks" width="310" height="110" ><g fill="none" stroke-miterlimit="10" transform="translate(5,5)"><g class="mark-group role-frame root" role="graphics-object" aria-roledescription="group mark container"><g transform="translate(0,0)"><path class="background" aria-hidden="true" d="M0,0h300v100h-300Z" stroke="#ddd" stroke-width="0"/><g><g class="mark-rect role-mark marks" role="graphics-symbol" aria-roledescription="rect mark container"><path d="M0.3571428571428612,96h6.428571428571429v4h-6.428571428571429Z" fill="#D2D4CE"/><path d="M7.500000000000004,96h6.428571428571429v4h-6.428571428571429Z" fill="#D2D4CE"/><path d="M14.642857142857148,94h6.428571428571429v6h-6.428571428571429Z" fill="#D2D4CE"/><path d="M21.785714285714292,94h6.428571428571429v6h-6.428571428571429Z" fill="#D2D4CE"/><path d="M28.928571428571434,90h6.428571428571429v10h-6.428571428571429Z" fill="#D2D4CE"/><path d="M36.07142857142858,90h6.428571428571429v10h-6.428571428571429Z" fill="#D2D4CE"/><path d="M43.21428571428572,90h6.428571428571429v10h-6.428571428571429Z" fill="#D2D4CE"/><path d="M50.35714285714286,90h6.428571428571429v10h-6.428571428571429Z" fill="#D2D4CE"/><path d="M57.50000000000001,88h6.428571428571429v12h-6.428571428571429Z" fill="#D2D4CE"/><path d="M64.64285714285715,86h6.428571428571429v14h-6.428571428571429Z" fill="#D2D4CE"/><path d="M71.78571428571429,86h6.428571428571429v14h-6.428571428571429Z" fill="#D2D4CE"/><path d="M78.92857142857143,86h6.428571428571429v14h-6.428571428571429Z" fill="#D2D4CE"/><path d="M86.07142857142858,84h6.428571428571429v16h-6.428571428571429Z" fill="#D2D4CE"/><path d="M93.21428571428572,84h6.428571428571429v16h-6.428571428571429Z" fill="#D2D4CE"/><path d="M100.35714285714286,84h6.428571428571429v16h-6.428571428571429Z" fill="#D2D4CE"/><path d="M107.50000000000001,80h6.428571428571429v20h-6.428571428571429Z" fill="#D2D4CE"/><path d="M114.64285714285715,80h6.428571428571429v20h-6.428571428571429Z" fill="#D2D4CE"/><path d="M121.78571428571429,80h6.428571428571429v20h-6.428571428571429Z" fill="#00923E"/><path d="M128.92857142857144,78h6.428571428571429v22h-6.428571428571429Z" fill="#D2D4CE"/><path d="M136.07142857142858,76h6.428571428571429v24h-6.428571428571429Z" fill="#D2D4CE"/><path d="M143.21428571428572,76h6.428571428571429v24h-6.428571428571429Z" fill="#D2D4CE"/><path d="M150.35714285714286,74h6.428571428571429v26h-6.428571428571429Z" fill="#D2D4CE"/><path d="M157.5,70h6.428571428571429v30h-6.428571428571429Z" fill="#D2D4CE"/><path d="M164.64285714285717,68h6.428571428571429v32h-6.428571428571429Z" fill="#D2D4CE"/><path d="M171.7857142857143,66h6.428571428571429v34h-6.428571428571429Z" fill="#D2D4CE"/><path d="M178.92857142857144,62h6.428571428571429v38h-6.428571428571429Z" fill="#D2D4CE"/><path d="M186.07142857142858,62h6.428571428571429v38h-6.428571428571429Z" fill="#D2D4CE"/><path d="M193.21428571428572,62h6.428571428571429v38h-6.428571428571429Z" fill="#D2D4CE"/><path d="M200.35714285714286,60h6.428571428571429v40h-6.428571428571429Z" fill="#D2D4CE"/><path d="M207.50000000000003,54h6.428571428571429v46h-6.428571428571429Z" fill="#D2D4CE"/><path d="M214.64285714285717,54h6.428571428571429v46h-6.428571428571429Z" fill="#D2D4CE"/><path d="M221.7857142857143,54h6.428571428571429v46h-6.428571428571429Z" fill="#D2D4CE"/><path d="M228.92857142857144,50h6.428571428571429v50h-6.428571428571429Z" fill="#D2D4CE"/><path d="M236.07142857142858,48h6.428571428571429v52h-6.428571428571429Z" fill="#D2D4CE"/><path d="M243.21428571428572,48h6.428571428571429v52h-6.428571428571429Z" fill="#D2D4CE"/><path d="M250.35714285714286,34.00000000000001h6.428571428571429v66h-6.428571428571429Z" fill="#D2D4CE"/><path d="M257.5,34.00000000000001h6.428571428571429v66h-6.428571428571429Z" fill="#D2D4CE"/><path d="M264.6428571428571,24h6.428571428571429v76h-6.428571428571429Z" fill="#D2D4CE"/><path d="M271.78571428571433,24h6.428571428571429v76h-6.428571428571429Z" fill="#D2D4CE"/><path d="M278.92857142857144,24h6.428571428571429v76h-6.428571428571429Z" fill="#D2D4CE"/><path d="M286.07142857142856,19.999999999999996h6.428571428571429v80h-6.428571428571429Z" fill="#D2D4CE"/><path d="M293.2142857142858,0h6.428571428571429v100h-6.428571428571429Z" fill="#D2D4CE"/></g></g><path class="foreground" aria-hidden="true" d="" display="none"/></g></g></g></svg>