<svg xmlns="http://www.w3.org/2000/svg" xmlns:xlink="http://www.w3.org/1999/xlink" version="1.1" class="marks" width="310" height="110" ><g fill="none" stroke-miterlimit="10" transform="translate(5,5)"><g class="mark-group role-frame root" role="graphics-object" aria-roledescription="group mark container"><g transform="translate(0,0)"><path class="background" aria-hidden="true" d="M0,0h300v100h-300Z" stroke="#ddd" stroke-width="0"/><g><g class="mark-rect role-mark marks" role="graphics-symbol" aria-roledescription="rect mark container"><path d="M0.3571428571428612,85.832h6.428571428571429v14.168000000000006h-6.428571428571429Z" fill="#D2D4CE"/><path d="M7.500000000000004,85.60900000000001h6.428571428571429v14.390999999999991h-6.428571428571429Z" fill="#D2D4CE"/><path d="M14.642857142857148,82.2964h6.428571428571429v17.703599999999994h-6.428571428571429Z" fill="#D2D4CE"/><path d="M21.785714285714292,81.3116h6.428571428571429v18.6884h-6.428571428571429Z" fill="#D2D4CE"/><path d="M28.928571428571434,79.178h6.428571428571429v20.822000000000003h-6.428571428571429Z" fill="#D2D4CE"/><path d="M36.07142857142858,78.98479999999999h6.428571428571429v21.015200000000007h-6.428571428571429Z" fill="#D2D4CE"/><path d="M43.21428571428572,74.9684h6.428571428571429v25.031599999999997h-6.428571428571429Z" fill="#D2D4CE"/><path d="M50.35714285714286,74.028h6.428571428571429v25.971999999999994h-6.428571428571429Z" fill="#D2D4CE"/><path d="M57.50000000000001,73.4858h6.428571428571429v26.514200000000002h-6.428571428571429Z" fill="#D2D4CE"/><path d="M64.64285714285715,73.0792h6.428571428571429v26.9208h-6.428571428571429Z" fill="#D2D4CE"/><path d="M71.78571428571429,71.7866h6.428571428571429v28.213399999999993h-6.428571428571429Z" fill="#D2D4CE"/><path d="M78.92857142857143,71.5388h6.428571428571429v28.461200000000005h-6.428571428571429Z" fill="#D2D4CE"/><path d="M86.07142857142858,70.8134h6.428571428571429v29.1866h-6.428571428571429Z" fill="#D2D4CE"/><path d="M93.21428571428572,70.4904h6.428571428571429v29.509600000000006h-6.428571428571429Z" fill="#D2D4CE"/><path d="M100.35714285714286,69.90259999999999h6.428571428571429v30.097400000000007h-6.428571428571429Z" fill="#D2D4CE"/><path d="M107.50000000000001,69.5164h6.428571428571429v30.483599999999996h-6.428571428571429Z" fill="#D2D4CE"/><path d="M114.64285714285715,68.6358h6.428571428571429v31.364199999999997h-6.428571428571429Z" fill="#D2D4CE"/><path d="M121.78571428571429,68.0892h6.428571428571429v31.910799999999995h-6.428571428571429Z" fill="#D2D4CE"/><path d="M128.92857142857144,67.2668h6.428571428571429v32.7332h-6.428571428571429Z" fill="#D2D4CE"/><path d="M136.07142857142858,67.08959999999999h6.428571428571429v32.91040000000001h-6.428571428571429Z" fill="#D2D4CE"/><path d="M143.21428571428572,65.94680000000001h6.428571428571429v34.05319999999999h-6.428571428571429Z" fill="#D2D4CE"/><path d="M150.35714285714286,64.8162h6.428571428571429v35.183800000000005h-6.428571428571429Z" fill="#D2D4CE"/><path d="M157.5,60.2958h6.428571428571429v39.7042h-6.428571428571429Z" fill="#D2D4CE"/><path d="M164.64285714285717,59.826h6.428571428571429v40.174h-6.428571428571429Z" fill="#D2D4CE"/><path d="M171.7857142857143,59.09040000000001h6.428571428571429v40.90959999999999h-6.428571428571429Z" fill="#D2D4CE"/><path d="M178.92857142857144,58.79540000000001h6.428571428571429v41.20459999999999h-6.428571428571429Z" fill="#D2D4CE"/><path d="M186.07142857142858,58.6464h6.428571428571429v41.3536h-6.428571428571429Z" fill="#D2D4CE"/><path d="M193.21428571428572,57.9642h6.428571428571429v42.0358h-6.428571428571429Z" fill="#D2D4CE"/><path d="M200.35714285714286,57.1152h6.428571428571429v42.8848h-6.428571428571429Z" fill="#D2D4CE"/><path d="M207.50000000000003,56.8198h6.428571428571429v43.1802h-6.428571428571429Z" fill="#D2D4CE"/><path d="M214.64285714285717,56.4762h6.428571428571429v43.5238h-6.428571428571429Z" fill="#D2D4CE"/><path d="M221.7857142857143,55.3788h6.428571428571429v44.6212h-6.428571428571429Z" fill="#D2D4CE"/><path d="M228.92857142857144,55.2312h6.428571428571429v44.7688h-6.428571428571429Z" fill="#00923E"/><path d="M236.07142857142858,48.25899999999999h6.428571428571429v51.74100000000001h-6.428571428571429Z" fill="#D2D4CE"/><path d="M243.21428571428572,47.60300000000001h6.428571428571429v52.39699999999999h-6.428571428571429Z" fill="#D2D4CE"/><path d="M250.35714285714286,47.2064h6.428571428571429v52.7936h-6.428571428571429Z" fill="#D2D4CE"/><path d="M257.5,45.579h6.428571428571429v54.421h-6.428571428571429Z" fill="#D2D4CE"/><path d="M264.6428571428571,39.81600000000001h6.428571428571429v60.18399999999999h-6.428571428571429Z" fill="#D2D4CE"/><path d="M271.78571428571433,38.194799999999994h6.428571428571429v61.805200000000006h-6.428571428571429Z" fill="#D2D4CE"/><path d="M278.92857142857144,36.0762h6.428571428571429v63.9238h-6.428571428571429Z" fill="#D2D4CE"/><path d="M286.07142857142856,31.6422h6.428571428571429v68.3578h-6.428571428571429Z" fill="#D2D4CE"/><path d="M293.2142857142858,6.137400000000004h6.428571428571429v93.8626h-6.428571428571429Z" fill="#D2D4CE"/></g></g><path class="foreground" aria-hidden="true" d="" display="none"/></g></g></g></svg>