<svg xmlns="http://www.w3.org/2000/svg" xmlns:xlink="http://www.w3.org/1999/xlink" version="1.1" class="marks" width="310" height="110" ><g fill="none" stroke-miterlimit="10" transform="translate(5,5)"><g class="mark-group role-frame root" role="graphics-object" aria-roledescription="group mark container"><g transform="translate(0,0)"><path class="background" aria-hidden="true" d="M0,0h300v100h-300Z" stroke="#ddd" stroke-width="0"/><g><g class="mark-rect role-mark marks" role="graphics-symbol" aria-roledescription="rect mark container"><path d="M14.642857142857148,85h6.428571428571429v15h-6.428571428571429Z" fill="#D2D4CE"/><path d="M21.785714285714292,85h6.428571428571429v15h-6.428571428571429Z" fill="#D2D4CE"/><path d="M28.928571428571434,82.5h6.428571428571429v17.5h-6.428571428571429Z" fill="#D2D4CE"/><path d="M36.07142857142858,82.5h6.428571428571429v17.5h-6.428571428571429Z" fill="#D2D4CE"/><path d="M43.21428571428572,73h6.428571428571429v27h-6.428571428571429Z" fill="#D2D4CE"/><path d="M50.35714285714286,71h6.428571428571429v29h-6.428571428571429Z" fill="#D2D4CE"/><path d="M57.50000000000001,71h6.428571428571429v29h-6.428571428571429Z" fill="#D2D4CE"/><path d="M64.64285714285715,70h6.428571428571429v30h-6.428571428571429Z" fill="#D2D4CE"/><path d="M71.78571428571429,70h6.428571428571429v30h-6.428571428571429Z" fill="#D2D4CE"/><path d="M78.92857142857143,65.5h6.428571428571429v34.5h-6.428571428571429Z" fill="#D2D4CE"/><path d="M86.07142857142858,65.5h6.428571428571429v34.5h-6.428571428571429Z" fill="#D2D4CE"/><path d="M93.21428571428572,65h6.428571428571429v35h-6.428571428571429Z" fill="#D2D4CE"/><path d="M100.35714285714286,64.5h6.428571428571429v35.5h-6.428571428571429Z" fill="#D2D4CE"/><path d="M107.50000000000001,62h6.428571428571429v38h-6.428571428571429Z" fill="#D2D4CE"/><path d="M114.64285714285715,62h6.428571428571429v38h-6.428571428571429Z" fill="#D2D4CE"/><path d="M121.78571428571429,59.00000000000001h6.428571428571429v40.99999999999999h-6.428571428571429Z" fill="#D2D4CE"/><path d="M128.92857142857144,57.99999999999999h6.428571428571429v42.00000000000001h-6.428571428571429Z" fill="#D2D4CE"/><path d="M136.07142857142858,57.00000000000001h6.428571428571429v42.99999999999999h-6.428571428571429Z" fill="#D2D4CE"/><path d="M143.21428571428572,55.49999999999999h6.428571428571429v44.50000000000001h-6.428571428571429Z" fill="#D2D4CE"/><path d="M150.35714285714286,55.49999999999999h6.428571428571429v44.50000000000001h-6.428571428571429Z" fill="#D2D4CE"/><path d="M157.5,54.50000000000001h6.428571428571429v45.49999999999999h-6.428571428571429Z" fill="#00923E"/><path d="M164.64285714285717,53h6.428571428571429v47h-6.428571428571429Z" fill="#D2D4CE"/><path d="M171.7857142857143,52.5h6.428571428571429v47.5h-6.428571428571429Z" fill="#D2D4CE"/><path d="M178.92857142857144,52.5h6.428571428571429v47.5h-6.428571428571429Z" fill="#D2D4CE"/><path d="M186.07142857142858,50h6.428571428571429v50h-6.428571428571429Z" fill="#D2D4CE"/><path d="M193.21428571428572,48h6.428571428571429v52h-6.428571428571429Z" fill="#D2D4CE"/><path d="M200.35714285714286,46h6.428571428571429v54h-6.428571428571429Z" fill="#D2D4CE"/><path d="M207.50000000000003,45.49999999999999h6.428571428571429v54.50000000000001h-6.428571428571429Z" fill="#D2D4CE"/><path d="M214.64285714285717,42.00000000000001h6.428571428571429v57.99999999999999h-6.428571428571429Z" fill="#D2D4CE"/><path d="M221.7857142857143,40.99999999999999h6.428571428571429v59.00000000000001h-6.428571428571429Z" fill="#D2D4CE"/><path d="M228.92857142857144,40.99999999999999h6.428571428571429v59.00000000000001h-6.428571428571429Z" fill="#D2D4CE"/><path d="M236.07142857142858,40.99999999999999h6.428571428571429v59.00000000000001h-6.428571428571429Z" fill="#D2D4CE"/><path d="M243.21428571428572,40.99999999999999h6.428571428571429v59.00000000000001h-6.428571428571429Z" fill="#D2D4CE"/><path d="M250.35714285714286,39h6.428571428571429v61h-6.428571428571429Z" fill="#D2D4CE"/><path d="M257.5,35h6.428571428571429v65h-6.428571428571429Z" fill="#D2D4CE"/><path d="M264.6428571428571,30.499999999999993h6.428571428571429v69.5h-6.428571428571429Z" fill="#D2D4CE"/><path d="M271.78571428571433,28.000000000000004h6.428571428571429v72h-6.428571428571429Z" fill="#D2D4CE"/><path d="M278.92857142857144,19.999999999999996h6.428571428571429v80h-6.428571428571429Z" fill="#D2D4CE"/><path d="M286.07142857142856,14.000000000000002h6.428571428571429v86h-6.428571428571429Z" fill="#D2D4CE"/><path d="M293.2142857142858,6.500000000000005h6.428571428571429v93.5h-6.428571428571429Z" fill="#D2D4CE"/></g></g><path class="foreground" aria-hidden="true" d="" display="none"/></g></g></g></svg>