<svg xmlns="http://www.w3.org/2000/svg" xmlns:xlink="http://www.w3.org/1999/xlink" version="1.1" class="marks" width="310" height="110" ><g fill="none" stroke-miterlimit="10" transform="translate(5,5)"><g class="mark-group role-frame root" role="graphics-object" aria-roledescription="group mark container"><g transform="translate(0,0)"><path class="background" aria-hidden="true" d="M0,0h300v100h-300Z" stroke="#ddd" stroke-width="0"/><g><g class="mark-rect role-mark marks" role="graphics-symbol" aria-roledescription="rect mark container"><path d="M0.3571428571428612,71.5h6.428571428571429v28.5h-6.428571428571429Z" fill="#D2D4CE"/><path d="M7.500000000000004,70.6h6.428571428571429v29.400000000000006h-6.428571428571429Z" fill="#D2D4CE"/><path d="M14.642857142857148,69.9h6.428571428571429v30.099999999999994h-6.428571428571429Z" fill="#D2D4CE"/><path d="M21.785714285714292,68.39999999999999h6.428571428571429v31.60000000000001h-6.428571428571429Z" fill="#D2D4CE"/><path d="M28.928571428571434,67.9h6.428571428571429v32.099999999999994h-6.428571428571429Z" fill="#D2D4CE"/><path d="M36.07142857142858,63.3h6.428571428571429v36.7h-6.428571428571429Z" fill="#D2D4CE"/><path d="M43.21428571428572,60.5h6.428571428571429v39.5h-6.428571428571429Z" fill="#D2D4CE"/><path d="M50.35714285714286,59.5h6.428571428571429v40.5h-6.428571428571429Z" fill="#D2D4CE"/><path d="M57.50000000000001,57.599999999999994h6.428571428571429v42.400000000000006h-6.428571428571429Z" fill="#D2D4CE"/><path d="M64.64285714285715,57.400000000000006h6.428571428571429v42.599999999999994h-6.428571428571429Z" fill="#D2D4CE"/><path d="M71.78571428571429,54.699999999999996h6.428571428571429v45.300000000000004h-6.428571428571429Z" fill="#D2D4CE"/><path d="M78.92857142857143,53.49999999999999h6.428571428571429v46.50000000000001h-6.428571428571429Z" fill="#D2D4CE"/><path d="M86.07142857142858,52.5h6.428571428571429v47.5h-6.428571428571429Z" fill="#D2D4CE"/><path d="M93.21428571428572,52.300000000000004h6.428571428571429v47.699999999999996h-6.428571428571429Z" fill="#D2D4CE"/><path d="M100.35714285714286,51.800000000000004h6.428571428571429v48.199999999999996h-6.428571428571429Z" fill="#D2D4CE"/><path d="M107.50000000000001,51.4h6.428571428571429v48.6h-6.428571428571429Z" fill="#D2D4CE"/><path d="M114.64285714285715,51.300000000000004h6.428571428571429v48.699999999999996h-6.428571428571429Z" fill="#D2D4CE"/><path d="M121.78571428571429,51h6.428571428571429v49h-6.428571428571429Z" fill="#D2D4CE"/><path d="M128.92857142857144,50.9h6.428571428571429v49.1h-6.428571428571429Z" fill="#D2D4CE"/><path d="M136.07142857142858,50.8h6.428571428571429v49.2h-6.428571428571429Z" fill="#D2D4CE"/><path d="M143.21428571428572,47.5h6.428571428571429v52.5h-6.428571428571429Z" fill="#D2D4CE"/><path d="M150.35714285714286,44.50000000000001h6.428571428571429v55.49999999999999h-6.428571428571429Z" fill="#D2D4CE"/><path d="M157.5,44.50000000000001h6.428571428571429v55.49999999999999h-6.428571428571429Z" fill="#D2D4CE"/><path d="M164.64285714285717,42.199999999999996h6.428571428571429v57.800000000000004h-6.428571428571429Z" fill="#D2D4CE"/><path d="M171.7857142857143,41.7h6.428571428571429v58.3h-6.428571428571429Z" fill="#D2D4CE"/><path d="M178.92857142857144,40.99999999999999h6.428571428571429v59.00000000000001h-6.428571428571429Z" fill="#D2D4CE"/><path d="M186.07142857142858,40.19999999999999h6.428571428571429v59.80000000000001h-6.428571428571429Z" fill="#D2D4CE"/><path d="M193.21428571428572,40h6.428571428571429v60h-6.428571428571429Z" fill="#D2D4CE"/><path d="M200.35714285714286,39.7h6.428571428571429v60.3h-6.428571428571429Z" fill="#D2D4CE"/><path d="M207.50000000000003,39.6h6.428571428571429v60.4h-6.428571428571429Z" fill="#D2D4CE"/><path d="M214.64285714285717,38.5h6.428571428571429v61.5h-6.428571428571429Z" fill="#D2D4CE"/><path d="M221.7857142857143,37.1h6.428571428571429v62.9h-6.428571428571429Z" fill="#D2D4CE"/><path d="M228.92857142857144,35h6.428571428571429v65h-6.428571428571429Z" fill="#D2D4CE"/><path d="M236.07142857142858,30.000000000000004h6.428571428571429v70h-6.428571428571429Z" fill="#D2D4CE"/><path d="M243.21428571428572,29.600000000000005h6.428571428571429v70.39999999999999h-6.428571428571429Z" fill="#D2D4CE"/><path d="M250.35714285714286,26.700000000000003h6.428571428571429v73.3h-6.428571428571429Z" fill="#D2D4CE"/><path d="M257.5,25.7h6.428571428571429v74.3h-6.428571428571429Z" fill="#D2D4CE"/><path d="M264.6428571428571,25.4h6.428571428571429v74.6h-6.428571428571429Z" fill="#D2D4CE"/><path d="M271.78571428571433,25h6.428571428571429v75h-6.428571428571429Z" fill="#D2D4CE"/><path d="M278.92857142857144,21.999999999999996h6.428571428571429v78h-6.428571428571429Z" fill="#00923E"/><path d="M286.07142857142856,15.500000000000004h6.428571428571429v84.5h-6.428571428571429Z" fill="#D2D4CE"/><path d="M293.2142857142858,3.599999999999992h6.428571428571429v96.4h-6.428571428571429Z" fill="#D2D4CE"/></g></g><path class="foreground" aria-hidden="true" d="" display="none"/></g></g></g></svg>