<svg xmlns="http://www.w3.org/2000/svg" xmlns:xlink="http://www.w3.org/1999/xlink" version="1.1" class="marks" width="310" height="110" ><g fill="none" stroke-miterlimit="10" transform="translate(5,5)"><g class="mark-group role-frame root" role="graphics-object" aria-roledescription="group mark container"><g transform="translate(0,0)"><path class="background" aria-hidden="true" d="M0,0h300v100h-300Z" stroke="#ddd" stroke-width="0"/><g><g class="mark-rect role-mark marks" role="graphics-symbol" aria-roledescription="rect mark container"><path d="M78.92857142857143,88.33333333333333h6.428571428571429v11.666666666666671h-6.428571428571429Z" fill="#D2D4CE"/><path d="M86.07142857142858,87.5h6.428571428571429v12.5h-6.428571428571429Z" fill="#D2D4CE"/><path d="M93.21428571428572,85.83333333333334h6.428571428571429v14.166666666666657h-6.428571428571429Z" fill="#D2D4CE"/><path d="M100.35714285714286,81.66666666666667h6.428571428571429v18.33333333333333h-6.428571428571429Z" fill="#D2D4CE"/><path d="M107.50000000000001,78.33333333333333h6.428571428571429v21.66666666666667h-6.428571428571429Z" fill="#D2D4CE"/><path d="M114.64285714285715,77.5h6.428571428571429v22.5h-6.428571428571429Z" fill="#D2D4CE"/><path d="M121.78571428571429,77.5h6.428571428571429v22.5h-6.428571428571429Z" fill="#D2D4CE"/><path d="M128.92857142857144,73.33333333333334h6.428571428571429v26.666666666666657h-6.428571428571429Z" fill="#D2D4CE"/><path d="M136.07142857142858,70h6.428571428571429v30h-6.428571428571429Z" fill="#D2D4CE"/><path d="M143.21428571428572,62.5h6.428571428571429v37.5h-6.428571428571429Z" fill="#D2D4CE"/><path d="M150.35714285714286,62.5h6.428571428571429v37.5h-6.428571428571429Z" fill="#D2D4CE"/><path d="M157.5,60.83333333333334h6.428571428571429v39.16666666666666h-6.428571428571429Z" fill="#D2D4CE"/><path d="M164.64285714285717,60.83333333333334h6.428571428571429v39.16666666666666h-6.428571428571429Z" fill="#D2D4CE"/><path d="M171.7857142857143,59.16666666666666h6.428571428571429v40.83333333333334h-6.428571428571429Z" fill="#D2D4CE"/><path d="M178.92857142857144,54.16666666666667h6.428571428571429v45.83333333333333h-6.428571428571429Z" fill="#D2D4CE"/><path d="M186.07142857142858,52.49999999999999h6.428571428571429v47.50000000000001h-6.428571428571429Z" fill="#00923E"/><path d="M193.21428571428572,50h6.428571428571429v50h-6.428571428571429Z" fill="#D2D4CE"/><path d="M200.35714285714286,50h6.428571428571429v50h-6.428571428571429Z" fill="#D2D4CE"/><path d="M207.50000000000003,45.00000000000001h6.428571428571429v54.99999999999999h-6.428571428571429Z" fill="#D2D4CE"/><path d="M214.64285714285717,41.666666666666664h6.428571428571429v58.333333333333336h-6.428571428571429Z" fill="#D2D4CE"/><path d="M221.7857142857143,41.666666666666664h6.428571428571429v58.333333333333336h-6.428571428571429Z" fill="#D2D4CE"/><path d="M228.92857142857144,40.833333333333336h6.428571428571429v59.166666666666664h-6.428571428571429Z" fill="#D2D4CE"/><path d="M236.07142857142858,39.16666666666667h6.428571428571429v60.83333333333333h-6.428571428571429Z" fill="#D2D4CE"/><path d="M243.21428571428572,31.666666666666675h6.428571428571429v68.33333333333333h-6.428571428571429Z" fill="#D2D4CE"/><path d="M250.35714285714286,27.500000000000004h6.428571428571429v72.5h-6.428571428571429Z" fill="#D2D4CE"/><path d="M257.5,21.666666666666668h6.428571428571429v78.33333333333333h-6.428571428571429Z" fill="#D2D4CE"/><path d="M264.6428571428571,21.666666666666668h6.428571428571429v78.33333333333333h-6.428571428571429Z" fill="#D2D4CE"/><path d="M271.78571428571433,21.666666666666668h6.428571428571429v78.33333333333333h-6.428571428571429Z" fill="#D2D4CE"/><path d="M278.92857142857144,21.666666666666668h6.428571428571429v78.33333333333333h-6.428571428571429Z" fill="#D2D4CE"/><path d="M286.07142857142856,11.66666666666667h6.428571428571429v88.33333333333333h-6.428571428571429Z" fill="#D2D4CE"/><path d="M293.2142857142858,5.833333333333323h6.428571428571429v94.16666666666667h-6.428571428571429Z" fill="#D2D4CE"/></g></g><path class="foreground" aria-hidden="true" d="" display="none"/></g></g></g></svg>