<svg xmlns="http://www.w3.org/2000/svg" xmlns:xlink="http://www.w3.org/1999/xlink" version="1.1" class="marks" width="310" height="110" ><g fill="none" stroke-miterlimit="10" transform="translate(5,5)"><g class="mark-group role-frame root" role="graphics-object" aria-roledescription="group mark container"><g transform="translate(0,0)"><path class="background" aria-hidden="true" d="M0,0h300v100h-300Z" stroke="#ddd" stroke-width="0"/><g><g class="mark-rect role-mark marks" role="graphics-symbol" aria-roledescription="rect mark container"><path d="M0.3571428571428612,77.14285714285714h6.428571428571429v22.85714285714286h-6.428571428571429Z" fill="#D2D4CE"/><path d="M7.500000000000004,71.42857142857143h6.428571428571429v28.57142857142857h-6.428571428571429Z" fill="#D2D4CE"/><path d="M14.642857142857148,68.57142857142857h6.428571428571429v31.42857142857143h-6.428571428571429Z" fill="#D2D4CE"/><path d="M21.785714285714292,68.57142857142857h6.428571428571429v31.42857142857143h-6.428571428571429Z" fill="#D2D4CE"/><path d="M28.928571428571434,68.57142857142857h6.428571428571429v31.42857142857143h-6.428571428571429Z" fill="#D2D4CE"/><path d="M36.07142857142858,68.57142857142857h6.428571428571429v31.42857142857143h-6.428571428571429Z" fill="#D2D4CE"/><path d="M43.21428571428572,65.71428571428571h6.428571428571429v34.28571428571429h-6.428571428571429Z" fill="#D2D4CE"/><path d="M50.35714285714286,65.71428571428571h6.428571428571429v34.28571428571429h-6.428571428571429Z" fill="#D2D4CE"/><path d="M57.50000000000001,62.857142857142854h6.428571428571429v37.142857142857146h-6.428571428571429Z" fill="#D2D4CE"/><path d="M64.64285714285715,62.857142857142854h6.428571428571429v37.142857142857146h-6.428571428571429Z" fill="#D2D4CE"/><path d="M71.78571428571429,62.857142857142854h6.428571428571429v37.142857142857146h-6.428571428571429Z" fill="#D2D4CE"/><path d="M78.92857142857143,62.857142857142854h6.428571428571429v37.142857142857146h-6.428571428571429Z" fill="#D2D4CE"/><path d="M86.07142857142858,62.857142857142854h6.428571428571429v37.142857142857146h-6.428571428571429Z" fill="#D2D4CE"/><path d="M93.21428571428572,60.00000000000001h6.428571428571429v39.99999999999999h-6.428571428571429Z" fill="#D2D4CE"/><path d="M100.35714285714286,60.00000000000001h6.428571428571429v39.99999999999999h-6.428571428571429Z" fill="#D2D4CE"/><path d="M107.50000000000001,60.00000000000001h6.428571428571429v39.99999999999999h-6.428571428571429Z" fill="#D2D4CE"/><path d="M114.64285714285715,60.00000000000001h6.428571428571429v39.99999999999999h-6.428571428571429Z" fill="#D2D4CE"/><path d="M121.78571428571429,60.00000000000001h6.428571428571429v39.99999999999999h-6.428571428571429Z" fill="#D2D4CE"/><path d="M128.92857142857144,60.00000000000001h6.428571428571429v39.99999999999999h-6.428571428571429Z" fill="#D2D4CE"/><path d="M136.07142857142858,60.00000000000001h6.428571428571429v39.99999999999999h-6.428571428571429Z" fill="#D2D4CE"/><path d="M143.21428571428572,57.14285714285714h6.428571428571429v42.85714285714286h-6.428571428571429Z" fill="#D2D4CE"/><path d="M150.35714285714286,57.14285714285714h6.428571428571429v42.85714285714286h-6.428571428571429Z" fill="#D2D4CE"/><path d="M157.5,54.285714285714285h6.428571428571429v45.714285714285715h-6.428571428571429Z" fill="#D2D4CE"/><path d="M164.64285714285717,54.285714285714285h6.428571428571429v45.714285714285715h-6.428571428571429Z" fill="#D2D4CE"/><path d="M171.7857142857143,54.285714285714285h6.428571428571429v45.714285714285715h-6.428571428571429Z" fill="#D2D4CE"/><path d="M178.92857142857144,54.285714285714285h6.428571428571429v45.714285714285715h-6.428571428571429Z" fill="#D2D4CE"/><path d="M186.07142857142858,54.285714285714285h6.428571428571429v45.714285714285715h-6.428571428571429Z" fill="#D2D4CE"/><path d="M193.21428571428572,54.285714285714285h6.428571428571429v45.714285714285715h-6.428571428571429Z" fill="#D2D4CE"/><path d="M200.35714285714286,54.285714285714285h6.428571428571429v45.714285714285715h-6.428571428571429Z" fill="#D2D4CE"/><path d="M207.50000000000003,51.42857142857142h6.428571428571429v48.57142857142858h-6.428571428571429Z" fill="#D2D4CE"/><path d="M214.64285714285717,51.42857142857142h6.428571428571429v48.57142857142858h-6.428571428571429Z" fill="#D2D4CE"/><path d="M221.7857142857143,48.57142857142856h6.428571428571429v51.42857142857144h-6.428571428571429Z" fill="#D2D4CE"/><path d="M228.92857142857144,40h6.428571428571429v60h-6.428571428571429Z" fill="#D2D4CE"/><path d="M236.07142857142858,40h6.428571428571429v60h-6.428571428571429Z" fill="#D2D4CE"/><path d="M243.21428571428572,40h6.428571428571429v60h-6.428571428571429Z" fill="#D2D4CE"/><path d="M250.35714285714286,34.285714285714285h6.428571428571429v65.71428571428572h-6.428571428571429Z" fill="#00923E"/><path d="M257.5,31.428571428571427h6.428571428571429v68.57142857142857h-6.428571428571429Z" fill="#D2D4CE"/><path d="M264.6428571428571,31.428571428571427h6.428571428571429v68.57142857142857h-6.428571428571429Z" fill="#D2D4CE"/><path d="M271.78571428571433,28.57142857142857h6.428571428571429v71.42857142857143h-6.428571428571429Z" fill="#D2D4CE"/><path d="M278.92857142857144,25.71428571428571h6.428571428571429v74.28571428571429h-6.428571428571429Z" fill="#D2D4CE"/><path d="M286.07142857142856,20.000000000000007h6.428571428571429v80h-6.428571428571429Z" fill="#D2D4CE"/><path d="M293.2142857142858,11.428571428571422h6.428571428571429v88.57142857142858h-6.428571428571429Z" fill="#D2D4CE"/></g></g><path class="foreground" aria-hidden="true" d="" display="none"/></g></g></g></svg>