<svg xmlns="http://www.w3.org/2000/svg" xmlns:xlink="http://www.w3.org/1999/xlink" version="1.1" class="marks" width="310" height="110" ><g fill="none" stroke-miterlimit="10" transform="translate(5,5)"><g class="mark-group role-frame root" role="graphics-object" aria-roledescription="group mark container"><g transform="translate(0,0)"><path class="background" aria-hidden="true" d="M0,0h300v100h-300Z" stroke="#ddd" stroke-width="0"/><g><g class="mark-rect role-mark marks" role="graphics-symbol" aria-roledescription="rect mark container"><path d="M0.3571428571428612,94.24h6.428571428571429v5.760000000000005h-6.428571428571429Z" fill="#D2D4CE"/><path d="M7.500000000000004,93.72h6.428571428571429v6.280000000000001h-6.428571428571429Z" fill="#D2D4CE"/><path d="M14.642857142857148,93.06h6.428571428571429v6.939999999999998h-6.428571428571429Z" fill="#D2D4CE"/><path d="M21.785714285714292,92.9h6.428571428571429v7.099999999999994h-6.428571428571429Z" fill="#D2D4CE"/><path d="M28.928571428571434,92.36h6.428571428571429v7.640000000000001h-6.428571428571429Z" fill="#D2D4CE"/><path d="M36.07142857142858,92.28h6.428571428571429v7.719999999999999h-6.428571428571429Z" fill="#D2D4CE"/><path d="M43.21428571428572,90.94h6.428571428571429v9.060000000000002h-6.428571428571429Z" fill="#D2D4CE"/><path d="M50.35714285714286,89.53999999999999h6.428571428571429v10.460000000000008h-6.428571428571429Z" fill="#D2D4CE"/><path d="M57.50000000000001,85.86h6.428571428571429v14.14h-6.428571428571429Z" fill="#D2D4CE"/><path d="M64.64285714285715,85.82h6.428571428571429v14.180000000000007h-6.428571428571429Z" fill="#D2D4CE"/><path d="M71.78571428571429,85.06h6.428571428571429v14.939999999999998h-6.428571428571429Z" fill="#D2D4CE"/><path d="M78.92857142857143,84.26h6.428571428571429v15.739999999999995h-6.428571428571429Z" fill="#D2D4CE"/><path d="M86.07142857142858,82.89999999999999h6.428571428571429v17.10000000000001h-6.428571428571429Z" fill="#D2D4CE"/><path d="M93.21428571428572,81.80000000000001h6.428571428571429v18.19999999999999h-6.428571428571429Z" fill="#D2D4CE"/><path d="M100.35714285714286,81.02000000000001h6.428571428571429v18.97999999999999h-6.428571428571429Z" fill="#D2D4CE"/><path d="M107.50000000000001,79.47999999999999h6.428571428571429v20.52000000000001h-6.428571428571429Z" fill="#D2D4CE"/><path d="M114.64285714285715,79.14h6.428571428571429v20.86h-6.428571428571429Z" fill="#D2D4CE"/><path d="M121.78571428571429,77.8h6.428571428571429v22.200000000000003h-6.428571428571429Z" fill="#D2D4CE"/><path d="M128.92857142857144,74.92h6.428571428571429v25.08h-6.428571428571429Z" fill="#D2D4CE"/><path d="M136.07142857142858,73.9h6.428571428571429v26.099999999999994h-6.428571428571429Z" fill="#D2D4CE"/><path d="M143.21428571428572,72.89999999999999h6.428571428571429v27.10000000000001h-6.428571428571429Z" fill="#D2D4CE"/><path d="M150.35714285714286,71.10000000000001h6.428571428571429v28.89999999999999h-6.428571428571429Z" fill="#D2D4CE"/><path d="M157.5,70.28000000000002h6.428571428571429v29.719999999999985h-6.428571428571429Z" fill="#D2D4CE"/><path d="M164.64285714285717,70.28000000000002h6.428571428571429v29.719999999999985h-6.428571428571429Z" fill="#D2D4CE"/><path d="M171.7857142857143,69.52000000000001h6.428571428571429v30.47999999999999h-6.428571428571429Z" fill="#D2D4CE"/><path d="M178.92857142857144,69.34h6.428571428571429v30.659999999999997h-6.428571428571429Z" fill="#D2D4CE"/><path d="M186.07142857142858,68.5h6.428571428571429v31.5h-6.428571428571429Z" fill="#D2D4CE"/><path d="M193.21428571428572,66.78h6.428571428571429v33.22h-6.428571428571429Z" fill="#D2D4CE"/><path d="M200.35714285714286,61h6.428571428571429v39h-6.428571428571429Z" fill="#D2D4CE"/><path d="M207.50000000000003,60.56h6.428571428571429v39.44h-6.428571428571429Z" fill="#D2D4CE"/><path d="M214.64285714285717,57.53999999999999h6.428571428571429v42.46000000000001h-6.428571428571429Z" fill="#D2D4CE"/><path d="M221.7857142857143,54.89999999999999h6.428571428571429v45.10000000000001h-6.428571428571429Z" fill="#D2D4CE"/><path d="M228.92857142857144,54.339999999999996h6.428571428571429v45.660000000000004h-6.428571428571429Z" fill="#D2D4CE"/><path d="M236.07142857142858,50.660000000000004h6.428571428571429v49.339999999999996h-6.428571428571429Z" fill="#D2D4CE"/><path d="M243.21428571428572,41.459999999999994h6.428571428571429v58.540000000000006h-6.428571428571429Z" fill="#00923E"/><path d="M250.35714285714286,37.839999999999996h6.428571428571429v62.160000000000004h-6.428571428571429Z" fill="#D2D4CE"/><path d="M257.5,35.18h6.428571428571429v64.82h-6.428571428571429Z" fill="#D2D4CE"/><path d="M264.6428571428571,27.62h6.428571428571429v72.38h-6.428571428571429Z" fill="#D2D4CE"/><path d="M271.78571428571433,22.620000000000008h6.428571428571429v77.38h-6.428571428571429Z" fill="#D2D4CE"/><path d="M278.92857142857144,16.700000000000003h6.428571428571429v83.3h-6.428571428571429Z" fill="#D2D4CE"/><path d="M286.07142857142856,10.320000000000007h6.428571428571429v89.67999999999999h-6.428571428571429Z" fill="#D2D4CE"/><path d="M293.2142857142858,2.939999999999998h6.428571428571429v97.06h-6.428571428571429Z" fill="#D2D4CE"/></g></g><path class="foreground" aria-hidden="true" d="" display="none"/></g></g></g></svg>