<svg xmlns="http://www.w3.org/2000/svg" xmlns:xlink="http://www.w3.org/1999/xlink" version="1.1" class="marks" width="310" height="110" ><g fill="none" stroke-miterlimit="10" transform="translate(5,5)"><g class="mark-group role-frame root" role="graphics-object" aria-roledescription="group mark container"><g transform="translate(0,0)"><path class="background" aria-hidden="true" d="M0,0h300v100h-300Z" stroke="#ddd" stroke-width="0"/><g><g class="mark-rect role-mark marks" role="graphics-symbol" aria-roledescription="rect mark container"><path d="M0.3571428571428612,98.22222222222223h6.428571428571429v1.7777777777777715h-6.428571428571429Z" fill="#D2D4CE"/><path d="M7.500000000000004,96h6.428571428571429v4h-6.428571428571429Z" fill="#D2D4CE"/><path d="M14.642857142857148,93.55555555555556h6.428571428571429v6.444444444444443h-6.428571428571429Z" fill="#D2D4CE"/><path d="M21.785714285714292,93.55555555555556h6.428571428571429v6.444444444444443h-6.428571428571429Z" fill="#D2D4CE"/><path d="M28.928571428571434,93.11111111111111h6.428571428571429v6.888888888888886h-6.428571428571429Z" fill="#D2D4CE"/><path d="M36.07142857142858,93.11111111111111h6.428571428571429v6.888888888888886h-6.428571428571429Z" fill="#D2D4CE"/><path d="M43.21428571428572,92.88888888888889h6.428571428571429v7.111111111111114h-6.428571428571429Z" fill="#D2D4CE"/><path d="M50.35714285714286,91.11111111111111h6.428571428571429v8.888888888888886h-6.428571428571429Z" fill="#D2D4CE"/><path d="M57.50000000000001,90h6.428571428571429v10h-6.428571428571429Z" fill="#D2D4CE"/><path d="M64.64285714285715,89.77777777777777h6.428571428571429v10.222222222222229h-6.428571428571429Z" fill="#D2D4CE"/><path d="M71.78571428571429,89.33333333333333h6.428571428571429v10.666666666666671h-6.428571428571429Z" fill="#D2D4CE"/><path d="M78.92857142857143,89.33333333333333h6.428571428571429v10.666666666666671h-6.428571428571429Z" fill="#D2D4CE"/><path d="M86.07142857142858,88.66666666666667h6.428571428571429v11.333333333333329h-6.428571428571429Z" fill="#D2D4CE"/><path d="M93.21428571428572,87.11111111111111h6.428571428571429v12.888888888888886h-6.428571428571429Z" fill="#D2D4CE"/><path d="M100.35714285714286,86.44444444444444h6.428571428571429v13.555555555555557h-6.428571428571429Z" fill="#D2D4CE"/><path d="M107.50000000000001,86.22222222222223h6.428571428571429v13.777777777777771h-6.428571428571429Z" fill="#D2D4CE"/><path d="M114.64285714285715,86h6.428571428571429v14h-6.428571428571429Z" fill="#D2D4CE"/><path d="M121.78571428571429,86h6.428571428571429v14h-6.428571428571429Z" fill="#D2D4CE"/><path d="M128.92857142857144,85.33333333333333h6.428571428571429v14.666666666666671h-6.428571428571429Z" fill="#D2D4CE"/><path d="M136.07142857142858,85.33333333333333h6.428571428571429v14.666666666666671h-6.428571428571429Z" fill="#D2D4CE"/><path d="M143.21428571428572,84.88888888888889h6.428571428571429v15.111111111111114h-6.428571428571429Z" fill="#00923E"/><path d="M150.35714285714286,84.66666666666667h6.428571428571429v15.333333333333329h-6.428571428571429Z" fill="#D2D4CE"/><path d="M157.5,84h6.428571428571429v16h-6.428571428571429Z" fill="#D2D4CE"/><path d="M164.64285714285717,82.66666666666667h6.428571428571429v17.33333333333333h-6.428571428571429Z" fill="#D2D4CE"/><path d="M171.7857142857143,82.44444444444444h6.428571428571429v17.555555555555557h-6.428571428571429Z" fill="#D2D4CE"/><path d="M178.92857142857144,82.44444444444444h6.428571428571429v17.555555555555557h-6.428571428571429Z" fill="#D2D4CE"/><path d="M186.07142857142858,80.66666666666666h6.428571428571429v19.333333333333343h-6.428571428571429Z" fill="#D2D4CE"/><path d="M193.21428571428572,80.44444444444444h6.428571428571429v19.555555555555557h-6.428571428571429Z" fill="#D2D4CE"/><path d="M200.35714285714286,77.33333333333333h6.428571428571429v22.66666666666667h-6.428571428571429Z" fill="#D2D4CE"/><path d="M207.50000000000003,74.22222222222223h6.428571428571429v25.77777777777777h-6.428571428571429Z" fill="#D2D4CE"/><path d="M214.64285714285717,73.1111111111111h6.428571428571429v26.8888888888889h-6.428571428571429Z" fill="#D2D4CE"/><path d="M221.7857142857143,72.88888888888889h6.428571428571429v27.111111111111114h-6.428571428571429Z" fill="#D2D4CE"/><path d="M228.92857142857144,72h6.428571428571429v28h-6.428571428571429Z" fill="#D2D4CE"/><path d="M236.07142857142858,65.33333333333333h6.428571428571429v34.66666666666667h-6.428571428571429Z" fill="#D2D4CE"/><path d="M243.21428571428572,62.66666666666667h6.428571428571429v37.33333333333333h-6.428571428571429Z" fill="#D2D4CE"/><path d="M250.35714285714286,61.77777777777778h6.428571428571429v38.22222222222222h-6.428571428571429Z" fill="#D2D4CE"/><path d="M257.5,56.8888888888889h6.428571428571429v43.1111111111111h-6.428571428571429Z" fill="#D2D4CE"/><path d="M264.6428571428571,53.333333333333336h6.428571428571429v46.666666666666664h-6.428571428571429Z" fill="#D2D4CE"/><path d="M271.78571428571433,38.22222222222222h6.428571428571429v61.77777777777778h-6.428571428571429Z" fill="#D2D4CE"/><path d="M278.92857142857144,30.22222222222223h6.428571428571429v69.77777777777777h-6.428571428571429Z" fill="#D2D4CE"/><path d="M286.07142857142856,27.77777777777778h6.428571428571429v72.22222222222223h-6.428571428571429Z" fill="#D2D4CE"/><path d="M293.2142857142858,5.777777777777782h6.428571428571429v94.22222222222221h-6.428571428571429Z" fill="#D2D4CE"/></g></g><path class="foreground" aria-hidden="true" d="" display="none"/></g></g></g></svg>