<svg xmlns="http://www.w3.org/2000/svg" xmlns:xlink="http://www.w3.org/1999/xlink" version="1.1" class="marks" width="310" height="110" ><g fill="none" stroke-miterlimit="10" transform="translate(5,5)"><g class="mark-group role-frame root" role="graphics-object" aria-roledescription="group mark container"><g transform="translate(0,0)"><path class="background" aria-hidden="true" d="M0,0h300v100h-300Z" stroke="#ddd" stroke-width="0"/><g><g class="mark-rect role-mark marks" role="graphics-symbol" aria-roledescription="rect mark container"><path d="M0.3571428571428612,82h6.428571428571429v18h-6.428571428571429Z" fill="#00923E"/><path d="M7.500000000000004,78.5909090909091h6.428571428571429v21.409090909090907h-6.428571428571429Z" fill="#D2D4CE"/><path d="M14.642857142857148,78.13636363636364h6.428571428571429v21.86363636363636h-6.428571428571429Z" fill="#D2D4CE"/><path d="M21.785714285714292,76.86363636363637h6.428571428571429v23.136363636363626h-6.428571428571429Z" fill="#D2D4CE"/><path d="M28.928571428571434,76.31818181818181h6.428571428571429v23.681818181818187h-6.428571428571429Z" fill="#D2D4CE"/><path d="M36.07142857142858,75.95454545454545h6.428571428571429v24.045454545454547h-6.428571428571429Z" fill="#D2D4CE"/><path d="M43.21428571428572,74.4090909090909h6.428571428571429v25.590909090909093h-6.428571428571429Z" fill="#D2D4CE"/><path d="M50.35714285714286,74.0909090909091h6.428571428571429v25.909090909090907h-6.428571428571429Z" fill="#D2D4CE"/><path d="M57.50000000000001,70.5h6.428571428571429v29.5h-6.428571428571429Z" fill="#D2D4CE"/><path d="M64.64285714285715,69.63636363636363h6.428571428571429v30.363636363636374h-6.428571428571429Z" fill="#D2D4CE"/><path d="M71.78571428571429,68.95454545454545h6.428571428571429v31.045454545454547h-6.428571428571429Z" fill="#D2D4CE"/><path d="M78.92857142857143,68.13636363636364h6.428571428571429v31.86363636363636h-6.428571428571429Z" fill="#D2D4CE"/><path d="M86.07142857142858,67.63636363636363h6.428571428571429v32.363636363636374h-6.428571428571429Z" fill="#D2D4CE"/><path d="M93.21428571428572,67.54545454545455h6.428571428571429v32.45454545454545h-6.428571428571429Z" fill="#D2D4CE"/><path d="M100.35714285714286,67.22727272727273h6.428571428571429v32.772727272727266h-6.428571428571429Z" fill="#D2D4CE"/><path d="M107.50000000000001,67.13636363636364h6.428571428571429v32.86363636363636h-6.428571428571429Z" fill="#D2D4CE"/><path d="M114.64285714285715,67.04545454545455h6.428571428571429v32.95454545454545h-6.428571428571429Z" fill="#D2D4CE"/><path d="M121.78571428571429,64.5909090909091h6.428571428571429v35.40909090909091h-6.428571428571429Z" fill="#D2D4CE"/><path d="M128.92857142857144,64.45454545454545h6.428571428571429v35.54545454545455h-6.428571428571429Z" fill="#D2D4CE"/><path d="M136.07142857142858,63.90909090909091h6.428571428571429v36.09090909090909h-6.428571428571429Z" fill="#D2D4CE"/><path d="M143.21428571428572,63.54545454545455h6.428571428571429v36.45454545454545h-6.428571428571429Z" fill="#D2D4CE"/><path d="M150.35714285714286,63.04545454545455h6.428571428571429v36.95454545454545h-6.428571428571429Z" fill="#D2D4CE"/><path d="M157.5,62.090909090909086h6.428571428571429v37.909090909090914h-6.428571428571429Z" fill="#D2D4CE"/><path d="M164.64285714285717,62.090909090909086h6.428571428571429v37.909090909090914h-6.428571428571429Z" fill="#D2D4CE"/><path d="M171.7857142857143,61.27272727272728h6.428571428571429v38.72727272727272h-6.428571428571429Z" fill="#D2D4CE"/><path d="M178.92857142857144,60.909090909090914h6.428571428571429v39.090909090909086h-6.428571428571429Z" fill="#D2D4CE"/><path d="M186.07142857142858,60.81818181818181h6.428571428571429v39.18181818181819h-6.428571428571429Z" fill="#D2D4CE"/><path d="M193.21428571428572,59.454545454545446h6.428571428571429v40.545454545454554h-6.428571428571429Z" fill="#D2D4CE"/><path d="M200.35714285714286,59.454545454545446h6.428571428571429v40.545454545454554h-6.428571428571429Z" fill="#D2D4CE"/><path d="M207.50000000000003,57.95454545454546h6.428571428571429v42.04545454545454h-6.428571428571429Z" fill="#D2D4CE"/><path d="M214.64285714285717,56.54545454545455h6.428571428571429v43.45454545454545h-6.428571428571429Z" fill="#D2D4CE"/><path d="M221.7857142857143,56.45454545454546h6.428571428571429v43.54545454545454h-6.428571428571429Z" fill="#D2D4CE"/><path d="M228.92857142857144,56.04545454545454h6.428571428571429v43.95454545454546h-6.428571428571429Z" fill="#D2D4CE"/><path d="M236.07142857142858,53.40909090909092h6.428571428571429v46.59090909090908h-6.428571428571429Z" fill="#D2D4CE"/><path d="M243.21428571428572,52.04545454545455h6.428571428571429v47.95454545454545h-6.428571428571429Z" fill="#D2D4CE"/><path d="M250.35714285714286,45.22727272727273h6.428571428571429v54.77272727272727h-6.428571428571429Z" fill="#D2D4CE"/><path d="M257.5,42.90909090909091h6.428571428571429v57.09090909090909h-6.428571428571429Z" fill="#D2D4CE"/><path d="M264.6428571428571,42.04545454545454h6.428571428571429v57.95454545454546h-6.428571428571429Z" fill="#D2D4CE"/><path d="M271.78571428571433,38.18181818181819h6.428571428571429v61.81818181818181h-6.428571428571429Z" fill="#D2D4CE"/><path d="M278.92857142857144,34.77272727272728h6.428571428571429v65.22727272727272h-6.428571428571429Z" fill="#D2D4CE"/><path d="M286.07142857142856,28.909090909090907h6.428571428571429v71.0909090909091h-6.428571428571429Z" fill="#D2D4CE"/><path d="M293.2142857142858,3.681818181818175h6.428571428571429v96.31818181818183h-6.428571428571429Z" fill="#D2D4CE"/></g></g><path class="foreground" aria-hidden="true" d="" display="none"/></g></g></g></svg>