<svg xmlns="http://www.w3.org/2000/svg" xmlns:xlink="http://www.w3.org/1999/xlink" version="1.1" class="marks" width="310" height="110" ><g fill="none" stroke-miterlimit="10" transform="translate(5,5)"><g class="mark-group role-frame root" role="graphics-object" aria-roledescription="group mark container"><g transform="translate(0,0)"><path class="background" aria-hidden="true" d="M0,0h300v100h-300Z" stroke="#ddd" stroke-width="0"/><g><g class="mark-rect role-mark marks" role="graphics-symbol" aria-roledescription="rect mark container"><path d="M0.3571428571428612,100h6.428571428571429v0h-6.428571428571429Z" fill="#D2D4CE"/><path d="M7.500000000000004,100h6.428571428571429v0h-6.428571428571429Z" fill="#D2D4CE"/><path d="M14.642857142857148,100h6.428571428571429v0h-6.428571428571429Z" fill="#D2D4CE"/><path d="M21.785714285714292,100h6.428571428571429v0h-6.428571428571429Z" fill="#D2D4CE"/><path d="M28.928571428571434,100h6.428571428571429v0h-6.428571428571429Z" fill="#D2D4CE"/><path d="M36.07142857142858,100h6.428571428571429v0h-6.428571428571429Z" fill="#00923E"/><path d="M43.21428571428572,100h6.428571428571429v0h-6.428571428571429Z" fill="#D2D4CE"/><path d="M50.35714285714286,100h6.428571428571429v0h-6.428571428571429Z" fill="#D2D4CE"/><path d="M57.50000000000001,100h6.428571428571429v0h-6.428571428571429Z" fill="#D2D4CE"/><path d="M64.64285714285715,98.57142857142858h6.428571428571429v1.4285714285714164h-6.428571428571429Z" fill="#D2D4CE"/><path d="M71.78571428571429,98.57142857142858h6.428571428571429v1.4285714285714164h-6.428571428571429Z" fill="#D2D4CE"/><path d="M78.92857142857143,98.57142857142858h6.428571428571429v1.4285714285714164h-6.428571428571429Z" fill="#D2D4CE"/><path d="M86.07142857142858,98.57142857142858h6.428571428571429v1.4285714285714164h-6.428571428571429Z" fill="#D2D4CE"/><path d="M93.21428571428572,98.57142857142858h6.428571428571429v1.4285714285714164h-6.428571428571429Z" fill="#D2D4CE"/><path d="M100.35714285714286,97.14285714285714h6.428571428571429v2.857142857142861h-6.428571428571429Z" fill="#D2D4CE"/><path d="M107.50000000000001,97.14285714285714h6.428571428571429v2.857142857142861h-6.428571428571429Z" fill="#D2D4CE"/><path d="M114.64285714285715,97.14285714285714h6.428571428571429v2.857142857142861h-6.428571428571429Z" fill="#D2D4CE"/><path d="M121.78571428571429,97.14285714285714h6.428571428571429v2.857142857142861h-6.428571428571429Z" fill="#D2D4CE"/><path d="M128.92857142857144,97.14285714285714h6.428571428571429v2.857142857142861h-6.428571428571429Z" fill="#D2D4CE"/><path d="M136.07142857142858,97.14285714285714h6.428571428571429v2.857142857142861h-6.428571428571429Z" fill="#D2D4CE"/><path d="M143.21428571428572,97.14285714285714h6.428571428571429v2.857142857142861h-6.428571428571429Z" fill="#D2D4CE"/><path d="M150.35714285714286,97.14285714285714h6.428571428571429v2.857142857142861h-6.428571428571429Z" fill="#D2D4CE"/><path d="M157.5,95.71428571428572h6.428571428571429v4.285714285714278h-6.428571428571429Z" fill="#D2D4CE"/><path d="M164.64285714285717,95.71428571428572h6.428571428571429v4.285714285714278h-6.428571428571429Z" fill="#D2D4CE"/><path d="M171.7857142857143,94.28571428571428h6.428571428571429v5.714285714285722h-6.428571428571429Z" fill="#D2D4CE"/><path d="M178.92857142857144,94.28571428571428h6.428571428571429v5.714285714285722h-6.428571428571429Z" fill="#D2D4CE"/><path d="M186.07142857142858,94.28571428571428h6.428571428571429v5.714285714285722h-6.428571428571429Z" fill="#D2D4CE"/><path d="M193.21428571428572,90h6.428571428571429v10h-6.428571428571429Z" fill="#D2D4CE"/><path d="M200.35714285714286,90h6.428571428571429v10h-6.428571428571429Z" fill="#D2D4CE"/><path d="M207.50000000000003,82.85714285714285h6.428571428571429v17.142857142857153h-6.428571428571429Z" fill="#D2D4CE"/><path d="M214.64285714285717,81.42857142857143h6.428571428571429v18.57142857142857h-6.428571428571429Z" fill="#D2D4CE"/><path d="M221.7857142857143,81.42857142857143h6.428571428571429v18.57142857142857h-6.428571428571429Z" fill="#D2D4CE"/><path d="M228.92857142857144,77.14285714285714h6.428571428571429v22.85714285714286h-6.428571428571429Z" fill="#D2D4CE"/><path d="M236.07142857142858,72.85714285714286h6.428571428571429v27.14285714285714h-6.428571428571429Z" fill="#D2D4CE"/><path d="M243.21428571428572,71.42857142857143h6.428571428571429v28.57142857142857h-6.428571428571429Z" fill="#D2D4CE"/><path d="M250.35714285714286,67.14285714285715h6.428571428571429v32.85714285714285h-6.428571428571429Z" fill="#D2D4CE"/><path d="M257.5,62.857142857142854h6.428571428571429v37.142857142857146h-6.428571428571429Z" fill="#D2D4CE"/><path d="M264.6428571428571,40h6.428571428571429v60h-6.428571428571429Z" fill="#D2D4CE"/><path d="M271.78571428571433,29.999999999999993h6.428571428571429v70h-6.428571428571429Z" fill="#D2D4CE"/><path d="M278.92857142857144,21.42857142857143h6.428571428571429v78.57142857142857h-6.428571428571429Z" fill="#D2D4CE"/><path d="M286.07142857142856,18.571428571428573h6.428571428571429v81.42857142857143h-6.428571428571429Z" fill="#D2D4CE"/><path d="M293.2142857142858,0h6.428571428571429v100h-6.428571428571429Z" fill="#D2D4CE"/></g></g><path class="foreground" aria-hidden="true" d="" display="none"/></g></g></g></svg>