<svg xmlns="http://www.w3.org/2000/svg" xmlns:xlink="http://www.w3.org/1999/xlink" version="1.1" class="marks" width="310" height="110" ><g fill="none" stroke-miterlimit="10" transform="translate(5,5)"><g class="mark-group role-frame root" role="graphics-object" aria-roledescription="group mark container"><g transform="translate(0,0)"><path class="background" aria-hidden="true" d="M0,0h300v100h-300Z" stroke="#ddd" stroke-width="0"/><g><g class="mark-rect role-mark marks" role="graphics-symbol" aria-roledescription="rect mark container"><path d="M0.3571428571428612,100h6.428571428571429v0h-6.428571428571429Z" fill="#D2D4CE"/><path d="M7.500000000000004,100h6.428571428571429v0h-6.428571428571429Z" fill="#D2D4CE"/><path d="M14.642857142857148,100h6.428571428571429v0h-6.428571428571429Z" fill="#D2D4CE"/><path d="M21.785714285714292,100h6.428571428571429v0h-6.428571428571429Z" fill="#D2D4CE"/><path d="M28.928571428571434,100h6.428571428571429v0h-6.428571428571429Z" fill="#D2D4CE"/><path d="M36.07142857142858,99.81818181818181h6.428571428571429v0.18181818181818699h-6.428571428571429Z" fill="#D2D4CE"/><path d="M43.21428571428572,99.63636363636364h6.428571428571429v0.36363636363635976h-6.428571428571429Z" fill="#D2D4CE"/><path d="M50.35714285714286,99.45454545454545h6.428571428571429v0.5454545454545467h-6.428571428571429Z" fill="#D2D4CE"/><path d="M57.50000000000001,99.45454545454545h6.428571428571429v0.5454545454545467h-6.428571428571429Z" fill="#D2D4CE"/><path d="M64.64285714285715,99.45454545454545h6.428571428571429v0.5454545454545467h-6.428571428571429Z" fill="#D2D4CE"/><path d="M71.78571428571429,99.27272727272727h6.428571428571429v0.7272727272727337h-6.428571428571429Z" fill="#D2D4CE"/><path d="M78.92857142857143,99.0909090909091h6.428571428571429v0.9090909090909065h-6.428571428571429Z" fill="#D2D4CE"/><path d="M86.07142857142858,99.0909090909091h6.428571428571429v0.9090909090909065h-6.428571428571429Z" fill="#D2D4CE"/><path d="M93.21428571428572,98.72727272727273h6.428571428571429v1.2727272727272663h-6.428571428571429Z" fill="#D2D4CE"/><path d="M100.35714285714286,98.36363636363636h6.428571428571429v1.6363636363636402h-6.428571428571429Z" fill="#D2D4CE"/><path d="M107.50000000000001,98.18181818181819h6.428571428571429v1.818181818181813h-6.428571428571429Z" fill="#00923E"/><path d="M114.64285714285715,98h6.428571428571429v2h-6.428571428571429Z" fill="#D2D4CE"/><path d="M121.78571428571429,98h6.428571428571429v2h-6.428571428571429Z" fill="#D2D4CE"/><path d="M128.92857142857144,97.81818181818181h6.428571428571429v2.181818181818187h-6.428571428571429Z" fill="#D2D4CE"/><path d="M136.07142857142858,97.81818181818181h6.428571428571429v2.181818181818187h-6.428571428571429Z" fill="#D2D4CE"/><path d="M143.21428571428572,97.63636363636363h6.428571428571429v2.363636363636374h-6.428571428571429Z" fill="#D2D4CE"/><path d="M150.35714285714286,97.0909090909091h6.428571428571429v2.9090909090909065h-6.428571428571429Z" fill="#D2D4CE"/><path d="M157.5,96.9090909090909h6.428571428571429v3.0909090909090935h-6.428571428571429Z" fill="#D2D4CE"/><path d="M164.64285714285717,96.9090909090909h6.428571428571429v3.0909090909090935h-6.428571428571429Z" fill="#D2D4CE"/><path d="M171.7857142857143,94.9090909090909h6.428571428571429v5.0909090909090935h-6.428571428571429Z" fill="#D2D4CE"/><path d="M178.92857142857144,94.54545454545455h6.428571428571429v5.454545454545453h-6.428571428571429Z" fill="#D2D4CE"/><path d="M186.07142857142858,94.36363636363636h6.428571428571429v5.63636363636364h-6.428571428571429Z" fill="#D2D4CE"/><path d="M193.21428571428572,91.27272727272727h6.428571428571429v8.727272727272734h-6.428571428571429Z" fill="#D2D4CE"/><path d="M200.35714285714286,90.9090909090909h6.428571428571429v9.090909090909093h-6.428571428571429Z" fill="#D2D4CE"/><path d="M207.50000000000003,84.9090909090909h6.428571428571429v15.090909090909093h-6.428571428571429Z" fill="#D2D4CE"/><path d="M214.64285714285717,84h6.428571428571429v16h-6.428571428571429Z" fill="#D2D4CE"/><path d="M221.7857142857143,83.45454545454545h6.428571428571429v16.545454545454547h-6.428571428571429Z" fill="#D2D4CE"/><path d="M228.92857142857144,80.54545454545455h6.428571428571429v19.454545454545453h-6.428571428571429Z" fill="#D2D4CE"/><path d="M236.07142857142858,76.54545454545453h6.428571428571429v23.454545454545467h-6.428571428571429Z" fill="#D2D4CE"/><path d="M243.21428571428572,74.36363636363636h6.428571428571429v25.63636363636364h-6.428571428571429Z" fill="#D2D4CE"/><path d="M250.35714285714286,69.81818181818183h6.428571428571429v30.181818181818173h-6.428571428571429Z" fill="#D2D4CE"/><path d="M257.5,67.63636363636363h6.428571428571429v32.363636363636374h-6.428571428571429Z" fill="#D2D4CE"/><path d="M264.6428571428571,41.81818181818182h6.428571428571429v58.18181818181818h-6.428571428571429Z" fill="#D2D4CE"/><path d="M271.78571428571433,33.81818181818183h6.428571428571429v66.18181818181817h-6.428571428571429Z" fill="#D2D4CE"/><path d="M278.92857142857144,28.363636363636367h6.428571428571429v71.63636363636363h-6.428571428571429Z" fill="#D2D4CE"/><path d="M286.07142857142856,24.545454545454547h6.428571428571429v75.45454545454545h-6.428571428571429Z" fill="#D2D4CE"/><path d="M293.2142857142858,7.454545454545459h6.428571428571429v92.54545454545455h-6.428571428571429Z" fill="#D2D4CE"/></g></g><path class="foreground" aria-hidden="true" d="" display="none"/></g></g></g></svg>