<svg xmlns="http://www.w3.org/2000/svg" xmlns:xlink="http://www.w3.org/1999/xlink" version="1.1" class="marks" width="310" height="110" ><g fill="none" stroke-miterlimit="10" transform="translate(5,5)"><g class="mark-group role-frame root" role="graphics-object" aria-roledescription="group mark container"><g transform="translate(0,0)"><path class="background" aria-hidden="true" d="M0,0h300v100h-300Z" stroke="#ddd" stroke-width="0"/><g><g class="mark-rect role-mark marks" role="graphics-symbol" aria-roledescription="rect mark container"><path d="M0.3571428571428612,96.44h6.428571428571429v3.5600000000000023h-6.428571428571429Z" fill="#D2D4CE"/><path d="M7.500000000000004,95.96000000000001h6.428571428571429v4.039999999999992h-6.428571428571429Z" fill="#D2D4CE"/><path d="M14.642857142857148,93h6.428571428571429v7h-6.428571428571429Z" fill="#D2D4CE"/><path d="M21.785714285714292,92.08000000000001h6.428571428571429v7.9199999999999875h-6.428571428571429Z" fill="#D2D4CE"/><path d="M28.928571428571434,91.7h6.428571428571429v8.299999999999997h-6.428571428571429Z" fill="#D2D4CE"/><path d="M36.07142857142858,83.54h6.428571428571429v16.459999999999994h-6.428571428571429Z" fill="#D2D4CE"/><path d="M43.21428571428572,82.48h6.428571428571429v17.519999999999996h-6.428571428571429Z" fill="#D2D4CE"/><path d="M50.35714285714286,80.89999999999999h6.428571428571429v19.10000000000001h-6.428571428571429Z" fill="#D2D4CE"/><path d="M57.50000000000001,79.38h6.428571428571429v20.620000000000005h-6.428571428571429Z" fill="#D2D4CE"/><path d="M64.64285714285715,78.12h6.428571428571429v21.879999999999995h-6.428571428571429Z" fill="#D2D4CE"/><path d="M71.78571428571429,76.98h6.428571428571429v23.019999999999996h-6.428571428571429Z" fill="#D2D4CE"/><path d="M78.92857142857143,75.58h6.428571428571429v24.42h-6.428571428571429Z" fill="#D2D4CE"/><path d="M86.07142857142858,75.22h6.428571428571429v24.78h-6.428571428571429Z" fill="#D2D4CE"/><path d="M93.21428571428572,74.9h6.428571428571429v25.099999999999994h-6.428571428571429Z" fill="#D2D4CE"/><path d="M100.35714285714286,74.03999999999999h6.428571428571429v25.960000000000008h-6.428571428571429Z" fill="#D2D4CE"/><path d="M107.50000000000001,72.03999999999999h6.428571428571429v27.960000000000008h-6.428571428571429Z" fill="#D2D4CE"/><path d="M114.64285714285715,69.36h6.428571428571429v30.64h-6.428571428571429Z" fill="#D2D4CE"/><path d="M121.78571428571429,67.7h6.428571428571429v32.3h-6.428571428571429Z" fill="#D2D4CE"/><path d="M128.92857142857144,67.30000000000001h6.428571428571429v32.69999999999999h-6.428571428571429Z" fill="#D2D4CE"/><path d="M136.07142857142858,67.21999999999998h6.428571428571429v32.780000000000015h-6.428571428571429Z" fill="#D2D4CE"/><path d="M143.21428571428572,67.14h6.428571428571429v32.86h-6.428571428571429Z" fill="#D2D4CE"/><path d="M150.35714285714286,65.53999999999999h6.428571428571429v34.46000000000001h-6.428571428571429Z" fill="#D2D4CE"/><path d="M157.5,59.97999999999999h6.428571428571429v40.02000000000001h-6.428571428571429Z" fill="#D2D4CE"/><path d="M164.64285714285717,56.04h6.428571428571429v43.96h-6.428571428571429Z" fill="#D2D4CE"/><path d="M171.7857142857143,55.2h6.428571428571429v44.8h-6.428571428571429Z" fill="#D2D4CE"/><path d="M178.92857142857144,55.059999999999995h6.428571428571429v44.940000000000005h-6.428571428571429Z" fill="#D2D4CE"/><path d="M186.07142857142858,54.34000000000001h6.428571428571429v45.65999999999999h-6.428571428571429Z" fill="#D2D4CE"/><path d="M193.21428571428572,51.42h6.428571428571429v48.58h-6.428571428571429Z" fill="#D2D4CE"/><path d="M200.35714285714286,50.92000000000001h6.428571428571429v49.07999999999999h-6.428571428571429Z" fill="#D2D4CE"/><path d="M207.50000000000003,49.6h6.428571428571429v50.4h-6.428571428571429Z" fill="#D2D4CE"/><path d="M214.64285714285717,48.44h6.428571428571429v51.56h-6.428571428571429Z" fill="#D2D4CE"/><path d="M221.7857142857143,45.68h6.428571428571429v54.32h-6.428571428571429Z" fill="#D2D4CE"/><path d="M228.92857142857144,38.18h6.428571428571429v61.82h-6.428571428571429Z" fill="#D2D4CE"/><path d="M236.07142857142858,37.66h6.428571428571429v62.34h-6.428571428571429Z" fill="#D2D4CE"/><path d="M243.21428571428572,36.06h6.428571428571429v63.94h-6.428571428571429Z" fill="#D2D4CE"/><path d="M250.35714285714286,34.78h6.428571428571429v65.22h-6.428571428571429Z" fill="#D2D4CE"/><path d="M257.5,31.73999999999999h6.428571428571429v68.26h-6.428571428571429Z" fill="#D2D4CE"/><path d="M264.6428571428571,24.939999999999994h6.428571428571429v75.06h-6.428571428571429Z" fill="#D2D4CE"/><path d="M271.78571428571433,11.799999999999999h6.428571428571429v88.2h-6.428571428571429Z" fill="#D2D4CE"/><path d="M278.92857142857144,9.879999999999999h6.428571428571429v90.12h-6.428571428571429Z" fill="#D2D4CE"/><path d="M286.07142857142856,5.000000000000004h6.428571428571429v95h-6.428571428571429Z" fill="#00923E"/><path d="M293.2142857142858,2.3199999999999887h6.428571428571429v97.68h-6.428571428571429Z" fill="#D2D4CE"/></g></g><path class="foreground" aria-hidden="true" d="" display="none"/></g></g></g></svg>