<svg xmlns="http://www.w3.org/2000/svg" xmlns:xlink="http://www.w3.org/1999/xlink" version="1.1" class="marks" width="310" height="110" ><g fill="none" stroke-miterlimit="10" transform="translate(5,5)"><g class="mark-group role-frame root" role="graphics-object" aria-roledescription="group mark container"><g transform="translate(0,0)"><path class="background" aria-hidden="true" d="M0,0h300v100h-300Z" stroke="#ddd" stroke-width="0"/><g><g class="mark-rect role-mark marks" role="graphics-symbol" aria-roledescription="rect mark container"><path d="M0.3571428571428612,95.71428571428572h6.428571428571429v4.285714285714278h-6.428571428571429Z" fill="#D2D4CE"/><path d="M7.500000000000004,95.42857142857143h6.428571428571429v4.571428571428569h-6.428571428571429Z" fill="#D2D4CE"/><path d="M14.642857142857148,88.85714285714286h6.428571428571429v11.142857142857139h-6.428571428571429Z" fill="#D2D4CE"/><path d="M21.785714285714292,87.71428571428571h6.428571428571429v12.285714285714292h-6.428571428571429Z" fill="#D2D4CE"/><path d="M28.928571428571434,87.42857142857143h6.428571428571429v12.57142857142857h-6.428571428571429Z" fill="#D2D4CE"/><path d="M36.07142857142858,87.42857142857143h6.428571428571429v12.57142857142857h-6.428571428571429Z" fill="#D2D4CE"/><path d="M43.21428571428572,87.14285714285714h6.428571428571429v12.857142857142861h-6.428571428571429Z" fill="#D2D4CE"/><path d="M50.35714285714286,83.14285714285714h6.428571428571429v16.85714285714286h-6.428571428571429Z" fill="#D2D4CE"/><path d="M57.50000000000001,82.85714285714285h6.428571428571429v17.142857142857153h-6.428571428571429Z" fill="#D2D4CE"/><path d="M64.64285714285715,82.57142857142857h6.428571428571429v17.42857142857143h-6.428571428571429Z" fill="#D2D4CE"/><path d="M71.78571428571429,82.28571428571428h6.428571428571429v17.714285714285722h-6.428571428571429Z" fill="#D2D4CE"/><path d="M78.92857142857143,81.71428571428572h6.428571428571429v18.285714285714278h-6.428571428571429Z" fill="#00923E"/><path d="M86.07142857142858,81.14285714285714h6.428571428571429v18.85714285714286h-6.428571428571429Z" fill="#D2D4CE"/><path d="M93.21428571428572,79.14285714285714h6.428571428571429v20.85714285714286h-6.428571428571429Z" fill="#D2D4CE"/><path d="M100.35714285714286,77.14285714285715h6.428571428571429v22.857142857142847h-6.428571428571429Z" fill="#D2D4CE"/><path d="M107.50000000000001,77.14285714285715h6.428571428571429v22.857142857142847h-6.428571428571429Z" fill="#D2D4CE"/><path d="M114.64285714285715,77.14285714285715h6.428571428571429v22.857142857142847h-6.428571428571429Z" fill="#D2D4CE"/><path d="M121.78571428571429,77.14285714285715h6.428571428571429v22.857142857142847h-6.428571428571429Z" fill="#D2D4CE"/><path d="M128.92857142857144,76.57142857142858h6.428571428571429v23.428571428571416h-6.428571428571429Z" fill="#D2D4CE"/><path d="M136.07142857142858,75.71428571428571h6.428571428571429v24.285714285714292h-6.428571428571429Z" fill="#D2D4CE"/><path d="M143.21428571428572,74.57142857142858h6.428571428571429v25.428571428571416h-6.428571428571429Z" fill="#D2D4CE"/><path d="M150.35714285714286,74h6.428571428571429v26h-6.428571428571429Z" fill="#D2D4CE"/><path d="M157.5,72.85714285714286h6.428571428571429v27.14285714285714h-6.428571428571429Z" fill="#D2D4CE"/><path d="M164.64285714285717,72h6.428571428571429v28h-6.428571428571429Z" fill="#D2D4CE"/><path d="M171.7857142857143,72h6.428571428571429v28h-6.428571428571429Z" fill="#D2D4CE"/><path d="M178.92857142857144,70.28571428571428h6.428571428571429v29.714285714285722h-6.428571428571429Z" fill="#D2D4CE"/><path d="M186.07142857142858,69.42857142857143h6.428571428571429v30.57142857142857h-6.428571428571429Z" fill="#D2D4CE"/><path d="M193.21428571428572,68h6.428571428571429v32h-6.428571428571429Z" fill="#D2D4CE"/><path d="M200.35714285714286,67.71428571428571h6.428571428571429v32.28571428571429h-6.428571428571429Z" fill="#D2D4CE"/><path d="M207.50000000000003,67.42857142857143h6.428571428571429v32.57142857142857h-6.428571428571429Z" fill="#D2D4CE"/><path d="M214.64285714285717,67.14285714285715h6.428571428571429v32.85714285714285h-6.428571428571429Z" fill="#D2D4CE"/><path d="M221.7857142857143,66.85714285714286h6.428571428571429v33.14285714285714h-6.428571428571429Z" fill="#D2D4CE"/><path d="M228.92857142857144,63.142857142857146h6.428571428571429v36.857142857142854h-6.428571428571429Z" fill="#D2D4CE"/><path d="M236.07142857142858,62.857142857142854h6.428571428571429v37.142857142857146h-6.428571428571429Z" fill="#D2D4CE"/><path d="M243.21428571428572,61.42857142857143h6.428571428571429v38.57142857142857h-6.428571428571429Z" fill="#D2D4CE"/><path d="M250.35714285714286,60.285714285714285h6.428571428571429v39.714285714285715h-6.428571428571429Z" fill="#D2D4CE"/><path d="M257.5,58.57142857142856h6.428571428571429v41.42857142857144h-6.428571428571429Z" fill="#D2D4CE"/><path d="M264.6428571428571,58.57142857142856h6.428571428571429v41.42857142857144h-6.428571428571429Z" fill="#D2D4CE"/><path d="M271.78571428571433,56.00000000000001h6.428571428571429v43.99999999999999h-6.428571428571429Z" fill="#D2D4CE"/><path d="M278.92857142857144,47.42857142857143h6.428571428571429v52.57142857142857h-6.428571428571429Z" fill="#D2D4CE"/><path d="M286.07142857142856,33.71428571428572h6.428571428571429v66.28571428571428h-6.428571428571429Z" fill="#D2D4CE"/><path d="M293.2142857142858,1.4285714285714235h6.428571428571429v98.57142857142858h-6.428571428571429Z" fill="#D2D4CE"/></g></g><path class="foreground" aria-hidden="true" d="" display="none"/></g></g></g></svg>