<svg xmlns="http://www.w3.org/2000/svg" xmlns:xlink="http://www.w3.org/1999/xlink" version="1.1" class="marks" width="310" height="110" ><g fill="none" stroke-miterlimit="10" transform="translate(5,5)"><g class="mark-group role-frame root" role="graphics-object" aria-roledescription="group mark container"><g transform="translate(0,0)"><path class="background" aria-hidden="true" d="M0,0h300v100h-300Z" stroke="#ddd" stroke-width="0"/><g><g class="mark-rect role-mark marks" role="graphics-symbol" aria-roledescription="rect mark container"><path d="M0.3571428571428612,97.23636363636363h6.428571428571429v2.7636363636363654h-6.428571428571429Z" fill="#D2D4CE"/><path d="M7.500000000000004,95.85454545454546h6.428571428571429v4.145454545454541h-6.428571428571429Z" fill="#D2D4CE"/><path d="M14.642857142857148,94.41818181818182h6.428571428571429v5.5818181818181785h-6.428571428571429Z" fill="#D2D4CE"/><path d="M21.785714285714292,92.67272727272727h6.428571428571429v7.327272727272728h-6.428571428571429Z" fill="#D2D4CE"/><path d="M28.928571428571434,90.07272727272728h6.428571428571429v9.927272727272722h-6.428571428571429Z" fill="#D2D4CE"/><path d="M36.07142857142858,87.47272727272728h6.428571428571429v12.527272727272717h-6.428571428571429Z" fill="#D2D4CE"/><path d="M43.21428571428572,86.47272727272728h6.428571428571429v13.527272727272717h-6.428571428571429Z" fill="#D2D4CE"/><path d="M50.35714285714286,85.39999999999999h6.428571428571429v14.600000000000009h-6.428571428571429Z" fill="#D2D4CE"/><path d="M57.50000000000001,85.18181818181819h6.428571428571429v14.818181818181813h-6.428571428571429Z" fill="#D2D4CE"/><path d="M64.64285714285715,80.41818181818182h6.428571428571429v19.58181818181818h-6.428571428571429Z" fill="#D2D4CE"/><path d="M71.78571428571429,79.2909090909091h6.428571428571429v20.709090909090904h-6.428571428571429Z" fill="#D2D4CE"/><path d="M78.92857142857143,78.0909090909091h6.428571428571429v21.909090909090907h-6.428571428571429Z" fill="#D2D4CE"/><path d="M86.07142857142858,75.92727272727274h6.428571428571429v24.072727272727263h-6.428571428571429Z" fill="#D2D4CE"/><path d="M93.21428571428572,74.25454545454546h6.428571428571429v25.745454545454535h-6.428571428571429Z" fill="#D2D4CE"/><path d="M100.35714285714286,72.96363636363637h6.428571428571429v27.03636363636363h-6.428571428571429Z" fill="#D2D4CE"/><path d="M107.50000000000001,70.74545454545455h6.428571428571429v29.25454545454545h-6.428571428571429Z" fill="#D2D4CE"/><path d="M114.64285714285715,70.56363636363636h6.428571428571429v29.436363636363637h-6.428571428571429Z" fill="#D2D4CE"/><path d="M121.78571428571429,69.50909090909092h6.428571428571429v30.490909090909085h-6.428571428571429Z" fill="#D2D4CE"/><path d="M128.92857142857144,66.38181818181819h6.428571428571429v33.61818181818181h-6.428571428571429Z" fill="#D2D4CE"/><path d="M136.07142857142858,65.61818181818182h6.428571428571429v34.381818181818176h-6.428571428571429Z" fill="#D2D4CE"/><path d="M143.21428571428572,64.69090909090909h6.428571428571429v35.30909090909091h-6.428571428571429Z" fill="#00923E"/><path d="M150.35714285714286,63.963636363636354h6.428571428571429v36.036363636363646h-6.428571428571429Z" fill="#D2D4CE"/><path d="M157.5,63.29090909090909h6.428571428571429v36.70909090909091h-6.428571428571429Z" fill="#D2D4CE"/><path d="M164.64285714285717,62.25454545454545h6.428571428571429v37.74545454545455h-6.428571428571429Z" fill="#D2D4CE"/><path d="M171.7857142857143,56.854545454545445h6.428571428571429v43.145454545454555h-6.428571428571429Z" fill="#D2D4CE"/><path d="M178.92857142857144,56.854545454545445h6.428571428571429v43.145454545454555h-6.428571428571429Z" fill="#D2D4CE"/><path d="M186.07142857142858,56.56363636363636h6.428571428571429v43.43636363636364h-6.428571428571429Z" fill="#D2D4CE"/><path d="M193.21428571428572,48.87272727272727h6.428571428571429v51.12727272727273h-6.428571428571429Z" fill="#D2D4CE"/><path d="M200.35714285714286,46.58181818181818h6.428571428571429v53.41818181818182h-6.428571428571429Z" fill="#D2D4CE"/><path d="M207.50000000000003,46.03636363636364h6.428571428571429v53.96363636363636h-6.428571428571429Z" fill="#D2D4CE"/><path d="M214.64285714285717,44.92727272727273h6.428571428571429v55.07272727272727h-6.428571428571429Z" fill="#D2D4CE"/><path d="M221.7857142857143,39.29090909090909h6.428571428571429v60.70909090909091h-6.428571428571429Z" fill="#D2D4CE"/><path d="M228.92857142857144,36.74545454545455h6.428571428571429v63.25454545454545h-6.428571428571429Z" fill="#D2D4CE"/><path d="M236.07142857142858,35.763636363636365h6.428571428571429v64.23636363636363h-6.428571428571429Z" fill="#D2D4CE"/><path d="M243.21428571428572,34.89090909090908h6.428571428571429v65.10909090909092h-6.428571428571429Z" fill="#D2D4CE"/><path d="M250.35714285714286,31.654545454545445h6.428571428571429v68.34545454545456h-6.428571428571429Z" fill="#D2D4CE"/><path d="M257.5,29.01818181818182h6.428571428571429v70.98181818181818h-6.428571428571429Z" fill="#D2D4CE"/><path d="M264.6428571428571,22.472727272727266h6.428571428571429v77.52727272727273h-6.428571428571429Z" fill="#D2D4CE"/><path d="M271.78571428571433,13.34545454545455h6.428571428571429v86.65454545454546h-6.428571428571429Z" fill="#D2D4CE"/><path d="M278.92857142857144,11.690909090909084h6.428571428571429v88.30909090909091h-6.428571428571429Z" fill="#D2D4CE"/><path d="M286.07142857142856,10.85454545454545h6.428571428571429v89.14545454545456h-6.428571428571429Z" fill="#D2D4CE"/><path d="M293.2142857142858,7.272727272727275h6.428571428571429v92.72727272727272h-6.428571428571429Z" fill="#D2D4CE"/></g></g><path class="foreground" aria-hidden="true" d="" display="none"/></g></g></g></svg>