<svg xmlns="http://www.w3.org/2000/svg" xmlns:xlink="http://www.w3.org/1999/xlink" version="1.1" class="marks" width="310" height="110" ><g fill="none" stroke-miterlimit="10" transform="translate(5,5)"><g class="mark-group role-frame root" role="graphics-object" aria-roledescription="group mark container"><g transform="translate(0,0)"><path class="background" aria-hidden="true" d="M0,0h300v100h-300Z" stroke="#ddd" stroke-width="0"/><g><g class="mark-rect role-mark marks" role="graphics-symbol" aria-roledescription="rect mark container"><path d="M0.3571428571428612,98h6.428571428571429v2h-6.428571428571429Z" fill="#D2D4CE"/><path d="M7.500000000000004,93.66666666666667h6.428571428571429v6.333333333333329h-6.428571428571429Z" fill="#D2D4CE"/><path d="M14.642857142857148,90.33333333333333h6.428571428571429v9.666666666666671h-6.428571428571429Z" fill="#D2D4CE"/><path d="M21.785714285714292,89.33333333333333h6.428571428571429v10.666666666666671h-6.428571428571429Z" fill="#D2D4CE"/><path d="M28.928571428571434,89h6.428571428571429v11h-6.428571428571429Z" fill="#D2D4CE"/><path d="M36.07142857142858,88h6.428571428571429v12h-6.428571428571429Z" fill="#D2D4CE"/><path d="M43.21428571428572,84.33333333333333h6.428571428571429v15.666666666666671h-6.428571428571429Z" fill="#D2D4CE"/><path d="M50.35714285714286,83.33333333333334h6.428571428571429v16.666666666666657h-6.428571428571429Z" fill="#D2D4CE"/><path d="M57.50000000000001,82.33333333333334h6.428571428571429v17.666666666666657h-6.428571428571429Z" fill="#D2D4CE"/><path d="M64.64285714285715,80.33333333333333h6.428571428571429v19.66666666666667h-6.428571428571429Z" fill="#D2D4CE"/><path d="M71.78571428571429,79.33333333333333h6.428571428571429v20.66666666666667h-6.428571428571429Z" fill="#D2D4CE"/><path d="M78.92857142857143,79.33333333333333h6.428571428571429v20.66666666666667h-6.428571428571429Z" fill="#D2D4CE"/><path d="M86.07142857142858,77.33333333333333h6.428571428571429v22.66666666666667h-6.428571428571429Z" fill="#D2D4CE"/><path d="M93.21428571428572,76.66666666666666h6.428571428571429v23.333333333333343h-6.428571428571429Z" fill="#D2D4CE"/><path d="M100.35714285714286,76.33333333333333h6.428571428571429v23.66666666666667h-6.428571428571429Z" fill="#D2D4CE"/><path d="M107.50000000000001,75.33333333333333h6.428571428571429v24.66666666666667h-6.428571428571429Z" fill="#D2D4CE"/><path d="M114.64285714285715,75.33333333333333h6.428571428571429v24.66666666666667h-6.428571428571429Z" fill="#D2D4CE"/><path d="M121.78571428571429,74.33333333333334h6.428571428571429v25.666666666666657h-6.428571428571429Z" fill="#D2D4CE"/><path d="M128.92857142857144,73.33333333333334h6.428571428571429v26.666666666666657h-6.428571428571429Z" fill="#D2D4CE"/><path d="M136.07142857142858,73h6.428571428571429v27h-6.428571428571429Z" fill="#D2D4CE"/><path d="M143.21428571428572,71.66666666666667h6.428571428571429v28.33333333333333h-6.428571428571429Z" fill="#D2D4CE"/><path d="M150.35714285714286,69.66666666666667h6.428571428571429v30.33333333333333h-6.428571428571429Z" fill="#D2D4CE"/><path d="M157.5,68.66666666666667h6.428571428571429v31.33333333333333h-6.428571428571429Z" fill="#D2D4CE"/><path d="M164.64285714285717,68.33333333333333h6.428571428571429v31.66666666666667h-6.428571428571429Z" fill="#D2D4CE"/><path d="M171.7857142857143,67.66666666666667h6.428571428571429v32.33333333333333h-6.428571428571429Z" fill="#D2D4CE"/><path d="M178.92857142857144,67h6.428571428571429v33h-6.428571428571429Z" fill="#D2D4CE"/><path d="M186.07142857142858,67h6.428571428571429v33h-6.428571428571429Z" fill="#D2D4CE"/><path d="M193.21428571428572,65.66666666666666h6.428571428571429v34.33333333333334h-6.428571428571429Z" fill="#D2D4CE"/><path d="M200.35714285714286,64.66666666666667h6.428571428571429v35.33333333333333h-6.428571428571429Z" fill="#D2D4CE"/><path d="M207.50000000000003,62.33333333333333h6.428571428571429v37.66666666666667h-6.428571428571429Z" fill="#D2D4CE"/><path d="M214.64285714285717,61.66666666666667h6.428571428571429v38.33333333333333h-6.428571428571429Z" fill="#D2D4CE"/><path d="M221.7857142857143,60h6.428571428571429v40h-6.428571428571429Z" fill="#D2D4CE"/><path d="M228.92857142857144,59.333333333333336h6.428571428571429v40.666666666666664h-6.428571428571429Z" fill="#D2D4CE"/><path d="M236.07142857142858,59.333333333333336h6.428571428571429v40.666666666666664h-6.428571428571429Z" fill="#D2D4CE"/><path d="M243.21428571428572,58.00000000000001h6.428571428571429v41.99999999999999h-6.428571428571429Z" fill="#D2D4CE"/><path d="M250.35714285714286,58.00000000000001h6.428571428571429v41.99999999999999h-6.428571428571429Z" fill="#D2D4CE"/><path d="M257.5,55.666666666666664h6.428571428571429v44.333333333333336h-6.428571428571429Z" fill="#D2D4CE"/><path d="M264.6428571428571,55.333333333333336h6.428571428571429v44.666666666666664h-6.428571428571429Z" fill="#D2D4CE"/><path d="M271.78571428571433,50.66666666666666h6.428571428571429v49.33333333333334h-6.428571428571429Z" fill="#D2D4CE"/><path d="M278.92857142857144,48.33333333333333h6.428571428571429v51.66666666666667h-6.428571428571429Z" fill="#D2D4CE"/><path d="M286.07142857142856,23.666666666666668h6.428571428571429v76.33333333333333h-6.428571428571429Z" fill="#D2D4CE"/><path d="M293.2142857142858,6.333333333333324h6.428571428571429v93.66666666666667h-6.428571428571429Z" fill="#00923E"/></g></g><path class="foreground" aria-hidden="true" d="" display="none"/></g></g></g></svg>