<svg xmlns="http://www.w3.org/2000/svg" xmlns:xlink="http://www.w3.org/1999/xlink" version="1.1" class="marks" width="310" height="110" ><g fill="none" stroke-miterlimit="10" transform="translate(5,5)"><g class="mark-group role-frame root" role="graphics-object" aria-roledescription="group mark container"><g transform="translate(0,0)"><path class="background" aria-hidden="true" d="M0,0h300v100h-300Z" stroke="#ddd" stroke-width="0"/><g><g class="mark-rect role-mark marks" role="graphics-symbol" aria-roledescription="rect mark container"><path d="M0.3571428571428612,87.72727272727272h6.428571428571429v12.27272727272728h-6.428571428571429Z" fill="#D2D4CE"/><path d="M7.500000000000004,83.04545454545455h6.428571428571429v16.954545454545453h-6.428571428571429Z" fill="#D2D4CE"/><path d="M14.642857142857148,82h6.428571428571429v18h-6.428571428571429Z" fill="#D2D4CE"/><path d="M21.785714285714292,80.54545454545455h6.428571428571429v19.454545454545453h-6.428571428571429Z" fill="#D2D4CE"/><path d="M28.928571428571434,80.36363636363636h6.428571428571429v19.63636363636364h-6.428571428571429Z" fill="#D2D4CE"/><path d="M36.07142857142858,80.36363636363636h6.428571428571429v19.63636363636364h-6.428571428571429Z" fill="#D2D4CE"/><path d="M43.21428571428572,79.81818181818181h6.428571428571429v20.181818181818187h-6.428571428571429Z" fill="#D2D4CE"/><path d="M50.35714285714286,78.36363636363637h6.428571428571429v21.636363636363626h-6.428571428571429Z" fill="#D2D4CE"/><path d="M57.50000000000001,78.31818181818181h6.428571428571429v21.681818181818187h-6.428571428571429Z" fill="#D2D4CE"/><path d="M64.64285714285715,76.5909090909091h6.428571428571429v23.409090909090907h-6.428571428571429Z" fill="#D2D4CE"/><path d="M71.78571428571429,74.68181818181819h6.428571428571429v25.318181818181813h-6.428571428571429Z" fill="#D2D4CE"/><path d="M78.92857142857143,73.9090909090909h6.428571428571429v26.090909090909093h-6.428571428571429Z" fill="#D2D4CE"/><path d="M86.07142857142858,73.86363636363636h6.428571428571429v26.13636363636364h-6.428571428571429Z" fill="#D2D4CE"/><path d="M93.21428571428572,71.68181818181819h6.428571428571429v28.318181818181813h-6.428571428571429Z" fill="#D2D4CE"/><path d="M100.35714285714286,70.13636363636364h6.428571428571429v29.86363636363636h-6.428571428571429Z" fill="#D2D4CE"/><path d="M107.50000000000001,70.04545454545455h6.428571428571429v29.954545454545453h-6.428571428571429Z" fill="#00923E"/><path d="M114.64285714285715,68.27272727272727h6.428571428571429v31.727272727272734h-6.428571428571429Z" fill="#D2D4CE"/><path d="M121.78571428571429,66.95454545454545h6.428571428571429v33.04545454545455h-6.428571428571429Z" fill="#D2D4CE"/><path d="M128.92857142857144,66.68181818181817h6.428571428571429v33.31818181818183h-6.428571428571429Z" fill="#D2D4CE"/><path d="M136.07142857142858,65.99999999999999h6.428571428571429v34.000000000000014h-6.428571428571429Z" fill="#D2D4CE"/><path d="M143.21428571428572,64.68181818181819h6.428571428571429v35.31818181818181h-6.428571428571429Z" fill="#D2D4CE"/><path d="M150.35714285714286,63.72727272727272h6.428571428571429v36.27272727272728h-6.428571428571429Z" fill="#D2D4CE"/><path d="M157.5,63.227272727272734h6.428571428571429v36.772727272727266h-6.428571428571429Z" fill="#D2D4CE"/><path d="M164.64285714285717,61.45454545454545h6.428571428571429v38.54545454545455h-6.428571428571429Z" fill="#D2D4CE"/><path d="M171.7857142857143,60.5h6.428571428571429v39.5h-6.428571428571429Z" fill="#D2D4CE"/><path d="M178.92857142857144,60.22727272727273h6.428571428571429v39.77272727272727h-6.428571428571429Z" fill="#D2D4CE"/><path d="M186.07142857142858,60.04545454545456h6.428571428571429v39.95454545454544h-6.428571428571429Z" fill="#D2D4CE"/><path d="M193.21428571428572,59.409090909090914h6.428571428571429v40.590909090909086h-6.428571428571429Z" fill="#D2D4CE"/><path d="M200.35714285714286,57.27272727272727h6.428571428571429v42.72727272727273h-6.428571428571429Z" fill="#D2D4CE"/><path d="M207.50000000000003,56.09090909090909h6.428571428571429v43.90909090909091h-6.428571428571429Z" fill="#D2D4CE"/><path d="M214.64285714285717,55.72727272727273h6.428571428571429v44.27272727272727h-6.428571428571429Z" fill="#D2D4CE"/><path d="M221.7857142857143,55.27272727272727h6.428571428571429v44.72727272727273h-6.428571428571429Z" fill="#D2D4CE"/><path d="M228.92857142857144,53.090909090909086h6.428571428571429v46.909090909090914h-6.428571428571429Z" fill="#D2D4CE"/><path d="M236.07142857142858,51.81818181818182h6.428571428571429v48.18181818181818h-6.428571428571429Z" fill="#D2D4CE"/><path d="M243.21428571428572,38.54545454545455h6.428571428571429v61.45454545454545h-6.428571428571429Z" fill="#D2D4CE"/><path d="M250.35714285714286,36h6.428571428571429v64h-6.428571428571429Z" fill="#D2D4CE"/><path d="M257.5,34.04545454545455h6.428571428571429v65.95454545454545h-6.428571428571429Z" fill="#D2D4CE"/><path d="M264.6428571428571,30.181818181818187h6.428571428571429v69.81818181818181h-6.428571428571429Z" fill="#D2D4CE"/><path d="M271.78571428571433,23.363636363636363h6.428571428571429v76.63636363636364h-6.428571428571429Z" fill="#D2D4CE"/><path d="M278.92857142857144,21.590909090909093h6.428571428571429v78.4090909090909h-6.428571428571429Z" fill="#D2D4CE"/><path d="M286.07142857142856,15.954545454545466h6.428571428571429v84.04545454545453h-6.428571428571429Z" fill="#D2D4CE"/><path d="M293.2142857142858,3.045454545454551h6.428571428571429v96.95454545454545h-6.428571428571429Z" fill="#D2D4CE"/></g></g><path class="foreground" aria-hidden="true" d="" display="none"/></g></g></g></svg>