<svg xmlns="http://www.w3.org/2000/svg" xmlns:xlink="http://www.w3.org/1999/xlink" version="1.1" class="marks" width="310" height="110" ><g fill="none" stroke-miterlimit="10" transform="translate(5,5)"><g class="mark-group role-frame root" role="graphics-object" aria-roledescription="group mark container"><g transform="translate(0,0)"><path class="background" aria-hidden="true" d="M0,0h300v100h-300Z" stroke="#ddd" stroke-width="0"/><g><g class="mark-rect role-mark marks" role="graphics-symbol" aria-roledescription="rect mark container"><path d="M0.3571428571428612,90.0909090909091h6.428571428571429v9.909090909090907h-6.428571428571429Z" fill="#D2D4CE"/><path d="M7.500000000000004,83.9090909090909h6.428571428571429v16.090909090909093h-6.428571428571429Z" fill="#00923E"/><path d="M14.642857142857148,82.5909090909091h6.428571428571429v17.409090909090907h-6.428571428571429Z" fill="#D2D4CE"/><path d="M21.785714285714292,82.5909090909091h6.428571428571429v17.409090909090907h-6.428571428571429Z" fill="#D2D4CE"/><path d="M28.928571428571434,80.4090909090909h6.428571428571429v19.590909090909093h-6.428571428571429Z" fill="#D2D4CE"/><path d="M36.07142857142858,80.4090909090909h6.428571428571429v19.590909090909093h-6.428571428571429Z" fill="#D2D4CE"/><path d="M43.21428571428572,78.04545454545455h6.428571428571429v21.954545454545453h-6.428571428571429Z" fill="#D2D4CE"/><path d="M50.35714285714286,77.77272727272727h6.428571428571429v22.227272727272734h-6.428571428571429Z" fill="#D2D4CE"/><path d="M57.50000000000001,75.54545454545455h6.428571428571429v24.454545454545453h-6.428571428571429Z" fill="#D2D4CE"/><path d="M64.64285714285715,74h6.428571428571429v26h-6.428571428571429Z" fill="#D2D4CE"/><path d="M71.78571428571429,73.18181818181819h6.428571428571429v26.818181818181813h-6.428571428571429Z" fill="#D2D4CE"/><path d="M78.92857142857143,72.45454545454547h6.428571428571429v27.545454545454533h-6.428571428571429Z" fill="#D2D4CE"/><path d="M86.07142857142858,72.22727272727272h6.428571428571429v27.77272727272728h-6.428571428571429Z" fill="#D2D4CE"/><path d="M93.21428571428572,71.95454545454545h6.428571428571429v28.045454545454547h-6.428571428571429Z" fill="#D2D4CE"/><path d="M100.35714285714286,70.9090909090909h6.428571428571429v29.090909090909093h-6.428571428571429Z" fill="#D2D4CE"/><path d="M107.50000000000001,69.22727272727273h6.428571428571429v30.772727272727266h-6.428571428571429Z" fill="#D2D4CE"/><path d="M114.64285714285715,68.68181818181817h6.428571428571429v31.318181818181827h-6.428571428571429Z" fill="#D2D4CE"/><path d="M121.78571428571429,68.68181818181817h6.428571428571429v31.318181818181827h-6.428571428571429Z" fill="#D2D4CE"/><path d="M128.92857142857144,67h6.428571428571429v33h-6.428571428571429Z" fill="#D2D4CE"/><path d="M136.07142857142858,65.81818181818181h6.428571428571429v34.18181818181819h-6.428571428571429Z" fill="#D2D4CE"/><path d="M143.21428571428572,64.54545454545455h6.428571428571429v35.45454545454545h-6.428571428571429Z" fill="#D2D4CE"/><path d="M150.35714285714286,64.5h6.428571428571429v35.5h-6.428571428571429Z" fill="#D2D4CE"/><path d="M157.5,63.27272727272728h6.428571428571429v36.72727272727272h-6.428571428571429Z" fill="#D2D4CE"/><path d="M164.64285714285717,63.18181818181819h6.428571428571429v36.81818181818181h-6.428571428571429Z" fill="#D2D4CE"/><path d="M171.7857142857143,61.95454545454546h6.428571428571429v38.04545454545454h-6.428571428571429Z" fill="#D2D4CE"/><path d="M178.92857142857144,59.18181818181818h6.428571428571429v40.81818181818182h-6.428571428571429Z" fill="#D2D4CE"/><path d="M186.07142857142858,58.72727272727273h6.428571428571429v41.27272727272727h-6.428571428571429Z" fill="#D2D4CE"/><path d="M193.21428571428572,57.59090909090909h6.428571428571429v42.40909090909091h-6.428571428571429Z" fill="#D2D4CE"/><path d="M200.35714285714286,56.27272727272727h6.428571428571429v43.72727272727273h-6.428571428571429Z" fill="#D2D4CE"/><path d="M207.50000000000003,56.18181818181818h6.428571428571429v43.81818181818182h-6.428571428571429Z" fill="#D2D4CE"/><path d="M214.64285714285717,55.13636363636364h6.428571428571429v44.86363636363636h-6.428571428571429Z" fill="#D2D4CE"/><path d="M221.7857142857143,54.54545454545454h6.428571428571429v45.45454545454546h-6.428571428571429Z" fill="#D2D4CE"/><path d="M228.92857142857144,52.13636363636365h6.428571428571429v47.86363636363635h-6.428571428571429Z" fill="#D2D4CE"/><path d="M236.07142857142858,50.68181818181819h6.428571428571429v49.31818181818181h-6.428571428571429Z" fill="#D2D4CE"/><path d="M243.21428571428572,43.13636363636364h6.428571428571429v56.86363636363636h-6.428571428571429Z" fill="#D2D4CE"/><path d="M250.35714285714286,33.86363636363636h6.428571428571429v66.13636363636364h-6.428571428571429Z" fill="#D2D4CE"/><path d="M257.5,31.40909090909091h6.428571428571429v68.5909090909091h-6.428571428571429Z" fill="#D2D4CE"/><path d="M264.6428571428571,29.36363636363637h6.428571428571429v70.63636363636363h-6.428571428571429Z" fill="#D2D4CE"/><path d="M271.78571428571433,22.22727272727273h6.428571428571429v77.77272727272727h-6.428571428571429Z" fill="#D2D4CE"/><path d="M278.92857142857144,22.136363636363644h6.428571428571429v77.86363636363636h-6.428571428571429Z" fill="#D2D4CE"/><path d="M286.07142857142856,18.409090909090907h6.428571428571429v81.5909090909091h-6.428571428571429Z" fill="#D2D4CE"/><path d="M293.2142857142858,0.727272727272732h6.428571428571429v99.27272727272727h-6.428571428571429Z" fill="#D2D4CE"/></g></g><path class="foreground" aria-hidden="true" d="" display="none"/></g></g></g></svg>