<svg xmlns="http://www.w3.org/2000/svg" xmlns:xlink="http://www.w3.org/1999/xlink" version="1.1" class="marks" width="310" height="110" ><g fill="none" stroke-miterlimit="10" transform="translate(5,5)"><g class="mark-group role-frame root" role="graphics-object" aria-roledescription="group mark container"><g transform="translate(0,0)"><path class="background" aria-hidden="true" d="M0,0h300v100h-300Z" stroke="#ddd" stroke-width="0"/><g><g class="mark-rect role-mark marks" role="graphics-symbol" aria-roledescription="rect mark container"><path d="M0.3571428571428612,34.22593837777777h6.428571428571429v65.77406162222223h-6.428571428571429Z" fill="#D2D4CE"/><path d="M7.500000000000004,32.853751255555565h6.428571428571429v67.14624874444443h-6.428571428571429Z" fill="#D2D4CE"/><path d="M14.642857142857148,31.348727311111112h6.428571428571429v68.6512726888889h-6.428571428571429Z" fill="#D2D4CE"/><path d="M21.785714285714292,30.782698322222224h6.428571428571429v69.21730167777778h-6.428571428571429Z" fill="#D2D4CE"/><path d="M28.928571428571434,30.56148046666667h6.428571428571429v69.43851953333333h-6.428571428571429Z" fill="#D2D4CE"/><path d="M36.07142857142858,30.385389088888893h6.428571428571429v69.6146109111111h-6.428571428571429Z" fill="#D2D4CE"/><path d="M43.21428571428572,30.368695644444443h6.428571428571429v69.63130435555556h-6.428571428571429Z" fill="#D2D4CE"/><path d="M50.35714285714286,30.332653600000004h6.428571428571429v69.6673464h-6.428571428571429Z" fill="#D2D4CE"/><path d="M57.50000000000001,30.10031706666667h6.428571428571429v69.89968293333334h-6.428571428571429Z" fill="#D2D4CE"/><path d="M64.64285714285715,30.024647577777774h6.428571428571429v69.97535242222223h-6.428571428571429Z" fill="#D2D4CE"/><path d="M71.78571428571429,29.258703622222228h6.428571428571429v70.74129637777777h-6.428571428571429Z" fill="#D2D4CE"/><path d="M78.92857142857143,28.565745988888878h6.428571428571429v71.43425401111112h-6.428571428571429Z" fill="#D2D4CE"/><path d="M86.07142857142858,28.540365655555554h6.428571428571429v71.45963434444445h-6.428571428571429Z" fill="#D2D4CE"/><path d="M93.21428571428572,28.540279777777776h6.428571428571429v71.45972022222222h-6.428571428571429Z" fill="#D2D4CE"/><path d="M100.35714285714286,28.482485422222226h6.428571428571429v71.51751457777777h-6.428571428571429Z" fill="#D2D4CE"/><path d="M107.50000000000001,28.31534538888889h6.428571428571429v71.68465461111111h-6.428571428571429Z" fill="#D2D4CE"/><path d="M114.64285714285715,27.85011661111111h6.428571428571429v72.1498833888889h-6.428571428571429Z" fill="#D2D4CE"/><path d="M121.78571428571429,27.28987932222222h6.428571428571429v72.71012067777778h-6.428571428571429Z" fill="#D2D4CE"/><path d="M128.92857142857144,27.22732183333334h6.428571428571429v72.77267816666665h-6.428571428571429Z" fill="#D2D4CE"/><path d="M136.07142857142858,27.04643434444445h6.428571428571429v72.95356565555555h-6.428571428571429Z" fill="#D2D4CE"/><path d="M143.21428571428572,26.86000811111111h6.428571428571429v73.13999188888889h-6.428571428571429Z" fill="#D2D4CE"/><path d="M150.35714285714286,26.693090799999997h6.428571428571429v73.3069092h-6.428571428571429Z" fill="#D2D4CE"/><path d="M157.5,26.606913411111112h6.428571428571429v73.39308658888889h-6.428571428571429Z" fill="#D2D4CE"/><path d="M164.64285714285717,26.33603056666667h6.428571428571429v73.66396943333334h-6.428571428571429Z" fill="#D2D4CE"/><path d="M171.7857142857143,24.639186488888896h6.428571428571429v75.3608135111111h-6.428571428571429Z" fill="#D2D4CE"/><path d="M178.92857142857144,24.56766187777778h6.428571428571429v75.43233812222222h-6.428571428571429Z" fill="#D2D4CE"/><path d="M186.07142857142858,24.500340611111106h6.428571428571429v75.49965938888889h-6.428571428571429Z" fill="#D2D4CE"/><path d="M193.21428571428572,24.44466351111111h6.428571428571429v75.55533648888888h-6.428571428571429Z" fill="#D2D4CE"/><path d="M200.35714285714286,23.74151202222222h6.428571428571429v76.25848797777778h-6.428571428571429Z" fill="#D2D4CE"/><path d="M207.50000000000003,22.444617255555556h6.428571428571429v77.55538274444444h-6.428571428571429Z" fill="#D2D4CE"/><path d="M214.64285714285717,22.334649566666663h6.428571428571429v77.66535043333334h-6.428571428571429Z" fill="#00923E"/><path d="M221.7857142857143,22.013870522222224h6.428571428571429v77.98612947777778h-6.428571428571429Z" fill="#D2D4CE"/><path d="M228.92857142857144,21.11885377777778h6.428571428571429v78.88114622222221h-6.428571428571429Z" fill="#D2D4CE"/><path d="M236.07142857142858,20.704978088888883h6.428571428571429v79.29502191111112h-6.428571428571429Z" fill="#D2D4CE"/><path d="M243.21428571428572,20.049607122222223h6.428571428571429v79.95039287777777h-6.428571428571429Z" fill="#D2D4CE"/><path d="M250.35714285714286,19.466714755555557h6.428571428571429v80.53328524444444h-6.428571428571429Z" fill="#D2D4CE"/><path d="M257.5,15.760682744444443h6.428571428571429v84.23931725555556h-6.428571428571429Z" fill="#D2D4CE"/><path d="M264.6428571428571,14.773176911111108h6.428571428571429v85.22682308888889h-6.428571428571429Z" fill="#D2D4CE"/><path d="M271.78571428571433,13.377924977777777h6.428571428571429v86.62207502222222h-6.428571428571429Z" fill="#D2D4CE"/><path d="M278.92857142857144,9.390737688888883h6.428571428571429v90.60926231111111h-6.428571428571429Z" fill="#D2D4CE"/><path d="M286.07142857142856,8.614301255555546h6.428571428571429v91.38569874444445h-6.428571428571429Z" fill="#D2D4CE"/><path d="M293.2142857142858,6.209412777777779h6.428571428571429v93.79058722222223h-6.428571428571429Z" fill="#D2D4CE"/></g></g><path class="foreground" aria-hidden="true" d="" display="none"/></g></g></g></svg>