<svg xmlns="http://www.w3.org/2000/svg" xmlns:xlink="http://www.w3.org/1999/xlink" version="1.1" class="marks" width="310" height="110" ><g fill="none" stroke-miterlimit="10" transform="translate(5,5)"><g class="mark-group role-frame root" role="graphics-object" aria-roledescription="group mark container"><g transform="translate(0,0)"><path class="background" aria-hidden="true" d="M0,0h300v100h-300Z" stroke="#ddd" stroke-width="0"/><g><g class="mark-rect role-mark marks" role="graphics-symbol" aria-roledescription="rect mark container"><path d="M0.3571428571428612,95.83333333333334h6.428571428571429v4.166666666666657h-6.428571428571429Z" fill="#D2D4CE"/><path d="M7.500000000000004,92.5h6.428571428571429v7.5h-6.428571428571429Z" fill="#D2D4CE"/><path d="M14.642857142857148,91.66666666666666h6.428571428571429v8.333333333333343h-6.428571428571429Z" fill="#D2D4CE"/><path d="M21.785714285714292,89.16666666666666h6.428571428571429v10.833333333333343h-6.428571428571429Z" fill="#D2D4CE"/><path d="M28.928571428571434,87.5h6.428571428571429v12.5h-6.428571428571429Z" fill="#D2D4CE"/><path d="M36.07142857142858,85.83333333333334h6.428571428571429v14.166666666666657h-6.428571428571429Z" fill="#D2D4CE"/><path d="M43.21428571428572,84.16666666666667h6.428571428571429v15.833333333333329h-6.428571428571429Z" fill="#D2D4CE"/><path d="M50.35714285714286,84.16666666666667h6.428571428571429v15.833333333333329h-6.428571428571429Z" fill="#D2D4CE"/><path d="M57.50000000000001,81.66666666666667h6.428571428571429v18.33333333333333h-6.428571428571429Z" fill="#D2D4CE"/><path d="M64.64285714285715,80.83333333333333h6.428571428571429v19.16666666666667h-6.428571428571429Z" fill="#D2D4CE"/><path d="M71.78571428571429,80h6.428571428571429v20h-6.428571428571429Z" fill="#D2D4CE"/><path d="M78.92857142857143,77.5h6.428571428571429v22.5h-6.428571428571429Z" fill="#D2D4CE"/><path d="M86.07142857142858,77.5h6.428571428571429v22.5h-6.428571428571429Z" fill="#D2D4CE"/><path d="M93.21428571428572,75.83333333333333h6.428571428571429v24.16666666666667h-6.428571428571429Z" fill="#00923E"/><path d="M100.35714285714286,75h6.428571428571429v25h-6.428571428571429Z" fill="#D2D4CE"/><path d="M107.50000000000001,74.16666666666667h6.428571428571429v25.83333333333333h-6.428571428571429Z" fill="#D2D4CE"/><path d="M114.64285714285715,74.16666666666667h6.428571428571429v25.83333333333333h-6.428571428571429Z" fill="#D2D4CE"/><path d="M121.78571428571429,73.33333333333334h6.428571428571429v26.666666666666657h-6.428571428571429Z" fill="#D2D4CE"/><path d="M128.92857142857144,73.33333333333334h6.428571428571429v26.666666666666657h-6.428571428571429Z" fill="#D2D4CE"/><path d="M136.07142857142858,73.33333333333334h6.428571428571429v26.666666666666657h-6.428571428571429Z" fill="#D2D4CE"/><path d="M143.21428571428572,72.50000000000001h6.428571428571429v27.499999999999986h-6.428571428571429Z" fill="#D2D4CE"/><path d="M150.35714285714286,71.66666666666667h6.428571428571429v28.33333333333333h-6.428571428571429Z" fill="#D2D4CE"/><path d="M157.5,71.66666666666667h6.428571428571429v28.33333333333333h-6.428571428571429Z" fill="#D2D4CE"/><path d="M164.64285714285717,71.66666666666667h6.428571428571429v28.33333333333333h-6.428571428571429Z" fill="#D2D4CE"/><path d="M171.7857142857143,70.83333333333333h6.428571428571429v29.16666666666667h-6.428571428571429Z" fill="#D2D4CE"/><path d="M178.92857142857144,68.33333333333333h6.428571428571429v31.66666666666667h-6.428571428571429Z" fill="#D2D4CE"/><path d="M186.07142857142858,67.5h6.428571428571429v32.5h-6.428571428571429Z" fill="#D2D4CE"/><path d="M193.21428571428572,64.99999999999999h6.428571428571429v35.000000000000014h-6.428571428571429Z" fill="#D2D4CE"/><path d="M200.35714285714286,64.16666666666666h6.428571428571429v35.83333333333334h-6.428571428571429Z" fill="#D2D4CE"/><path d="M207.50000000000003,63.33333333333333h6.428571428571429v36.66666666666667h-6.428571428571429Z" fill="#D2D4CE"/><path d="M214.64285714285717,63.33333333333333h6.428571428571429v36.66666666666667h-6.428571428571429Z" fill="#D2D4CE"/><path d="M221.7857142857143,60.00000000000001h6.428571428571429v39.99999999999999h-6.428571428571429Z" fill="#D2D4CE"/><path d="M228.92857142857144,59.16666666666666h6.428571428571429v40.83333333333334h-6.428571428571429Z" fill="#D2D4CE"/><path d="M236.07142857142858,57.49999999999999h6.428571428571429v42.50000000000001h-6.428571428571429Z" fill="#D2D4CE"/><path d="M243.21428571428572,54.16666666666667h6.428571428571429v45.83333333333333h-6.428571428571429Z" fill="#D2D4CE"/><path d="M250.35714285714286,53.33333333333334h6.428571428571429v46.66666666666666h-6.428571428571429Z" fill="#D2D4CE"/><path d="M257.5,48.33333333333333h6.428571428571429v51.66666666666667h-6.428571428571429Z" fill="#D2D4CE"/><path d="M264.6428571428571,45.00000000000001h6.428571428571429v54.99999999999999h-6.428571428571429Z" fill="#D2D4CE"/><path d="M271.78571428571433,43.333333333333336h6.428571428571429v56.666666666666664h-6.428571428571429Z" fill="#D2D4CE"/><path d="M278.92857142857144,40.833333333333336h6.428571428571429v59.166666666666664h-6.428571428571429Z" fill="#D2D4CE"/><path d="M286.07142857142856,32.50000000000001h6.428571428571429v67.5h-6.428571428571429Z" fill="#D2D4CE"/><path d="M293.2142857142858,0.8333333333333304h6.428571428571429v99.16666666666667h-6.428571428571429Z" fill="#D2D4CE"/></g></g><path class="foreground" aria-hidden="true" d="" display="none"/></g></g></g></svg>