<svg xmlns="http://www.w3.org/2000/svg" xmlns:xlink="http://www.w3.org/1999/xlink" version="1.1" class="marks" width="310" height="110" ><g fill="none" stroke-miterlimit="10" transform="translate(5,5)"><g class="mark-group role-frame root" role="graphics-object" aria-roledescription="group mark container"><g transform="translate(0,0)"><path class="background" aria-hidden="true" d="M0,0h300v100h-300Z" stroke="#ddd" stroke-width="0"/><g><g class="mark-rect role-mark marks" role="graphics-symbol" aria-roledescription="rect mark container"><path d="M0.3571428571428612,93.66666666666667h6.428571428571429v6.333333333333329h-6.428571428571429Z" fill="#D2D4CE"/><path d="M7.500000000000004,89.66666666666667h6.428571428571429v10.333333333333329h-6.428571428571429Z" fill="#D2D4CE"/><path d="M14.642857142857148,89h6.428571428571429v11h-6.428571428571429Z" fill="#D2D4CE"/><path d="M21.785714285714292,87.33333333333333h6.428571428571429v12.666666666666671h-6.428571428571429Z" fill="#D2D4CE"/><path d="M28.928571428571434,86h6.428571428571429v14h-6.428571428571429Z" fill="#D2D4CE"/><path d="M36.07142857142858,85.33333333333333h6.428571428571429v14.666666666666671h-6.428571428571429Z" fill="#D2D4CE"/><path d="M43.21428571428572,84h6.428571428571429v16h-6.428571428571429Z" fill="#D2D4CE"/><path d="M50.35714285714286,82h6.428571428571429v18h-6.428571428571429Z" fill="#D2D4CE"/><path d="M57.50000000000001,81.66666666666667h6.428571428571429v18.33333333333333h-6.428571428571429Z" fill="#D2D4CE"/><path d="M64.64285714285715,80.66666666666666h6.428571428571429v19.333333333333343h-6.428571428571429Z" fill="#D2D4CE"/><path d="M71.78571428571429,80.33333333333333h6.428571428571429v19.66666666666667h-6.428571428571429Z" fill="#D2D4CE"/><path d="M78.92857142857143,79.66666666666666h6.428571428571429v20.333333333333343h-6.428571428571429Z" fill="#D2D4CE"/><path d="M86.07142857142858,78.66666666666666h6.428571428571429v21.333333333333343h-6.428571428571429Z" fill="#D2D4CE"/><path d="M93.21428571428572,78.33333333333333h6.428571428571429v21.66666666666667h-6.428571428571429Z" fill="#D2D4CE"/><path d="M100.35714285714286,71.33333333333334h6.428571428571429v28.666666666666657h-6.428571428571429Z" fill="#D2D4CE"/><path d="M107.50000000000001,68.66666666666667h6.428571428571429v31.33333333333333h-6.428571428571429Z" fill="#D2D4CE"/><path d="M114.64285714285715,67h6.428571428571429v33h-6.428571428571429Z" fill="#D2D4CE"/><path d="M121.78571428571429,66.66666666666667h6.428571428571429v33.33333333333333h-6.428571428571429Z" fill="#D2D4CE"/><path d="M128.92857142857144,66.33333333333333h6.428571428571429v33.66666666666667h-6.428571428571429Z" fill="#D2D4CE"/><path d="M136.07142857142858,65.66666666666666h6.428571428571429v34.33333333333334h-6.428571428571429Z" fill="#D2D4CE"/><path d="M143.21428571428572,65.66666666666666h6.428571428571429v34.33333333333334h-6.428571428571429Z" fill="#D2D4CE"/><path d="M150.35714285714286,64.33333333333333h6.428571428571429v35.66666666666667h-6.428571428571429Z" fill="#D2D4CE"/><path d="M157.5,61.00000000000001h6.428571428571429v38.99999999999999h-6.428571428571429Z" fill="#D2D4CE"/><path d="M164.64285714285717,61.00000000000001h6.428571428571429v38.99999999999999h-6.428571428571429Z" fill="#D2D4CE"/><path d="M171.7857142857143,60h6.428571428571429v40h-6.428571428571429Z" fill="#D2D4CE"/><path d="M178.92857142857144,57.666666666666664h6.428571428571429v42.333333333333336h-6.428571428571429Z" fill="#D2D4CE"/><path d="M186.07142857142858,53.333333333333336h6.428571428571429v46.666666666666664h-6.428571428571429Z" fill="#D2D4CE"/><path d="M193.21428571428572,53h6.428571428571429v47h-6.428571428571429Z" fill="#D2D4CE"/><path d="M200.35714285714286,49.33333333333334h6.428571428571429v50.66666666666666h-6.428571428571429Z" fill="#D2D4CE"/><path d="M207.50000000000003,45.333333333333336h6.428571428571429v54.666666666666664h-6.428571428571429Z" fill="#D2D4CE"/><path d="M214.64285714285717,43.66666666666668h6.428571428571429v56.33333333333332h-6.428571428571429Z" fill="#D2D4CE"/><path d="M221.7857142857143,43.66666666666668h6.428571428571429v56.33333333333332h-6.428571428571429Z" fill="#D2D4CE"/><path d="M228.92857142857144,43.333333333333336h6.428571428571429v56.666666666666664h-6.428571428571429Z" fill="#D2D4CE"/><path d="M236.07142857142858,39h6.428571428571429v61h-6.428571428571429Z" fill="#D2D4CE"/><path d="M243.21428571428572,37h6.428571428571429v63h-6.428571428571429Z" fill="#D2D4CE"/><path d="M250.35714285714286,32.666666666666664h6.428571428571429v67.33333333333334h-6.428571428571429Z" fill="#D2D4CE"/><path d="M257.5,31.666666666666664h6.428571428571429v68.33333333333334h-6.428571428571429Z" fill="#D2D4CE"/><path d="M264.6428571428571,27.333333333333332h6.428571428571429v72.66666666666667h-6.428571428571429Z" fill="#D2D4CE"/><path d="M271.78571428571433,24.33333333333334h6.428571428571429v75.66666666666666h-6.428571428571429Z" fill="#D2D4CE"/><path d="M278.92857142857144,21.333333333333325h6.428571428571429v78.66666666666667h-6.428571428571429Z" fill="#00923E"/><path d="M286.07142857142856,14.333333333333332h6.428571428571429v85.66666666666667h-6.428571428571429Z" fill="#D2D4CE"/><path d="M293.2142857142858,1.6666666666666718h6.428571428571429v98.33333333333333h-6.428571428571429Z" fill="#D2D4CE"/></g></g><path class="foreground" aria-hidden="true" d="" display="none"/></g></g></g></svg>