<svg xmlns="http://www.w3.org/2000/svg" xmlns:xlink="http://www.w3.org/1999/xlink" version="1.1" class="marks" width="310" height="110" ><g fill="none" stroke-miterlimit="10" transform="translate(5,5)"><g class="mark-group role-frame root" role="graphics-object" aria-roledescription="group mark container"><g transform="translate(0,0)"><path class="background" aria-hidden="true" d="M0,0h300v100h-300Z" stroke="#ddd" stroke-width="0"/><g><g class="mark-rect role-mark marks" role="graphics-symbol" aria-roledescription="rect mark container"><path d="M0.3571428571428612,54.2h6.428571428571429v45.8h-6.428571428571429Z" fill="#D2D4CE"/><path d="M7.500000000000004,51h6.428571428571429v49h-6.428571428571429Z" fill="#D2D4CE"/><path d="M14.642857142857148,50.4h6.428571428571429v49.6h-6.428571428571429Z" fill="#D2D4CE"/><path d="M21.785714285714292,39.5h6.428571428571429v60.5h-6.428571428571429Z" fill="#D2D4CE"/><path d="M28.928571428571434,37.4h6.428571428571429v62.6h-6.428571428571429Z" fill="#D2D4CE"/><path d="M36.07142857142858,33.70000000000001h6.428571428571429v66.29999999999998h-6.428571428571429Z" fill="#D2D4CE"/><path d="M43.21428571428572,28.59999999999999h6.428571428571429v71.4h-6.428571428571429Z" fill="#D2D4CE"/><path d="M50.35714285714286,28.400000000000002h6.428571428571429v71.6h-6.428571428571429Z" fill="#D2D4CE"/><path d="M57.50000000000001,26.900000000000002h6.428571428571429v73.1h-6.428571428571429Z" fill="#D2D4CE"/><path d="M64.64285714285715,26.900000000000002h6.428571428571429v73.1h-6.428571428571429Z" fill="#D2D4CE"/><path d="M71.78571428571429,26.200000000000003h6.428571428571429v73.8h-6.428571428571429Z" fill="#D2D4CE"/><path d="M78.92857142857143,24.40000000000001h6.428571428571429v75.6h-6.428571428571429Z" fill="#D2D4CE"/><path d="M86.07142857142858,24.3h6.428571428571429v75.7h-6.428571428571429Z" fill="#D2D4CE"/><path d="M93.21428571428572,22.799999999999997h6.428571428571429v77.2h-6.428571428571429Z" fill="#D2D4CE"/><path d="M100.35714285714286,22.299999999999997h6.428571428571429v77.7h-6.428571428571429Z" fill="#D2D4CE"/><path d="M107.50000000000001,22.299999999999997h6.428571428571429v77.7h-6.428571428571429Z" fill="#D2D4CE"/><path d="M114.64285714285715,20.799999999999997h6.428571428571429v79.2h-6.428571428571429Z" fill="#D2D4CE"/><path d="M121.78571428571429,19.799999999999997h6.428571428571429v80.2h-6.428571428571429Z" fill="#00923E"/><path d="M128.92857142857144,17.799999999999994h6.428571428571429v82.2h-6.428571428571429Z" fill="#D2D4CE"/><path d="M136.07142857142858,14.900000000000002h6.428571428571429v85.1h-6.428571428571429Z" fill="#D2D4CE"/><path d="M143.21428571428572,14.800000000000002h6.428571428571429v85.2h-6.428571428571429Z" fill="#D2D4CE"/><path d="M150.35714285714286,14.800000000000002h6.428571428571429v85.2h-6.428571428571429Z" fill="#D2D4CE"/><path d="M157.5,14.800000000000002h6.428571428571429v85.2h-6.428571428571429Z" fill="#D2D4CE"/><path d="M164.64285714285717,14.000000000000002h6.428571428571429v86h-6.428571428571429Z" fill="#D2D4CE"/><path d="M171.7857142857143,13.8h6.428571428571429v86.2h-6.428571428571429Z" fill="#D2D4CE"/><path d="M178.92857142857144,13.4h6.428571428571429v86.6h-6.428571428571429Z" fill="#D2D4CE"/><path d="M186.07142857142858,12.8h6.428571428571429v87.2h-6.428571428571429Z" fill="#D2D4CE"/><path d="M193.21428571428572,12.7h6.428571428571429v87.3h-6.428571428571429Z" fill="#D2D4CE"/><path d="M200.35714285714286,12.7h6.428571428571429v87.3h-6.428571428571429Z" fill="#D2D4CE"/><path d="M207.50000000000003,12.5h6.428571428571429v87.5h-6.428571428571429Z" fill="#D2D4CE"/><path d="M214.64285714285717,12.1h6.428571428571429v87.9h-6.428571428571429Z" fill="#D2D4CE"/><path d="M221.7857142857143,11.7h6.428571428571429v88.3h-6.428571428571429Z" fill="#D2D4CE"/><path d="M228.92857142857144,9.999999999999998h6.428571428571429v90h-6.428571428571429Z" fill="#D2D4CE"/><path d="M236.07142857142858,9.699999999999998h6.428571428571429v90.3h-6.428571428571429Z" fill="#D2D4CE"/><path d="M243.21428571428572,7.700000000000006h6.428571428571429v92.3h-6.428571428571429Z" fill="#D2D4CE"/><path d="M250.35714285714286,7.200000000000006h6.428571428571429v92.8h-6.428571428571429Z" fill="#D2D4CE"/><path d="M257.5,6.2000000000000055h6.428571428571429v93.8h-6.428571428571429Z" fill="#D2D4CE"/><path d="M264.6428571428571,6.000000000000005h6.428571428571429v94h-6.428571428571429Z" fill="#D2D4CE"/><path d="M271.78571428571433,4.799999999999994h6.428571428571429v95.2h-6.428571428571429Z" fill="#D2D4CE"/><path d="M278.92857142857144,4.799999999999994h6.428571428571429v95.2h-6.428571428571429Z" fill="#D2D4CE"/><path d="M286.07142857142856,4.0999999999999925h6.428571428571429v95.9h-6.428571428571429Z" fill="#D2D4CE"/><path d="M293.2142857142858,2.0000000000000018h6.428571428571429v98h-6.428571428571429Z" fill="#D2D4CE"/></g></g><path class="foreground" aria-hidden="true" d="" display="none"/></g></g></g></svg>