<svg xmlns="http://www.w3.org/2000/svg" xmlns:xlink="http://www.w3.org/1999/xlink" version="1.1" class="marks" width="310" height="110" ><g fill="none" stroke-miterlimit="10" transform="translate(5,5)"><g class="mark-group role-frame root" role="graphics-object" aria-roledescription="group mark container"><g transform="translate(0,0)"><path class="background" aria-hidden="true" d="M0,0h300v100h-300Z" stroke="#ddd" stroke-width="0"/><g><g class="mark-rect role-mark marks" role="graphics-symbol" aria-roledescription="rect mark container"><path d="M0.3571428571428612,20.900000000000006h6.428571428571429v79.1h-6.428571428571429Z" fill="#D2D4CE"/><path d="M7.500000000000004,17.599999999999994h6.428571428571429v82.4h-6.428571428571429Z" fill="#D2D4CE"/><path d="M14.642857142857148,16.799999999999994h6.428571428571429v83.2h-6.428571428571429Z" fill="#D2D4CE"/><path d="M21.785714285714292,16.700000000000003h6.428571428571429v83.3h-6.428571428571429Z" fill="#D2D4CE"/><path d="M28.928571428571434,16.500000000000004h6.428571428571429v83.5h-6.428571428571429Z" fill="#D2D4CE"/><path d="M36.07142857142858,15.000000000000002h6.428571428571429v85h-6.428571428571429Z" fill="#D2D4CE"/><path d="M43.21428571428572,14.3h6.428571428571429v85.7h-6.428571428571429Z" fill="#D2D4CE"/><path d="M50.35714285714286,13.8h6.428571428571429v86.2h-6.428571428571429Z" fill="#D2D4CE"/><path d="M57.50000000000001,13h6.428571428571429v87h-6.428571428571429Z" fill="#D2D4CE"/><path d="M64.64285714285715,12.9h6.428571428571429v87.1h-6.428571428571429Z" fill="#D2D4CE"/><path d="M71.78571428571429,12.5h6.428571428571429v87.5h-6.428571428571429Z" fill="#D2D4CE"/><path d="M78.92857142857143,10.999999999999998h6.428571428571429v89h-6.428571428571429Z" fill="#D2D4CE"/><path d="M86.07142857142858,10.999999999999998h6.428571428571429v89h-6.428571428571429Z" fill="#D2D4CE"/><path d="M93.21428571428572,10.40000000000001h6.428571428571429v89.6h-6.428571428571429Z" fill="#D2D4CE"/><path d="M100.35714285714286,9.799999999999997h6.428571428571429v90.2h-6.428571428571429Z" fill="#D2D4CE"/><path d="M107.50000000000001,9.299999999999997h6.428571428571429v90.7h-6.428571428571429Z" fill="#D2D4CE"/><path d="M114.64285714285715,8.900000000000007h6.428571428571429v91.1h-6.428571428571429Z" fill="#D2D4CE"/><path d="M121.78571428571429,8.799999999999997h6.428571428571429v91.2h-6.428571428571429Z" fill="#D2D4CE"/><path d="M128.92857142857144,8.499999999999996h6.428571428571429v91.5h-6.428571428571429Z" fill="#D2D4CE"/><path d="M136.07142857142858,8.499999999999996h6.428571428571429v91.5h-6.428571428571429Z" fill="#D2D4CE"/><path d="M143.21428571428572,8.299999999999997h6.428571428571429v91.7h-6.428571428571429Z" fill="#D2D4CE"/><path d="M150.35714285714286,8.099999999999996h6.428571428571429v91.9h-6.428571428571429Z" fill="#D2D4CE"/><path d="M157.5,7.700000000000006h6.428571428571429v92.3h-6.428571428571429Z" fill="#00923E"/><path d="M164.64285714285717,7.499999999999996h6.428571428571429v92.5h-6.428571428571429Z" fill="#D2D4CE"/><path d="M171.7857142857143,7.499999999999996h6.428571428571429v92.5h-6.428571428571429Z" fill="#D2D4CE"/><path d="M178.92857142857144,7.400000000000007h6.428571428571429v92.6h-6.428571428571429Z" fill="#D2D4CE"/><path d="M186.07142857142858,6.999999999999995h6.428571428571429v93h-6.428571428571429Z" fill="#D2D4CE"/><path d="M193.21428571428572,6.900000000000006h6.428571428571429v93.1h-6.428571428571429Z" fill="#D2D4CE"/><path d="M200.35714285714286,6.700000000000006h6.428571428571429v93.3h-6.428571428571429Z" fill="#D2D4CE"/><path d="M207.50000000000003,6.599999999999994h6.428571428571429v93.4h-6.428571428571429Z" fill="#D2D4CE"/><path d="M214.64285714285717,6.2999999999999945h6.428571428571429v93.7h-6.428571428571429Z" fill="#D2D4CE"/><path d="M221.7857142857143,6.000000000000005h6.428571428571429v94h-6.428571428571429Z" fill="#D2D4CE"/><path d="M228.92857142857144,5.900000000000006h6.428571428571429v94.1h-6.428571428571429Z" fill="#D2D4CE"/><path d="M236.07142857142858,5.700000000000005h6.428571428571429v94.3h-6.428571428571429Z" fill="#D2D4CE"/><path d="M243.21428571428572,5.700000000000005h6.428571428571429v94.3h-6.428571428571429Z" fill="#D2D4CE"/><path d="M250.35714285714286,5.200000000000005h6.428571428571429v94.8h-6.428571428571429Z" fill="#D2D4CE"/><path d="M257.5,4.0000000000000036h6.428571428571429v96h-6.428571428571429Z" fill="#D2D4CE"/><path d="M264.6428571428571,3.7000000000000033h6.428571428571429v96.3h-6.428571428571429Z" fill="#D2D4CE"/><path d="M271.78571428571433,3.0000000000000027h6.428571428571429v97h-6.428571428571429Z" fill="#D2D4CE"/><path d="M278.92857142857144,2.500000000000002h6.428571428571429v97.5h-6.428571428571429Z" fill="#D2D4CE"/><path d="M286.07142857142856,2.500000000000002h6.428571428571429v97.5h-6.428571428571429Z" fill="#D2D4CE"/><path d="M293.2142857142858,2.200000000000002h6.428571428571429v97.8h-6.428571428571429Z" fill="#D2D4CE"/></g></g><path class="foreground" aria-hidden="true" d="" display="none"/></g></g></g></svg>