<svg xmlns="http://www.w3.org/2000/svg" xmlns:xlink="http://www.w3.org/1999/xlink" version="1.1" class="marks" width="310" height="110" ><g fill="none" stroke-miterlimit="10" transform="translate(5,5)"><g class="mark-group role-frame root" role="graphics-object" aria-roledescription="group mark container"><g transform="translate(0,0)"><path class="background" aria-hidden="true" d="M0,0h300v100h-300Z" stroke="#ddd" stroke-width="0"/><g><g class="mark-rect role-mark marks" role="graphics-symbol" aria-roledescription="rect mark container"><path d="M0.3571428571428612,43.39999999999999h6.428571428571429v56.60000000000001h-6.428571428571429Z" fill="#00923E"/><path d="M7.500000000000004,38.9h6.428571428571429v61.1h-6.428571428571429Z" fill="#D2D4CE"/><path d="M14.642857142857148,36.4h6.428571428571429v63.6h-6.428571428571429Z" fill="#D2D4CE"/><path d="M21.785714285714292,28.500000000000004h6.428571428571429v71.5h-6.428571428571429Z" fill="#D2D4CE"/><path d="M28.928571428571434,24.099999999999998h6.428571428571429v75.9h-6.428571428571429Z" fill="#D2D4CE"/><path d="M36.07142857142858,23.90000000000001h6.428571428571429v76.1h-6.428571428571429Z" fill="#D2D4CE"/><path d="M43.21428571428572,23.40000000000001h6.428571428571429v76.6h-6.428571428571429Z" fill="#D2D4CE"/><path d="M50.35714285714286,22.199999999999996h6.428571428571429v77.80000000000001h-6.428571428571429Z" fill="#D2D4CE"/><path d="M57.50000000000001,21.90000000000001h6.428571428571429v78.1h-6.428571428571429Z" fill="#D2D4CE"/><path d="M64.64285714285715,20.999999999999996h6.428571428571429v79h-6.428571428571429Z" fill="#D2D4CE"/><path d="M71.78571428571429,19.999999999999996h6.428571428571429v80h-6.428571428571429Z" fill="#D2D4CE"/><path d="M78.92857142857143,19.900000000000006h6.428571428571429v80.1h-6.428571428571429Z" fill="#D2D4CE"/><path d="M86.07142857142858,18.400000000000006h6.428571428571429v81.6h-6.428571428571429Z" fill="#D2D4CE"/><path d="M93.21428571428572,18.299999999999994h6.428571428571429v81.7h-6.428571428571429Z" fill="#D2D4CE"/><path d="M100.35714285714286,18.099999999999994h6.428571428571429v81.9h-6.428571428571429Z" fill="#D2D4CE"/><path d="M107.50000000000001,17.900000000000006h6.428571428571429v82.1h-6.428571428571429Z" fill="#D2D4CE"/><path d="M114.64285714285715,17.400000000000006h6.428571428571429v82.6h-6.428571428571429Z" fill="#D2D4CE"/><path d="M121.78571428571429,16.299999999999994h6.428571428571429v83.7h-6.428571428571429Z" fill="#D2D4CE"/><path d="M128.92857142857144,13.900000000000002h6.428571428571429v86.1h-6.428571428571429Z" fill="#D2D4CE"/><path d="M136.07142857142858,13.4h6.428571428571429v86.6h-6.428571428571429Z" fill="#D2D4CE"/><path d="M143.21428571428572,12.3h6.428571428571429v87.7h-6.428571428571429Z" fill="#D2D4CE"/><path d="M150.35714285714286,12h6.428571428571429v88h-6.428571428571429Z" fill="#D2D4CE"/><path d="M157.5,11.6h6.428571428571429v88.4h-6.428571428571429Z" fill="#D2D4CE"/><path d="M164.64285714285717,10.499999999999998h6.428571428571429v89.5h-6.428571428571429Z" fill="#D2D4CE"/><path d="M171.7857142857143,10.40000000000001h6.428571428571429v89.6h-6.428571428571429Z" fill="#D2D4CE"/><path d="M178.92857142857144,9.90000000000001h6.428571428571429v90.1h-6.428571428571429Z" fill="#D2D4CE"/><path d="M186.07142857142858,9.299999999999997h6.428571428571429v90.7h-6.428571428571429Z" fill="#D2D4CE"/><path d="M193.21428571428572,9.200000000000008h6.428571428571429v90.8h-6.428571428571429Z" fill="#D2D4CE"/><path d="M200.35714285714286,8.599999999999996h6.428571428571429v91.4h-6.428571428571429Z" fill="#D2D4CE"/><path d="M207.50000000000003,6.900000000000006h6.428571428571429v93.1h-6.428571428571429Z" fill="#D2D4CE"/><path d="M214.64285714285717,6.700000000000006h6.428571428571429v93.3h-6.428571428571429Z" fill="#D2D4CE"/><path d="M221.7857142857143,6.099999999999994h6.428571428571429v93.9h-6.428571428571429Z" fill="#D2D4CE"/><path d="M228.92857142857144,5.200000000000005h6.428571428571429v94.8h-6.428571428571429Z" fill="#D2D4CE"/><path d="M236.07142857142858,4.799999999999994h6.428571428571429v95.2h-6.428571428571429Z" fill="#D2D4CE"/><path d="M243.21428571428572,4.5000000000000036h6.428571428571429v95.5h-6.428571428571429Z" fill="#D2D4CE"/><path d="M250.35714285714286,4.5000000000000036h6.428571428571429v95.5h-6.428571428571429Z" fill="#D2D4CE"/><path d="M257.5,4.299999999999993h6.428571428571429v95.7h-6.428571428571429Z" fill="#D2D4CE"/><path d="M264.6428571428571,3.7999999999999923h6.428571428571429v96.2h-6.428571428571429Z" fill="#D2D4CE"/><path d="M271.78571428571433,3.0000000000000027h6.428571428571429v97h-6.428571428571429Z" fill="#D2D4CE"/><path d="M278.92857142857144,3.0000000000000027h6.428571428571429v97h-6.428571428571429Z" fill="#D2D4CE"/><path d="M286.07142857142856,2.400000000000002h6.428571428571429v97.6h-6.428571428571429Z" fill="#D2D4CE"/><path d="M293.2142857142858,1.8000000000000016h6.428571428571429v98.2h-6.428571428571429Z" fill="#D2D4CE"/></g></g><path class="foreground" aria-hidden="true" d="" display="none"/></g></g></g></svg>