<svg xmlns="http://www.w3.org/2000/svg" xmlns:xlink="http://www.w3.org/1999/xlink" version="1.1" class="marks" width="310" height="110" ><g fill="none" stroke-miterlimit="10" transform="translate(5,5)"><g class="mark-group role-frame root" role="graphics-object" aria-roledescription="group mark container"><g transform="translate(0,0)"><path class="background" aria-hidden="true" d="M0,0h300v100h-300Z" stroke="#ddd" stroke-width="0"/><g><g class="mark-rect role-mark marks" role="graphics-symbol" aria-roledescription="rect mark container"><path d="M0.3571428571428612,87.55555555555556h6.428571428571429v12.444444444444443h-6.428571428571429Z" fill="#D2D4CE"/><path d="M7.500000000000004,85.11111111111111h6.428571428571429v14.888888888888886h-6.428571428571429Z" fill="#D2D4CE"/><path d="M14.642857142857148,84.88888888888889h6.428571428571429v15.111111111111114h-6.428571428571429Z" fill="#D2D4CE"/><path d="M21.785714285714292,82.44444444444444h6.428571428571429v17.555555555555557h-6.428571428571429Z" fill="#D2D4CE"/><path d="M28.928571428571434,81.77777777777779h6.428571428571429v18.222222222222214h-6.428571428571429Z" fill="#D2D4CE"/><path d="M36.07142857142858,80.66666666666666h6.428571428571429v19.333333333333343h-6.428571428571429Z" fill="#D2D4CE"/><path d="M43.21428571428572,76.66666666666666h6.428571428571429v23.333333333333343h-6.428571428571429Z" fill="#D2D4CE"/><path d="M50.35714285714286,74h6.428571428571429v26h-6.428571428571429Z" fill="#D2D4CE"/><path d="M57.50000000000001,73.33333333333334h6.428571428571429v26.666666666666657h-6.428571428571429Z" fill="#D2D4CE"/><path d="M64.64285714285715,72.44444444444444h6.428571428571429v27.555555555555557h-6.428571428571429Z" fill="#D2D4CE"/><path d="M71.78571428571429,72.44444444444444h6.428571428571429v27.555555555555557h-6.428571428571429Z" fill="#D2D4CE"/><path d="M78.92857142857143,71.33333333333334h6.428571428571429v28.666666666666657h-6.428571428571429Z" fill="#D2D4CE"/><path d="M86.07142857142858,71.11111111111111h6.428571428571429v28.888888888888886h-6.428571428571429Z" fill="#D2D4CE"/><path d="M93.21428571428572,70.88888888888889h6.428571428571429v29.111111111111114h-6.428571428571429Z" fill="#D2D4CE"/><path d="M100.35714285714286,68.66666666666667h6.428571428571429v31.33333333333333h-6.428571428571429Z" fill="#D2D4CE"/><path d="M107.50000000000001,67.33333333333333h6.428571428571429v32.66666666666667h-6.428571428571429Z" fill="#D2D4CE"/><path d="M114.64285714285715,65.99999999999999h6.428571428571429v34.000000000000014h-6.428571428571429Z" fill="#D2D4CE"/><path d="M121.78571428571429,65.77777777777779h6.428571428571429v34.222222222222214h-6.428571428571429Z" fill="#D2D4CE"/><path d="M128.92857142857144,64.44444444444444h6.428571428571429v35.55555555555556h-6.428571428571429Z" fill="#D2D4CE"/><path d="M136.07142857142858,64.44444444444444h6.428571428571429v35.55555555555556h-6.428571428571429Z" fill="#D2D4CE"/><path d="M143.21428571428572,63.77777777777778h6.428571428571429v36.22222222222222h-6.428571428571429Z" fill="#D2D4CE"/><path d="M150.35714285714286,62.22222222222222h6.428571428571429v37.77777777777778h-6.428571428571429Z" fill="#D2D4CE"/><path d="M157.5,59.77777777777777h6.428571428571429v40.22222222222223h-6.428571428571429Z" fill="#D2D4CE"/><path d="M164.64285714285717,59.77777777777777h6.428571428571429v40.22222222222223h-6.428571428571429Z" fill="#D2D4CE"/><path d="M171.7857142857143,59.555555555555564h6.428571428571429v40.444444444444436h-6.428571428571429Z" fill="#D2D4CE"/><path d="M178.92857142857144,52.44444444444445h6.428571428571429v47.55555555555555h-6.428571428571429Z" fill="#D2D4CE"/><path d="M186.07142857142858,52.44444444444445h6.428571428571429v47.55555555555555h-6.428571428571429Z" fill="#00923E"/><path d="M193.21428571428572,52h6.428571428571429v48h-6.428571428571429Z" fill="#D2D4CE"/><path d="M200.35714285714286,51.55555555555556h6.428571428571429v48.44444444444444h-6.428571428571429Z" fill="#D2D4CE"/><path d="M207.50000000000003,44.00000000000001h6.428571428571429v55.99999999999999h-6.428571428571429Z" fill="#D2D4CE"/><path d="M214.64285714285717,42.666666666666664h6.428571428571429v57.333333333333336h-6.428571428571429Z" fill="#D2D4CE"/><path d="M221.7857142857143,39.77777777777778h6.428571428571429v60.22222222222222h-6.428571428571429Z" fill="#D2D4CE"/><path d="M228.92857142857144,38.44444444444445h6.428571428571429v61.55555555555555h-6.428571428571429Z" fill="#D2D4CE"/><path d="M236.07142857142858,36.88888888888889h6.428571428571429v63.11111111111111h-6.428571428571429Z" fill="#D2D4CE"/><path d="M243.21428571428572,36.66666666666667h6.428571428571429v63.33333333333333h-6.428571428571429Z" fill="#D2D4CE"/><path d="M250.35714285714286,30.44444444444444h6.428571428571429v69.55555555555556h-6.428571428571429Z" fill="#D2D4CE"/><path d="M257.5,29.333333333333332h6.428571428571429v70.66666666666667h-6.428571428571429Z" fill="#D2D4CE"/><path d="M264.6428571428571,27.77777777777778h6.428571428571429v72.22222222222223h-6.428571428571429Z" fill="#D2D4CE"/><path d="M271.78571428571433,27.111111111111118h6.428571428571429v72.88888888888889h-6.428571428571429Z" fill="#D2D4CE"/><path d="M278.92857142857144,14.888888888888896h6.428571428571429v85.1111111111111h-6.428571428571429Z" fill="#D2D4CE"/><path d="M286.07142857142856,12.666666666666671h6.428571428571429v87.33333333333333h-6.428571428571429Z" fill="#D2D4CE"/><path d="M293.2142857142858,4.222222222222216h6.428571428571429v95.77777777777779h-6.428571428571429Z" fill="#D2D4CE"/></g></g><path class="foreground" aria-hidden="true" d="" display="none"/></g></g></g></svg>