<svg xmlns="http://www.w3.org/2000/svg" xmlns:xlink="http://www.w3.org/1999/xlink" version="1.1" class="marks" width="310" height="110" ><g fill="none" stroke-miterlimit="10" transform="translate(5,5)"><g class="mark-group role-frame root" role="graphics-object" aria-roledescription="group mark container"><g transform="translate(0,0)"><path class="background" aria-hidden="true" d="M0,0h300v100h-300Z" stroke="#ddd" stroke-width="0"/><g><g class="mark-rect role-mark marks" role="graphics-symbol" aria-roledescription="rect mark container"><path d="M0.3571428571428612,52.90384479166668h6.428571428571429v47.09615520833332h-6.428571428571429Z" fill="#D2D4CE"/><path d="M7.500000000000004,52.47127683333333h6.428571428571429v47.52872316666667h-6.428571428571429Z" fill="#D2D4CE"/><path d="M14.642857142857148,44.7302895h6.428571428571429v55.2697105h-6.428571428571429Z" fill="#D2D4CE"/><path d="M21.785714285714292,42.03213866666666h6.428571428571429v57.96786133333334h-6.428571428571429Z" fill="#00923E"/><path d="M28.928571428571434,40.608697250000006h6.428571428571429v59.391302749999994h-6.428571428571429Z" fill="#D2D4CE"/><path d="M36.07142857142858,40.509584624999995h6.428571428571429v59.490415375000005h-6.428571428571429Z" fill="#D2D4CE"/><path d="M43.21428571428572,40.50546704166666h6.428571428571429v59.49453295833334h-6.428571428571429Z" fill="#D2D4CE"/><path d="M50.35714285714286,38.81899670833333h6.428571428571429v61.18100329166667h-6.428571428571429Z" fill="#D2D4CE"/><path d="M57.50000000000001,38.457419208333334h6.428571428571429v61.542580791666666h-6.428571428571429Z" fill="#D2D4CE"/><path d="M64.64285714285715,37.921481375h6.428571428571429v62.078518625h-6.428571428571429Z" fill="#D2D4CE"/><path d="M71.78571428571429,37.095096166666664h6.428571428571429v62.904903833333336h-6.428571428571429Z" fill="#D2D4CE"/><path d="M78.92857142857143,36.25270520833334h6.428571428571429v63.74729479166666h-6.428571428571429Z" fill="#D2D4CE"/><path d="M86.07142857142858,34.74655379166667h6.428571428571429v65.25344620833333h-6.428571428571429Z" fill="#D2D4CE"/><path d="M93.21428571428572,34.74045970833334h6.428571428571429v65.25954029166667h-6.428571428571429Z" fill="#D2D4CE"/><path d="M100.35714285714286,33.42496533333333h6.428571428571429v66.57503466666667h-6.428571428571429Z" fill="#D2D4CE"/><path d="M107.50000000000001,33.29416762499999h6.428571428571429v66.705832375h-6.428571428571429Z" fill="#D2D4CE"/><path d="M114.64285714285715,33.2010075h6.428571428571429v66.7989925h-6.428571428571429Z" fill="#D2D4CE"/><path d="M121.78571428571429,33.189442791666664h6.428571428571429v66.81055720833334h-6.428571428571429Z" fill="#D2D4CE"/><path d="M128.92857142857144,33.149887625h6.428571428571429v66.85011237500001h-6.428571428571429Z" fill="#D2D4CE"/><path d="M136.07142857142858,32.82476645833333h6.428571428571429v67.17523354166667h-6.428571428571429Z" fill="#D2D4CE"/><path d="M143.21428571428572,31.765178875h6.428571428571429v68.234821125h-6.428571428571429Z" fill="#D2D4CE"/><path d="M150.35714285714286,30.244165791666678h6.428571428571429v69.75583420833333h-6.428571428571429Z" fill="#D2D4CE"/><path d="M157.5,28.744996666666665h6.428571428571429v71.25500333333333h-6.428571428571429Z" fill="#D2D4CE"/><path d="M164.64285714285717,28.672281874999996h6.428571428571429v71.327718125h-6.428571428571429Z" fill="#D2D4CE"/><path d="M171.7857142857143,26.491897166666657h6.428571428571429v73.50810283333334h-6.428571428571429Z" fill="#D2D4CE"/><path d="M178.92857142857144,24.879177291666675h6.428571428571429v75.12082270833332h-6.428571428571429Z" fill="#D2D4CE"/><path d="M186.07142857142858,24.83323283333333h6.428571428571429v75.16676716666667h-6.428571428571429Z" fill="#D2D4CE"/><path d="M193.21428571428572,24.13913550000001h6.428571428571429v75.86086449999999h-6.428571428571429Z" fill="#D2D4CE"/><path d="M200.35714285714286,23.839159h6.428571428571429v76.160841h-6.428571428571429Z" fill="#D2D4CE"/><path d="M207.50000000000003,22.84718220833333h6.428571428571429v77.15281779166668h-6.428571428571429Z" fill="#D2D4CE"/><path d="M214.64285714285717,22.64694954166666h6.428571428571429v77.35305045833334h-6.428571428571429Z" fill="#D2D4CE"/><path d="M221.7857142857143,21.74289083333334h6.428571428571429v78.25710916666665h-6.428571428571429Z" fill="#D2D4CE"/><path d="M228.92857142857144,20.83216333333334h6.428571428571429v79.16783666666666h-6.428571428571429Z" fill="#D2D4CE"/><path d="M236.07142857142858,20.672536249999997h6.428571428571429v79.32746375h-6.428571428571429Z" fill="#D2D4CE"/><path d="M243.21428571428572,20.13009020833333h6.428571428571429v79.86990979166667h-6.428571428571429Z" fill="#D2D4CE"/><path d="M250.35714285714286,18.529918875000007h6.428571428571429v81.470081125h-6.428571428571429Z" fill="#D2D4CE"/><path d="M257.5,15.386010375000003h6.428571428571429v84.613989625h-6.428571428571429Z" fill="#D2D4CE"/><path d="M264.6428571428571,14.354518333333333h6.428571428571429v85.64548166666667h-6.428571428571429Z" fill="#D2D4CE"/><path d="M271.78571428571433,11.24866145833333h6.428571428571429v88.75133854166667h-6.428571428571429Z" fill="#D2D4CE"/><path d="M278.92857142857144,10.473385000000002h6.428571428571429v89.52661499999999h-6.428571428571429Z" fill="#D2D4CE"/><path d="M286.07142857142856,2.84036491666666h6.428571428571429v97.15963508333334h-6.428571428571429Z" fill="#D2D4CE"/><path d="M293.2142857142858,1.8971162500000083h6.428571428571429v98.10288374999999h-6.428571428571429Z" fill="#D2D4CE"/></g></g><path class="foreground" aria-hidden="true" d="" display="none"/></g></g></g></svg>