<svg xmlns="http://www.w3.org/2000/svg" xmlns:xlink="http://www.w3.org/1999/xlink" version="1.1" class="marks" width="310" height="110" ><g fill="none" stroke-miterlimit="10" transform="translate(5,5)"><g class="mark-group role-frame root" role="graphics-object" aria-roledescription="group mark container"><g transform="translate(0,0)"><path class="background" aria-hidden="true" d="M0,0h300v100h-300Z" stroke="#ddd" stroke-width="0"/><g><g class="mark-rect role-mark marks" role="graphics-symbol" aria-roledescription="rect mark container"><path d="M0.3571428571428612,55.10189141666666h6.428571428571429v44.89810858333334h-6.428571428571429Z" fill="#D2D4CE"/><path d="M7.500000000000004,49.14725779166667h6.428571428571429v50.85274220833333h-6.428571428571429Z" fill="#D2D4CE"/><path d="M14.642857142857148,44.21726766666666h6.428571428571429v55.78273233333334h-6.428571428571429Z" fill="#D2D4CE"/><path d="M21.785714285714292,43.86838970833333h6.428571428571429v56.13161029166667h-6.428571428571429Z" fill="#D2D4CE"/><path d="M28.928571428571434,42.735635625h6.428571428571429v57.264364375h-6.428571428571429Z" fill="#D2D4CE"/><path d="M36.07142857142858,41.908364541666664h6.428571428571429v58.091635458333336h-6.428571428571429Z" fill="#D2D4CE"/><path d="M43.21428571428572,40.96322070833334h6.428571428571429v59.03677929166666h-6.428571428571429Z" fill="#D2D4CE"/><path d="M50.35714285714286,40.69950274999999h6.428571428571429v59.30049725000001h-6.428571428571429Z" fill="#D2D4CE"/><path d="M57.50000000000001,40.50428929166666h6.428571428571429v59.49571070833334h-6.428571428571429Z" fill="#D2D4CE"/><path d="M64.64285714285715,40.15183925h6.428571428571429v59.84816075h-6.428571428571429Z" fill="#D2D4CE"/><path d="M71.78571428571429,39.67724441666667h6.428571428571429v60.32275558333333h-6.428571428571429Z" fill="#D2D4CE"/><path d="M78.92857142857143,39.567859000000006h6.428571428571429v60.432140999999994h-6.428571428571429Z" fill="#D2D4CE"/><path d="M86.07142857142858,39.01222308333333h6.428571428571429v60.98777691666667h-6.428571428571429Z" fill="#D2D4CE"/><path d="M93.21428571428572,38.64730470833333h6.428571428571429v61.35269529166667h-6.428571428571429Z" fill="#D2D4CE"/><path d="M100.35714285714286,37.01425625h6.428571428571429v62.98574375h-6.428571428571429Z" fill="#D2D4CE"/><path d="M107.50000000000001,35.916728208333325h6.428571428571429v64.08327179166668h-6.428571428571429Z" fill="#D2D4CE"/><path d="M114.64285714285715,35.774466h6.428571428571429v64.22553400000001h-6.428571428571429Z" fill="#D2D4CE"/><path d="M121.78571428571429,35.75665391666667h6.428571428571429v64.24334608333334h-6.428571428571429Z" fill="#D2D4CE"/><path d="M128.92857142857144,34.843818291666665h6.428571428571429v65.15618170833334h-6.428571428571429Z" fill="#D2D4CE"/><path d="M136.07142857142858,34.53555966666667h6.428571428571429v65.46444033333333h-6.428571428571429Z" fill="#D2D4CE"/><path d="M143.21428571428572,34.266107375h6.428571428571429v65.73389262500001h-6.428571428571429Z" fill="#D2D4CE"/><path d="M150.35714285714286,33.759982458333326h6.428571428571429v66.24001754166667h-6.428571428571429Z" fill="#D2D4CE"/><path d="M157.5,31.35335216666667h6.428571428571429v68.64664783333333h-6.428571428571429Z" fill="#D2D4CE"/><path d="M164.64285714285717,26.093620666666663h6.428571428571429v73.90637933333333h-6.428571428571429Z" fill="#D2D4CE"/><path d="M171.7857142857143,25.94113058333334h6.428571428571429v74.05886941666665h-6.428571428571429Z" fill="#D2D4CE"/><path d="M178.92857142857144,25.129014249999994h6.428571428571429v74.87098575h-6.428571428571429Z" fill="#D2D4CE"/><path d="M186.07142857142858,24.56512779166666h6.428571428571429v75.43487220833333h-6.428571428571429Z" fill="#D2D4CE"/><path d="M193.21428571428572,24.1646605h6.428571428571429v75.8353395h-6.428571428571429Z" fill="#D2D4CE"/><path d="M200.35714285714286,24.03842266666666h6.428571428571429v75.96157733333334h-6.428571428571429Z" fill="#D2D4CE"/><path d="M207.50000000000003,23.136231416666664h6.428571428571429v76.86376858333334h-6.428571428571429Z" fill="#D2D4CE"/><path d="M214.64285714285717,23.042363541666678h6.428571428571429v76.95763645833333h-6.428571428571429Z" fill="#00923E"/><path d="M221.7857142857143,22.893355874999997h6.428571428571429v77.106644125h-6.428571428571429Z" fill="#D2D4CE"/><path d="M228.92857142857144,22.74245945833333h6.428571428571429v77.25754054166667h-6.428571428571429Z" fill="#D2D4CE"/><path d="M236.07142857142858,22.662831041666674h6.428571428571429v77.33716895833332h-6.428571428571429Z" fill="#D2D4CE"/><path d="M243.21428571428572,22.22283070833333h6.428571428571429v77.77716929166667h-6.428571428571429Z" fill="#D2D4CE"/><path d="M250.35714285714286,21.156463958333337h6.428571428571429v78.84353604166667h-6.428571428571429Z" fill="#D2D4CE"/><path d="M257.5,16.629960333333337h6.428571428571429v83.37003966666666h-6.428571428571429Z" fill="#D2D4CE"/><path d="M264.6428571428571,15.097077666666669h6.428571428571429v84.90292233333334h-6.428571428571429Z" fill="#D2D4CE"/><path d="M271.78571428571433,13.761909541666661h6.428571428571429v86.23809045833335h-6.428571428571429Z" fill="#D2D4CE"/><path d="M278.92857142857144,12.933312625000005h6.428571428571429v87.066687375h-6.428571428571429Z" fill="#D2D4CE"/><path d="M286.07142857142856,5.584300791666664h6.428571428571429v94.41569920833334h-6.428571428571429Z" fill="#D2D4CE"/><path d="M293.2142857142858,4.9381496666666695h6.428571428571429v95.06185033333333h-6.428571428571429Z" fill="#D2D4CE"/></g></g><path class="foreground" aria-hidden="true" d="" display="none"/></g></g></g></svg>