<svg xmlns="http://www.w3.org/2000/svg" xmlns:xlink="http://www.w3.org/1999/xlink" version="1.1" class="marks" width="310" height="110" ><g fill="none" stroke-miterlimit="10" transform="translate(5,5)"><g class="mark-group role-frame root" role="graphics-object" aria-roledescription="group mark container"><g transform="translate(0,0)"><path class="background" aria-hidden="true" d="M0,0h300v100h-300Z" stroke="#ddd" stroke-width="0"/><g><g class="mark-rect role-mark marks" role="graphics-symbol" aria-roledescription="rect mark container"><path d="M0.3571428571428612,59.42307692307692h6.428571428571429v40.57692307692308h-6.428571428571429Z" fill="#D2D4CE"/><path d="M7.500000000000004,59.38461538461538h6.428571428571429v40.61538461538462h-6.428571428571429Z" fill="#D2D4CE"/><path d="M14.642857142857148,54.69230769230769h6.428571428571429v45.30769230769231h-6.428571428571429Z" fill="#D2D4CE"/><path d="M21.785714285714292,51.69230769230769h6.428571428571429v48.30769230769231h-6.428571428571429Z" fill="#D2D4CE"/><path d="M28.928571428571434,49.92307692307693h6.428571428571429v50.07692307692307h-6.428571428571429Z" fill="#D2D4CE"/><path d="M36.07142857142858,49.38461538461538h6.428571428571429v50.61538461538462h-6.428571428571429Z" fill="#D2D4CE"/><path d="M43.21428571428572,47.07692307692308h6.428571428571429v52.92307692307692h-6.428571428571429Z" fill="#D2D4CE"/><path d="M50.35714285714286,47h6.428571428571429v53h-6.428571428571429Z" fill="#D2D4CE"/><path d="M57.50000000000001,45.57692307692307h6.428571428571429v54.42307692307693h-6.428571428571429Z" fill="#D2D4CE"/><path d="M64.64285714285715,45.230769230769226h6.428571428571429v54.769230769230774h-6.428571428571429Z" fill="#D2D4CE"/><path d="M71.78571428571429,44.61538461538461h6.428571428571429v55.38461538461539h-6.428571428571429Z" fill="#D2D4CE"/><path d="M78.92857142857143,43.269230769230774h6.428571428571429v56.730769230769226h-6.428571428571429Z" fill="#D2D4CE"/><path d="M86.07142857142858,43.03846153846153h6.428571428571429v56.96153846153847h-6.428571428571429Z" fill="#D2D4CE"/><path d="M93.21428571428572,40.03846153846153h6.428571428571429v59.96153846153847h-6.428571428571429Z" fill="#D2D4CE"/><path d="M100.35714285714286,39.46153846153846h6.428571428571429v60.53846153846154h-6.428571428571429Z" fill="#D2D4CE"/><path d="M107.50000000000001,39.46153846153846h6.428571428571429v60.53846153846154h-6.428571428571429Z" fill="#D2D4CE"/><path d="M114.64285714285715,38.84615384615384h6.428571428571429v61.15384615384616h-6.428571428571429Z" fill="#D2D4CE"/><path d="M121.78571428571429,38.46153846153846h6.428571428571429v61.53846153846154h-6.428571428571429Z" fill="#D2D4CE"/><path d="M128.92857142857144,38.19230769230769h6.428571428571429v61.80769230769231h-6.428571428571429Z" fill="#D2D4CE"/><path d="M136.07142857142858,37.730769230769226h6.428571428571429v62.269230769230774h-6.428571428571429Z" fill="#D2D4CE"/><path d="M143.21428571428572,35.57692307692307h6.428571428571429v64.42307692307693h-6.428571428571429Z" fill="#D2D4CE"/><path d="M150.35714285714286,35.5h6.428571428571429v64.5h-6.428571428571429Z" fill="#D2D4CE"/><path d="M157.5,34.692307692307686h6.428571428571429v65.30769230769232h-6.428571428571429Z" fill="#D2D4CE"/><path d="M164.64285714285717,34.23076923076922h6.428571428571429v65.76923076923077h-6.428571428571429Z" fill="#D2D4CE"/><path d="M171.7857142857143,31.57692307692308h6.428571428571429v68.42307692307692h-6.428571428571429Z" fill="#D2D4CE"/><path d="M178.92857142857144,30.461538461538474h6.428571428571429v69.53846153846152h-6.428571428571429Z" fill="#D2D4CE"/><path d="M186.07142857142858,29.76923076923076h6.428571428571429v70.23076923076924h-6.428571428571429Z" fill="#D2D4CE"/><path d="M193.21428571428572,29.11538461538462h6.428571428571429v70.88461538461539h-6.428571428571429Z" fill="#D2D4CE"/><path d="M200.35714285714286,28.846153846153843h6.428571428571429v71.15384615384616h-6.428571428571429Z" fill="#D2D4CE"/><path d="M207.50000000000003,28.846153846153843h6.428571428571429v71.15384615384616h-6.428571428571429Z" fill="#D2D4CE"/><path d="M214.64285714285717,27.80769230769231h6.428571428571429v72.1923076923077h-6.428571428571429Z" fill="#00923E"/><path d="M221.7857142857143,27.230769230769226h6.428571428571429v72.76923076923077h-6.428571428571429Z" fill="#D2D4CE"/><path d="M228.92857142857144,27.15384615384615h6.428571428571429v72.84615384615385h-6.428571428571429Z" fill="#D2D4CE"/><path d="M236.07142857142858,26.96153846153847h6.428571428571429v73.03846153846153h-6.428571428571429Z" fill="#D2D4CE"/><path d="M243.21428571428572,24.538461538461533h6.428571428571429v75.46153846153847h-6.428571428571429Z" fill="#D2D4CE"/><path d="M250.35714285714286,24.5h6.428571428571429v75.5h-6.428571428571429Z" fill="#D2D4CE"/><path d="M257.5,24.269230769230766h6.428571428571429v75.73076923076923h-6.428571428571429Z" fill="#D2D4CE"/><path d="M264.6428571428571,19.653846153846153h6.428571428571429v80.34615384615384h-6.428571428571429Z" fill="#D2D4CE"/><path d="M271.78571428571433,17.999999999999993h6.428571428571429v82h-6.428571428571429Z" fill="#D2D4CE"/><path d="M278.92857142857144,17.11538461538461h6.428571428571429v82.88461538461539h-6.428571428571429Z" fill="#D2D4CE"/><path d="M286.07142857142856,8.192307692307688h6.428571428571429v91.8076923076923h-6.428571428571429Z" fill="#D2D4CE"/><path d="M293.2142857142858,6.653846153846155h6.428571428571429v93.34615384615384h-6.428571428571429Z" fill="#D2D4CE"/></g></g><path class="foreground" aria-hidden="true" d="" display="none"/></g></g></g></svg>