<svg xmlns="http://www.w3.org/2000/svg" xmlns:xlink="http://www.w3.org/1999/xlink" version="1.1" class="marks" width="310" height="110" ><g fill="none" stroke-miterlimit="10" transform="translate(5,5)"><g class="mark-group role-frame root" role="graphics-object" aria-roledescription="group mark container"><g transform="translate(0,0)"><path class="background" aria-hidden="true" d="M0,0h300v100h-300Z" stroke="#ddd" stroke-width="0"/><g><g class="mark-rect role-mark marks" role="graphics-symbol" aria-roledescription="rect mark container"><path d="M0.3571428571428612,95.625h6.428571428571429v4.375h-6.428571428571429Z" fill="#D2D4CE"/><path d="M7.500000000000004,94.625h6.428571428571429v5.375h-6.428571428571429Z" fill="#D2D4CE"/><path d="M14.642857142857148,94.625h6.428571428571429v5.375h-6.428571428571429Z" fill="#D2D4CE"/><path d="M21.785714285714292,92.5625h6.428571428571429v7.4375h-6.428571428571429Z" fill="#D2D4CE"/><path d="M28.928571428571434,92h6.428571428571429v8h-6.428571428571429Z" fill="#D2D4CE"/><path d="M36.07142857142858,91.3125h6.428571428571429v8.6875h-6.428571428571429Z" fill="#D2D4CE"/><path d="M43.21428571428572,91.125h6.428571428571429v8.875h-6.428571428571429Z" fill="#D2D4CE"/><path d="M50.35714285714286,88.5h6.428571428571429v11.5h-6.428571428571429Z" fill="#D2D4CE"/><path d="M57.50000000000001,87.1875h6.428571428571429v12.8125h-6.428571428571429Z" fill="#D2D4CE"/><path d="M64.64285714285715,87.0625h6.428571428571429v12.9375h-6.428571428571429Z" fill="#D2D4CE"/><path d="M71.78571428571429,86.625h6.428571428571429v13.375h-6.428571428571429Z" fill="#D2D4CE"/><path d="M78.92857142857143,86.5625h6.428571428571429v13.4375h-6.428571428571429Z" fill="#D2D4CE"/><path d="M86.07142857142858,83.1875h6.428571428571429v16.8125h-6.428571428571429Z" fill="#D2D4CE"/><path d="M93.21428571428572,82.9375h6.428571428571429v17.0625h-6.428571428571429Z" fill="#D2D4CE"/><path d="M100.35714285714286,82.75h6.428571428571429v17.25h-6.428571428571429Z" fill="#D2D4CE"/><path d="M107.50000000000001,82.6875h6.428571428571429v17.3125h-6.428571428571429Z" fill="#D2D4CE"/><path d="M114.64285714285715,82.3125h6.428571428571429v17.6875h-6.428571428571429Z" fill="#D2D4CE"/><path d="M121.78571428571429,82.0625h6.428571428571429v17.9375h-6.428571428571429Z" fill="#D2D4CE"/><path d="M128.92857142857144,81.9375h6.428571428571429v18.0625h-6.428571428571429Z" fill="#D2D4CE"/><path d="M136.07142857142858,81.9375h6.428571428571429v18.0625h-6.428571428571429Z" fill="#D2D4CE"/><path d="M143.21428571428572,80.875h6.428571428571429v19.125h-6.428571428571429Z" fill="#D2D4CE"/><path d="M150.35714285714286,78.5625h6.428571428571429v21.4375h-6.428571428571429Z" fill="#D2D4CE"/><path d="M157.5,77.375h6.428571428571429v22.625h-6.428571428571429Z" fill="#D2D4CE"/><path d="M164.64285714285717,74.5625h6.428571428571429v25.4375h-6.428571428571429Z" fill="#D2D4CE"/><path d="M171.7857142857143,73.375h6.428571428571429v26.625h-6.428571428571429Z" fill="#D2D4CE"/><path d="M178.92857142857144,69.6875h6.428571428571429v30.3125h-6.428571428571429Z" fill="#D2D4CE"/><path d="M186.07142857142858,69.375h6.428571428571429v30.625h-6.428571428571429Z" fill="#D2D4CE"/><path d="M193.21428571428572,66.375h6.428571428571429v33.625h-6.428571428571429Z" fill="#D2D4CE"/><path d="M200.35714285714286,62.375h6.428571428571429v37.625h-6.428571428571429Z" fill="#00923E"/><path d="M207.50000000000003,60.75000000000001h6.428571428571429v39.24999999999999h-6.428571428571429Z" fill="#D2D4CE"/><path d="M214.64285714285717,60.62499999999999h6.428571428571429v39.37500000000001h-6.428571428571429Z" fill="#D2D4CE"/><path d="M221.7857142857143,58.18749999999999h6.428571428571429v41.81250000000001h-6.428571428571429Z" fill="#D2D4CE"/><path d="M228.92857142857144,53.37500000000001h6.428571428571429v46.62499999999999h-6.428571428571429Z" fill="#D2D4CE"/><path d="M236.07142857142858,46.56249999999999h6.428571428571429v53.43750000000001h-6.428571428571429Z" fill="#D2D4CE"/><path d="M243.21428571428572,39.5625h6.428571428571429v60.4375h-6.428571428571429Z" fill="#D2D4CE"/><path d="M250.35714285714286,37.375h6.428571428571429v62.625h-6.428571428571429Z" fill="#D2D4CE"/><path d="M257.5,32.62500000000001h6.428571428571429v67.375h-6.428571428571429Z" fill="#D2D4CE"/><path d="M264.6428571428571,30.000000000000004h6.428571428571429v70h-6.428571428571429Z" fill="#D2D4CE"/><path d="M271.78571428571433,24.124999999999996h6.428571428571429v75.875h-6.428571428571429Z" fill="#D2D4CE"/><path d="M278.92857142857144,21.9375h6.428571428571429v78.0625h-6.428571428571429Z" fill="#D2D4CE"/><path d="M286.07142857142856,18.6875h6.428571428571429v81.3125h-6.428571428571429Z" fill="#D2D4CE"/><path d="M293.2142857142858,11.562499999999998h6.428571428571429v88.4375h-6.428571428571429Z" fill="#D2D4CE"/></g></g><path class="foreground" aria-hidden="true" d="" display="none"/></g></g></g></svg>