<svg xmlns="http://www.w3.org/2000/svg" xmlns:xlink="http://www.w3.org/1999/xlink" version="1.1" class="marks" width="310" height="110" ><g fill="none" stroke-miterlimit="10" transform="translate(5,5)"><g class="mark-group role-frame root" role="graphics-object" aria-roledescription="group mark container"><g transform="translate(0,0)"><path class="background" aria-hidden="true" d="M0,0h300v100h-300Z" stroke="#ddd" stroke-width="0"/><g><g class="mark-rect role-mark marks" role="graphics-symbol" aria-roledescription="rect mark container"><path d="M0.3571428571428612,96.66666666666667h6.428571428571429v3.3333333333333286h-6.428571428571429Z" fill="#D2D4CE"/><path d="M7.500000000000004,93.33333333333333h6.428571428571429v6.666666666666671h-6.428571428571429Z" fill="#D2D4CE"/><path d="M14.642857142857148,90.22222222222223h6.428571428571429v9.777777777777771h-6.428571428571429Z" fill="#D2D4CE"/><path d="M21.785714285714292,89.55555555555556h6.428571428571429v10.444444444444443h-6.428571428571429Z" fill="#D2D4CE"/><path d="M28.928571428571434,89.33333333333333h6.428571428571429v10.666666666666671h-6.428571428571429Z" fill="#D2D4CE"/><path d="M36.07142857142858,88.66666666666667h6.428571428571429v11.333333333333329h-6.428571428571429Z" fill="#D2D4CE"/><path d="M43.21428571428572,87.55555555555556h6.428571428571429v12.444444444444443h-6.428571428571429Z" fill="#D2D4CE"/><path d="M50.35714285714286,87.55555555555556h6.428571428571429v12.444444444444443h-6.428571428571429Z" fill="#D2D4CE"/><path d="M57.50000000000001,87.11111111111111h6.428571428571429v12.888888888888886h-6.428571428571429Z" fill="#D2D4CE"/><path d="M64.64285714285715,86h6.428571428571429v14h-6.428571428571429Z" fill="#D2D4CE"/><path d="M71.78571428571429,85.77777777777777h6.428571428571429v14.222222222222229h-6.428571428571429Z" fill="#00923E"/><path d="M78.92857142857143,85.33333333333333h6.428571428571429v14.666666666666671h-6.428571428571429Z" fill="#D2D4CE"/><path d="M86.07142857142858,85.11111111111111h6.428571428571429v14.888888888888886h-6.428571428571429Z" fill="#D2D4CE"/><path d="M93.21428571428572,81.11111111111111h6.428571428571429v18.888888888888886h-6.428571428571429Z" fill="#D2D4CE"/><path d="M100.35714285714286,80h6.428571428571429v20h-6.428571428571429Z" fill="#D2D4CE"/><path d="M107.50000000000001,80h6.428571428571429v20h-6.428571428571429Z" fill="#D2D4CE"/><path d="M114.64285714285715,79.11111111111111h6.428571428571429v20.888888888888886h-6.428571428571429Z" fill="#D2D4CE"/><path d="M121.78571428571429,77.77777777777779h6.428571428571429v22.222222222222214h-6.428571428571429Z" fill="#D2D4CE"/><path d="M128.92857142857144,75.55555555555556h6.428571428571429v24.444444444444443h-6.428571428571429Z" fill="#D2D4CE"/><path d="M136.07142857142858,74.8888888888889h6.428571428571429v25.1111111111111h-6.428571428571429Z" fill="#D2D4CE"/><path d="M143.21428571428572,72.22222222222221h6.428571428571429v27.777777777777786h-6.428571428571429Z" fill="#D2D4CE"/><path d="M150.35714285714286,69.33333333333334h6.428571428571429v30.666666666666657h-6.428571428571429Z" fill="#D2D4CE"/><path d="M157.5,66.66666666666667h6.428571428571429v33.33333333333333h-6.428571428571429Z" fill="#D2D4CE"/><path d="M164.64285714285717,66.44444444444444h6.428571428571429v33.55555555555556h-6.428571428571429Z" fill="#D2D4CE"/><path d="M171.7857142857143,65.55555555555556h6.428571428571429v34.44444444444444h-6.428571428571429Z" fill="#D2D4CE"/><path d="M178.92857142857144,64.22222222222223h6.428571428571429v35.77777777777777h-6.428571428571429Z" fill="#D2D4CE"/><path d="M186.07142857142858,60h6.428571428571429v40h-6.428571428571429Z" fill="#D2D4CE"/><path d="M193.21428571428572,56.222222222222214h6.428571428571429v43.777777777777786h-6.428571428571429Z" fill="#D2D4CE"/><path d="M200.35714285714286,56.00000000000001h6.428571428571429v43.99999999999999h-6.428571428571429Z" fill="#D2D4CE"/><path d="M207.50000000000003,54.44444444444445h6.428571428571429v45.55555555555555h-6.428571428571429Z" fill="#D2D4CE"/><path d="M214.64285714285717,45.111111111111114h6.428571428571429v54.888888888888886h-6.428571428571429Z" fill="#D2D4CE"/><path d="M221.7857142857143,38.66666666666666h6.428571428571429v61.33333333333334h-6.428571428571429Z" fill="#D2D4CE"/><path d="M228.92857142857144,36.22222222222222h6.428571428571429v63.77777777777778h-6.428571428571429Z" fill="#D2D4CE"/><path d="M236.07142857142858,27.77777777777778h6.428571428571429v72.22222222222223h-6.428571428571429Z" fill="#D2D4CE"/><path d="M243.21428571428572,26h6.428571428571429v74h-6.428571428571429Z" fill="#D2D4CE"/><path d="M250.35714285714286,24.66666666666667h6.428571428571429v75.33333333333333h-6.428571428571429Z" fill="#D2D4CE"/><path d="M257.5,23.555555555555564h6.428571428571429v76.44444444444443h-6.428571428571429Z" fill="#D2D4CE"/><path d="M264.6428571428571,18.000000000000004h6.428571428571429v82h-6.428571428571429Z" fill="#D2D4CE"/><path d="M271.78571428571433,13.111111111111107h6.428571428571429v86.88888888888889h-6.428571428571429Z" fill="#D2D4CE"/><path d="M278.92857142857144,12.888888888888882h6.428571428571429v87.11111111111111h-6.428571428571429Z" fill="#D2D4CE"/><path d="M286.07142857142856,12.444444444444446h6.428571428571429v87.55555555555556h-6.428571428571429Z" fill="#D2D4CE"/><path d="M293.2142857142858,9.55555555555555h6.428571428571429v90.44444444444446h-6.428571428571429Z" fill="#D2D4CE"/></g></g><path class="foreground" aria-hidden="true" d="" display="none"/></g></g></g></svg>