<svg xmlns="http://www.w3.org/2000/svg" xmlns:xlink="http://www.w3.org/1999/xlink" version="1.1" class="marks" width="310" height="110" ><g fill="none" stroke-miterlimit="10" transform="translate(5,5)"><g class="mark-group role-frame root" role="graphics-object" aria-roledescription="group mark container"><g transform="translate(0,0)"><path class="background" aria-hidden="true" d="M0,0h300v100h-300Z" stroke="#ddd" stroke-width="0"/><g><g class="mark-rect role-mark marks" role="graphics-symbol" aria-roledescription="rect mark container"><path d="M0.3571428571428612,61.875h6.428571428571429v38.125h-6.428571428571429Z" fill="#D2D4CE"/><path d="M7.500000000000004,61.875h6.428571428571429v38.125h-6.428571428571429Z" fill="#D2D4CE"/><path d="M14.642857142857148,51.125h6.428571428571429v48.875h-6.428571428571429Z" fill="#D2D4CE"/><path d="M21.785714285714292,51.125h6.428571428571429v48.875h-6.428571428571429Z" fill="#D2D4CE"/><path d="M28.928571428571434,48.25000000000001h6.428571428571429v51.74999999999999h-6.428571428571429Z" fill="#D2D4CE"/><path d="M36.07142857142858,46.375h6.428571428571429v53.625h-6.428571428571429Z" fill="#D2D4CE"/><path d="M43.21428571428572,46.375h6.428571428571429v53.625h-6.428571428571429Z" fill="#D2D4CE"/><path d="M50.35714285714286,45.875h6.428571428571429v54.125h-6.428571428571429Z" fill="#D2D4CE"/><path d="M57.50000000000001,41.5h6.428571428571429v58.5h-6.428571428571429Z" fill="#D2D4CE"/><path d="M64.64285714285715,38.74999999999999h6.428571428571429v61.25000000000001h-6.428571428571429Z" fill="#D2D4CE"/><path d="M71.78571428571429,38.125h6.428571428571429v61.875h-6.428571428571429Z" fill="#D2D4CE"/><path d="M78.92857142857143,35.12500000000001h6.428571428571429v64.875h-6.428571428571429Z" fill="#D2D4CE"/><path d="M86.07142857142858,34.875h6.428571428571429v65.125h-6.428571428571429Z" fill="#D2D4CE"/><path d="M93.21428571428572,33.75h6.428571428571429v66.25h-6.428571428571429Z" fill="#D2D4CE"/><path d="M100.35714285714286,33.5h6.428571428571429v66.5h-6.428571428571429Z" fill="#D2D4CE"/><path d="M107.50000000000001,33.5h6.428571428571429v66.5h-6.428571428571429Z" fill="#00923E"/><path d="M114.64285714285715,33.5h6.428571428571429v66.5h-6.428571428571429Z" fill="#D2D4CE"/><path d="M121.78571428571429,31.624999999999993h6.428571428571429v68.375h-6.428571428571429Z" fill="#D2D4CE"/><path d="M128.92857142857144,26h6.428571428571429v74h-6.428571428571429Z" fill="#D2D4CE"/><path d="M136.07142857142858,22.875h6.428571428571429v77.125h-6.428571428571429Z" fill="#D2D4CE"/><path d="M143.21428571428572,21.124999999999993h6.428571428571429v78.875h-6.428571428571429Z" fill="#D2D4CE"/><path d="M150.35714285714286,20.625000000000004h6.428571428571429v79.375h-6.428571428571429Z" fill="#D2D4CE"/><path d="M157.5,17.62499999999999h6.428571428571429v82.37500000000001h-6.428571428571429Z" fill="#D2D4CE"/><path d="M164.64285714285717,17.375000000000007h6.428571428571429v82.625h-6.428571428571429Z" fill="#D2D4CE"/><path d="M171.7857142857143,17.25h6.428571428571429v82.75h-6.428571428571429Z" fill="#D2D4CE"/><path d="M178.92857142857144,16.999999999999993h6.428571428571429v83h-6.428571428571429Z" fill="#D2D4CE"/><path d="M186.07142857142858,16.249999999999996h6.428571428571429v83.75h-6.428571428571429Z" fill="#D2D4CE"/><path d="M193.21428571428572,16.249999999999996h6.428571428571429v83.75h-6.428571428571429Z" fill="#D2D4CE"/><path d="M200.35714285714286,16.249999999999996h6.428571428571429v83.75h-6.428571428571429Z" fill="#D2D4CE"/><path d="M207.50000000000003,16.12500000000001h6.428571428571429v83.87499999999999h-6.428571428571429Z" fill="#D2D4CE"/><path d="M214.64285714285717,15.250000000000007h6.428571428571429v84.75h-6.428571428571429Z" fill="#D2D4CE"/><path d="M221.7857142857143,15.250000000000007h6.428571428571429v84.75h-6.428571428571429Z" fill="#D2D4CE"/><path d="M228.92857142857144,14.124999999999998h6.428571428571429v85.875h-6.428571428571429Z" fill="#D2D4CE"/><path d="M236.07142857142858,11.875000000000002h6.428571428571429v88.125h-6.428571428571429Z" fill="#D2D4CE"/><path d="M243.21428571428572,9.999999999999998h6.428571428571429v90h-6.428571428571429Z" fill="#D2D4CE"/><path d="M250.35714285714286,9.87500000000001h6.428571428571429v90.12499999999999h-6.428571428571429Z" fill="#D2D4CE"/><path d="M257.5,9.87500000000001h6.428571428571429v90.12499999999999h-6.428571428571429Z" fill="#D2D4CE"/><path d="M264.6428571428571,9.625000000000005h6.428571428571429v90.375h-6.428571428571429Z" fill="#D2D4CE"/><path d="M271.78571428571433,9.124999999999995h6.428571428571429v90.875h-6.428571428571429Z" fill="#D2D4CE"/><path d="M278.92857142857144,9.000000000000007h6.428571428571429v91h-6.428571428571429Z" fill="#D2D4CE"/><path d="M286.07142857142856,6.374999999999997h6.428571428571429v93.625h-6.428571428571429Z" fill="#D2D4CE"/><path d="M293.2142857142858,5.124999999999991h6.428571428571429v94.87500000000001h-6.428571428571429Z" fill="#D2D4CE"/></g></g><path class="foreground" aria-hidden="true" d="" display="none"/></g></g></g></svg>