<svg xmlns="http://www.w3.org/2000/svg" xmlns:xlink="http://www.w3.org/1999/xlink" version="1.1" class="marks" width="310" height="110" ><g fill="none" stroke-miterlimit="10" transform="translate(5,5)"><g class="mark-group role-frame root" role="graphics-object" aria-roledescription="group mark container"><g transform="translate(0,0)"><path class="background" aria-hidden="true" d="M0,0h300v100h-300Z" stroke="#ddd" stroke-width="0"/><g><g class="mark-rect role-mark marks" role="graphics-symbol" aria-roledescription="rect mark container"><path d="M0.3571428571428612,80h6.428571428571429v20h-6.428571428571429Z" fill="#D2D4CE"/><path d="M7.500000000000004,80h6.428571428571429v20h-6.428571428571429Z" fill="#D2D4CE"/><path d="M14.642857142857148,78.44444444444446h6.428571428571429v21.555555555555543h-6.428571428571429Z" fill="#D2D4CE"/><path d="M21.785714285714292,78.44444444444446h6.428571428571429v21.555555555555543h-6.428571428571429Z" fill="#D2D4CE"/><path d="M28.928571428571434,68h6.428571428571429v32h-6.428571428571429Z" fill="#D2D4CE"/><path d="M36.07142857142858,68h6.428571428571429v32h-6.428571428571429Z" fill="#D2D4CE"/><path d="M43.21428571428572,66.44444444444444h6.428571428571429v33.55555555555556h-6.428571428571429Z" fill="#D2D4CE"/><path d="M50.35714285714286,65.99999999999999h6.428571428571429v34.000000000000014h-6.428571428571429Z" fill="#D2D4CE"/><path d="M57.50000000000001,64.66666666666667h6.428571428571429v35.33333333333333h-6.428571428571429Z" fill="#D2D4CE"/><path d="M64.64285714285715,60.66666666666667h6.428571428571429v39.33333333333333h-6.428571428571429Z" fill="#D2D4CE"/><path d="M71.78571428571429,58.88888888888889h6.428571428571429v41.11111111111111h-6.428571428571429Z" fill="#D2D4CE"/><path d="M78.92857142857143,57.333333333333336h6.428571428571429v42.666666666666664h-6.428571428571429Z" fill="#D2D4CE"/><path d="M86.07142857142858,54.666666666666664h6.428571428571429v45.333333333333336h-6.428571428571429Z" fill="#D2D4CE"/><path d="M93.21428571428572,54.666666666666664h6.428571428571429v45.333333333333336h-6.428571428571429Z" fill="#D2D4CE"/><path d="M100.35714285714286,54h6.428571428571429v46h-6.428571428571429Z" fill="#D2D4CE"/><path d="M107.50000000000001,53.55555555555556h6.428571428571429v46.44444444444444h-6.428571428571429Z" fill="#D2D4CE"/><path d="M114.64285714285715,52.222222222222214h6.428571428571429v47.777777777777786h-6.428571428571429Z" fill="#D2D4CE"/><path d="M121.78571428571429,50.44444444444445h6.428571428571429v49.55555555555555h-6.428571428571429Z" fill="#D2D4CE"/><path d="M128.92857142857144,43.333333333333336h6.428571428571429v56.666666666666664h-6.428571428571429Z" fill="#D2D4CE"/><path d="M136.07142857142858,42.44444444444445h6.428571428571429v57.55555555555555h-6.428571428571429Z" fill="#D2D4CE"/><path d="M143.21428571428572,40.888888888888886h6.428571428571429v59.111111111111114h-6.428571428571429Z" fill="#D2D4CE"/><path d="M150.35714285714286,40.888888888888886h6.428571428571429v59.111111111111114h-6.428571428571429Z" fill="#D2D4CE"/><path d="M157.5,40h6.428571428571429v60h-6.428571428571429Z" fill="#D2D4CE"/><path d="M164.64285714285717,36.66666666666667h6.428571428571429v63.33333333333333h-6.428571428571429Z" fill="#D2D4CE"/><path d="M171.7857142857143,35.111111111111114h6.428571428571429v64.88888888888889h-6.428571428571429Z" fill="#D2D4CE"/><path d="M178.92857142857144,34.44444444444444h6.428571428571429v65.55555555555556h-6.428571428571429Z" fill="#D2D4CE"/><path d="M186.07142857142858,34.22222222222222h6.428571428571429v65.77777777777777h-6.428571428571429Z" fill="#D2D4CE"/><path d="M193.21428571428572,33.333333333333336h6.428571428571429v66.66666666666666h-6.428571428571429Z" fill="#D2D4CE"/><path d="M200.35714285714286,33.333333333333336h6.428571428571429v66.66666666666666h-6.428571428571429Z" fill="#D2D4CE"/><path d="M207.50000000000003,33.111111111111114h6.428571428571429v66.88888888888889h-6.428571428571429Z" fill="#D2D4CE"/><path d="M214.64285714285717,28.222222222222225h6.428571428571429v71.77777777777777h-6.428571428571429Z" fill="#D2D4CE"/><path d="M221.7857142857143,28.222222222222225h6.428571428571429v71.77777777777777h-6.428571428571429Z" fill="#D2D4CE"/><path d="M228.92857142857144,27.77777777777778h6.428571428571429v72.22222222222223h-6.428571428571429Z" fill="#D2D4CE"/><path d="M236.07142857142858,24.66666666666667h6.428571428571429v75.33333333333333h-6.428571428571429Z" fill="#D2D4CE"/><path d="M243.21428571428572,24.66666666666667h6.428571428571429v75.33333333333333h-6.428571428571429Z" fill="#D2D4CE"/><path d="M250.35714285714286,23.111111111111104h6.428571428571429v76.8888888888889h-6.428571428571429Z" fill="#D2D4CE"/><path d="M257.5,17.777777777777782h6.428571428571429v82.22222222222221h-6.428571428571429Z" fill="#D2D4CE"/><path d="M264.6428571428571,17.11111111111112h6.428571428571429v82.88888888888889h-6.428571428571429Z" fill="#D2D4CE"/><path d="M271.78571428571433,17.11111111111112h6.428571428571429v82.88888888888889h-6.428571428571429Z" fill="#00923E"/><path d="M278.92857142857144,17.11111111111112h6.428571428571429v82.88888888888889h-6.428571428571429Z" fill="#D2D4CE"/><path d="M286.07142857142856,13.111111111111107h6.428571428571429v86.88888888888889h-6.428571428571429Z" fill="#D2D4CE"/><path d="M293.2142857142858,3.5555555555555562h6.428571428571429v96.44444444444444h-6.428571428571429Z" fill="#D2D4CE"/></g></g><path class="foreground" aria-hidden="true" d="" display="none"/></g></g></g></svg>