<svg xmlns="http://www.w3.org/2000/svg" xmlns:xlink="http://www.w3.org/1999/xlink" version="1.1" class="marks" width="310" height="110" ><g fill="none" stroke-miterlimit="10" transform="translate(5,5)"><g class="mark-group role-frame root" role="graphics-object" aria-roledescription="group mark container"><g transform="translate(0,0)"><path class="background" aria-hidden="true" d="M0,0h300v100h-300Z" stroke="#ddd" stroke-width="0"/><g><g class="mark-rect role-mark marks" role="graphics-symbol" aria-roledescription="rect mark container"><path d="M0.3571428571428612,71.61818181818182h6.428571428571429v28.381818181818176h-6.428571428571429Z" fill="#D2D4CE"/><path d="M7.500000000000004,71.43636363636364h6.428571428571429v28.563636363636363h-6.428571428571429Z" fill="#D2D4CE"/><path d="M14.642857142857148,63.47272727272728h6.428571428571429v36.52727272727272h-6.428571428571429Z" fill="#D2D4CE"/><path d="M21.785714285714292,63.29090909090909h6.428571428571429v36.70909090909091h-6.428571428571429Z" fill="#D2D4CE"/><path d="M28.928571428571434,62.163636363636364h6.428571428571429v37.836363636363636h-6.428571428571429Z" fill="#D2D4CE"/><path d="M36.07142857142858,62.10909090909092h6.428571428571429v37.89090909090908h-6.428571428571429Z" fill="#D2D4CE"/><path d="M43.21428571428572,61.27272727272728h6.428571428571429v38.72727272727272h-6.428571428571429Z" fill="#D2D4CE"/><path d="M50.35714285714286,59.472727272727276h6.428571428571429v40.527272727272724h-6.428571428571429Z" fill="#D2D4CE"/><path d="M57.50000000000001,58.83636363636364h6.428571428571429v41.16363636363636h-6.428571428571429Z" fill="#D2D4CE"/><path d="M64.64285714285715,57.16363636363637h6.428571428571429v42.83636363636363h-6.428571428571429Z" fill="#D2D4CE"/><path d="M71.78571428571429,56.400000000000006h6.428571428571429v43.599999999999994h-6.428571428571429Z" fill="#D2D4CE"/><path d="M78.92857142857143,54.836363636363636h6.428571428571429v45.163636363636364h-6.428571428571429Z" fill="#D2D4CE"/><path d="M86.07142857142858,53.61818181818181h6.428571428571429v46.38181818181819h-6.428571428571429Z" fill="#D2D4CE"/><path d="M93.21428571428572,53.25454545454546h6.428571428571429v46.74545454545454h-6.428571428571429Z" fill="#D2D4CE"/><path d="M100.35714285714286,52.52727272727273h6.428571428571429v47.47272727272727h-6.428571428571429Z" fill="#D2D4CE"/><path d="M107.50000000000001,51.85454545454545h6.428571428571429v48.14545454545455h-6.428571428571429Z" fill="#D2D4CE"/><path d="M114.64285714285715,51.654545454545456h6.428571428571429v48.345454545454544h-6.428571428571429Z" fill="#D2D4CE"/><path d="M121.78571428571429,50.2h6.428571428571429v49.8h-6.428571428571429Z" fill="#D2D4CE"/><path d="M128.92857142857144,49.52727272727272h6.428571428571429v50.47272727272728h-6.428571428571429Z" fill="#D2D4CE"/><path d="M136.07142857142858,49.38181818181818h6.428571428571429v50.61818181818182h-6.428571428571429Z" fill="#D2D4CE"/><path d="M143.21428571428572,48.92727272727273h6.428571428571429v51.07272727272727h-6.428571428571429Z" fill="#D2D4CE"/><path d="M150.35714285714286,46.78181818181818h6.428571428571429v53.21818181818182h-6.428571428571429Z" fill="#D2D4CE"/><path d="M157.5,46.05454545454545h6.428571428571429v53.94545454545455h-6.428571428571429Z" fill="#D2D4CE"/><path d="M164.64285714285717,46h6.428571428571429v54h-6.428571428571429Z" fill="#D2D4CE"/><path d="M171.7857142857143,45.14545454545454h6.428571428571429v54.85454545454546h-6.428571428571429Z" fill="#D2D4CE"/><path d="M178.92857142857144,43.63636363636364h6.428571428571429v56.36363636363636h-6.428571428571429Z" fill="#D2D4CE"/><path d="M186.07142857142858,42.54545454545454h6.428571428571429v57.45454545454546h-6.428571428571429Z" fill="#D2D4CE"/><path d="M193.21428571428572,42.14545454545454h6.428571428571429v57.85454545454546h-6.428571428571429Z" fill="#D2D4CE"/><path d="M200.35714285714286,39.29090909090909h6.428571428571429v60.70909090909091h-6.428571428571429Z" fill="#D2D4CE"/><path d="M207.50000000000003,36.98181818181819h6.428571428571429v63.01818181818181h-6.428571428571429Z" fill="#D2D4CE"/><path d="M214.64285714285717,36.27272727272728h6.428571428571429v63.72727272727272h-6.428571428571429Z" fill="#00923E"/><path d="M221.7857142857143,35.36363636363637h6.428571428571429v64.63636363636363h-6.428571428571429Z" fill="#D2D4CE"/><path d="M228.92857142857144,32.76363636363637h6.428571428571429v67.23636363636362h-6.428571428571429Z" fill="#D2D4CE"/><path d="M236.07142857142858,32.4h6.428571428571429v67.6h-6.428571428571429Z" fill="#D2D4CE"/><path d="M243.21428571428572,30.10909090909092h6.428571428571429v69.89090909090908h-6.428571428571429Z" fill="#D2D4CE"/><path d="M250.35714285714286,25.763636363636365h6.428571428571429v74.23636363636363h-6.428571428571429Z" fill="#D2D4CE"/><path d="M257.5,23h6.428571428571429v77h-6.428571428571429Z" fill="#D2D4CE"/><path d="M264.6428571428571,21.545454545454547h6.428571428571429v78.45454545454545h-6.428571428571429Z" fill="#D2D4CE"/><path d="M271.78571428571433,20.23636363636364h6.428571428571429v79.76363636363635h-6.428571428571429Z" fill="#D2D4CE"/><path d="M278.92857142857144,16.94545454545454h6.428571428571429v83.05454545454546h-6.428571428571429Z" fill="#D2D4CE"/><path d="M286.07142857142856,15.8909090909091h6.428571428571429v84.1090909090909h-6.428571428571429Z" fill="#D2D4CE"/><path d="M293.2142857142858,3.1999999999999917h6.428571428571429v96.80000000000001h-6.428571428571429Z" fill="#D2D4CE"/></g></g><path class="foreground" aria-hidden="true" d="" display="none"/></g></g></g></svg>