<svg xmlns="http://www.w3.org/2000/svg" xmlns:xlink="http://www.w3.org/1999/xlink" version="1.1" class="marks" width="310" height="110" ><g fill="none" stroke-miterlimit="10" transform="translate(5,5)"><g class="mark-group role-frame root" role="graphics-object" aria-roledescription="group mark container"><g transform="translate(0,0)"><path class="background" aria-hidden="true" d="M0,0h300v100h-300Z" stroke="#ddd" stroke-width="0"/><g><g class="mark-rect role-mark marks" role="graphics-symbol" aria-roledescription="rect mark container"><path d="M0.3571428571428612,22.971428571428564h6.428571428571429v77.02857142857144h-6.428571428571429Z" fill="#D2D4CE"/><path d="M7.500000000000004,21.000000000000007h6.428571428571429v79h-6.428571428571429Z" fill="#D2D4CE"/><path d="M14.642857142857148,20.82857142857143h6.428571428571429v79.17142857142858h-6.428571428571429Z" fill="#D2D4CE"/><path d="M21.785714285714292,20.74285714285715h6.428571428571429v79.25714285714285h-6.428571428571429Z" fill="#D2D4CE"/><path d="M28.928571428571434,20.485714285714295h6.428571428571429v79.5142857142857h-6.428571428571429Z" fill="#D2D4CE"/><path d="M36.07142857142858,19.05714285714286h6.428571428571429v80.94285714285714h-6.428571428571429Z" fill="#D2D4CE"/><path d="M43.21428571428572,18.600000000000005h6.428571428571429v81.39999999999999h-6.428571428571429Z" fill="#D2D4CE"/><path d="M50.35714285714286,18.457142857142863h6.428571428571429v81.54285714285714h-6.428571428571429Z" fill="#D2D4CE"/><path d="M57.50000000000001,17.742857142857147h6.428571428571429v82.25714285714285h-6.428571428571429Z" fill="#D2D4CE"/><path d="M64.64285714285715,17.600000000000005h6.428571428571429v82.39999999999999h-6.428571428571429Z" fill="#D2D4CE"/><path d="M71.78571428571429,17.37142857142857h6.428571428571429v82.62857142857143h-6.428571428571429Z" fill="#D2D4CE"/><path d="M78.92857142857143,17.34285714285715h6.428571428571429v82.65714285714284h-6.428571428571429Z" fill="#D2D4CE"/><path d="M86.07142857142858,17.228571428571428h6.428571428571429v82.77142857142857h-6.428571428571429Z" fill="#D2D4CE"/><path d="M93.21428571428572,16.685714285714283h6.428571428571429v83.31428571428572h-6.428571428571429Z" fill="#D2D4CE"/><path d="M100.35714285714286,16.28571428571428h6.428571428571429v83.71428571428572h-6.428571428571429Z" fill="#D2D4CE"/><path d="M107.50000000000001,16.057142857142857h6.428571428571429v83.94285714285715h-6.428571428571429Z" fill="#D2D4CE"/><path d="M114.64285714285715,16.057142857142857h6.428571428571429v83.94285714285715h-6.428571428571429Z" fill="#D2D4CE"/><path d="M121.78571428571429,15.828571428571426h6.428571428571429v84.17142857142858h-6.428571428571429Z" fill="#D2D4CE"/><path d="M128.92857142857144,15.800000000000002h6.428571428571429v84.2h-6.428571428571429Z" fill="#D2D4CE"/><path d="M136.07142857142858,15.771428571428569h6.428571428571429v84.22857142857143h-6.428571428571429Z" fill="#D2D4CE"/><path d="M143.21428571428572,15.657142857142858h6.428571428571429v84.34285714285714h-6.428571428571429Z" fill="#D2D4CE"/><path d="M150.35714285714286,15.37142857142857h6.428571428571429v84.62857142857143h-6.428571428571429Z" fill="#D2D4CE"/><path d="M157.5,15.114285714285714h6.428571428571429v84.88571428571429h-6.428571428571429Z" fill="#D2D4CE"/><path d="M164.64285714285717,15.057142857142857h6.428571428571429v84.94285714285715h-6.428571428571429Z" fill="#D2D4CE"/><path d="M171.7857142857143,14.742857142857147h6.428571428571429v85.25714285714285h-6.428571428571429Z" fill="#D2D4CE"/><path d="M178.92857142857144,14.342857142857145h6.428571428571429v85.65714285714286h-6.428571428571429Z" fill="#D2D4CE"/><path d="M186.07142857142858,13.914285714285713h6.428571428571429v86.08571428571429h-6.428571428571429Z" fill="#D2D4CE"/><path d="M193.21428571428572,13.857142857142858h6.428571428571429v86.14285714285714h-6.428571428571429Z" fill="#00923E"/><path d="M200.35714285714286,13.79999999999999h6.428571428571429v86.20000000000002h-6.428571428571429Z" fill="#D2D4CE"/><path d="M207.50000000000003,13.742857142857135h6.428571428571429v86.25714285714287h-6.428571428571429Z" fill="#D2D4CE"/><path d="M214.64285714285717,13.714285714285712h6.428571428571429v86.28571428571429h-6.428571428571429Z" fill="#D2D4CE"/><path d="M221.7857142857143,13.257142857142856h6.428571428571429v86.74285714285715h-6.428571428571429Z" fill="#D2D4CE"/><path d="M228.92857142857144,13h6.428571428571429v87h-6.428571428571429Z" fill="#D2D4CE"/><path d="M236.07142857142858,12.857142857142856h6.428571428571429v87.14285714285714h-6.428571428571429Z" fill="#D2D4CE"/><path d="M243.21428571428572,11.857142857142854h6.428571428571429v88.14285714285714h-6.428571428571429Z" fill="#D2D4CE"/><path d="M250.35714285714286,11.742857142857144h6.428571428571429v88.25714285714285h-6.428571428571429Z" fill="#D2D4CE"/><path d="M257.5,11.6h6.428571428571429v88.4h-6.428571428571429Z" fill="#D2D4CE"/><path d="M264.6428571428571,11.542857142857144h6.428571428571429v88.45714285714286h-6.428571428571429Z" fill="#D2D4CE"/><path d="M271.78571428571433,10.028571428571432h6.428571428571429v89.97142857142856h-6.428571428571429Z" fill="#D2D4CE"/><path d="M278.92857142857144,10.028571428571432h6.428571428571429v89.97142857142856h-6.428571428571429Z" fill="#D2D4CE"/><path d="M286.07142857142856,9.742857142857142h6.428571428571429v90.25714285714285h-6.428571428571429Z" fill="#D2D4CE"/><path d="M293.2142857142858,8.428571428571441h6.428571428571429v91.57142857142856h-6.428571428571429Z" fill="#D2D4CE"/></g></g><path class="foreground" aria-hidden="true" d="" display="none"/></g></g></g></svg>