<svg xmlns="http://www.w3.org/2000/svg" xmlns:xlink="http://www.w3.org/1999/xlink" version="1.1" class="marks" width="310" height="110" ><g fill="none" stroke-miterlimit="10" transform="translate(5,5)"><g class="mark-group role-frame root" role="graphics-object" aria-roledescription="group mark container"><g transform="translate(0,0)"><path class="background" aria-hidden="true" d="M0,0h300v100h-300Z" stroke="#ddd" stroke-width="0"/><g><g class="mark-rect role-mark marks" role="graphics-symbol" aria-roledescription="rect mark container"><path d="M0.3571428571428612,83.6875h6.428571428571429v16.3125h-6.428571428571429Z" fill="#D2D4CE"/><path d="M7.500000000000004,74.625h6.428571428571429v25.375h-6.428571428571429Z" fill="#D2D4CE"/><path d="M14.642857142857148,70.375h6.428571428571429v29.625h-6.428571428571429Z" fill="#D2D4CE"/><path d="M21.785714285714292,67.625h6.428571428571429v32.375h-6.428571428571429Z" fill="#D2D4CE"/><path d="M28.928571428571434,66.75h6.428571428571429v33.25h-6.428571428571429Z" fill="#D2D4CE"/><path d="M36.07142857142858,66.25h6.428571428571429v33.75h-6.428571428571429Z" fill="#D2D4CE"/><path d="M43.21428571428572,59.68750000000001h6.428571428571429v40.31249999999999h-6.428571428571429Z" fill="#D2D4CE"/><path d="M50.35714285714286,58.375h6.428571428571429v41.625h-6.428571428571429Z" fill="#D2D4CE"/><path d="M57.50000000000001,57.00000000000001h6.428571428571429v42.99999999999999h-6.428571428571429Z" fill="#D2D4CE"/><path d="M64.64285714285715,55.8125h6.428571428571429v44.1875h-6.428571428571429Z" fill="#D2D4CE"/><path d="M71.78571428571429,55.125h6.428571428571429v44.875h-6.428571428571429Z" fill="#D2D4CE"/><path d="M78.92857142857143,50.625h6.428571428571429v49.375h-6.428571428571429Z" fill="#D2D4CE"/><path d="M86.07142857142858,49.9375h6.428571428571429v50.0625h-6.428571428571429Z" fill="#D2D4CE"/><path d="M93.21428571428572,49.875h6.428571428571429v50.125h-6.428571428571429Z" fill="#D2D4CE"/><path d="M100.35714285714286,49.5h6.428571428571429v50.5h-6.428571428571429Z" fill="#D2D4CE"/><path d="M107.50000000000001,48.375h6.428571428571429v51.625h-6.428571428571429Z" fill="#D2D4CE"/><path d="M114.64285714285715,45.1875h6.428571428571429v54.8125h-6.428571428571429Z" fill="#D2D4CE"/><path d="M121.78571428571429,44.75h6.428571428571429v55.25h-6.428571428571429Z" fill="#D2D4CE"/><path d="M128.92857142857144,43.6875h6.428571428571429v56.3125h-6.428571428571429Z" fill="#00923E"/><path d="M136.07142857142858,42.25h6.428571428571429v57.75h-6.428571428571429Z" fill="#D2D4CE"/><path d="M143.21428571428572,40.37499999999999h6.428571428571429v59.62500000000001h-6.428571428571429Z" fill="#D2D4CE"/><path d="M150.35714285714286,40.1875h6.428571428571429v59.8125h-6.428571428571429Z" fill="#D2D4CE"/><path d="M157.5,40.125h6.428571428571429v59.875h-6.428571428571429Z" fill="#D2D4CE"/><path d="M164.64285714285717,39.6875h6.428571428571429v60.3125h-6.428571428571429Z" fill="#D2D4CE"/><path d="M171.7857142857143,38.375h6.428571428571429v61.625h-6.428571428571429Z" fill="#D2D4CE"/><path d="M178.92857142857144,37.5625h6.428571428571429v62.4375h-6.428571428571429Z" fill="#D2D4CE"/><path d="M186.07142857142858,37.18749999999999h6.428571428571429v62.81250000000001h-6.428571428571429Z" fill="#D2D4CE"/><path d="M193.21428571428572,36.18750000000001h6.428571428571429v63.81249999999999h-6.428571428571429Z" fill="#D2D4CE"/><path d="M200.35714285714286,35.4375h6.428571428571429v64.5625h-6.428571428571429Z" fill="#D2D4CE"/><path d="M207.50000000000003,30.000000000000004h6.428571428571429v70h-6.428571428571429Z" fill="#D2D4CE"/><path d="M214.64285714285717,29.25h6.428571428571429v70.75h-6.428571428571429Z" fill="#D2D4CE"/><path d="M221.7857142857143,26.5h6.428571428571429v73.5h-6.428571428571429Z" fill="#D2D4CE"/><path d="M228.92857142857144,25.4375h6.428571428571429v74.5625h-6.428571428571429Z" fill="#D2D4CE"/><path d="M236.07142857142858,24h6.428571428571429v76h-6.428571428571429Z" fill="#D2D4CE"/><path d="M243.21428571428572,20.687499999999993h6.428571428571429v79.3125h-6.428571428571429Z" fill="#D2D4CE"/><path d="M250.35714285714286,17.68750000000001h6.428571428571429v82.31249999999999h-6.428571428571429Z" fill="#D2D4CE"/><path d="M257.5,16.874999999999996h6.428571428571429v83.125h-6.428571428571429Z" fill="#D2D4CE"/><path d="M264.6428571428571,16.75000000000001h6.428571428571429v83.24999999999999h-6.428571428571429Z" fill="#D2D4CE"/><path d="M271.78571428571433,14.187499999999996h6.428571428571429v85.8125h-6.428571428571429Z" fill="#D2D4CE"/><path d="M278.92857142857144,13.812499999999995h6.428571428571429v86.1875h-6.428571428571429Z" fill="#D2D4CE"/><path d="M286.07142857142856,9.250000000000004h6.428571428571429v90.75h-6.428571428571429Z" fill="#D2D4CE"/><path d="M293.2142857142858,5.7499999999999885h6.428571428571429v94.25000000000001h-6.428571428571429Z" fill="#D2D4CE"/></g></g><path class="foreground" aria-hidden="true" d="" display="none"/></g></g></g></svg>