<svg xmlns="http://www.w3.org/2000/svg" xmlns:xlink="http://www.w3.org/1999/xlink" version="1.1" class="marks" width="310" height="110" ><g fill="none" stroke-miterlimit="10" transform="translate(5,5)"><g class="mark-group role-frame root" role="graphics-object" aria-roledescription="group mark container"><g transform="translate(0,0)"><path class="background" aria-hidden="true" d="M0,0h300v100h-300Z" stroke="#ddd" stroke-width="0"/><g><g class="mark-rect role-mark marks" role="graphics-symbol" aria-roledescription="rect mark container"><path d="M0.3571428571428612,68.07692307692308h6.428571428571429v31.92307692307692h-6.428571428571429Z" fill="#D2D4CE"/><path d="M7.500000000000004,58.07692307692307h6.428571428571429v41.92307692307693h-6.428571428571429Z" fill="#D2D4CE"/><path d="M14.642857142857148,57.692307692307686h6.428571428571429v42.307692307692314h-6.428571428571429Z" fill="#D2D4CE"/><path d="M21.785714285714292,55.00000000000001h6.428571428571429v44.99999999999999h-6.428571428571429Z" fill="#D2D4CE"/><path d="M28.928571428571434,55.00000000000001h6.428571428571429v44.99999999999999h-6.428571428571429Z" fill="#D2D4CE"/><path d="M36.07142857142858,55.00000000000001h6.428571428571429v44.99999999999999h-6.428571428571429Z" fill="#D2D4CE"/><path d="M43.21428571428572,53.84615384615385h6.428571428571429v46.15384615384615h-6.428571428571429Z" fill="#D2D4CE"/><path d="M50.35714285714286,52.69230769230768h6.428571428571429v47.30769230769232h-6.428571428571429Z" fill="#D2D4CE"/><path d="M57.50000000000001,52.3076923076923h6.428571428571429v47.6923076923077h-6.428571428571429Z" fill="#D2D4CE"/><path d="M64.64285714285715,51.153846153846146h6.428571428571429v48.846153846153854h-6.428571428571429Z" fill="#D2D4CE"/><path d="M71.78571428571429,50.76923076923077h6.428571428571429v49.23076923076923h-6.428571428571429Z" fill="#D2D4CE"/><path d="M78.92857142857143,45.38461538461539h6.428571428571429v54.61538461538461h-6.428571428571429Z" fill="#00923E"/><path d="M86.07142857142858,44.61538461538461h6.428571428571429v55.38461538461539h-6.428571428571429Z" fill="#D2D4CE"/><path d="M93.21428571428572,44.230769230769226h6.428571428571429v55.769230769230774h-6.428571428571429Z" fill="#D2D4CE"/><path d="M100.35714285714286,43.46153846153846h6.428571428571429v56.53846153846154h-6.428571428571429Z" fill="#D2D4CE"/><path d="M107.50000000000001,40h6.428571428571429v60h-6.428571428571429Z" fill="#D2D4CE"/><path d="M114.64285714285715,40h6.428571428571429v60h-6.428571428571429Z" fill="#D2D4CE"/><path d="M121.78571428571429,38.84615384615384h6.428571428571429v61.15384615384616h-6.428571428571429Z" fill="#D2D4CE"/><path d="M128.92857142857144,38.07692307692307h6.428571428571429v61.92307692307693h-6.428571428571429Z" fill="#D2D4CE"/><path d="M136.07142857142858,35.38461538461538h6.428571428571429v64.61538461538461h-6.428571428571429Z" fill="#D2D4CE"/><path d="M143.21428571428572,34.23076923076922h6.428571428571429v65.76923076923077h-6.428571428571429Z" fill="#D2D4CE"/><path d="M150.35714285714286,33.46153846153845h6.428571428571429v66.53846153846155h-6.428571428571429Z" fill="#D2D4CE"/><path d="M157.5,31.153846153846153h6.428571428571429v68.84615384615384h-6.428571428571429Z" fill="#D2D4CE"/><path d="M164.64285714285717,30.000000000000004h6.428571428571429v70h-6.428571428571429Z" fill="#D2D4CE"/><path d="M171.7857142857143,29.61538461538461h6.428571428571429v70.38461538461539h-6.428571428571429Z" fill="#D2D4CE"/><path d="M178.92857142857144,29.61538461538461h6.428571428571429v70.38461538461539h-6.428571428571429Z" fill="#D2D4CE"/><path d="M186.07142857142858,28.846153846153843h6.428571428571429v71.15384615384616h-6.428571428571429Z" fill="#D2D4CE"/><path d="M193.21428571428572,28.846153846153843h6.428571428571429v71.15384615384616h-6.428571428571429Z" fill="#D2D4CE"/><path d="M200.35714285714286,26.538461538461533h6.428571428571429v73.46153846153847h-6.428571428571429Z" fill="#D2D4CE"/><path d="M207.50000000000003,26.15384615384616h6.428571428571429v73.84615384615384h-6.428571428571429Z" fill="#D2D4CE"/><path d="M214.64285714285717,25.384615384615394h6.428571428571429v74.61538461538461h-6.428571428571429Z" fill="#D2D4CE"/><path d="M221.7857142857143,23.076923076923073h6.428571428571429v76.92307692307693h-6.428571428571429Z" fill="#D2D4CE"/><path d="M228.92857142857144,22.307692307692307h6.428571428571429v77.6923076923077h-6.428571428571429Z" fill="#D2D4CE"/><path d="M236.07142857142858,19.23076923076923h6.428571428571429v80.76923076923077h-6.428571428571429Z" fill="#D2D4CE"/><path d="M243.21428571428572,19.23076923076923h6.428571428571429v80.76923076923077h-6.428571428571429Z" fill="#D2D4CE"/><path d="M250.35714285714286,18.461538461538463h6.428571428571429v81.53846153846153h-6.428571428571429Z" fill="#D2D4CE"/><path d="M257.5,14.230769230769225h6.428571428571429v85.76923076923077h-6.428571428571429Z" fill="#D2D4CE"/><path d="M264.6428571428571,12.307692307692308h6.428571428571429v87.6923076923077h-6.428571428571429Z" fill="#D2D4CE"/><path d="M271.78571428571433,10.384615384615381h6.428571428571429v89.61538461538461h-6.428571428571429Z" fill="#D2D4CE"/><path d="M278.92857142857144,9.615384615384615h6.428571428571429v90.38461538461539h-6.428571428571429Z" fill="#D2D4CE"/><path d="M286.07142857142856,6.538461538461537h6.428571428571429v93.46153846153847h-6.428571428571429Z" fill="#D2D4CE"/><path d="M293.2142857142858,1.9230769230769273h6.428571428571429v98.07692307692307h-6.428571428571429Z" fill="#D2D4CE"/></g></g><path class="foreground" aria-hidden="true" d="" display="none"/></g></g></g></svg>