<svg xmlns="http://www.w3.org/2000/svg" xmlns:xlink="http://www.w3.org/1999/xlink" version="1.1" class="marks" width="310" height="110" ><g fill="none" stroke-miterlimit="10" transform="translate(5,5)"><g class="mark-group role-frame root" role="graphics-object" aria-roledescription="group mark container"><g transform="translate(0,0)"><path class="background" aria-hidden="true" d="M0,0h300v100h-300Z" stroke="#ddd" stroke-width="0"/><g><g class="mark-rect role-mark marks" role="graphics-symbol" aria-roledescription="rect mark container"><path d="M0.3571428571428612,60.769230769230774h6.428571428571429v39.230769230769226h-6.428571428571429Z" fill="#D2D4CE"/><path d="M7.500000000000004,59.53846153846154h6.428571428571429v40.46153846153846h-6.428571428571429Z" fill="#D2D4CE"/><path d="M14.642857142857148,59.23076923076923h6.428571428571429v40.76923076923077h-6.428571428571429Z" fill="#D2D4CE"/><path d="M21.785714285714292,58.30769230769231h6.428571428571429v41.69230769230769h-6.428571428571429Z" fill="#D2D4CE"/><path d="M28.928571428571434,58.00000000000001h6.428571428571429v41.99999999999999h-6.428571428571429Z" fill="#D2D4CE"/><path d="M36.07142857142858,57.53846153846154h6.428571428571429v42.46153846153846h-6.428571428571429Z" fill="#D2D4CE"/><path d="M43.21428571428572,56.92307692307692h6.428571428571429v43.07692307692308h-6.428571428571429Z" fill="#D2D4CE"/><path d="M50.35714285714286,54.3076923076923h6.428571428571429v45.6923076923077h-6.428571428571429Z" fill="#D2D4CE"/><path d="M57.50000000000001,54h6.428571428571429v46h-6.428571428571429Z" fill="#D2D4CE"/><path d="M64.64285714285715,52.76923076923077h6.428571428571429v47.23076923076923h-6.428571428571429Z" fill="#D2D4CE"/><path d="M71.78571428571429,51.69230769230769h6.428571428571429v48.30769230769231h-6.428571428571429Z" fill="#D2D4CE"/><path d="M78.92857142857143,51.23076923076923h6.428571428571429v48.76923076923077h-6.428571428571429Z" fill="#D2D4CE"/><path d="M86.07142857142858,51.23076923076923h6.428571428571429v48.76923076923077h-6.428571428571429Z" fill="#D2D4CE"/><path d="M93.21428571428572,48.92307692307691h6.428571428571429v51.07692307692309h-6.428571428571429Z" fill="#D2D4CE"/><path d="M100.35714285714286,46.61538461538461h6.428571428571429v53.38461538461539h-6.428571428571429Z" fill="#D2D4CE"/><path d="M107.50000000000001,46.61538461538461h6.428571428571429v53.38461538461539h-6.428571428571429Z" fill="#D2D4CE"/><path d="M114.64285714285715,45.53846153846154h6.428571428571429v54.46153846153846h-6.428571428571429Z" fill="#D2D4CE"/><path d="M121.78571428571429,45.07692307692307h6.428571428571429v54.92307692307693h-6.428571428571429Z" fill="#D2D4CE"/><path d="M128.92857142857144,44.46153846153847h6.428571428571429v55.53846153846153h-6.428571428571429Z" fill="#D2D4CE"/><path d="M136.07142857142858,44.30769230769231h6.428571428571429v55.69230769230769h-6.428571428571429Z" fill="#D2D4CE"/><path d="M143.21428571428572,42.92307692307692h6.428571428571429v57.07692307692308h-6.428571428571429Z" fill="#D2D4CE"/><path d="M150.35714285714286,40.92307692307693h6.428571428571429v59.07692307692307h-6.428571428571429Z" fill="#D2D4CE"/><path d="M157.5,39.69230769230769h6.428571428571429v60.30769230769231h-6.428571428571429Z" fill="#D2D4CE"/><path d="M164.64285714285717,38.46153846153846h6.428571428571429v61.53846153846154h-6.428571428571429Z" fill="#D2D4CE"/><path d="M171.7857142857143,37.69230769230769h6.428571428571429v62.30769230769231h-6.428571428571429Z" fill="#D2D4CE"/><path d="M178.92857142857144,37.69230769230769h6.428571428571429v62.30769230769231h-6.428571428571429Z" fill="#D2D4CE"/><path d="M186.07142857142858,36.30769230769231h6.428571428571429v63.69230769230769h-6.428571428571429Z" fill="#D2D4CE"/><path d="M193.21428571428572,35.6923076923077h6.428571428571429v64.30769230769229h-6.428571428571429Z" fill="#D2D4CE"/><path d="M200.35714285714286,35.53846153846154h6.428571428571429v64.46153846153845h-6.428571428571429Z" fill="#D2D4CE"/><path d="M207.50000000000003,34.15384615384616h6.428571428571429v65.84615384615384h-6.428571428571429Z" fill="#D2D4CE"/><path d="M214.64285714285717,33.84615384615385h6.428571428571429v66.15384615384616h-6.428571428571429Z" fill="#D2D4CE"/><path d="M221.7857142857143,30.61538461538461h6.428571428571429v69.38461538461539h-6.428571428571429Z" fill="#D2D4CE"/><path d="M228.92857142857144,30.153846153846153h6.428571428571429v69.84615384615384h-6.428571428571429Z" fill="#D2D4CE"/><path d="M236.07142857142858,30.153846153846153h6.428571428571429v69.84615384615384h-6.428571428571429Z" fill="#D2D4CE"/><path d="M243.21428571428572,29.384615384615387h6.428571428571429v70.61538461538461h-6.428571428571429Z" fill="#D2D4CE"/><path d="M250.35714285714286,27.230769230769237h6.428571428571429v72.76923076923076h-6.428571428571429Z" fill="#00923E"/><path d="M257.5,25.538461538461544h6.428571428571429v74.46153846153845h-6.428571428571429Z" fill="#D2D4CE"/><path d="M264.6428571428571,23.076923076923073h6.428571428571429v76.92307692307693h-6.428571428571429Z" fill="#D2D4CE"/><path d="M271.78571428571433,22.769230769230763h6.428571428571429v77.23076923076924h-6.428571428571429Z" fill="#D2D4CE"/><path d="M278.92857142857144,18.307692307692303h6.428571428571429v81.6923076923077h-6.428571428571429Z" fill="#D2D4CE"/><path d="M286.07142857142856,16.61538461538461h6.428571428571429v83.38461538461539h-6.428571428571429Z" fill="#D2D4CE"/><path d="M293.2142857142858,3.076923076923077h6.428571428571429v96.92307692307692h-6.428571428571429Z" fill="#D2D4CE"/></g></g><path class="foreground" aria-hidden="true" d="" display="none"/></g></g></g></svg>