<svg xmlns="http://www.w3.org/2000/svg" xmlns:xlink="http://www.w3.org/1999/xlink" version="1.1" class="marks" width="310" height="110" ><g fill="none" stroke-miterlimit="10" transform="translate(5,5)"><g class="mark-group role-frame root" role="graphics-object" aria-roledescription="group mark container"><g transform="translate(0,0)"><path class="background" aria-hidden="true" d="M0,0h300v100h-300Z" stroke="#ddd" stroke-width="0"/><g><g class="mark-rect role-mark marks" role="graphics-symbol" aria-roledescription="rect mark container"><path d="M0.3571428571428612,94.45454545454545h6.428571428571429v5.545454545454547h-6.428571428571429Z" fill="#D2D4CE"/><path d="M7.500000000000004,93.77272727272728h6.428571428571429v6.2272727272727195h-6.428571428571429Z" fill="#D2D4CE"/><path d="M14.642857142857148,93.54545454545455h6.428571428571429v6.454545454545453h-6.428571428571429Z" fill="#D2D4CE"/><path d="M21.785714285714292,92.81818181818183h6.428571428571429v7.181818181818173h-6.428571428571429Z" fill="#D2D4CE"/><path d="M28.928571428571434,92.36363636363636h6.428571428571429v7.63636363636364h-6.428571428571429Z" fill="#D2D4CE"/><path d="M36.07142857142858,91.54545454545455h6.428571428571429v8.454545454545453h-6.428571428571429Z" fill="#D2D4CE"/><path d="M43.21428571428572,91.45454545454545h6.428571428571429v8.545454545454547h-6.428571428571429Z" fill="#D2D4CE"/><path d="M50.35714285714286,87.54545454545455h6.428571428571429v12.454545454545453h-6.428571428571429Z" fill="#D2D4CE"/><path d="M57.50000000000001,86.63636363636364h6.428571428571429v13.36363636363636h-6.428571428571429Z" fill="#D2D4CE"/><path d="M64.64285714285715,85.72727272727273h6.428571428571429v14.272727272727266h-6.428571428571429Z" fill="#D2D4CE"/><path d="M71.78571428571429,85.36363636363636h6.428571428571429v14.63636363636364h-6.428571428571429Z" fill="#D2D4CE"/><path d="M78.92857142857143,84.36363636363636h6.428571428571429v15.63636363636364h-6.428571428571429Z" fill="#D2D4CE"/><path d="M86.07142857142858,83.9090909090909h6.428571428571429v16.090909090909093h-6.428571428571429Z" fill="#D2D4CE"/><path d="M93.21428571428572,83.54545454545455h6.428571428571429v16.454545454545453h-6.428571428571429Z" fill="#D2D4CE"/><path d="M100.35714285714286,82.04545454545455h6.428571428571429v17.954545454545453h-6.428571428571429Z" fill="#D2D4CE"/><path d="M107.50000000000001,80.45454545454545h6.428571428571429v19.545454545454547h-6.428571428571429Z" fill="#D2D4CE"/><path d="M114.64285714285715,79.77272727272727h6.428571428571429v20.227272727272734h-6.428571428571429Z" fill="#D2D4CE"/><path d="M121.78571428571429,79.04545454545455h6.428571428571429v20.954545454545453h-6.428571428571429Z" fill="#D2D4CE"/><path d="M128.92857142857144,78.9090909090909h6.428571428571429v21.090909090909093h-6.428571428571429Z" fill="#D2D4CE"/><path d="M136.07142857142858,77.5h6.428571428571429v22.5h-6.428571428571429Z" fill="#D2D4CE"/><path d="M143.21428571428572,76.40909090909092h6.428571428571429v23.59090909090908h-6.428571428571429Z" fill="#D2D4CE"/><path d="M150.35714285714286,75.63636363636364h6.428571428571429v24.36363636363636h-6.428571428571429Z" fill="#D2D4CE"/><path d="M157.5,75h6.428571428571429v25h-6.428571428571429Z" fill="#D2D4CE"/><path d="M164.64285714285717,72.63636363636363h6.428571428571429v27.363636363636374h-6.428571428571429Z" fill="#D2D4CE"/><path d="M171.7857142857143,72.0909090909091h6.428571428571429v27.909090909090907h-6.428571428571429Z" fill="#D2D4CE"/><path d="M178.92857142857144,70.0909090909091h6.428571428571429v29.909090909090907h-6.428571428571429Z" fill="#D2D4CE"/><path d="M186.07142857142858,69.59090909090908h6.428571428571429v30.40909090909092h-6.428571428571429Z" fill="#D2D4CE"/><path d="M193.21428571428572,68.36363636363636h6.428571428571429v31.63636363636364h-6.428571428571429Z" fill="#D2D4CE"/><path d="M200.35714285714286,62.909090909090914h6.428571428571429v37.090909090909086h-6.428571428571429Z" fill="#D2D4CE"/><path d="M207.50000000000003,61.72727272727272h6.428571428571429v38.27272727272728h-6.428571428571429Z" fill="#D2D4CE"/><path d="M214.64285714285717,53.54545454545454h6.428571428571429v46.45454545454546h-6.428571428571429Z" fill="#D2D4CE"/><path d="M221.7857142857143,52.18181818181817h6.428571428571429v47.81818181818183h-6.428571428571429Z" fill="#D2D4CE"/><path d="M228.92857142857144,50.95454545454545h6.428571428571429v49.04545454545455h-6.428571428571429Z" fill="#D2D4CE"/><path d="M236.07142857142858,50.63636363636363h6.428571428571429v49.36363636363637h-6.428571428571429Z" fill="#D2D4CE"/><path d="M243.21428571428572,46.18181818181818h6.428571428571429v53.81818181818182h-6.428571428571429Z" fill="#D2D4CE"/><path d="M250.35714285714286,43.363636363636374h6.428571428571429v56.636363636363626h-6.428571428571429Z" fill="#00923E"/><path d="M257.5,30.181818181818187h6.428571428571429v69.81818181818181h-6.428571428571429Z" fill="#D2D4CE"/><path d="M264.6428571428571,24.00000000000001h6.428571428571429v75.99999999999999h-6.428571428571429Z" fill="#D2D4CE"/><path d="M271.78571428571433,14.27272727272727h6.428571428571429v85.72727272727273h-6.428571428571429Z" fill="#D2D4CE"/><path d="M278.92857142857144,12.22727272727273h6.428571428571429v87.77272727272727h-6.428571428571429Z" fill="#D2D4CE"/><path d="M286.07142857142856,11.50000000000001h6.428571428571429v88.49999999999999h-6.428571428571429Z" fill="#D2D4CE"/><path d="M293.2142857142858,2.0454545454545503h6.428571428571429v97.95454545454545h-6.428571428571429Z" fill="#D2D4CE"/></g></g><path class="foreground" aria-hidden="true" d="" display="none"/></g></g></g></svg>