<svg xmlns="http://www.w3.org/2000/svg" xmlns:xlink="http://www.w3.org/1999/xlink" version="1.1" class="marks" width="310" height="110" ><g fill="none" stroke-miterlimit="10" transform="translate(5,5)"><g class="mark-group role-frame root" role="graphics-object" aria-roledescription="group mark container"><g transform="translate(0,0)"><path class="background" aria-hidden="true" d="M0,0h300v100h-300Z" stroke="#ddd" stroke-width="0"/><g><g class="mark-rect role-mark marks" role="graphics-symbol" aria-roledescription="rect mark container"><path d="M0.3571428571428612,86.25h6.428571428571429v13.75h-6.428571428571429Z" fill="#D2D4CE"/><path d="M7.500000000000004,85h6.428571428571429v15h-6.428571428571429Z" fill="#D2D4CE"/><path d="M14.642857142857148,83.45h6.428571428571429v16.549999999999997h-6.428571428571429Z" fill="#D2D4CE"/><path d="M21.785714285714292,81.80000000000001h6.428571428571429v18.19999999999999h-6.428571428571429Z" fill="#D2D4CE"/><path d="M28.928571428571434,80.80000000000001h6.428571428571429v19.19999999999999h-6.428571428571429Z" fill="#D2D4CE"/><path d="M36.07142857142858,77.625h6.428571428571429v22.375h-6.428571428571429Z" fill="#D2D4CE"/><path d="M43.21428571428572,77.175h6.428571428571429v22.825000000000003h-6.428571428571429Z" fill="#D2D4CE"/><path d="M50.35714285714286,75.35000000000001h6.428571428571429v24.64999999999999h-6.428571428571429Z" fill="#D2D4CE"/><path d="M57.50000000000001,74.75h6.428571428571429v25.25h-6.428571428571429Z" fill="#D2D4CE"/><path d="M64.64285714285715,73.85h6.428571428571429v26.150000000000006h-6.428571428571429Z" fill="#D2D4CE"/><path d="M71.78571428571429,72.45h6.428571428571429v27.549999999999997h-6.428571428571429Z" fill="#D2D4CE"/><path d="M78.92857142857143,70.325h6.428571428571429v29.674999999999997h-6.428571428571429Z" fill="#D2D4CE"/><path d="M86.07142857142858,69.77499999999999h6.428571428571429v30.22500000000001h-6.428571428571429Z" fill="#D2D4CE"/><path d="M93.21428571428572,69.30000000000001h6.428571428571429v30.69999999999999h-6.428571428571429Z" fill="#D2D4CE"/><path d="M100.35714285714286,69.05h6.428571428571429v30.950000000000003h-6.428571428571429Z" fill="#D2D4CE"/><path d="M107.50000000000001,67.325h6.428571428571429v32.675h-6.428571428571429Z" fill="#D2D4CE"/><path d="M114.64285714285715,65.97500000000001h6.428571428571429v34.02499999999999h-6.428571428571429Z" fill="#D2D4CE"/><path d="M121.78571428571429,65.125h6.428571428571429v34.875h-6.428571428571429Z" fill="#D2D4CE"/><path d="M128.92857142857144,64.64999999999999h6.428571428571429v35.35000000000001h-6.428571428571429Z" fill="#D2D4CE"/><path d="M136.07142857142858,63.1h6.428571428571429v36.9h-6.428571428571429Z" fill="#D2D4CE"/><path d="M143.21428571428572,62.85000000000001h6.428571428571429v37.14999999999999h-6.428571428571429Z" fill="#D2D4CE"/><path d="M150.35714285714286,62.3h6.428571428571429v37.7h-6.428571428571429Z" fill="#D2D4CE"/><path d="M157.5,61.775000000000006h6.428571428571429v38.224999999999994h-6.428571428571429Z" fill="#D2D4CE"/><path d="M164.64285714285717,56.55h6.428571428571429v43.45h-6.428571428571429Z" fill="#D2D4CE"/><path d="M171.7857142857143,54.675000000000004h6.428571428571429v45.324999999999996h-6.428571428571429Z" fill="#D2D4CE"/><path d="M178.92857142857144,54.325h6.428571428571429v45.675h-6.428571428571429Z" fill="#D2D4CE"/><path d="M186.07142857142858,52.15h6.428571428571429v47.85h-6.428571428571429Z" fill="#D2D4CE"/><path d="M193.21428571428572,50.025000000000006h6.428571428571429v49.974999999999994h-6.428571428571429Z" fill="#D2D4CE"/><path d="M200.35714285714286,46.875h6.428571428571429v53.125h-6.428571428571429Z" fill="#D2D4CE"/><path d="M207.50000000000003,46.150000000000006h6.428571428571429v53.849999999999994h-6.428571428571429Z" fill="#D2D4CE"/><path d="M214.64285714285717,45.975h6.428571428571429v54.025h-6.428571428571429Z" fill="#D2D4CE"/><path d="M221.7857142857143,40.99999999999999h6.428571428571429v59.00000000000001h-6.428571428571429Z" fill="#D2D4CE"/><path d="M228.92857142857144,40.15h6.428571428571429v59.85h-6.428571428571429Z" fill="#D2D4CE"/><path d="M236.07142857142858,36.925h6.428571428571429v63.075h-6.428571428571429Z" fill="#D2D4CE"/><path d="M243.21428571428572,35.54999999999999h6.428571428571429v64.45000000000002h-6.428571428571429Z" fill="#D2D4CE"/><path d="M250.35714285714286,32.475h6.428571428571429v67.525h-6.428571428571429Z" fill="#D2D4CE"/><path d="M257.5,28.725h6.428571428571429v71.275h-6.428571428571429Z" fill="#00923E"/><path d="M264.6428571428571,26.6h6.428571428571429v73.4h-6.428571428571429Z" fill="#D2D4CE"/><path d="M271.78571428571433,14.725h6.428571428571429v85.275h-6.428571428571429Z" fill="#D2D4CE"/><path d="M278.92857142857144,8.499999999999996h6.428571428571429v91.5h-6.428571428571429Z" fill="#D2D4CE"/><path d="M286.07142857142856,7.599999999999996h6.428571428571429v92.4h-6.428571428571429Z" fill="#D2D4CE"/><path d="M293.2142857142858,3.3750000000000058h6.428571428571429v96.625h-6.428571428571429Z" fill="#D2D4CE"/></g></g><path class="foreground" aria-hidden="true" d="" display="none"/></g></g></g></svg>