<svg xmlns="http://www.w3.org/2000/svg" xmlns:xlink="http://www.w3.org/1999/xlink" version="1.1" class="marks" width="310" height="110" ><g fill="none" stroke-miterlimit="10" transform="translate(5,5)"><g class="mark-group role-frame root" role="graphics-object" aria-roledescription="group mark container"><g transform="translate(0,0)"><path class="background" aria-hidden="true" d="M0,0h300v100h-300Z" stroke="#ddd" stroke-width="0"/><g><g class="mark-rect role-mark marks" role="graphics-symbol" aria-roledescription="rect mark container"><path d="M0.3571428571428612,82.88571428571429h6.428571428571429v17.114285714285714h-6.428571428571429Z" fill="#D2D4CE"/><path d="M7.500000000000004,79.08571428571427h6.428571428571429v20.914285714285725h-6.428571428571429Z" fill="#D2D4CE"/><path d="M14.642857142857148,76.65714285714286h6.428571428571429v23.34285714285714h-6.428571428571429Z" fill="#D2D4CE"/><path d="M21.785714285714292,76.57142857142857h6.428571428571429v23.42857142857143h-6.428571428571429Z" fill="#D2D4CE"/><path d="M28.928571428571434,74.62857142857142h6.428571428571429v25.37142857142858h-6.428571428571429Z" fill="#D2D4CE"/><path d="M36.07142857142858,72.8h6.428571428571429v27.200000000000003h-6.428571428571429Z" fill="#D2D4CE"/><path d="M43.21428571428572,71.5142857142857h6.428571428571429v28.485714285714295h-6.428571428571429Z" fill="#D2D4CE"/><path d="M50.35714285714286,69.45714285714286h6.428571428571429v30.542857142857144h-6.428571428571429Z" fill="#D2D4CE"/><path d="M57.50000000000001,69.39999999999999h6.428571428571429v30.60000000000001h-6.428571428571429Z" fill="#D2D4CE"/><path d="M64.64285714285715,66.82857142857144h6.428571428571429v33.171428571428564h-6.428571428571429Z" fill="#D2D4CE"/><path d="M71.78571428571429,65.82857142857144h6.428571428571429v34.171428571428564h-6.428571428571429Z" fill="#D2D4CE"/><path d="M78.92857142857143,64.91428571428571h6.428571428571429v35.08571428571429h-6.428571428571429Z" fill="#D2D4CE"/><path d="M86.07142857142858,63.74285714285715h6.428571428571429v36.25714285714285h-6.428571428571429Z" fill="#D2D4CE"/><path d="M93.21428571428572,63.42857142857143h6.428571428571429v36.57142857142857h-6.428571428571429Z" fill="#D2D4CE"/><path d="M100.35714285714286,62.828571428571436h6.428571428571429v37.171428571428564h-6.428571428571429Z" fill="#D2D4CE"/><path d="M107.50000000000001,60.82857142857143h6.428571428571429v39.17142857142857h-6.428571428571429Z" fill="#D2D4CE"/><path d="M114.64285714285715,57.971428571428575h6.428571428571429v42.028571428571425h-6.428571428571429Z" fill="#D2D4CE"/><path d="M121.78571428571429,57.14285714285714h6.428571428571429v42.85714285714286h-6.428571428571429Z" fill="#D2D4CE"/><path d="M128.92857142857144,56.74285714285714h6.428571428571429v43.25714285714286h-6.428571428571429Z" fill="#D2D4CE"/><path d="M136.07142857142858,56.25714285714286h6.428571428571429v43.74285714285714h-6.428571428571429Z" fill="#D2D4CE"/><path d="M143.21428571428572,55.91428571428572h6.428571428571429v44.08571428571428h-6.428571428571429Z" fill="#D2D4CE"/><path d="M150.35714285714286,55.028571428571425h6.428571428571429v44.971428571428575h-6.428571428571429Z" fill="#00923E"/><path d="M157.5,54.94285714285715h6.428571428571429v45.05714285714285h-6.428571428571429Z" fill="#D2D4CE"/><path d="M164.64285714285717,53.91428571428571h6.428571428571429v46.08571428571429h-6.428571428571429Z" fill="#D2D4CE"/><path d="M171.7857142857143,53.25714285714286h6.428571428571429v46.74285714285714h-6.428571428571429Z" fill="#D2D4CE"/><path d="M178.92857142857144,48.199999999999996h6.428571428571429v51.800000000000004h-6.428571428571429Z" fill="#D2D4CE"/><path d="M186.07142857142858,45.14285714285714h6.428571428571429v54.85714285714286h-6.428571428571429Z" fill="#D2D4CE"/><path d="M193.21428571428572,44.34285714285714h6.428571428571429v55.65714285714286h-6.428571428571429Z" fill="#D2D4CE"/><path d="M200.35714285714286,43.68571428571428h6.428571428571429v56.31428571428572h-6.428571428571429Z" fill="#D2D4CE"/><path d="M207.50000000000003,41.51428571428571h6.428571428571429v58.48571428571429h-6.428571428571429Z" fill="#D2D4CE"/><path d="M214.64285714285717,41.228571428571435h6.428571428571429v58.771428571428565h-6.428571428571429Z" fill="#D2D4CE"/><path d="M221.7857142857143,35.51428571428572h6.428571428571429v64.48571428571428h-6.428571428571429Z" fill="#D2D4CE"/><path d="M228.92857142857144,34.31428571428571h6.428571428571429v65.68571428571428h-6.428571428571429Z" fill="#D2D4CE"/><path d="M236.07142857142858,29.542857142857148h6.428571428571429v70.45714285714286h-6.428571428571429Z" fill="#D2D4CE"/><path d="M243.21428571428572,25.8h6.428571428571429v74.2h-6.428571428571429Z" fill="#D2D4CE"/><path d="M250.35714285714286,23.799999999999997h6.428571428571429v76.2h-6.428571428571429Z" fill="#D2D4CE"/><path d="M257.5,22.057142857142853h6.428571428571429v77.94285714285715h-6.428571428571429Z" fill="#D2D4CE"/><path d="M264.6428571428571,21.457142857142863h6.428571428571429v78.54285714285714h-6.428571428571429Z" fill="#D2D4CE"/><path d="M271.78571428571433,20.999999999999996h6.428571428571429v79h-6.428571428571429Z" fill="#D2D4CE"/><path d="M278.92857142857144,19.14285714285714h6.428571428571429v80.85714285714286h-6.428571428571429Z" fill="#D2D4CE"/><path d="M286.07142857142856,18.000000000000004h6.428571428571429v82h-6.428571428571429Z" fill="#D2D4CE"/><path d="M293.2142857142858,12.485714285714277h6.428571428571429v87.51428571428572h-6.428571428571429Z" fill="#D2D4CE"/></g></g><path class="foreground" aria-hidden="true" d="" display="none"/></g></g></g></svg>