<svg xmlns="http://www.w3.org/2000/svg" xmlns:xlink="http://www.w3.org/1999/xlink" version="1.1" class="marks" width="310" height="110" ><g fill="none" stroke-miterlimit="10" transform="translate(5,5)"><g class="mark-group role-frame root" role="graphics-object" aria-roledescription="group mark container"><g transform="translate(0,0)"><path class="background" aria-hidden="true" d="M0,0h300v100h-300Z" stroke="#ddd" stroke-width="0"/><g><g class="mark-rect role-mark marks" role="graphics-symbol" aria-roledescription="rect mark container"><path d="M0.3571428571428612,85.45454545454545h6.428571428571429v14.545454545454547h-6.428571428571429Z" fill="#D2D4CE"/><path d="M7.500000000000004,84.36363636363636h6.428571428571429v15.63636363636364h-6.428571428571429Z" fill="#D2D4CE"/><path d="M14.642857142857148,84.36363636363636h6.428571428571429v15.63636363636364h-6.428571428571429Z" fill="#D2D4CE"/><path d="M21.785714285714292,82.9090909090909h6.428571428571429v17.090909090909093h-6.428571428571429Z" fill="#D2D4CE"/><path d="M28.928571428571434,82.9090909090909h6.428571428571429v17.090909090909093h-6.428571428571429Z" fill="#D2D4CE"/><path d="M36.07142857142858,80.9090909090909h6.428571428571429v19.090909090909093h-6.428571428571429Z" fill="#D2D4CE"/><path d="M43.21428571428572,78.9090909090909h6.428571428571429v21.090909090909093h-6.428571428571429Z" fill="#D2D4CE"/><path d="M50.35714285714286,78.72727272727273h6.428571428571429v21.272727272727266h-6.428571428571429Z" fill="#D2D4CE"/><path d="M57.50000000000001,78.72727272727273h6.428571428571429v21.272727272727266h-6.428571428571429Z" fill="#D2D4CE"/><path d="M64.64285714285715,77.63636363636364h6.428571428571429v22.36363636363636h-6.428571428571429Z" fill="#D2D4CE"/><path d="M71.78571428571429,74.36363636363636h6.428571428571429v25.63636363636364h-6.428571428571429Z" fill="#D2D4CE"/><path d="M78.92857142857143,73.81818181818181h6.428571428571429v26.181818181818187h-6.428571428571429Z" fill="#00923E"/><path d="M86.07142857142858,72.54545454545455h6.428571428571429v27.454545454545453h-6.428571428571429Z" fill="#D2D4CE"/><path d="M93.21428571428572,72.36363636363636h6.428571428571429v27.63636363636364h-6.428571428571429Z" fill="#D2D4CE"/><path d="M100.35714285714286,71.45454545454545h6.428571428571429v28.545454545454547h-6.428571428571429Z" fill="#D2D4CE"/><path d="M107.50000000000001,70h6.428571428571429v30h-6.428571428571429Z" fill="#D2D4CE"/><path d="M114.64285714285715,68.18181818181819h6.428571428571429v31.818181818181813h-6.428571428571429Z" fill="#D2D4CE"/><path d="M121.78571428571429,67.81818181818183h6.428571428571429v32.18181818181817h-6.428571428571429Z" fill="#D2D4CE"/><path d="M128.92857142857144,67.63636363636363h6.428571428571429v32.363636363636374h-6.428571428571429Z" fill="#D2D4CE"/><path d="M136.07142857142858,66.36363636363636h6.428571428571429v33.63636363636364h-6.428571428571429Z" fill="#D2D4CE"/><path d="M143.21428571428572,51.45454545454547h6.428571428571429v48.54545454545453h-6.428571428571429Z" fill="#D2D4CE"/><path d="M150.35714285714286,50.90909090909091h6.428571428571429v49.09090909090909h-6.428571428571429Z" fill="#D2D4CE"/><path d="M157.5,49.45454545454545h6.428571428571429v50.54545454545455h-6.428571428571429Z" fill="#D2D4CE"/><path d="M164.64285714285717,49.45454545454545h6.428571428571429v50.54545454545455h-6.428571428571429Z" fill="#D2D4CE"/><path d="M171.7857142857143,46h6.428571428571429v54h-6.428571428571429Z" fill="#D2D4CE"/><path d="M178.92857142857144,36.54545454545455h6.428571428571429v63.45454545454545h-6.428571428571429Z" fill="#D2D4CE"/><path d="M186.07142857142858,34.54545454545455h6.428571428571429v65.45454545454545h-6.428571428571429Z" fill="#D2D4CE"/><path d="M193.21428571428572,31.09090909090909h6.428571428571429v68.9090909090909h-6.428571428571429Z" fill="#D2D4CE"/><path d="M200.35714285714286,28.909090909090907h6.428571428571429v71.0909090909091h-6.428571428571429Z" fill="#D2D4CE"/><path d="M207.50000000000003,24.00000000000001h6.428571428571429v75.99999999999999h-6.428571428571429Z" fill="#D2D4CE"/><path d="M214.64285714285717,23.818181818181817h6.428571428571429v76.18181818181819h-6.428571428571429Z" fill="#D2D4CE"/><path d="M221.7857142857143,23.272727272727266h6.428571428571429v76.72727272727273h-6.428571428571429Z" fill="#D2D4CE"/><path d="M228.92857142857144,23.272727272727266h6.428571428571429v76.72727272727273h-6.428571428571429Z" fill="#D2D4CE"/><path d="M236.07142857142858,21.45454545454545h6.428571428571429v78.54545454545455h-6.428571428571429Z" fill="#D2D4CE"/><path d="M243.21428571428572,20.90909090909091h6.428571428571429v79.0909090909091h-6.428571428571429Z" fill="#D2D4CE"/><path d="M250.35714285714286,10.545454545454536h6.428571428571429v89.45454545454547h-6.428571428571429Z" fill="#D2D4CE"/><path d="M257.5,10.545454545454536h6.428571428571429v89.45454545454547h-6.428571428571429Z" fill="#D2D4CE"/><path d="M264.6428571428571,9.272727272727277h6.428571428571429v90.72727272727272h-6.428571428571429Z" fill="#D2D4CE"/><path d="M271.78571428571433,3.2727272727272716h6.428571428571429v96.72727272727273h-6.428571428571429Z" fill="#D2D4CE"/><path d="M278.92857142857144,3.2727272727272716h6.428571428571429v96.72727272727273h-6.428571428571429Z" fill="#D2D4CE"/><path d="M286.07142857142856,3.2727272727272716h6.428571428571429v96.72727272727273h-6.428571428571429Z" fill="#D2D4CE"/><path d="M293.2142857142858,2.7272727272727226h6.428571428571429v97.27272727272728h-6.428571428571429Z" fill="#D2D4CE"/></g></g><path class="foreground" aria-hidden="true" d="" display="none"/></g></g></g></svg>