<svg xmlns="http://www.w3.org/2000/svg" xmlns:xlink="http://www.w3.org/1999/xlink" version="1.1" class="marks" width="310" height="110" ><g fill="none" stroke-miterlimit="10" transform="translate(5,5)"><g class="mark-group role-frame root" role="graphics-object" aria-roledescription="group mark container"><g transform="translate(0,0)"><path class="background" aria-hidden="true" d="M0,0h300v100h-300Z" stroke="#ddd" stroke-width="0"/><g><g class="mark-rect role-mark marks" role="graphics-symbol" aria-roledescription="rect mark container"><path d="M0.3571428571428612,81.75h6.428571428571429v18.25h-6.428571428571429Z" fill="#D2D4CE"/><path d="M7.500000000000004,78.5h6.428571428571429v21.5h-6.428571428571429Z" fill="#D2D4CE"/><path d="M14.642857142857148,76.25h6.428571428571429v23.75h-6.428571428571429Z" fill="#D2D4CE"/><path d="M21.785714285714292,76.25h6.428571428571429v23.75h-6.428571428571429Z" fill="#D2D4CE"/><path d="M28.928571428571434,74.5h6.428571428571429v25.5h-6.428571428571429Z" fill="#D2D4CE"/><path d="M36.07142857142858,74.5h6.428571428571429v25.5h-6.428571428571429Z" fill="#D2D4CE"/><path d="M43.21428571428572,72.25h6.428571428571429v27.75h-6.428571428571429Z" fill="#D2D4CE"/><path d="M50.35714285714286,72h6.428571428571429v28h-6.428571428571429Z" fill="#D2D4CE"/><path d="M57.50000000000001,72h6.428571428571429v28h-6.428571428571429Z" fill="#D2D4CE"/><path d="M64.64285714285715,72h6.428571428571429v28h-6.428571428571429Z" fill="#D2D4CE"/><path d="M71.78571428571429,70.5h6.428571428571429v29.5h-6.428571428571429Z" fill="#D2D4CE"/><path d="M78.92857142857143,70h6.428571428571429v30h-6.428571428571429Z" fill="#D2D4CE"/><path d="M86.07142857142858,70h6.428571428571429v30h-6.428571428571429Z" fill="#D2D4CE"/><path d="M93.21428571428572,69.5h6.428571428571429v30.5h-6.428571428571429Z" fill="#D2D4CE"/><path d="M100.35714285714286,68.5h6.428571428571429v31.5h-6.428571428571429Z" fill="#D2D4CE"/><path d="M107.50000000000001,68.5h6.428571428571429v31.5h-6.428571428571429Z" fill="#D2D4CE"/><path d="M114.64285714285715,68.25h6.428571428571429v31.75h-6.428571428571429Z" fill="#D2D4CE"/><path d="M121.78571428571429,67.75h6.428571428571429v32.25h-6.428571428571429Z" fill="#D2D4CE"/><path d="M128.92857142857144,67.5h6.428571428571429v32.5h-6.428571428571429Z" fill="#D2D4CE"/><path d="M136.07142857142858,67.5h6.428571428571429v32.5h-6.428571428571429Z" fill="#D2D4CE"/><path d="M143.21428571428572,64.5h6.428571428571429v35.5h-6.428571428571429Z" fill="#D2D4CE"/><path d="M150.35714285714286,64h6.428571428571429v36h-6.428571428571429Z" fill="#D2D4CE"/><path d="M157.5,63.74999999999999h6.428571428571429v36.25000000000001h-6.428571428571429Z" fill="#D2D4CE"/><path d="M164.64285714285717,62.5h6.428571428571429v37.5h-6.428571428571429Z" fill="#D2D4CE"/><path d="M171.7857142857143,62.25000000000001h6.428571428571429v37.74999999999999h-6.428571428571429Z" fill="#D2D4CE"/><path d="M178.92857142857144,61h6.428571428571429v39h-6.428571428571429Z" fill="#D2D4CE"/><path d="M186.07142857142858,60.75000000000001h6.428571428571429v39.24999999999999h-6.428571428571429Z" fill="#D2D4CE"/><path d="M193.21428571428572,60.25h6.428571428571429v39.75h-6.428571428571429Z" fill="#D2D4CE"/><path d="M200.35714285714286,57.75h6.428571428571429v42.25h-6.428571428571429Z" fill="#D2D4CE"/><path d="M207.50000000000003,53.75h6.428571428571429v46.25h-6.428571428571429Z" fill="#D2D4CE"/><path d="M214.64285714285717,52.75000000000001h6.428571428571429v47.24999999999999h-6.428571428571429Z" fill="#D2D4CE"/><path d="M221.7857142857143,50.25000000000001h6.428571428571429v49.74999999999999h-6.428571428571429Z" fill="#D2D4CE"/><path d="M228.92857142857144,50.25000000000001h6.428571428571429v49.74999999999999h-6.428571428571429Z" fill="#D2D4CE"/><path d="M236.07142857142858,49.24999999999999h6.428571428571429v50.75000000000001h-6.428571428571429Z" fill="#00923E"/><path d="M243.21428571428572,40.5h6.428571428571429v59.5h-6.428571428571429Z" fill="#D2D4CE"/><path d="M250.35714285714286,39.75h6.428571428571429v60.25h-6.428571428571429Z" fill="#D2D4CE"/><path d="M257.5,39.75h6.428571428571429v60.25h-6.428571428571429Z" fill="#D2D4CE"/><path d="M264.6428571428571,26h6.428571428571429v74h-6.428571428571429Z" fill="#D2D4CE"/><path d="M271.78571428571433,25.750000000000007h6.428571428571429v74.25h-6.428571428571429Z" fill="#D2D4CE"/><path d="M278.92857142857144,25.750000000000007h6.428571428571429v74.25h-6.428571428571429Z" fill="#D2D4CE"/><path d="M286.07142857142856,14.250000000000007h6.428571428571429v85.75h-6.428571428571429Z" fill="#D2D4CE"/><path d="M293.2142857142858,8.750000000000002h6.428571428571429v91.25h-6.428571428571429Z" fill="#D2D4CE"/></g></g><path class="foreground" aria-hidden="true" d="" display="none"/></g></g></g></svg>