<svg xmlns="http://www.w3.org/2000/svg" xmlns:xlink="http://www.w3.org/1999/xlink" version="1.1" class="marks" width="310" height="110" ><g fill="none" stroke-miterlimit="10" transform="translate(5,5)"><g class="mark-group role-frame root" role="graphics-object" aria-roledescription="group mark container"><g transform="translate(0,0)"><path class="background" aria-hidden="true" d="M0,0h300v100h-300Z" stroke="#ddd" stroke-width="0"/><g><g class="mark-rect role-mark marks" role="graphics-symbol" aria-roledescription="rect mark container"><path d="M0.3571428571428612,100h6.428571428571429v0h-6.428571428571429Z" fill="#D2D4CE"/><path d="M7.500000000000004,100h6.428571428571429v0h-6.428571428571429Z" fill="#D2D4CE"/><path d="M14.642857142857148,100h6.428571428571429v0h-6.428571428571429Z" fill="#D2D4CE"/><path d="M21.785714285714292,100h6.428571428571429v0h-6.428571428571429Z" fill="#D2D4CE"/><path d="M28.928571428571434,100h6.428571428571429v0h-6.428571428571429Z" fill="#D2D4CE"/><path d="M36.07142857142858,96h6.428571428571429v4h-6.428571428571429Z" fill="#D2D4CE"/><path d="M43.21428571428572,95h6.428571428571429v5h-6.428571428571429Z" fill="#D2D4CE"/><path d="M50.35714285714286,88h6.428571428571429v12h-6.428571428571429Z" fill="#D2D4CE"/><path d="M57.50000000000001,85h6.428571428571429v15h-6.428571428571429Z" fill="#D2D4CE"/><path d="M64.64285714285715,77h6.428571428571429v23h-6.428571428571429Z" fill="#D2D4CE"/><path d="M71.78571428571429,75h6.428571428571429v25h-6.428571428571429Z" fill="#D2D4CE"/><path d="M78.92857142857143,68h6.428571428571429v32h-6.428571428571429Z" fill="#D2D4CE"/><path d="M86.07142857142858,67h6.428571428571429v33h-6.428571428571429Z" fill="#D2D4CE"/><path d="M93.21428571428572,61h6.428571428571429v39h-6.428571428571429Z" fill="#D2D4CE"/><path d="M100.35714285714286,61h6.428571428571429v39h-6.428571428571429Z" fill="#D2D4CE"/><path d="M107.50000000000001,59.00000000000001h6.428571428571429v40.99999999999999h-6.428571428571429Z" fill="#D2D4CE"/><path d="M114.64285714285715,57.00000000000001h6.428571428571429v42.99999999999999h-6.428571428571429Z" fill="#D2D4CE"/><path d="M121.78571428571429,57.00000000000001h6.428571428571429v42.99999999999999h-6.428571428571429Z" fill="#D2D4CE"/><path d="M128.92857142857144,53h6.428571428571429v47h-6.428571428571429Z" fill="#D2D4CE"/><path d="M136.07142857142858,53h6.428571428571429v47h-6.428571428571429Z" fill="#D2D4CE"/><path d="M143.21428571428572,50h6.428571428571429v50h-6.428571428571429Z" fill="#D2D4CE"/><path d="M150.35714285714286,46h6.428571428571429v54h-6.428571428571429Z" fill="#D2D4CE"/><path d="M157.5,44.99999999999999h6.428571428571429v55.00000000000001h-6.428571428571429Z" fill="#D2D4CE"/><path d="M164.64285714285717,43.00000000000001h6.428571428571429v56.99999999999999h-6.428571428571429Z" fill="#D2D4CE"/><path d="M171.7857142857143,43.00000000000001h6.428571428571429v56.99999999999999h-6.428571428571429Z" fill="#D2D4CE"/><path d="M178.92857142857144,40h6.428571428571429v60h-6.428571428571429Z" fill="#00923E"/><path d="M186.07142857142858,40h6.428571428571429v60h-6.428571428571429Z" fill="#D2D4CE"/><path d="M193.21428571428572,39h6.428571428571429v61h-6.428571428571429Z" fill="#D2D4CE"/><path d="M200.35714285714286,38h6.428571428571429v62h-6.428571428571429Z" fill="#D2D4CE"/><path d="M207.50000000000003,37h6.428571428571429v63h-6.428571428571429Z" fill="#D2D4CE"/><path d="M214.64285714285717,35h6.428571428571429v65h-6.428571428571429Z" fill="#D2D4CE"/><path d="M221.7857142857143,34h6.428571428571429v66h-6.428571428571429Z" fill="#D2D4CE"/><path d="M228.92857142857144,31.000000000000007h6.428571428571429v69h-6.428571428571429Z" fill="#D2D4CE"/><path d="M236.07142857142858,29.000000000000004h6.428571428571429v71h-6.428571428571429Z" fill="#D2D4CE"/><path d="M243.21428571428572,26h6.428571428571429v74h-6.428571428571429Z" fill="#D2D4CE"/><path d="M250.35714285714286,24h6.428571428571429v76h-6.428571428571429Z" fill="#D2D4CE"/><path d="M257.5,19.999999999999996h6.428571428571429v80h-6.428571428571429Z" fill="#D2D4CE"/><path d="M264.6428571428571,16.000000000000004h6.428571428571429v84h-6.428571428571429Z" fill="#D2D4CE"/><path d="M271.78571428571433,12h6.428571428571429v88h-6.428571428571429Z" fill="#D2D4CE"/><path d="M278.92857142857144,10.999999999999998h6.428571428571429v89h-6.428571428571429Z" fill="#D2D4CE"/><path d="M286.07142857142856,6.000000000000005h6.428571428571429v94h-6.428571428571429Z" fill="#D2D4CE"/><path d="M293.2142857142858,4.0000000000000036h6.428571428571429v96h-6.428571428571429Z" fill="#D2D4CE"/></g></g><path class="foreground" aria-hidden="true" d="" display="none"/></g></g></g></svg>