<svg xmlns="http://www.w3.org/2000/svg" xmlns:xlink="http://www.w3.org/1999/xlink" version="1.1" class="marks" width="310" height="110" ><g fill="none" stroke-miterlimit="10" transform="translate(5,5)"><g class="mark-group role-frame root" role="graphics-object" aria-roledescription="group mark container"><g transform="translate(0,0)"><path class="background" aria-hidden="true" d="M0,0h300v100h-300Z" stroke="#ddd" stroke-width="0"/><g><g class="mark-rect role-mark marks" role="graphics-symbol" aria-roledescription="rect mark container"><path d="M0.3571428571428612,78h6.428571428571429v22h-6.428571428571429Z" fill="#D2D4CE"/><path d="M7.500000000000004,76h6.428571428571429v24h-6.428571428571429Z" fill="#D2D4CE"/><path d="M14.642857142857148,76h6.428571428571429v24h-6.428571428571429Z" fill="#D2D4CE"/><path d="M21.785714285714292,74h6.428571428571429v26h-6.428571428571429Z" fill="#D2D4CE"/><path d="M28.928571428571434,65.99999999999999h6.428571428571429v34.000000000000014h-6.428571428571429Z" fill="#D2D4CE"/><path d="M36.07142857142858,65.99999999999999h6.428571428571429v34.000000000000014h-6.428571428571429Z" fill="#D2D4CE"/><path d="M43.21428571428572,64h6.428571428571429v36h-6.428571428571429Z" fill="#D2D4CE"/><path d="M50.35714285714286,64h6.428571428571429v36h-6.428571428571429Z" fill="#D2D4CE"/><path d="M57.50000000000001,64h6.428571428571429v36h-6.428571428571429Z" fill="#D2D4CE"/><path d="M64.64285714285715,62h6.428571428571429v38h-6.428571428571429Z" fill="#D2D4CE"/><path d="M71.78571428571429,60h6.428571428571429v40h-6.428571428571429Z" fill="#D2D4CE"/><path d="M78.92857142857143,60h6.428571428571429v40h-6.428571428571429Z" fill="#D2D4CE"/><path d="M86.07142857142858,60h6.428571428571429v40h-6.428571428571429Z" fill="#D2D4CE"/><path d="M93.21428571428572,58.00000000000001h6.428571428571429v41.99999999999999h-6.428571428571429Z" fill="#00923E"/><path d="M100.35714285714286,58.00000000000001h6.428571428571429v41.99999999999999h-6.428571428571429Z" fill="#D2D4CE"/><path d="M107.50000000000001,56.00000000000001h6.428571428571429v43.99999999999999h-6.428571428571429Z" fill="#D2D4CE"/><path d="M114.64285714285715,56.00000000000001h6.428571428571429v43.99999999999999h-6.428571428571429Z" fill="#D2D4CE"/><path d="M121.78571428571429,54h6.428571428571429v46h-6.428571428571429Z" fill="#D2D4CE"/><path d="M128.92857142857144,54h6.428571428571429v46h-6.428571428571429Z" fill="#D2D4CE"/><path d="M136.07142857142858,52h6.428571428571429v48h-6.428571428571429Z" fill="#D2D4CE"/><path d="M143.21428571428572,50h6.428571428571429v50h-6.428571428571429Z" fill="#D2D4CE"/><path d="M150.35714285714286,50h6.428571428571429v50h-6.428571428571429Z" fill="#D2D4CE"/><path d="M157.5,50h6.428571428571429v50h-6.428571428571429Z" fill="#D2D4CE"/><path d="M164.64285714285717,48h6.428571428571429v52h-6.428571428571429Z" fill="#D2D4CE"/><path d="M171.7857142857143,48h6.428571428571429v52h-6.428571428571429Z" fill="#D2D4CE"/><path d="M178.92857142857144,46h6.428571428571429v54h-6.428571428571429Z" fill="#D2D4CE"/><path d="M186.07142857142858,46h6.428571428571429v54h-6.428571428571429Z" fill="#D2D4CE"/><path d="M193.21428571428572,43.99999999999999h6.428571428571429v56.00000000000001h-6.428571428571429Z" fill="#D2D4CE"/><path d="M200.35714285714286,42.00000000000001h6.428571428571429v57.99999999999999h-6.428571428571429Z" fill="#D2D4CE"/><path d="M207.50000000000003,40h6.428571428571429v60h-6.428571428571429Z" fill="#D2D4CE"/><path d="M214.64285714285717,40h6.428571428571429v60h-6.428571428571429Z" fill="#D2D4CE"/><path d="M221.7857142857143,38h6.428571428571429v62h-6.428571428571429Z" fill="#D2D4CE"/><path d="M228.92857142857144,34h6.428571428571429v66h-6.428571428571429Z" fill="#D2D4CE"/><path d="M236.07142857142858,30.000000000000004h6.428571428571429v70h-6.428571428571429Z" fill="#D2D4CE"/><path d="M243.21428571428572,28.000000000000004h6.428571428571429v72h-6.428571428571429Z" fill="#D2D4CE"/><path d="M250.35714285714286,21.999999999999996h6.428571428571429v78h-6.428571428571429Z" fill="#D2D4CE"/><path d="M257.5,19.999999999999996h6.428571428571429v80h-6.428571428571429Z" fill="#D2D4CE"/><path d="M264.6428571428571,14.000000000000002h6.428571428571429v86h-6.428571428571429Z" fill="#D2D4CE"/><path d="M271.78571428571433,12h6.428571428571429v88h-6.428571428571429Z" fill="#D2D4CE"/><path d="M278.92857142857144,9.999999999999998h6.428571428571429v90h-6.428571428571429Z" fill="#D2D4CE"/><path d="M286.07142857142856,7.9999999999999964h6.428571428571429v92h-6.428571428571429Z" fill="#D2D4CE"/><path d="M293.2142857142858,0h6.428571428571429v100h-6.428571428571429Z" fill="#D2D4CE"/></g></g><path class="foreground" aria-hidden="true" d="" display="none"/></g></g></g></svg>