<svg xmlns="http://www.w3.org/2000/svg" xmlns:xlink="http://www.w3.org/1999/xlink" version="1.1" class="marks" width="310" height="110" ><g fill="none" stroke-miterlimit="10" transform="translate(5,5)"><g class="mark-group role-frame root" role="graphics-object" aria-roledescription="group mark container"><g transform="translate(0,0)"><path class="background" aria-hidden="true" d="M0,0h300v100h-300Z" stroke="#ddd" stroke-width="0"/><g><g class="mark-rect role-mark marks" role="graphics-symbol" aria-roledescription="rect mark container"><path d="M0.3571428571428612,90.57142857142857h6.428571428571429v9.42857142857143h-6.428571428571429Z" fill="#D2D4CE"/><path d="M7.500000000000004,90.42857142857143h6.428571428571429v9.57142857142857h-6.428571428571429Z" fill="#D2D4CE"/><path d="M14.642857142857148,90h6.428571428571429v10h-6.428571428571429Z" fill="#D2D4CE"/><path d="M21.785714285714292,81.14285714285714h6.428571428571429v18.85714285714286h-6.428571428571429Z" fill="#D2D4CE"/><path d="M28.928571428571434,80.85714285714286h6.428571428571429v19.14285714285714h-6.428571428571429Z" fill="#D2D4CE"/><path d="M36.07142857142858,75.71428571428571h6.428571428571429v24.285714285714292h-6.428571428571429Z" fill="#D2D4CE"/><path d="M43.21428571428572,75.57142857142857h6.428571428571429v24.42857142857143h-6.428571428571429Z" fill="#D2D4CE"/><path d="M50.35714285714286,74.42857142857143h6.428571428571429v25.57142857142857h-6.428571428571429Z" fill="#D2D4CE"/><path d="M57.50000000000001,73h6.428571428571429v27h-6.428571428571429Z" fill="#D2D4CE"/><path d="M64.64285714285715,72.28571428571429h6.428571428571429v27.714285714285708h-6.428571428571429Z" fill="#D2D4CE"/><path d="M71.78571428571429,71.14285714285715h6.428571428571429v28.857142857142847h-6.428571428571429Z" fill="#D2D4CE"/><path d="M78.92857142857143,70.57142857142857h6.428571428571429v29.42857142857143h-6.428571428571429Z" fill="#D2D4CE"/><path d="M86.07142857142858,70h6.428571428571429v30h-6.428571428571429Z" fill="#D2D4CE"/><path d="M93.21428571428572,69.85714285714286h6.428571428571429v30.14285714285714h-6.428571428571429Z" fill="#D2D4CE"/><path d="M100.35714285714286,69.28571428571428h6.428571428571429v30.714285714285722h-6.428571428571429Z" fill="#D2D4CE"/><path d="M107.50000000000001,65.85714285714286h6.428571428571429v34.14285714285714h-6.428571428571429Z" fill="#D2D4CE"/><path d="M114.64285714285715,64.42857142857143h6.428571428571429v35.57142857142857h-6.428571428571429Z" fill="#D2D4CE"/><path d="M121.78571428571429,64.14285714285714h6.428571428571429v35.85714285714286h-6.428571428571429Z" fill="#D2D4CE"/><path d="M128.92857142857144,63.857142857142854h6.428571428571429v36.142857142857146h-6.428571428571429Z" fill="#D2D4CE"/><path d="M136.07142857142858,63.42857142857143h6.428571428571429v36.57142857142857h-6.428571428571429Z" fill="#D2D4CE"/><path d="M143.21428571428572,62.71428571428571h6.428571428571429v37.28571428571429h-6.428571428571429Z" fill="#D2D4CE"/><path d="M150.35714285714286,61.857142857142854h6.428571428571429v38.142857142857146h-6.428571428571429Z" fill="#D2D4CE"/><path d="M157.5,60.857142857142854h6.428571428571429v39.142857142857146h-6.428571428571429Z" fill="#D2D4CE"/><path d="M164.64285714285717,59.71428571428572h6.428571428571429v40.28571428571428h-6.428571428571429Z" fill="#D2D4CE"/><path d="M171.7857142857143,58.857142857142854h6.428571428571429v41.142857142857146h-6.428571428571429Z" fill="#D2D4CE"/><path d="M178.92857142857144,57.57142857142858h6.428571428571429v42.42857142857142h-6.428571428571429Z" fill="#D2D4CE"/><path d="M186.07142857142858,54.57142857142857h6.428571428571429v45.42857142857143h-6.428571428571429Z" fill="#D2D4CE"/><path d="M193.21428571428572,51.714285714285715h6.428571428571429v48.285714285714285h-6.428571428571429Z" fill="#D2D4CE"/><path d="M200.35714285714286,48.28571428571428h6.428571428571429v51.71428571428572h-6.428571428571429Z" fill="#D2D4CE"/><path d="M207.50000000000003,48.142857142857146h6.428571428571429v51.857142857142854h-6.428571428571429Z" fill="#D2D4CE"/><path d="M214.64285714285717,48h6.428571428571429v52h-6.428571428571429Z" fill="#D2D4CE"/><path d="M221.7857142857143,43.714285714285715h6.428571428571429v56.285714285714285h-6.428571428571429Z" fill="#D2D4CE"/><path d="M228.92857142857144,43.285714285714285h6.428571428571429v56.714285714285715h-6.428571428571429Z" fill="#D2D4CE"/><path d="M236.07142857142858,36.57142857142858h6.428571428571429v63.42857142857142h-6.428571428571429Z" fill="#00923E"/><path d="M243.21428571428572,35.42857142857142h6.428571428571429v64.57142857142858h-6.428571428571429Z" fill="#D2D4CE"/><path d="M250.35714285714286,34.57142857142858h6.428571428571429v65.42857142857142h-6.428571428571429Z" fill="#D2D4CE"/><path d="M257.5,33.00000000000001h6.428571428571429v67h-6.428571428571429Z" fill="#D2D4CE"/><path d="M264.6428571428571,28.428571428571423h6.428571428571429v71.57142857142858h-6.428571428571429Z" fill="#D2D4CE"/><path d="M271.78571428571433,25.428571428571423h6.428571428571429v74.57142857142858h-6.428571428571429Z" fill="#D2D4CE"/><path d="M278.92857142857144,25.142857142857146h6.428571428571429v74.85714285714286h-6.428571428571429Z" fill="#D2D4CE"/><path d="M286.07142857142856,14.714285714285714h6.428571428571429v85.28571428571429h-6.428571428571429Z" fill="#D2D4CE"/><path d="M293.2142857142858,2.000000000000013h6.428571428571429v97.99999999999999h-6.428571428571429Z" fill="#D2D4CE"/></g></g><path class="foreground" aria-hidden="true" d="" display="none"/></g></g></g></svg>