<svg xmlns="http://www.w3.org/2000/svg" xmlns:xlink="http://www.w3.org/1999/xlink" version="1.1" class="marks" width="310" height="110" ><g fill="none" stroke-miterlimit="10" transform="translate(5,5)"><g class="mark-group role-frame root" role="graphics-object" aria-roledescription="group mark container"><g transform="translate(0,0)"><path class="background" aria-hidden="true" d="M0,0h300v100h-300Z" stroke="#ddd" stroke-width="0"/><g><g class="mark-rect role-mark marks" role="graphics-symbol" aria-roledescription="rect mark container"><path d="M0.3571428571428612,90.15384615384615h6.428571428571429v9.846153846153854h-6.428571428571429Z" fill="#D2D4CE"/><path d="M7.500000000000004,90.15384615384615h6.428571428571429v9.846153846153854h-6.428571428571429Z" fill="#D2D4CE"/><path d="M14.642857142857148,90h6.428571428571429v10h-6.428571428571429Z" fill="#D2D4CE"/><path d="M21.785714285714292,80.76923076923077h6.428571428571429v19.230769230769226h-6.428571428571429Z" fill="#D2D4CE"/><path d="M28.928571428571434,80.61538461538463h6.428571428571429v19.384615384615373h-6.428571428571429Z" fill="#D2D4CE"/><path d="M36.07142857142858,76.15384615384615h6.428571428571429v23.846153846153854h-6.428571428571429Z" fill="#D2D4CE"/><path d="M43.21428571428572,74.61538461538461h6.428571428571429v25.384615384615387h-6.428571428571429Z" fill="#D2D4CE"/><path d="M50.35714285714286,73.07692307692308h6.428571428571429v26.92307692307692h-6.428571428571429Z" fill="#D2D4CE"/><path d="M57.50000000000001,71.6923076923077h6.428571428571429v28.307692307692307h-6.428571428571429Z" fill="#D2D4CE"/><path d="M64.64285714285715,71.53846153846153h6.428571428571429v28.461538461538467h-6.428571428571429Z" fill="#D2D4CE"/><path d="M71.78571428571429,71.38461538461539h6.428571428571429v28.615384615384613h-6.428571428571429Z" fill="#D2D4CE"/><path d="M78.92857142857143,69.53846153846153h6.428571428571429v30.461538461538467h-6.428571428571429Z" fill="#D2D4CE"/><path d="M86.07142857142858,69.23076923076923h6.428571428571429v30.769230769230774h-6.428571428571429Z" fill="#D2D4CE"/><path d="M93.21428571428572,68.92307692307693h6.428571428571429v31.076923076923066h-6.428571428571429Z" fill="#D2D4CE"/><path d="M100.35714285714286,68.30769230769232h6.428571428571429v31.69230769230768h-6.428571428571429Z" fill="#D2D4CE"/><path d="M107.50000000000001,66.3076923076923h6.428571428571429v33.69230769230769h-6.428571428571429Z" fill="#D2D4CE"/><path d="M114.64285714285715,63.84615384615384h6.428571428571429v36.15384615384616h-6.428571428571429Z" fill="#00923E"/><path d="M121.78571428571429,63.38461538461539h6.428571428571429v36.61538461538461h-6.428571428571429Z" fill="#D2D4CE"/><path d="M128.92857142857144,62.92307692307693h6.428571428571429v37.07692307692307h-6.428571428571429Z" fill="#D2D4CE"/><path d="M136.07142857142858,62.769230769230774h6.428571428571429v37.230769230769226h-6.428571428571429Z" fill="#D2D4CE"/><path d="M143.21428571428572,61.69230769230769h6.428571428571429v38.30769230769231h-6.428571428571429Z" fill="#D2D4CE"/><path d="M150.35714285714286,60.61538461538461h6.428571428571429v39.38461538461539h-6.428571428571429Z" fill="#D2D4CE"/><path d="M157.5,60.15384615384616h6.428571428571429v39.84615384615384h-6.428571428571429Z" fill="#D2D4CE"/><path d="M164.64285714285717,59.53846153846154h6.428571428571429v40.46153846153846h-6.428571428571429Z" fill="#D2D4CE"/><path d="M171.7857142857143,59.07692307692307h6.428571428571429v40.92307692307693h-6.428571428571429Z" fill="#D2D4CE"/><path d="M178.92857142857144,58.00000000000001h6.428571428571429v41.99999999999999h-6.428571428571429Z" fill="#D2D4CE"/><path d="M186.07142857142858,57.07692307692308h6.428571428571429v42.92307692307692h-6.428571428571429Z" fill="#D2D4CE"/><path d="M193.21428571428572,50.92307692307693h6.428571428571429v49.07692307692307h-6.428571428571429Z" fill="#D2D4CE"/><path d="M200.35714285714286,50.46153846153846h6.428571428571429v49.53846153846154h-6.428571428571429Z" fill="#D2D4CE"/><path d="M207.50000000000003,47.53846153846154h6.428571428571429v52.46153846153846h-6.428571428571429Z" fill="#D2D4CE"/><path d="M214.64285714285717,47.53846153846154h6.428571428571429v52.46153846153846h-6.428571428571429Z" fill="#D2D4CE"/><path d="M221.7857142857143,44.15384615384615h6.428571428571429v55.84615384615385h-6.428571428571429Z" fill="#D2D4CE"/><path d="M228.92857142857144,41.53846153846153h6.428571428571429v58.46153846153847h-6.428571428571429Z" fill="#D2D4CE"/><path d="M236.07142857142858,37.07692307692307h6.428571428571429v62.92307692307693h-6.428571428571429Z" fill="#D2D4CE"/><path d="M243.21428571428572,35.6923076923077h6.428571428571429v64.30769230769229h-6.428571428571429Z" fill="#D2D4CE"/><path d="M250.35714285714286,33.23076923076923h6.428571428571429v66.76923076923077h-6.428571428571429Z" fill="#D2D4CE"/><path d="M257.5,32.15384615384615h6.428571428571429v67.84615384615384h-6.428571428571429Z" fill="#D2D4CE"/><path d="M264.6428571428571,28.46153846153846h6.428571428571429v71.53846153846155h-6.428571428571429Z" fill="#D2D4CE"/><path d="M271.78571428571433,27.538461538461533h6.428571428571429v72.46153846153847h-6.428571428571429Z" fill="#D2D4CE"/><path d="M278.92857142857144,24.307692307692307h6.428571428571429v75.6923076923077h-6.428571428571429Z" fill="#D2D4CE"/><path d="M286.07142857142856,12.307692307692308h6.428571428571429v87.6923076923077h-6.428571428571429Z" fill="#D2D4CE"/><path d="M293.2142857142858,0.4615384615384577h6.428571428571429v99.53846153846155h-6.428571428571429Z" fill="#D2D4CE"/></g></g><path class="foreground" aria-hidden="true" d="" display="none"/></g></g></g></svg>