<svg xmlns="http://www.w3.org/2000/svg" xmlns:xlink="http://www.w3.org/1999/xlink" version="1.1" class="marks" width="310" height="110" ><g fill="none" stroke-miterlimit="10" transform="translate(5,5)"><g class="mark-group role-frame root" role="graphics-object" aria-roledescription="group mark container"><g transform="translate(0,0)"><path class="background" aria-hidden="true" d="M0,0h300v100h-300Z" stroke="#ddd" stroke-width="0"/><g><g class="mark-rect role-mark marks" role="graphics-symbol" aria-roledescription="rect mark container"><path d="M0.3571428571428612,83.07692307692307h6.428571428571429v16.923076923076934h-6.428571428571429Z" fill="#D2D4CE"/><path d="M7.500000000000004,80h6.428571428571429v20h-6.428571428571429Z" fill="#D2D4CE"/><path d="M14.642857142857148,80h6.428571428571429v20h-6.428571428571429Z" fill="#D2D4CE"/><path d="M21.785714285714292,78.46153846153847h6.428571428571429v21.538461538461533h-6.428571428571429Z" fill="#D2D4CE"/><path d="M28.928571428571434,72.3076923076923h6.428571428571429v27.692307692307693h-6.428571428571429Z" fill="#D2D4CE"/><path d="M36.07142857142858,72.3076923076923h6.428571428571429v27.692307692307693h-6.428571428571429Z" fill="#D2D4CE"/><path d="M43.21428571428572,72.3076923076923h6.428571428571429v27.692307692307693h-6.428571428571429Z" fill="#D2D4CE"/><path d="M50.35714285714286,67.6923076923077h6.428571428571429v32.30769230769231h-6.428571428571429Z" fill="#D2D4CE"/><path d="M57.50000000000001,66.15384615384615h6.428571428571429v33.846153846153854h-6.428571428571429Z" fill="#D2D4CE"/><path d="M64.64285714285715,66.15384615384615h6.428571428571429v33.846153846153854h-6.428571428571429Z" fill="#D2D4CE"/><path d="M71.78571428571429,64.61538461538461h6.428571428571429v35.38461538461539h-6.428571428571429Z" fill="#00923E"/><path d="M78.92857142857143,63.07692307692307h6.428571428571429v36.92307692307693h-6.428571428571429Z" fill="#D2D4CE"/><path d="M86.07142857142858,63.07692307692307h6.428571428571429v36.92307692307693h-6.428571428571429Z" fill="#D2D4CE"/><path d="M93.21428571428572,63.07692307692307h6.428571428571429v36.92307692307693h-6.428571428571429Z" fill="#D2D4CE"/><path d="M100.35714285714286,61.53846153846154h6.428571428571429v38.46153846153846h-6.428571428571429Z" fill="#D2D4CE"/><path d="M107.50000000000001,61.53846153846154h6.428571428571429v38.46153846153846h-6.428571428571429Z" fill="#D2D4CE"/><path d="M114.64285714285715,56.92307692307692h6.428571428571429v43.07692307692308h-6.428571428571429Z" fill="#D2D4CE"/><path d="M121.78571428571429,55.38461538461539h6.428571428571429v44.61538461538461h-6.428571428571429Z" fill="#D2D4CE"/><path d="M128.92857142857144,55.38461538461539h6.428571428571429v44.61538461538461h-6.428571428571429Z" fill="#D2D4CE"/><path d="M136.07142857142858,55.38461538461539h6.428571428571429v44.61538461538461h-6.428571428571429Z" fill="#D2D4CE"/><path d="M143.21428571428572,55.38461538461539h6.428571428571429v44.61538461538461h-6.428571428571429Z" fill="#D2D4CE"/><path d="M150.35714285714286,55.38461538461539h6.428571428571429v44.61538461538461h-6.428571428571429Z" fill="#D2D4CE"/><path d="M157.5,53.84615384615385h6.428571428571429v46.15384615384615h-6.428571428571429Z" fill="#D2D4CE"/><path d="M164.64285714285717,52.3076923076923h6.428571428571429v47.6923076923077h-6.428571428571429Z" fill="#D2D4CE"/><path d="M171.7857142857143,50.76923076923077h6.428571428571429v49.23076923076923h-6.428571428571429Z" fill="#D2D4CE"/><path d="M178.92857142857144,46.15384615384615h6.428571428571429v53.84615384615385h-6.428571428571429Z" fill="#D2D4CE"/><path d="M186.07142857142858,46.15384615384615h6.428571428571429v53.84615384615385h-6.428571428571429Z" fill="#D2D4CE"/><path d="M193.21428571428572,44.61538461538461h6.428571428571429v55.38461538461539h-6.428571428571429Z" fill="#D2D4CE"/><path d="M200.35714285714286,43.07692307692308h6.428571428571429v56.92307692307692h-6.428571428571429Z" fill="#D2D4CE"/><path d="M207.50000000000003,41.53846153846153h6.428571428571429v58.46153846153847h-6.428571428571429Z" fill="#D2D4CE"/><path d="M214.64285714285717,38.46153846153846h6.428571428571429v61.53846153846154h-6.428571428571429Z" fill="#D2D4CE"/><path d="M221.7857142857143,36.92307692307693h6.428571428571429v63.07692307692307h-6.428571428571429Z" fill="#D2D4CE"/><path d="M228.92857142857144,36.92307692307693h6.428571428571429v63.07692307692307h-6.428571428571429Z" fill="#D2D4CE"/><path d="M236.07142857142858,32.30769230769231h6.428571428571429v67.6923076923077h-6.428571428571429Z" fill="#D2D4CE"/><path d="M243.21428571428572,30.76923076923077h6.428571428571429v69.23076923076923h-6.428571428571429Z" fill="#D2D4CE"/><path d="M250.35714285714286,29.230769230769226h6.428571428571429v70.76923076923077h-6.428571428571429Z" fill="#D2D4CE"/><path d="M257.5,29.230769230769226h6.428571428571429v70.76923076923077h-6.428571428571429Z" fill="#D2D4CE"/><path d="M264.6428571428571,21.53846153846154h6.428571428571429v78.46153846153845h-6.428571428571429Z" fill="#D2D4CE"/><path d="M271.78571428571433,15.384615384615385h6.428571428571429v84.61538461538461h-6.428571428571429Z" fill="#D2D4CE"/><path d="M278.92857142857144,9.230769230769232h6.428571428571429v90.76923076923077h-6.428571428571429Z" fill="#D2D4CE"/><path d="M286.07142857142856,6.153846153846154h6.428571428571429v93.84615384615384h-6.428571428571429Z" fill="#D2D4CE"/><path d="M293.2142857142858,3.076923076923077h6.428571428571429v96.92307692307692h-6.428571428571429Z" fill="#D2D4CE"/></g></g><path class="foreground" aria-hidden="true" d="" display="none"/></g></g></g></svg>